<?xml version="1.0" encoding="UTF-8"?>
<svg width="32px" height="32px" viewBox="0 0 32 32" version="1.1" xmlns="http://www.w3.org/2000/svg" xmlns:xlink="http://www.w3.org/1999/xlink">
    <!-- Generator: Sketch 59.1 (86144) - https://sketch.com -->
    <title>box</title>
    <desc>Created with Sketch.</desc>
    <defs>
        <rect id="path-1" x="0" y="0" width="1168" height="278" rx="6"></rect>
        <filter x="-0.3%" y="-0.9%" width="100.6%" height="102.5%" filterUnits="objectBoundingBox" id="filter-2">
            <feOffset dx="0" dy="1" in="SourceAlpha" result="shadowOffsetOuter1"></feOffset>
            <feGaussianBlur stdDeviation="1" in="shadowOffsetOuter1" result="shadowBlurOuter1"></feGaussianBlur>
            <feColorMatrix values="0 0 0 0 0   0 0 0 0 0   0 0 0 0 0  0 0 0 0.25 0" type="matrix" in="shadowBlurOuter1"></feColorMatrix>
        </filter>
    </defs>
    <g id="App-KIT-FInal" stroke="none" stroke-width="1" fill="none" fill-rule="evenodd">
        <g id="App-Kit-/-Landingpage-v2-Copy-4" transform="translate(-868.000000, -455.000000)">
            <g id="Component-/-View-/-Card" transform="translate(56.000000, 407.000000)">
                <g id="Background">
                    <use fill="black" fill-opacity="1" filter="url(#filter-2)" xlink:href="#path-1"></use>
                    <use fill="#FFFFFF" fill-rule="evenodd" xlink:href="#path-1"></use>
                </g>
            </g>
            <g id="Group-2" transform="translate(118.000000, 455.000000)"></g>
            <g id="Component-/-icon-/-24px-/-zero_config" transform="translate(868.000000, 455.000000)" fill="#42788A">
                <path d="M25.4598213,24.9181451 L6.46009331,24.9181451 C5.08142824,24.9181451 3.95995732,23.7728117 3.95995732,22.3648117 L3.95995732,10.1101451 C3.95995732,8.70214507 5.08142824,7.55681174 6.46009331,7.55681174 L7.46014771,7.55681174 L7.46014771,8.57814507 L6.46009331,8.57814507 C5.63237205,8.57814507 4.96001171,9.26481174 4.96001171,10.1101451 L4.96001171,22.3648117 C4.96001171,23.2101451 5.63237205,23.8968117 6.46009331,23.8968117 L25.4598213,23.8968117 C26.286237,23.8968117 26.9599029,23.2101451 26.9599029,22.3648117 L26.9599029,10.1101451 C26.9599029,9.26481174 26.286237,8.57814507 25.4598213,8.57814507 L24.4597669,8.57814507 L24.4597669,7.55681174 L25.4598213,7.55681174 C26.8384864,7.55681174 27.9599573,8.70214507 27.9599573,10.1101451 L27.9599573,22.3648117 C27.9599573,23.7728117 26.8384864,24.9181451 25.4598213,24.9181451" id="Fill-1"></path>
                <polygon id="Fill-4" points="10.5984906 27.9820117 21.831824 27.9820117 21.831824 26.9606784 10.5984906 26.9606784"></polygon>
                <polygon id="Fill-6" points="12.1291573 27.4713451 13.1504906 27.4713451 13.1504906 24.4073451 12.1291573 24.4073451"></polygon>
                <polygon id="Fill-7" points="19.2784906 27.4713451 20.299824 27.4713451 20.299824 24.4073451 19.2784906 24.4073451"></polygon>
                <path d="M16.1318908,7.34502287 C15.9652241,7.34502287 15.7958908,7.3543562 15.6265574,7.37302287 C13.7025574,7.59168954 12.1292241,9.14102287 11.8838908,11.0583562 C11.6372241,12.9956895 12.7225574,14.8583562 14.5225574,15.5890229 C14.7532241,15.6810229 14.9052241,15.9050229 14.9052241,16.1543562 L14.9052241,18.9583562 C14.9052241,19.2956895 15.1785574,19.5690229 15.5158908,19.5690229 L16.7385574,19.5690229 C17.0758908,19.5690229 17.3492241,19.2956895 17.3492241,18.9583562 L17.3492241,16.1543562 C17.3492241,15.9050229 17.4998908,15.6810229 17.7305574,15.5890229 C19.3558908,14.9290229 20.4052241,13.3730229 20.4052241,11.6236895 C20.4052241,10.4063562 19.8838908,9.24368954 18.9758908,8.43168954 C18.1812241,7.7223562 17.1865574,7.34502287 16.1318908,7.34502287 M16.7385574,20.7916895 L15.5158908,20.7916895 C14.5038908,20.7916895 13.6825574,19.9690229 13.6825574,18.9583562 L13.6825574,16.5490229 C11.5985574,15.5143562 10.3732241,13.2516895 10.6718908,10.9036895 C10.9865574,8.4343562 13.0118908,6.4383562 15.4892241,6.1583562 C17.0558908,5.9823562 18.6238908,6.4783562 19.7905574,7.51968954 C20.9585574,8.56368954 21.6278908,10.0596895 21.6278908,11.6236895 C21.6278908,13.7343562 20.4412241,15.6250229 18.5718908,16.5503562 L18.5718908,18.9583562 C18.5718908,19.9690229 17.7492241,20.7916895 16.7385574,20.7916895" id="Fill-8"></path>
                <polygon id="Fill-9" points="14.2936241 18.3474229 17.9602908 18.3474229 17.9602908 17.1247562 14.2936241 17.1247562"></polygon>
                <polygon id="Fill-10" points="15.5149574 17.7354229 16.7376241 17.7354229 16.7376241 12.8460895 15.5149574 12.8460895"></polygon>
                <path d="M16.1273574,10.4035562 C15.7073574,10.4035562 15.3646908,10.7462229 15.3646908,11.1675562 C15.3646908,11.5875562 15.7073574,11.9302229 16.1273574,11.9302229 C16.5486908,11.9302229 16.8913574,11.5875562 16.8913574,11.1675562 C16.8913574,10.7462229 16.5486908,10.4035562 16.1273574,10.4035562 M16.1273574,13.4582229 C14.8646908,13.4582229 13.8380241,12.4302229 13.8380241,11.1675562 C13.8380241,9.9035562 14.8646908,8.87688954 16.1273574,8.87688954 C17.3900241,8.87688954 18.4180241,9.9035562 18.4180241,11.1675562 C18.4180241,12.4302229 17.3900241,13.4582229 16.1273574,13.4582229" id="Fill-11"></path>
            </g>
        </g>
    </g>
</svg>