<?xml version="1.0" encoding="UTF-8"?>
<svg width="28px" height="32px" viewBox="0 0 28 32" version="1.1" xmlns="http://www.w3.org/2000/svg" xmlns:xlink="http://www.w3.org/1999/xlink">
    <!-- Generator: Sketch 59.1 (86144) - https://sketch.com -->
    <title>CT_cube_darkblue_RGB-01</title>
    <desc>Created with Sketch.</desc>
    <g id="App-KIT-FInal" stroke="none" stroke-width="1" fill="none" fill-rule="evenodd">
        <g id="App-Kit-/-Landingpage-v2-Copy-4" transform="translate(-16.000000, -8.000000)" fill="#2A4148" fill-rule="nonzero">
            <g id="CT_cube_darkblue_RGB-01" transform="translate(16.000000, 8.000000)">
                <path d="M27.3765258,24 L14.715493,18.0976526 C14.6140845,18.0507042 14.5051643,18.0150235 14.3962441,17.9868545 L14.3962441,17.9361502 L14.3962441,14.4056338 C14.3962441,14.056338 14.4093897,14.0507042 14.6347418,13.9455399 L14.6347418,13.9455399 L15.1380282,13.7126761 C15.9868545,13.3183099 15.9868545,13.3183099 20.9784038,10.9821596 L27.3784038,7.98497653 C27.7483568,7.81220657 27.9868545,7.43474178 27.9868545,7.02723005 C27.9868545,6.61784038 27.7464789,6.24225352 27.3765258,6.06948357 L14.713615,0.169014085 C14.2553991,-0.0450704225 13.7295775,-0.0450704225 13.2694836,0.16713615 L0.612206573,6.05258216 C0.244131455,6.22347418 0.00375586854,6.5971831 0,7.00469484 L0,7.00469484 L0,24.9389671 L0,24.9389671 C0,25.3483568 0.238497653,25.7239437 0.608450704,25.8967136 L13.284507,31.8309859 C13.3840376,31.8779343 13.485446,31.9117371 13.5906103,31.9380282 L13.5906103,31.9830986 L13.9849765,31.9906103 C13.9962441,31.9906103 14.0056338,31.9906103 14.0169014,31.9906103 C14.0169014,31.9906103 14.0169014,31.9906103 14.0187793,31.9906103 L14.3962441,31.9943662 L14.3962441,31.9474178 C14.5126761,31.9211268 14.629108,31.8816901 14.7380282,31.8309859 L27.3784038,25.913615 C27.7483568,25.7408451 27.9868545,25.3633803 27.9868545,24.9558685 C27.9868545,24.5483568 27.7464789,24.17277 27.3765258,24 Z M0.805633803,23.8910798 L0.805633803,8.0600939 L13.286385,13.9023474 C13.3896714,13.9511737 13.4967136,13.9887324 13.6075117,14.0150235 C13.6112676,14.0150235 13.6150235,14.0187793 13.6187793,14.0187793 C13.5981221,14.1352113 13.5924883,14.2647887 13.5924883,14.4056338 L13.5924883,17.9380282 L13.5924883,17.9849765 C13.5849765,17.9868545 13.5774648,17.9906103 13.5680751,17.9924883 C13.4666667,18.0187793 13.3671362,18.0507042 13.2713615,18.0957746 L0.805633803,23.8910798 Z M0.950234742,6.78309859 L13.6093897,0.899530516 C13.7314554,0.843192488 13.8610329,0.815023474 13.9906103,0.815023474 C14.1220657,0.815023474 14.2516432,0.843192488 14.3737089,0.899530516 L27.0347418,6.80187793 C27.1230047,6.84319249 27.1793427,6.93333333 27.1793427,7.03098592 C27.1793427,7.1286385 27.1230047,7.21690141 27.0347418,7.25821596 L20.6366197,10.2535211 C15.6450704,12.5896714 15.6450704,12.5896714 14.7981221,12.9840376 L14.3211268,13.2056338 C14.285446,13.2187793 14.2497653,13.2262911 14.2140845,13.2356808 C14.1971831,13.2394366 14.1821596,13.2450704 14.1652582,13.2488263 C14.1126761,13.258216 14.056338,13.2619718 13.9981221,13.2600939 C13.8685446,13.258216 13.7446009,13.2300469 13.6262911,13.1755869 L0.950234742,7.23755869 C0.927699531,7.22816901 0.908920188,7.21502347 0.892018779,7.2 C0.83943662,7.15305164 0.807511737,7.08544601 0.805633803,7.01032864 C0.805633803,6.91267606 0.863849765,6.82253521 0.950234742,6.78309859 Z M0.950234742,25.1680751 C0.861971831,25.1267606 0.805633803,25.0366197 0.805633803,24.9389671 C0.805633803,24.914554 0.809389671,24.8901408 0.815023474,24.8676056 C0.835680751,24.8 0.884507042,24.741784 0.950234742,24.7117371 L13.5887324,18.8375587 L13.5887324,31.085446 L0.950234742,25.1680751 Z M27.0366197,25.1849765 L14.3962441,31.1023474 C14.3962441,31.1023474 14.3962441,31.1023474 14.3943662,31.1023474 L14.3943662,18.8375587 L27.0347418,24.7286385 C27.1230047,24.7699531 27.1793883,24.8600939 27.1793883,24.9577465 C27.1812207,25.0553991 27.1248826,25.143662 27.0366197,25.1849765 Z" id="XMLID_165_"></path>
            </g>
        </g>
    </g>
</svg>