<svg xmlns="http://www.w3.org/2000/svg" xmlns:xlink="http://www.w3.org/1999/xlink" viewBox="0 0 416 261"><defs><style>.cls-1{fill:none;}.cls-2{fill:#ccc;}.cls-3{clip-path:url(#clip-path);}.cls-4{fill:#f2f2f2;}.cls-5{fill:#fff;}.cls-6{fill:#a8dbd5;}.cls-7{fill:#00b49f;}</style><clipPath id="clip-path"><circle class="cls-1" cx="192.36" cy="124.39" r="104.75"/></clipPath></defs><title>application</title><g id="Ebene_2" data-name="Ebene 2"><circle class="cls-2" cx="192.47" cy="124.28" r="104.75"/><path d="M192.47,229.58a105.32,105.32,0,0,1-41-202.32,105.33,105.33,0,0,1,82,194.05A104.63,104.63,0,0,1,192.47,229.58Zm0-209.49a104.22,104.22,0,0,0-40.56,200.2A104.22,104.22,0,0,0,233,28.28,103.39,103.39,0,0,0,192.47,20.09Z"/><g class="cls-3"><rect class="cls-4" x="124.51" y="207.26" width="131.93" height="28.73"/><path d="M257,236.54H124V206.71H257Zm-131.92-1.1H255.89V207.81H125.07Z"/><rect class="cls-4" x="114.13" y="201.52" width="154.91" height="5.97"/><path d="M269.59,208h-156V201h156Zm-154.91-1.11H268.49v-4.86H114.68Z"/></g><path d="M192.47,229.58a105.32,105.32,0,0,1-41-202.32,105.33,105.33,0,0,1,82,194.05A104.63,104.63,0,0,1,192.47,229.58Zm0-209.49a104.22,104.22,0,0,0-40.56,200.2A104.22,104.22,0,0,0,233,28.28,103.39,103.39,0,0,0,192.47,20.09Z"/><path class="cls-5" d="M243.71,189a7.81,7.81,0,0,1,7.53,5.38,2.4,2.4,0,0,0,2.44,1.78l.79,0a2.47,2.47,0,0,0,2.27-3.12,13.55,13.55,0,0,0-13-9.82,13.85,13.85,0,0,0-8.11,2.65,1.3,1.3,0,0,1-1.81-.28,15.58,15.58,0,0,0-12.63-6.29,16,16,0,0,0-14.56,9.52,1.31,1.31,0,0,1-1,.76A16.14,16.14,0,0,0,194,197.89a1.31,1.31,0,0,0,.68,1.82l2.93,1.19a1.32,1.32,0,0,0,1.66-.57,10.19,10.19,0,0,1,9-5.22h1.53A1.31,1.31,0,0,0,211,194l.24-1.25A10,10,0,0,1,231.2,195a9.3,9.3,0,0,1-.17,1.83,1.31,1.31,0,0,0,.87,1.47l3.09,1.06a1.32,1.32,0,0,0,1.71-.94,12.43,12.43,0,0,0,.32-3.28,10.27,10.27,0,0,0-.09-1.75,1.31,1.31,0,0,1,.2-.86A7.56,7.56,0,0,1,243.71,189Z"/><path d="M252.09,107.13l-8.43-12.71-8.37-12.74-4.21-6.35L229,72.14c-.69-1.07-1.37-2.15-2.05-3.22l-2-3.24c-.66-1.09-1.33-2.17-2-3.26-1.31-2.18-2.59-4.37-3.84-6.59a.05.05,0,0,1,0-.08.07.07,0,0,1,.07,0c1.5,2.06,3,4.13,4.4,6.23.72,1,1.42,2.11,2.14,3.16l2.11,3.17c.7,1.06,1.4,2.12,2.08,3.19l2,3.22,4,6.47,8.1,12.92,8.06,12.94a0,0,0,0,1,0,.07A0,0,0,0,1,252.09,107.13Z"/><path d="M147.26,98.61,141,89.24l-6.24-9.41-3.14-4.69q-1.56-2.36-3-4.75L127.08,68c-.49-.81-1-1.61-1.45-2.42-.95-1.63-1.89-3.26-2.77-4.93a0,0,0,0,1,0-.07,0,0,0,0,1,.07,0c1.15,1.5,2.25,3,3.33,4.57l1.61,2.32,1.58,2.34q1.56,2.36,3,4.75l3,4.81,6,9.58,5.92,9.62a.07.07,0,0,1,0,.07A.05.05,0,0,1,147.26,98.61Z"/><path d="M269.29,109.31,263,99.93l-6.24-9.4-3.14-4.7q-1.57-2.34-3.06-4.74l-1.47-2.41c-.48-.81-1-1.61-1.44-2.43-.95-1.62-1.89-3.26-2.77-4.92a.05.05,0,0,1,0-.08.07.07,0,0,1,.07,0c1.15,1.5,2.24,3,3.33,4.57.54.77,1.07,1.55,1.6,2.32l1.58,2.34c1,1.56,2.06,3.15,3,4.75l3,4.8,6,9.59,5.91,9.61a.06.06,0,0,1,0,.08A.08.08,0,0,1,269.29,109.31Z"/><path d="M147.26,166.5,141,157.13l-6.24-9.41L131.6,143q-1.56-2.35-3-4.75l-1.47-2.41c-.49-.81-1-1.61-1.45-2.42-.95-1.63-1.89-3.26-2.77-4.93a0,0,0,0,1,0-.07,0,0,0,0,1,.07,0c1.15,1.5,2.25,3,3.33,4.57l1.61,2.32,1.58,2.34q1.56,2.35,3,4.75l3,4.81,6,9.58,5.92,9.61a.08.08,0,0,1,0,.08A.05.05,0,0,1,147.26,166.5Z"/><path class="cls-5" d="M134.09,198h5.39a.21.21,0,0,0,.21-.21,8.44,8.44,0,0,1,8.44-8.22h0a7.4,7.4,0,0,1,3.05.58l2.29.94a.23.23,0,0,0,.28-.11l1.07-2.28h0a8,8,0,0,1,7-4.22,7.71,7.71,0,0,1,7.71,7.28l.27,3.64a.23.23,0,0,0,.3.19l3.34-1.21h0l2-.28h0a6.11,6.11,0,0,1,6.09,6.11v.29h5.6a.22.22,0,0,0,.22-.22h0a12.15,12.15,0,0,0-12.15-12.15h-.35a.23.23,0,0,1-.21-.15,13.53,13.53,0,0,0-12.9-9.31A13.24,13.24,0,0,0,151.11,184a.23.23,0,0,1-.19.09l-2.78-.28h0a10.79,10.79,0,0,0-3.57.51.21.21,0,0,1-.27-.13,13.7,13.7,0,0,0-12.74-9,13.4,13.4,0,0,0-12.12,7.22.23.23,0,0,0,.1.3l4.85,2.43a.22.22,0,0,0,.29-.1,7.71,7.71,0,0,1,6.88-4,7.59,7.59,0,0,1,7.4,5.84.23.23,0,0,1-.07.21,14.71,14.71,0,0,0-5,10.75A.21.21,0,0,0,134.09,198Z"/><path class="cls-6" d="M204.56,159.37a29.82,29.82,0,0,1,5.11,17.24c0,13.46-15.65,24.37-17.45,24.37s-17.45-10.91-17.45-24.37a29.82,29.82,0,0,1,5.11-17.24Z"/><path class="cls-7" d="M199.39,159.37a16.77,16.77,0,0,1,2.89,9.72c0,7.6-8.83,13.75-9.85,13.75s-9.84-6.15-9.84-13.75a16.84,16.84,0,0,1,2.88-9.72Z"/><path class="cls-7" d="M205.76,149.2c7.86-15.26,12.94-40.81,12.94-61.07,0-30.37-23.14-40.63-26.23-40.63s-26.73,10.26-26.73,40.63c0,19.9,5.09,45.64,12.72,61Z"/><path d="M206,149.64l-27.84-.06-.12-.24c-7.4-14.91-12.77-40.65-12.77-61.21,0-16.16,6.71-26.33,12.34-32,6.39-6.45,13.11-9,14.83-9s8.33,2.6,14.59,9c5.5,5.68,12.07,15.84,12.07,32,0,21.23-5.34,46.43-13,61.27Zm-27.3-.93,26.77,0C213,134,218.26,109.12,218.26,88.13c0-15.87-6.43-25.84-11.83-31.4-6-6.18-12.41-8.79-14-8.79-1.16,0-7.68,2.2-14.21,8.79-5.51,5.57-12.08,15.54-12.08,31.4C166.18,108.46,171.45,133.87,178.73,148.71Z"/><path d="M200.94,159.37H183.49a5.13,5.13,0,0,1-5.11-5.11l-3-12.34h33.7l-3,12.34A5.13,5.13,0,0,1,200.94,159.37Z"/><path d="M200.94,159.81H183.49a5.56,5.56,0,0,1-5.55-5.5l-3.13-12.83h34.81l-3.13,12.83A5.55,5.55,0,0,1,200.94,159.81Zm-25-17.45,2.89,11.84v.06a4.69,4.69,0,0,0,4.68,4.68h17.45a4.69,4.69,0,0,0,4.68-4.68v-.06l2.89-11.84Z"/><path class="cls-7" d="M175.37,142.52l-10.83,5.42c-2.41,1.2-8.43,11.43-8.43,12.64s-4.81,0-4.81,0-1.81-16.85-2.41-20.46,18.66-28.89,18.66-28.89Z"/><path d="M154.8,161.54a17.33,17.33,0,0,1-3.61-.54l-.29-.07,0-.31c0-.17-1.81-16.88-2.4-20.43-.1-.6-.41-2.43,9.17-16.12,4.69-6.7,9.52-13,9.57-13.1l.55-.73,8.13,32.52-11.15,5.57c-2.24,1.12-8.14,11.15-8.18,12.25a.82.82,0,0,1-.33.65A2.42,2.42,0,0,1,154.8,161.54Zm-3.1-1.32c1.84.43,3.66.59,4,.33.06-1.44,6.07-11.71,8.66-13l10.52-5.26-7.52-30.07c-7.67,10.12-18.43,25.37-18,27.82C149.87,143.36,151.45,157.92,151.7,160.22Z"/><path class="cls-6" d="M167.93,124.76s-5.47,6.76-7.55,7.49-7.28,6.92-7.28,7.65.06,12,.06,12-1.56-10.2-2.08-12.39,15.52-22.29,15.52-22.29Z"/><path class="cls-7" d="M209.05,142.52l10.83,5.42c2.41,1.2,8.43,11.43,8.43,12.64s4.81,0,4.81,0,1.81-16.85,2.41-20.46-18.65-28.89-18.65-28.89Z"/><path d="M229.62,161.54a2.42,2.42,0,0,1-1.42-.31.82.82,0,0,1-.33-.65c0-1.1-5.94-11.13-8.18-12.25l-11.15-5.57,8.13-32.52.55.73c.05.06,4.88,6.4,9.57,13.1,9.58,13.69,9.27,15.52,9.17,16.12-.59,3.55-2.38,20.26-2.4,20.43l0,.31-.3.07A17.33,17.33,0,0,1,229.62,161.54Zm-.87-1c.31.26,2.13.1,4-.33.25-2.3,1.83-16.86,2.38-20.18.41-2.45-10.35-17.7-18-27.82l-7.52,30.07,10.52,5.26C222.67,148.84,228.68,159.11,228.75,160.55Z"/><path d="M192.22,89.4a14.28,14.28,0,1,1,14.27-14.27A14.29,14.29,0,0,1,192.22,89.4Zm0-27.68a13.41,13.41,0,1,0,13.4,13.41A13.42,13.42,0,0,0,192.22,61.72Z"/><circle class="cls-6" cx="192.22" cy="75.13" r="12.64"/><ellipse class="cls-7" cx="189.51" cy="70.31" rx="6.02" ry="5.12" transform="translate(32.28 197.34) rotate(-59.29)"/><rect x="183.79" y="122.83" width="16.85" height="0.87"/><rect x="183.79" y="127.64" width="16.85" height="0.87"/><rect x="183.79" y="132.46" width="16.85" height="0.87"/><path class="cls-6" d="M192.22,49.25s-35.51,17.34-13.17,91.47h-2.29S150.42,64.19,192.22,49.25Z"/><path class="cls-6" d="M216.5,124.76s5.47,6.76,7.55,7.49,7.28,6.92,7.28,7.65-.05,12-.05,12,1.55-10.2,2.07-12.39-15.51-22.29-15.51-22.29Z"/><circle cx="167.98" cy="36.92" r="2.62"/><circle cx="269.38" cy="128.71" r="2.62"/><circle cx="129.23" cy="104.48" r="2.62"/><circle cx="238.6" cy="52.74" r="2.62"/></g></svg>