<svg xmlns="http://www.w3.org/2000/svg" xmlns:xlink="http://www.w3.org/1999/xlink" viewBox="0 0 416 261"><defs><style>.cls-1{fill:none;}.cls-2{fill:#ccc;}.cls-3{clip-path:url(#clip-path);}.cls-4{fill:#f2f2f2;}.cls-5{fill:#fff;}.cls-6{fill:#a8dbd5;}.cls-7{fill:#00b49f;}</style><clipPath id="clip-path"><circle class="cls-1" cx="192.36" cy="121.39" r="104.75"/></clipPath></defs><title>application</title><g id="Ebene_2" data-name="Ebene 2"><circle class="cls-2" cx="192.47" cy="121.28" r="104.75"/><path d="M192.47,226.58a105.32,105.32,0,0,1-41-202.32,105.33,105.33,0,0,1,82,194.05A104.63,104.63,0,0,1,192.47,226.58Zm0-209.49a104.22,104.22,0,0,0-40.56,200.2A104.22,104.22,0,0,0,233,25.28,103.39,103.39,0,0,0,192.47,17.09Z"/><g class="cls-3"><rect class="cls-4" x="124.51" y="204.26" width="131.93" height="28.73"/><path d="M257,233.54H124V203.71H257Zm-131.92-1.1H255.89V204.81H125.07Z"/><rect class="cls-4" x="114.13" y="198.52" width="154.91" height="5.97"/><path d="M269.59,205h-156V198h156Zm-154.91-1.11H268.49v-4.86H114.68Z"/></g><path d="M192.47,226.58a105.32,105.32,0,0,1-41-202.32,105.33,105.33,0,0,1,82,194.05A104.63,104.63,0,0,1,192.47,226.58Zm0-209.49a104.22,104.22,0,0,0-40.56,200.2A104.22,104.22,0,0,0,233,25.28,103.39,103.39,0,0,0,192.47,17.09Z"/></g><g id="Ebene_11" data-name="Ebene 11"><path class="cls-5" d="M141.74,50.42H249.84a0,0,0,0,1,0,0V168.36a30,30,0,0,1-30,30H171.74a30,30,0,0,1-30-30V50.42a0,0,0,0,1,0,0Z"/><path d="M243.48,198.79H148.1a6.79,6.79,0,0,1-6.78-6.78V50H250.26V192A6.79,6.79,0,0,1,243.48,198.79ZM142.17,50.85V192a5.94,5.94,0,0,0,5.93,5.93h95.38a5.94,5.94,0,0,0,5.93-5.93V50.85Z"/><rect class="cls-5" x="141.74" y="50.42" width="108.09" height="10.17"/><path d="M250.26,61H141.32V50H250.26Zm-108.09-.85H249.41V50.85H142.17Z"/><rect class="cls-6" x="145.77" y="53.18" width="4.66" height="4.66"/><rect class="cls-6" x="210.84" y="53.18" width="26.28" height="4.66" rx="2.33"/><circle class="cls-6" cx="243.37" cy="55.62" r="2.23"/><path class="cls-7" d="M142.14,61H153.8a0,0,0,0,1,0,0V197.94a0,0,0,0,1,0,0h0a11.66,11.66,0,0,1-11.66-11.66V61A0,0,0,0,1,142.14,61Z"/><rect class="cls-6" x="144.15" y="63.99" width="7.63" height="7.63" rx="3.82"/><rect class="cls-6" x="144.15" y="73.1" width="7.63" height="7.63" rx="3.82"/><path class="cls-7" d="M230.13,110.9h10.3a3.43,3.43,0,0,1,3.43,3.43v75.45a8.58,8.58,0,0,1-8.58,8.58h0a8.58,8.58,0,0,1-8.58-8.58V114.33a3.43,3.43,0,0,1,3.43-3.43Z"/><path d="M235.28,198.79a9,9,0,0,1-9-9V114.33a3.86,3.86,0,0,1,3.85-3.85h10.3a3.86,3.86,0,0,1,3.86,3.85v75.45A9,9,0,0,1,235.28,198.79Zm-5.15-87.47a3,3,0,0,0-3,3v75.45a8.17,8.17,0,0,0,8.16,8.16h0a8.17,8.17,0,0,0,8.16-8.16V114.33a3,3,0,0,0-3-3Z"/><rect class="cls-7" x="225.46" y="108.76" width="19.64" height="4.29" rx="2.15"/><path d="M243,113.47H227.61a2.57,2.57,0,0,1,0-5.14H243a2.57,2.57,0,0,1,0,5.14Zm-15.35-4.29a1.72,1.72,0,0,0,0,3.44H243a1.72,1.72,0,0,0,0-3.44Z"/><path class="cls-7" d="M243.74,86.14c0-5.75-3.72-17.49-8.39-17.49s-8.52,11.74-8.52,17.49,3.78,10.4,8.45,10.4S243.74,91.89,243.74,86.14Z"/><path d="M235.28,97c-4.89,0-8.88-4.86-8.88-10.83A31.88,31.88,0,0,1,229,75.08c1.08-2.56,3.36-6.85,6.4-6.85,5,0,8.81,11.94,8.81,17.91S240.18,97,235.28,97Zm.07-27.89c-1.86,0-3.91,2.3-5.62,6.33a31,31,0,0,0-2.48,10.73c0,5.5,3.6,10,8,10s8-4.48,8-10A31.52,31.52,0,0,0,240.9,75.4C239.24,71.38,237.22,69.08,235.35,69.08Z"/><polygon class="cls-6" points="243.86 108.75 226.7 108.75 230 97.37 240.6 97.37 243.86 108.75"/><path d="M244.43,109.18H226.14l3.54-12.24h11.24Zm-17.16-.85h16l-3-10.54h-10Z"/><rect class="cls-7" x="228.43" y="94.07" width="13.7" height="4.29" rx="2.15"/><path d="M240,98.78h-9.41a2.57,2.57,0,0,1,0-5.14H240a2.57,2.57,0,0,1,0,5.14Zm-9.41-4.29a1.72,1.72,0,1,0,0,3.44H240a1.72,1.72,0,0,0,0-3.44Z"/><rect x="239.53" y="113.05" width="0.85" height="6.93"/><path class="cls-7" d="M232.45,73.6a8.25,8.25,0,0,0,0,4.46"/><path d="M232.45,78.48a.42.42,0,0,1-.41-.32,8.64,8.64,0,0,1,0-4.7.43.43,0,0,1,.55-.25.42.42,0,0,1,.25.54h0a8,8,0,0,0,0,4.21.42.42,0,0,1-.31.51Z"/><path class="cls-7" d="M236.58,71a19.23,19.23,0,0,1,3.3,12.88"/><path d="M239.88,84.26h0a.44.44,0,0,1-.39-.46,19.06,19.06,0,0,0-3.2-12.57.43.43,0,0,1,.06-.6.44.44,0,0,1,.6.07,19.49,19.49,0,0,1,3.39,13.17A.42.42,0,0,1,239.88,84.26Z"/><ellipse class="cls-6" cx="230.47" cy="84.99" rx="1.98" ry="3.8"/><path class="cls-6" d="M228.49,113.59h9.08a0,0,0,0,1,0,0v24.09a5,5,0,0,1-5,5h0a4.13,4.13,0,0,1-4.13-4.13V113.59A0,0,0,0,1,228.49,113.59Z"/><rect x="229.96" y="113.05" width="0.85" height="27.23"/><path class="cls-7" d="M197.32,181.94a16.61,16.61,0,0,1,16.61,16.61H243v-.48c0-.33,0-.65,0-.94v-.26a46.31,46.31,0,0,0-1.28-9.25l8.5-6.49a3.92,3.92,0,0,0,1-5.08l-7.5-13a3.92,3.92,0,0,0-4.91-1.66l-9.87,4.12a45.83,45.83,0,0,0-7.39-5.74l-.19-.13-.8-.48-.92-.53-.79-.43-.16-.09a45.91,45.91,0,0,0-8.69-3.53L208.63,144a3.91,3.91,0,0,0-3.89-3.42h-15a3.93,3.93,0,0,0-3.89,3.42l-1.37,10.61a46,46,0,0,0-8.69,3.54l-.21.11-.63.35-1.13.65-.66.41-.22.13c-.48.3-.95.61-1.47,1l-.09.06a45.12,45.12,0,0,0-5.83,4.73l-9.87-4.12a3.91,3.91,0,0,0-4.91,1.65l-7.5,13a3.92,3.92,0,0,0,1,5.08l8.5,6.49a45.8,45.8,0,0,0-1.28,9.22V197s0,.08,0,.12l0,1.44h29.24A16.61,16.61,0,0,1,197.32,181.94Z"/><path d="M243.44,199H213.51v-.43a16.19,16.19,0,0,0-32.37,0V199H151l0-1.88v-.28a46.49,46.49,0,0,1,1.22-9L144,181.47a4.36,4.36,0,0,1-1.13-5.63l7.5-13a4.36,4.36,0,0,1,5.44-1.84l9.62,4a45.52,45.52,0,0,1,5.67-4.57l.07-.05,0,0c.44-.3,1-.64,1.49-1l.22-.14.43-.26.23-.14,1.14-.66.64-.35.21-.11a46.48,46.48,0,0,1,8.51-3.5l1.33-10.33a4.36,4.36,0,0,1,4.31-3.79h15a4.37,4.37,0,0,1,4.32,3.79l1.33,10.33a46.35,46.35,0,0,1,8.5,3.49l.17.09.79.43.92.53.81.49.2.12A47.57,47.57,0,0,1,229,165l9.62-4a4.36,4.36,0,0,1,5.44,1.84l7.5,13a4.36,4.36,0,0,1-1.13,5.63l-8.29,6.32a45.84,45.84,0,0,1,1.23,9.06v.27c0,.29,0,.61,0,.94Zm-29.09-.85h28.23v-.06c0-.32,0-.64,0-.92v-.27a45.32,45.32,0,0,0-1.27-9.16l-.06-.27,8.72-6.66a3.5,3.5,0,0,0,.91-4.53l-7.49-13A3.5,3.5,0,0,0,239,161.8L228.85,166l-.2-.19a45.93,45.93,0,0,0-7.32-5.7l-.2-.11c-.25-.17-.51-.32-.79-.49l-.91-.52-.78-.43-.15-.08a45.44,45.44,0,0,0-8.62-3.5l-.26-.08L208.21,144a3.51,3.51,0,0,0-3.47-3.06h-15a3.52,3.52,0,0,0-3.47,3.06l-1.4,10.88-.27.08a45.47,45.47,0,0,0-8.61,3.5l-.2.11-.63.35-1.35.78-.43.26-.22.14c-.41.26-.85.54-1.45,1l0,0,0,0h0a46,46,0,0,0-5.78,4.68l-.2.19-10.13-4.22a3.51,3.51,0,0,0-4.38,1.48l-7.49,13a3.5,3.5,0,0,0,.9,4.53l8.73,6.66-.07.27a45.43,45.43,0,0,0-1.27,9.13V197a.71.71,0,0,1,0,.14l0,1h28.39a17,17,0,0,1,34.06,0Z"/><rect class="cls-7" x="136.16" y="87.73" width="23.97" height="110.85"/><path d="M160.55,199H135.73V87.3h24.82Zm-24-.85H159.7v-110H136.58Z"/><polygon class="cls-7" points="160.14 89.22 160.14 104.2 199.09 104.2 199.09 98.21 160.14 89.22"/><path d="M199.51,104.63H159.72V88.69l39.79,9.19Zm-38.95-.85h38.1V98.55l-38.1-8.79Z"/><polygon class="cls-7" points="160.14 128.17 160.14 113.19 199.09 113.19 199.09 119.18 160.14 128.17"/><path d="M159.72,128.7V112.77h39.79v6.75Zm.84-15.08v14l38.1-8.79v-5.23Z"/><polygon class="cls-6" points="136.14 92.22 112.18 92.22 136.14 104.2 136.14 92.22"/><path d="M136.57,104.89,110.38,91.8h26.19ZM114,92.64l21.75,10.88V92.64Z"/><polygon class="cls-6" points="136.14 119.18 112.18 119.18 136.14 107.2 136.14 119.18"/><path d="M136.57,119.61H110.38l26.19-13.1Zm-22.6-.85h21.75V107.89Z"/><rect class="cls-7" x="134.66" y="134.16" width="26.96" height="35.95"/><path d="M162.05,170.54H134.24v-36.8h27.81Zm-27-.85H161.2v-35.1H135.08Z"/><rect class="cls-7" x="128.67" y="143.15" width="5.99" height="17.98"/><path d="M135.08,161.55h-6.84V142.73h6.84Zm-6-.85h5.15V143.58h-5.15Z"/><rect x="136.16" y="97.79" width="14.98" height="0.85"/><rect x="136.16" y="106.78" width="14.98" height="0.85"/><rect x="136.16" y="115.76" width="14.98" height="0.85"/><rect x="136.16" y="178.68" width="14.98" height="0.85"/><rect x="136.58" y="187.67" width="14.98" height="0.85"/><rect class="cls-6" x="146.3" y="134.57" width="14.73" height="35.18"/><rect class="cls-6" x="157.69" y="68.65" width="31.16" height="12.08"/><path class="cls-5" d="M161.46,75.34l-.33,1.19h-1.08l1.41-4.64h1.38l1.44,4.64h-1.13l-.36-1.19Zm1.18-.79-.29-1c-.08-.28-.16-.62-.23-.89h0c-.07.27-.13.62-.21.89l-.28,1Z"/><path class="cls-5" d="M164.82,74.29c0-.44,0-.82,0-1.13h.91l.05.47h0a1.28,1.28,0,0,1,1.12-.54,1.52,1.52,0,0,1,1.4,1.71,1.6,1.6,0,0,1-1.53,1.8,1,1,0,0,1-.87-.38h0v1.67h-1.05Zm1.05.79a.72.72,0,0,0,0,.22.62.62,0,0,0,.61.5c.45,0,.72-.38.72-1s-.24-.94-.71-.94a.65.65,0,0,0-.62.53.52.52,0,0,0,0,.18Z"/><path class="cls-5" d="M168.93,74.29c0-.44,0-.82,0-1.13h.91l.05.47h0a1.3,1.3,0,0,1,1.13-.54,1.52,1.52,0,0,1,1.39,1.71,1.59,1.59,0,0,1-1.52,1.8,1,1,0,0,1-.88-.38h0v1.67h-1Zm1,.79a.72.72,0,0,0,0,.22.63.63,0,0,0,.61.5c.45,0,.72-.38.72-1s-.24-.94-.71-.94a.66.66,0,0,0-.62.53.52.52,0,0,0,0,.18Z"/><path class="cls-5" d="M174.74,74.37v.7h-1.8v-.7Z"/><path class="cls-5" d="M175.4,71.89h1v2h0c.11-.18.22-.34.32-.51l1.05-1.54h1.29l-1.54,2,1.62,2.66H178l-1.14-2-.4.48v1.52h-1Z"/><path class="cls-5" d="M180.67,72.23a.52.52,0,0,1-.56.52.5.5,0,0,1-.54-.52.51.51,0,0,1,.55-.53A.52.52,0,0,1,180.67,72.23Zm-1.08,4.3V73.16h1v3.37Z"/><path class="cls-5" d="M182.65,72.2v1h.75v.77h-.75v1.22c0,.41.09.59.41.59l.31,0v.79a2.25,2.25,0,0,1-.69.09,1.11,1.11,0,0,1-.78-.29,1.42,1.42,0,0,1-.29-1V73.93h-.45v-.77h.45v-.73Z"/><rect class="cls-7" x="188.9" y="68.65" width="31.16" height="12.08"/><path class="cls-5" d="M197.88,71.89v2.67c0,.8.31,1.2.84,1.2s.86-.38.86-1.2V71.89h1v2.6c0,1.43-.72,2.11-1.93,2.11s-1.86-.64-1.86-2.12V71.89Z"/><path class="cls-5" d="M202.58,71.89v4.64h-1.05V71.89Z"/><path class="cls-5" d="M205,74.37v.7h-1.8v-.7Z"/><path class="cls-5" d="M205.7,71.89h1v2h0c.11-.18.22-.34.32-.51l1-1.54h1.29l-1.54,2,1.62,2.66h-1.22l-1.14-2-.4.48v1.52h-1Z"/><path class="cls-5" d="M211,72.23a.52.52,0,0,1-.56.52.5.5,0,0,1-.54-.52.51.51,0,0,1,.55-.53A.52.52,0,0,1,211,72.23Zm-1.08,4.3V73.16h1.05v3.37Z"/><path class="cls-5" d="M213,72.2v1h.75v.77H213v1.22c0,.41.09.59.41.59l.31,0v.79a2.25,2.25,0,0,1-.69.09,1.11,1.11,0,0,1-.78-.29,1.42,1.42,0,0,1-.29-1V73.93h-.45v-.77h.45v-.73Z"/><path d="M188.9,77.13a.42.42,0,0,1-.42-.42V70.56a.43.43,0,0,1,.85,0v6.15A.42.42,0,0,1,188.9,77.13Z"/><path d="M192,74.06h-6.15a.43.43,0,1,1,0-.85H192a.43.43,0,0,1,0,.85Z"/></g></svg>