<svg xmlns="http://www.w3.org/2000/svg" x="0px" y="0px"
width="16" height="16"
viewBox="0 0 192 192"
style=" fill:#000000;"><g fill="none" fill-rule="nonzero" stroke="none" stroke-width="1" stroke-linecap="butt" stroke-linejoin="miter" stroke-miterlimit="10" stroke-dasharray="" stroke-dashoffset="0" font-family="none" font-weight="none" font-size="none" text-anchor="none" style="mix-blend-mode: normal"><path d="M0,192v-192h192v192z" fill="none"></path><g fill="#d40424"><g id="surface1"><path d="M108,24v12h39.51563l-75.23437,75.28126l8.4375,8.4375l75.28124,-75.23438v39.51563h12v-60zM48,48c-13.26563,0 -24,10.73437 -24,24v72c0,13.26563 10.73437,24 24,24h72c13.26563,0 24,-10.73437 24,-24v-60l-12,12v48c0,6.60937 -5.39063,12 -12,12h-72c-6.60937,0 -12,-5.39063 -12,-12v-72c0,-6.60937 5.39063,-12 12,-12h48l12,-12z"></path></g></g></g></svg>