<svg xmlns="http://www.w3.org/2000/svg" xmlns:xlink="http://www.w3.org/1999/xlink" viewBox="0 0 416 261"><defs><style>.cls-1{fill:none;}.cls-2{fill:#ccc;}.cls-3{clip-path:url(#clip-path);}.cls-4{fill:#f2f2f2;}.cls-5{fill:#fff;}.cls-6{fill:#00b49f;}.cls-7{fill:#a8dbd5;}</style><clipPath id="clip-path"><circle class="cls-1" cx="192.36" cy="121.39" r="104.75"/></clipPath></defs><title>application</title><g id="Ebene_2" data-name="Ebene 2"><circle class="cls-2" cx="192.47" cy="121.28" r="104.75"/><path d="M192.47,226.58a105.32,105.32,0,0,1-41-202.32,105.33,105.33,0,0,1,82,194.05A104.63,104.63,0,0,1,192.47,226.58Zm0-209.49a104.22,104.22,0,0,0-40.56,200.2A104.22,104.22,0,0,0,233,25.28,103.39,103.39,0,0,0,192.47,17.09Z"/><g class="cls-3"><rect class="cls-4" x="124.51" y="204.26" width="131.93" height="28.73"/><path d="M257,233.54H124V203.71H257Zm-131.92-1.1H255.89V204.81H125.07Z"/><rect class="cls-4" x="114.13" y="198.52" width="154.91" height="5.97"/><path d="M269.59,205h-156V198h156Zm-154.91-1.11H268.49v-4.86H114.68Z"/></g><path d="M192.47,226.58a105.32,105.32,0,0,1-41-202.32,105.33,105.33,0,0,1,82,194.05A104.63,104.63,0,0,1,192.47,226.58Zm0-209.49a104.22,104.22,0,0,0-40.56,200.2A104.22,104.22,0,0,0,233,25.28,103.39,103.39,0,0,0,192.47,17.09Z"/></g><g id="Ebene_11" data-name="Ebene 11"><rect class="cls-5" x="140" y="193" width="8" height="5"/><polyline class="cls-6" points="126 186 127 194 129 197 131 198 140 198 140 196 135 186 126 186"/><path class="cls-5" d="M126.34,51.73h134a0,0,0,0,1,0,0V198.34a0,0,0,0,1,0,0h-107a27,27,0,0,1-27-27V51.73A0,0,0,0,1,126.34,51.73Z"/><path d="M261,199H133.43a7.76,7.76,0,0,1-7.75-7.75V51.07H261ZM127,52.38V191.25a6.44,6.44,0,0,0,6.43,6.44H259.69V52.38Z"/><path class="cls-6" d="M126.73,64.73h14.45a0,0,0,0,1,0,0v133a0,0,0,0,1,0,0h-1.52a12.93,12.93,0,0,1-12.93-12.93v-120a0,0,0,0,1,0,0Z"/><rect class="cls-5" x="126.21" y="51.6" width="134" height="12.61"/><path d="M260.74,64.73H125.68V51.07H260.74Zm-134-1.05h133V52.12h-133Z"/><rect class="cls-7" x="131.2" y="55.01" width="5.78" height="5.78"/><rect class="cls-7" x="211.87" y="55.01" width="32.58" height="5.78" rx="2.59"/><circle class="cls-7" cx="252.2" cy="58.03" r="2.76"/><rect class="cls-7" x="129.2" y="68.41" width="9.46" height="9.46" rx="4.23"/><rect class="cls-7" x="129.2" y="79.71" width="9.46" height="9.46" rx="4.23"/><path class="cls-7" d="M135.19,100.86a.38.38,0,0,1-.39-.39.39.39,0,0,1,.39-.4h1a.4.4,0,1,1,0,.79v0Zm-1.25,0h-1a.38.38,0,0,1-.39-.39.39.39,0,0,1,.39-.4h1a.4.4,0,0,1,.4.4A.39.39,0,0,1,133.94,100.86Zm-2.25,0h-.23a2.62,2.62,0,0,1-.88-.15.39.39,0,0,1-.25-.5.4.4,0,0,1,.5-.24,1.93,1.93,0,0,0,.63.1h.23a.39.39,0,0,1,.39.4A.38.38,0,0,1,131.69,100.86Zm5.7-.33a.42.42,0,0,1-.34-.19.39.39,0,0,1,.14-.54,2,2,0,0,0,.61-.56.4.4,0,0,1,.55-.1.39.39,0,0,1,.09.55,2.68,2.68,0,0,1-.85.79A.46.46,0,0,1,137.39,100.53Zm-7.71-.48a.41.41,0,0,1-.3-.14,2.72,2.72,0,0,1-.56-1,.4.4,0,0,1,.76-.23,1.83,1.83,0,0,0,.4.72.41.41,0,0,1,0,.56A.44.44,0,0,1,129.68,100.05Zm8.87-1.35h0a.39.39,0,0,1-.35-.43v-1a.4.4,0,1,1,.79,0v.79a1.93,1.93,0,0,1,0,.24A.4.4,0,0,1,138.55,98.7Zm-9.45-.76a.4.4,0,0,1-.4-.4v-1a.39.39,0,0,1,.4-.39.38.38,0,0,1,.39.39v1A.39.39,0,0,1,129.1,97.94Zm9.46-1.49a.4.4,0,0,1-.4-.4v-1a.4.4,0,0,1,.79,0v1A.4.4,0,0,1,138.56,96.45Zm-9.46-.76a.4.4,0,0,1-.4-.4v-1a.39.39,0,0,1,.4-.39.38.38,0,0,1,.39.39v1A.39.39,0,0,1,129.1,95.69Zm9.46-1.49a.4.4,0,0,1-.4-.4v-.43a2.5,2.5,0,0,0,0-.47.38.38,0,0,1,.28-.47.38.38,0,0,1,.48.28,3,3,0,0,1,.08.66v.43A.4.4,0,0,1,138.56,94.2Zm-9.44-.76h-.05a.39.39,0,0,1-.34-.44,2.81,2.81,0,0,1,.4-1.09.4.4,0,0,1,.67.42,2,2,0,0,0-.29.78A.41.41,0,0,1,129.12,93.44Zm8.77-1.32a.38.38,0,0,1-.28-.12,2.09,2.09,0,0,0-.69-.46.39.39,0,1,1,.29-.73,2.84,2.84,0,0,1,1,.64.4.4,0,0,1,0,.56A.35.35,0,0,1,137.89,92.12Zm-7.51-.45a.39.39,0,0,1-.19-.74,2.61,2.61,0,0,1,1.12-.31.4.4,0,0,1,.42.37.41.41,0,0,1-.38.42,1.82,1.82,0,0,0-.79.21A.41.41,0,0,1,130.38,91.67Zm5.45-.27h-1a.39.39,0,0,1-.39-.39.4.4,0,0,1,.39-.4h1a.4.4,0,0,1,.4.4A.39.39,0,0,1,135.83,91.4Zm-2.25,0h-1a.39.39,0,0,1-.39-.39.4.4,0,0,1,.39-.4h1a.4.4,0,0,1,.4.4A.39.39,0,0,1,133.58,91.4Z"/><rect class="cls-7" x="144.73" y="67.49" width="110.09" height="35.47"/><path class="cls-6" d="M255.22,103.36h-2.5a.4.4,0,0,1,0-.79h1.71v-.66a.4.4,0,0,1,.79,0Zm-4.6,0h-2.1a.4.4,0,0,1,0-.79h2.1a.4.4,0,1,1,0,.79Zm-4.2,0h-2.1a.4.4,0,1,1,0-.79h2.1a.4.4,0,0,1,0,.79Zm-4.21,0h-2.1a.4.4,0,0,1,0-.79h2.1a.4.4,0,1,1,0,.79Zm-4.2,0h-2.1a.4.4,0,1,1,0-.79H238a.4.4,0,0,1,0,.79Zm-4.2,0H231.7a.4.4,0,0,1,0-.79h2.11a.4.4,0,0,1,0,.79Zm-4.21,0h-2.1a.4.4,0,1,1,0-.79h2.1a.4.4,0,1,1,0,.79Zm-4.2,0h-2.11a.4.4,0,0,1,0-.79h2.11a.4.4,0,0,1,0,.79Zm-4.21,0h-2.1a.4.4,0,0,1,0-.79h2.1a.4.4,0,1,1,0,.79Zm-4.2,0h-2.1a.4.4,0,1,1,0-.79H217a.4.4,0,0,1,0,.79Zm-4.21,0h-2.1a.4.4,0,0,1,0-.79h2.1a.4.4,0,1,1,0,.79Zm-4.2,0h-2.1a.4.4,0,1,1,0-.79h2.1a.4.4,0,0,1,0,.79Zm-4.2,0h-2.11a.4.4,0,0,1,0-.79h2.11a.4.4,0,0,1,0,.79Zm-4.21,0h-2.1a.4.4,0,0,1,0-.79h2.1a.4.4,0,1,1,0,.79Zm-4.2,0h-2.1a.4.4,0,1,1,0-.79H196a.4.4,0,0,1,0,.79Zm-4.21,0h-2.1a.4.4,0,0,1,0-.79h2.1a.4.4,0,1,1,0,.79Zm-4.2,0h-2.1a.4.4,0,1,1,0-.79h2.1a.4.4,0,0,1,0,.79Zm-4.2,0h-2.11a.4.4,0,0,1,0-.79h2.11a.4.4,0,0,1,0,.79Zm-4.21,0h-2.1a.4.4,0,0,1,0-.79h2.1a.4.4,0,1,1,0,.79Zm-4.2,0h-2.1a.4.4,0,1,1,0-.79H175a.4.4,0,0,1,0,.79Zm-4.21,0h-2.1a.4.4,0,0,1,0-.79h2.1a.4.4,0,1,1,0,.79Zm-4.2,0h-2.1a.4.4,0,1,1,0-.79h2.1a.4.4,0,0,1,0,.79Zm-4.2,0h-2.11a.4.4,0,0,1,0-.79h2.11a.4.4,0,0,1,0,.79Zm-4.21,0H156a.4.4,0,0,1,0-.79h2.1a.4.4,0,1,1,0,.79Zm-4.2,0h-2.1a.4.4,0,1,1,0-.79h2.1a.4.4,0,0,1,0,.79Zm-4.21,0h-2.1a.4.4,0,0,1,0-.79h2.1a.4.4,0,1,1,0,.79Zm-4.2,0h-1.18v-1.71a.38.38,0,0,1,.39-.39.39.39,0,0,1,.4.39v.92h.39a.4.4,0,0,1,0,.79Zm109.31-3.16a.39.39,0,0,1-.4-.39v-2.1a.4.4,0,1,1,.79,0v2.1A.39.39,0,0,1,254.83,100.2Zm-110.1-.26a.38.38,0,0,1-.39-.39v-2.1a.39.39,0,0,1,.39-.4.4.4,0,0,1,.4.4v2.1A.39.39,0,0,1,144.73,99.94ZM254.83,96a.4.4,0,0,1-.4-.39V93.5a.4.4,0,0,1,.79,0v2.11A.4.4,0,0,1,254.83,96Zm-110.1-.26a.39.39,0,0,1-.39-.4v-2.1a.38.38,0,0,1,.39-.39.39.39,0,0,1,.4.39v2.1A.4.4,0,0,1,144.73,95.74Zm110.1-3.94a.4.4,0,0,1-.4-.4V89.3a.4.4,0,0,1,.79,0v2.1A.4.4,0,0,1,254.83,91.8Zm-110.1-.27a.38.38,0,0,1-.39-.39V89a.39.39,0,0,1,.39-.4.4.4,0,0,1,.4.4v2.1A.39.39,0,0,1,144.73,91.53Zm110.1-3.94a.39.39,0,0,1-.4-.39V85.1a.4.4,0,1,1,.79,0v2.1A.39.39,0,0,1,254.83,87.59Zm-110.1-.26a.39.39,0,0,1-.39-.39V84.83a.39.39,0,0,1,.39-.39.4.4,0,0,1,.4.39v2.11A.4.4,0,0,1,144.73,87.33Zm110.1-3.94a.4.4,0,0,1-.4-.4v-2.1a.4.4,0,0,1,.79,0V83A.4.4,0,0,1,254.83,83.39Zm-110.1-.26a.39.39,0,0,1-.39-.4v-2.1a.38.38,0,0,1,.39-.39.39.39,0,0,1,.4.39v2.1A.4.4,0,0,1,144.73,83.13Zm110.1-3.95a.39.39,0,0,1-.4-.39v-2.1a.4.4,0,1,1,.79,0v2.1A.39.39,0,0,1,254.83,79.18Zm-110.1-.26a.38.38,0,0,1-.39-.39v-2.1a.39.39,0,0,1,.39-.4.4.4,0,0,1,.4.4v2.1A.39.39,0,0,1,144.73,78.92ZM254.83,75a.4.4,0,0,1-.4-.39V72.48a.4.4,0,0,1,.79,0v2.11A.4.4,0,0,1,254.83,75Zm-110.1-.26a.39.39,0,0,1-.39-.4v-2.1a.38.38,0,0,1,.39-.39.39.39,0,0,1,.4.39v2.1A.4.4,0,0,1,144.73,74.72Zm110.1-3.94a.4.4,0,0,1-.4-.4v-2.1a.4.4,0,0,1,.79,0v2.1A.4.4,0,0,1,254.83,70.78Zm-110.1-.27a.38.38,0,0,1-.39-.39V68a.39.39,0,0,1,.39-.4.4.4,0,0,1,.4.4v2.1A.39.39,0,0,1,144.73,70.51Zm108.78-2.62h-2.1a.39.39,0,0,1-.39-.4.38.38,0,0,1,.39-.39h2.1a.39.39,0,0,1,.4.39A.4.4,0,0,1,253.51,67.89Zm-4.2,0h-2.1a.4.4,0,0,1-.4-.4.39.39,0,0,1,.4-.39h2.1a.38.38,0,0,1,.39.39A.39.39,0,0,1,249.31,67.89Zm-4.21,0H243a.39.39,0,0,1-.39-.4.38.38,0,0,1,.39-.39h2.1a.39.39,0,0,1,.4.39A.4.4,0,0,1,245.1,67.89Zm-4.2,0h-2.1a.4.4,0,0,1-.4-.4.39.39,0,0,1,.4-.39h2.1a.38.38,0,0,1,.39.39A.39.39,0,0,1,240.9,67.89Zm-4.2,0h-2.11a.4.4,0,0,1-.39-.4.39.39,0,0,1,.39-.39h2.11a.39.39,0,0,1,.39.39A.4.4,0,0,1,236.7,67.89Zm-4.21,0h-2.1a.39.39,0,0,1-.39-.4.38.38,0,0,1,.39-.39h2.1a.39.39,0,0,1,.4.39A.4.4,0,0,1,232.49,67.89Zm-4.2,0h-2.1a.4.4,0,0,1-.4-.4.39.39,0,0,1,.4-.39h2.1a.39.39,0,0,1,.39.39A.4.4,0,0,1,228.29,67.89Zm-4.21,0H222a.39.39,0,0,1-.39-.4.38.38,0,0,1,.39-.39h2.1a.39.39,0,0,1,.4.39A.4.4,0,0,1,224.08,67.89Zm-4.2,0h-2.1a.4.4,0,0,1-.4-.4.39.39,0,0,1,.4-.39h2.1a.38.38,0,0,1,.39.39A.39.39,0,0,1,219.88,67.89Zm-4.2,0h-2.11a.4.4,0,0,1-.39-.4.39.39,0,0,1,.39-.39h2.11a.39.39,0,0,1,.39.39A.4.4,0,0,1,215.68,67.89Zm-4.21,0h-2.1a.4.4,0,0,1-.4-.4.39.39,0,0,1,.4-.39h2.1a.39.39,0,0,1,.4.39A.4.4,0,0,1,211.47,67.89Zm-4.2,0h-2.11a.4.4,0,0,1-.39-.4.39.39,0,0,1,.39-.39h2.11a.39.39,0,0,1,.39.39A.4.4,0,0,1,207.27,67.89Zm-4.21,0H201a.39.39,0,0,1-.39-.4.38.38,0,0,1,.39-.39h2.1a.39.39,0,0,1,.4.39A.4.4,0,0,1,203.06,67.89Zm-4.2,0h-2.1a.4.4,0,0,1-.4-.4.39.39,0,0,1,.4-.39h2.1a.38.38,0,0,1,.39.39A.39.39,0,0,1,198.86,67.89Zm-4.21,0h-2.1a.4.4,0,0,1-.39-.4.39.39,0,0,1,.39-.39h2.1a.39.39,0,0,1,.4.39A.4.4,0,0,1,194.65,67.89Zm-4.2,0h-2.1a.4.4,0,0,1-.4-.4.39.39,0,0,1,.4-.39h2.1a.38.38,0,0,1,.39.39A.39.39,0,0,1,190.45,67.89Zm-4.2,0h-2.11a.4.4,0,0,1-.39-.4.39.39,0,0,1,.39-.39h2.11a.39.39,0,0,1,.39.39A.4.4,0,0,1,186.25,67.89Zm-4.21,0h-2.1a.39.39,0,0,1-.39-.4.38.38,0,0,1,.39-.39H182a.39.39,0,0,1,.4.39A.4.4,0,0,1,182,67.89Zm-4.2,0h-2.1a.4.4,0,0,1-.4-.4.39.39,0,0,1,.4-.39h2.1a.38.38,0,0,1,.39.39A.39.39,0,0,1,177.84,67.89Zm-4.21,0h-2.1a.39.39,0,0,1-.39-.4.38.38,0,0,1,.39-.39h2.1a.39.39,0,0,1,.4.39A.4.4,0,0,1,173.63,67.89Zm-4.2,0h-2.1a.4.4,0,0,1-.4-.4.39.39,0,0,1,.4-.39h2.1a.38.38,0,0,1,.39.39A.39.39,0,0,1,169.43,67.89Zm-4.2,0h-2.11a.4.4,0,0,1-.39-.4.39.39,0,0,1,.39-.39h2.11a.39.39,0,0,1,.39.39A.4.4,0,0,1,165.23,67.89Zm-4.21,0h-2.1a.39.39,0,0,1-.39-.4.38.38,0,0,1,.39-.39H161a.39.39,0,0,1,.4.39A.4.4,0,0,1,161,67.89Zm-4.2,0h-2.1a.4.4,0,0,1-.4-.4.39.39,0,0,1,.4-.39h2.1a.38.38,0,0,1,.39.39A.39.39,0,0,1,156.82,67.89Zm-4.21,0h-2.1a.39.39,0,0,1-.39-.4.38.38,0,0,1,.39-.39h2.1a.39.39,0,0,1,.4.39A.4.4,0,0,1,152.61,67.89Zm-4.2,0h-2.1a.4.4,0,0,1-.4-.4.39.39,0,0,1,.4-.39h2.1a.38.38,0,0,1,.39.39A.39.39,0,0,1,148.41,67.89Z"/><rect class="cls-5" x="159.01" y="83.91" width="79.09" height="47.56" rx="3.22"/><path d="M234.94,132H162.16a3.68,3.68,0,0,1-3.68-3.68V87.07a3.68,3.68,0,0,1,3.68-3.68h72.78a3.68,3.68,0,0,1,3.68,3.68v41.25A3.68,3.68,0,0,1,234.94,132ZM162.16,84.44a2.63,2.63,0,0,0-2.63,2.63v41.25a2.63,2.63,0,0,0,2.63,2.63h72.78a2.63,2.63,0,0,0,2.63-2.63V87.07a2.63,2.63,0,0,0-2.63-2.63Z"/><rect class="cls-5" x="152.83" y="86.8" width="91.44" height="47.56" rx="3.72"/><path d="M241.12,134.89H156a3.68,3.68,0,0,1-3.68-3.68V90A3.68,3.68,0,0,1,156,86.28h85.13A3.68,3.68,0,0,1,244.8,90v41.25A3.68,3.68,0,0,1,241.12,134.89ZM156,87.33A2.63,2.63,0,0,0,153.36,90v41.25a2.63,2.63,0,0,0,2.63,2.63h85.13a2.63,2.63,0,0,0,2.63-2.63V90a2.63,2.63,0,0,0-2.63-2.63Z"/><rect class="cls-5" x="148.89" y="89.83" width="99.32" height="46.51" rx="4.43"/><path d="M245.06,136.86H152a3.68,3.68,0,0,1-3.67-3.68V93A3.68,3.68,0,0,1,152,89.3h93A3.68,3.68,0,0,1,248.74,93v40.2A3.68,3.68,0,0,1,245.06,136.86ZM152,90.35A2.63,2.63,0,0,0,149.42,93v40.2a2.63,2.63,0,0,0,2.62,2.63h93a2.63,2.63,0,0,0,2.63-2.63V93a2.63,2.63,0,0,0-2.63-2.63Z"/><rect class="cls-6" x="153.01" y="92.85" width="30.22" height="4.99" rx="2.23"/><rect class="cls-7" x="153.01" y="110.45" width="91.44" height="3.68" rx="1.65"/><rect class="cls-7" x="153.01" y="115.97" width="91.44" height="3.68" rx="1.65"/><rect class="cls-7" x="153.01" y="121.49" width="33.9" height="3.68" rx="1.65"/><rect class="cls-6" x="153.01" y="100.2" width="14.98" height="4.99" rx="2.23"/><circle class="cls-5" cx="199.66" cy="136.51" r="32.84"/><path d="M199.66,169.88A33.37,33.37,0,1,1,233,136.51,33.41,33.41,0,0,1,199.66,169.88Zm0-65.69A32.32,32.32,0,1,0,232,136.51,32.36,32.36,0,0,0,199.66,104.19Z"/><rect x="184.55" y="134.01" width="30.22" height="4.99" rx="2.23" transform="translate(336.17 -63.15) rotate(90)"/><rect x="184.55" y="134.01" width="30.22" height="4.99" rx="2.23" transform="translate(399.31 273.02) rotate(-180)"/></g></svg>