<svg width="24" height="24" viewBox="0 0 24 24" xmlns="http://www.w3.org/2000/svg"><path d="M20.813 14.216c.113.017.194.12.182.234v.822a.38.38 0 0 1-.078.236l-4.22 5.26a.58.58 0 0 1-.446.232H3.177a.213.213 0 0 1-.182-.234v-.82a.376.376 0 0 1 .078-.236l2.342-2.918H16.25a1.97 1.97 0 0 0 1.538-.758l1.46-1.818Zm0-5.608c.114.016.194.12.182.234v.82a.376.376 0 0 1-.078.236l-4.22 5.26a.576.576 0 0 1-.446.234H3.177a.214.214 0 0 1-.182-.234v-.822a.38.38 0 0 1 .078-.236l2.342-2.918H16.25a1.968 1.968 0 0 0 1.538-.756l1.458-1.818Zm0-5.608c.113.016.194.12.182.234v.82a.38.38 0 0 1-.078.237l-4.22 5.26a.577.577 0 0 1-.446.232H3.177a.213.213 0 0 1-.182-.234v-.82a.38.38 0 0 1 .078-.237l4.22-5.26A.577.577 0 0 1 7.738 3Z" fill="#000" fill-rule="nonzero"/></svg>