<?xml version="1.0" encoding="UTF-8"?>
<svg width="24px" height="24px" viewBox="0 0 24 24" version="1.1" xmlns="http://www.w3.org/2000/svg" xmlns:xlink="http://www.w3.org/1999/xlink">
    <title>02.Files</title>
    <g id="Page-1" stroke="none" stroke-width="1" fill="none" fill-rule="evenodd">
        <g id="Artboard" transform="translate(-100.000000, -101.000000)" fill="#000000" fill-rule="nonzero">
            <g id="02.Files" transform="translate(100.000000, 101.000000)">
                <path d="M18.214116,5.03759611 C18.7639957,5.03759611 19.2084003,5.4830853 19.2084003,6.03195805 L19.2084003,6.03195805 L19.2084003,20.0056381 C19.2084003,20.5545296 18.7621126,21 18.2122328,21 L18.2122328,21 L7.53100674,21 C6.98112698,21 6.53482046,20.5545296 6.53482046,20.0056381 L6.53482046,20.0056381 L6.53482046,19.5263143 L16.1257216,19.5263143 C16.9863023,19.5263143 17.686834,18.8270842 17.686834,17.9680795 L17.686834,17.9680795 L17.686834,5.03759611 Z M16.1238196,3 C16.6736994,3 17.1200059,3.44548919 17.1200059,3.99436194 L17.1200059,3.99436194 L17.1200059,17.9680795 C17.1200059,18.5169335 16.6736994,18.9624039 16.1238196,18.9624039 L16.1238196,18.9624039 L5.44447668,18.9624039 C4.89459692,18.9624039 4.4482904,18.5169335 4.4482904,17.9680795 L4.4482904,17.9680795 L4.4482904,7.55451603 L4.79478997,7.55451603 C4.82303722,7.55639574 4.85316762,7.55827544 4.88141487,7.55827544 L4.88141487,7.55827544 L7.61009903,7.55827544 C8.38407363,7.55827544 9.01304569,6.93045523 9.01304569,6.15789803 L9.01304569,6.15789803 L9.01304569,3.43421098 C9.01304569,3.39849666 9.01114371,3.36278233 9.00739624,3.32894771 L9.00739624,3.32894771 L9.00739624,3 Z M10.9865868,14.6428693 L7.50275949,14.6428693 C7.24288481,14.6428693 7.03197202,14.853377 7.03197202,15.1127946 C7.03197202,15.3721746 7.24288481,15.5827199 7.50275949,15.5827199 L7.50275949,15.5827199 L10.9847036,15.5827199 C11.2445783,15.5827199 11.4573742,15.3721746 11.4573742,15.1127946 C11.4573742,14.853377 11.2464614,14.6428693 10.9865868,14.6428693 L10.9865868,14.6428693 Z M14.4685309,12.2443894 L7.50275949,12.2443894 C7.24288481,12.2443894 7.03197202,12.4548971 7.03197202,12.7143147 C7.03197202,12.9736946 7.24288481,13.18424 7.50275949,13.18424 L7.50275949,13.18424 L14.4685309,13.18424 C14.7284056,13.18424 14.9393183,12.9736946 14.9393183,12.7143147 C14.9393183,12.4548971 14.7284056,12.2443894 14.4685309,12.2443894 L14.4685309,12.2443894 Z M14.4685309,9.69737541 L7.50275949,9.69737541 C7.24288481,9.69737541 7.03197202,9.90790195 7.03197202,10.1673007 C7.03197202,10.4266995 7.24288481,10.637226 7.50275949,10.637226 L7.50275949,10.637226 L14.4685309,10.637226 C14.7284056,10.637226 14.9393183,10.4266995 14.9393183,10.1673007 C14.9393183,9.90790195 14.7284056,9.69737541 14.4685309,9.69737541 L14.4685309,9.69737541 Z M8.02441084,3.01503761 C8.23907109,3.01503761 8.44621758,3.18233102 8.44621758,3.43421098 L8.44621758,3.43421098 L8.44621758,6.16729654 C8.44245128,6.62218423 8.0733539,6.99060567 7.61763163,6.99436507 L7.61763163,6.99436507 L4.88141487,6.99436507 C4.50666804,6.99436507 4.32023621,6.54323678 4.58387719,6.28007861 L4.58387719,6.28007861 L7.73063946,3.13909789 C7.81726435,3.05263163 7.9208376,3.01503761 8.02441084,3.01503761 Z" id="Files"></path>
            </g>
        </g>
    </g>
</svg>