<svg width="24" height="24" viewBox="0 0 24 24" xmlns="http://www.w3.org/2000/svg"><path d="M21 3v.62c0 2.909-1.628 6.975-3.724 9.914v3.742a.62.62 0 0 1-.182.439l-3.103 3.103a.62.62 0 0 1-1.06-.439v-2.225l-1.241-1.242-.803.803a.619.619 0 0 1-.878 0L6.285 13.99a.62.62 0 0 1 0-.878l.803-.803-1.242-1.241H3.621a.62.62 0 0 1-.44-1.06l3.104-3.103a.62.62 0 0 1 .44-.182h3.741C13.405 4.628 17.471 3 20.379 3H21ZM6.103 15.414l2.483 2.483C8.586 19.612 6.088 21 3 21c0-3.088 1.388-5.586 3.103-5.586Zm9.316-8.695a1.864 1.864 0 0 0-1.862 1.862c0 1.027.835 1.862 1.862 1.862a1.864 1.864 0 0 0 1.862-1.862 1.864 1.864 0 0 0-1.862-1.862Z" fill="#000" fill-rule="nonzero"/></svg>