<svg width="24" height="24" viewBox="0 0 24 24" xmlns="http://www.w3.org/2000/svg"><path d="m20.395 11.635-8.03-8.03A2.065 2.065 0 0 0 10.905 3H6.097A3.097 3.097 0 0 0 3 6.097v4.808c0 .548.218 1.073.605 1.46l8.03 8.03a2.065 2.065 0 0 0 2.92 0l5.84-5.84a2.065 2.065 0 0 0 0-2.92ZM7.708 7.708a1.549 1.549 0 1 1-2.19-2.19 1.549 1.549 0 0 1 2.19 2.19Zm5.874 8.87v1.134h-1.548v-1.09a2.828 2.828 0 0 1-1.684-.824l-.18-.182.181-.181.77-.771.182-.184.183.184c.351.316.817.474 1.288.438.82 0 .82-.372.82-.494a.426.426 0 0 0-.106-.325.645.645 0 0 0-.399-.146l-.737-.103a2.317 2.317 0 0 1-1.325-.579 1.872 1.872 0 0 1-.513-1.38 2.002 2.002 0 0 1 1.52-1.982V8.936h1.548v1.095c.55.08 1.06.332 1.458.72l.19.184-.188.186-.752.743-.178.177-.182-.174a1.44 1.44 0 0 0-1.07-.346c-.428 0-.683.191-.683.51a.339.339 0 0 0 .098.248c.121.099.269.159.424.174l.718.102c.482.038.939.227 1.307.54.382.393.582.93.55 1.477-.001.991-.715 1.838-1.692 2.005Z" fill="#000" fill-rule="nonzero"/></svg>