<svg width="24" height="24" viewBox="0 0 24 24" xmlns="http://www.w3.org/2000/svg"><path d="m20.557 10.938-1.221-1.222a2.102 2.102 0 0 1-.531-1.28V6.693a1.501 1.501 0 0 0-1.501-1.492h-1.732a2.072 2.072 0 0 1-1.281-.53L13.06 3.44a1.511 1.511 0 0 0-2.122 0L9.716 4.672a2.102 2.102 0 0 1-1.28.53H6.693a1.491 1.491 0 0 0-1.492 1.492v1.741a2.102 2.102 0 0 1-.53 1.281L3.44 10.938a1.511 1.511 0 0 0 0 2.122l1.232 1.23c.318.354.506.807.53 1.282v1.732c0 .825.666 1.496 1.492 1.501h1.741c.475.027.927.214 1.281.53l1.222 1.222a1.491 1.491 0 0 0 2.122 0l1.23-1.221a2.072 2.072 0 0 1 1.282-.531h1.732a1.511 1.511 0 0 0 1.501-1.501v-1.732c.024-.475.212-.928.53-1.281l1.222-1.231a1.491 1.491 0 0 0 0-2.122Zm-9.31-1.192a.76.76 0 0 0-.75.751c0 .415.336.75.75.75h1.502a2.252 2.252 0 0 1 0 4.504v1.503h-1.501v-1.502A2.242 2.242 0 0 1 8.996 13.5h1.501a.76.76 0 0 0 .75.75h1.502a.76.76 0 0 0 .751-.75.76.76 0 0 0-.75-.75h-1.502a2.242 2.242 0 0 1-2.252-2.253 2.242 2.242 0 0 1 2.242-2.242V6.754h1.501v1.501a2.242 2.242 0 0 1 2.262 2.242H13.5a.76.76 0 0 0-.75-.75h-1.502Z" fill="#000" fill-rule="nonzero"/></svg>