<?xml version="1.0" encoding="UTF-8"?>
<svg width="24px" height="24px" viewBox="0 0 24 24" version="1.1" xmlns="http://www.w3.org/2000/svg" xmlns:xlink="http://www.w3.org/1999/xlink">
    <title>10.Dolar Stamp</title>
    <g id="Page-1" stroke="none" stroke-width="1" fill="none" fill-rule="evenodd">
        <g id="Artboard" transform="translate(-168.000000, -135.000000)" fill="#000000" fill-rule="nonzero">
            <g id="10.Dolar-Stamp" transform="translate(168.000000, 135.000000)">
                <path d="M20.5567169,10.9375579 L19.3355541,9.71639511 C19.0188825,9.36162622 18.8318654,8.90996226 18.805049,8.43517518 L18.805049,6.69351684 C18.7995468,5.86821179 18.1289428,5.20207842 17.3036194,5.20209676 L15.5719706,5.20209676 C15.0966419,5.17766597 14.6442161,4.99033342 14.2907507,4.67159163 L13.0595784,3.44041935 C12.4711383,2.86040962 11.5259979,2.86040962 10.9375579,3.44041935 L9.71639511,4.67159163 C9.36162622,4.98826327 8.90996226,5.17528038 8.43517518,5.20209676 L6.69351684,5.20209676 C6.29796764,5.20209676 5.91861911,5.35922807 5.63892359,5.63892359 C5.35922807,5.91861911 5.20209676,6.29796764 5.20209676,6.69351684 L5.20209676,8.43517518 C5.17528038,8.90996226 4.98826327,9.36162622 4.67159163,9.71639511 L3.44041935,10.9375579 C2.86040962,11.5259979 2.86040962,12.4711383 3.44041935,13.0595784 L4.67159163,14.2907507 C4.99033342,14.6442161 5.17766597,15.0966419 5.20209676,15.5719706 L5.20209676,17.3036194 C5.20207842,18.1289428 5.86821179,18.7995468 6.69351684,18.805049 L8.43517518,18.805049 C8.90996226,18.8318654 9.36162622,19.0188825 9.71639511,19.3355541 L10.9375579,20.5567169 C11.2177585,20.840359 11.5998636,21 11.9985681,21 C12.3972726,21 12.7793777,20.840359 13.0595784,20.5567169 L14.2907507,19.3355541 C14.6442161,19.0168123 15.0966419,18.8294798 15.5719706,18.805049 L17.3036194,18.805049 C18.1305645,18.7995904 18.7995904,18.1305645 18.805049,17.3036194 L18.805049,15.5719706 C18.8294798,15.0966419 19.0168123,14.6442161 19.3355541,14.2907507 L20.5567169,13.0595784 C20.840359,12.7793777 21,12.3972726 21,11.9985681 C21,11.5998636 20.840359,11.2177585 20.5567169,10.9375579 Z M11.2478533,9.7464237 C10.8354986,9.75181465 10.5025295,10.0847838 10.4971385,10.4971385 L10.4971385,10.4971385 C10.4971385,10.9117468 10.833245,11.2478533 11.2478533,11.2478533 L12.7492829,11.2478533 C13.9931079,11.2478533 15.0014273,12.2561727 15.0014273,13.4999977 L15.0014273,13.4999977 C15.0014273,14.7438227 13.9931079,15.7521421 12.7492829,15.7521421 L12.7492829,17.253574 L11.2478533,17.253574 L11.2478533,15.7521421 C10.6497311,15.7548183 10.0753331,15.518399 9.65239256,15.0954585 C9.22945203,14.6725179 8.9930327,14.09812 8.99568643,13.4999977 L10.4971385,13.4999977 C10.5025295,13.9123524 10.8354986,14.2453216 11.2478533,14.2507125 L12.7492829,14.2507125 C13.1616376,14.2453216 13.4946068,13.9123524 13.4999977,13.4999977 L13.4999977,13.4999977 C13.4946068,13.087643 13.1616376,12.7546739 12.7492829,12.7492829 L11.2478533,12.7492829 C10.6497311,12.7519591 10.0753331,12.5155398 9.65239256,12.0925993 C9.22945203,11.6696587 8.9930327,11.0952608 8.99568643,10.4971385 L8.99568643,10.4971385 C8.99568643,9.25884161 9.99954688,8.25500363 11.2378438,8.25500363 L11.2378438,8.25500363 L11.2378438,6.75357402 L12.7392734,6.75357402 L12.7392734,8.25500363 C13.3373855,8.24966313 13.9128377,8.48352765 14.3376593,8.90458973 C14.7624809,9.32565182 15.0014273,9.89900253 15.0014273,10.4971385 L13.4999977,10.4971385 C13.4946068,10.0847838 13.1616376,9.75181465 12.7492829,9.7464237 L11.2478533,9.7464237 Z" id="Dolar-Stamp"></path>
            </g>
        </g>
    </g>
</svg>