<svg width="24" height="24" viewBox="0 0 24 24" xmlns="http://www.w3.org/2000/svg"><path d="M7.632 7.567v1.508c0 .69.478.926.901.926.423 0 .942-.236.942-.926V7.568h4.91v1.507c0 .665.595.926 1.018.926.423 0 1.032-.261 1.032-.926V7.568h.308c.563 0 1.033.337 1.08.787l1.174 11.723c.047.495-.446.922-1.057.922H6.06c-.61 0-1.104-.427-1.057-.922L6.177 8.354c.047-.45.517-.788 1.08-.788h.375ZM12.235 3c.986 0 1.855.382 2.512 1.103.658.697.986 1.597.986 2.565v2.407c0 .18-.14.315-.328.315s-.33-.135-.33-.315V6.668c0-1.733-1.267-3.054-2.84-3.054h-.446c-1.573 0-2.912 1.321-2.912 3.054v2.407c0 .18-.14.315-.328.315a.351.351 0 0 1-.353-.315V6.668A3.72 3.72 0 0 1 9.23 4.102 3.495 3.495 0 0 1 11.79 3Z" fill="#000" fill-rule="nonzero"/></svg>