<?xml version="1.0" encoding="UTF-8"?>
<svg width="24px" height="24px" viewBox="0 0 24 24" version="1.1" xmlns="http://www.w3.org/2000/svg" xmlns:xlink="http://www.w3.org/1999/xlink">
    <title>11.Shopping Bag</title>
    <g id="Page-1" stroke="none" stroke-width="1" fill="none" fill-rule="evenodd">
        <g id="Artboard" transform="translate(-201.000000, -135.000000)" fill="#000000" fill-rule="nonzero">
            <g id="11.Shopping-Bag" transform="translate(201.000000, 135.000000)">
                <path d="M7.63211124,7.5675 L7.63211124,9.075 C7.63211124,9.76538371 8.11045242,10.0006338 8.53308408,10.0006338 C8.95571573,10.0006338 9.47530969,9.76538371 9.47530969,9.075 L9.47530969,9.075 L9.47530969,7.5675 L14.3842338,7.5675 L14.3842338,9.075 C14.3842338,9.73995094 14.9804355,10.0006338 15.4030671,10.0006338 C15.8256988,10.0006338 16.4346291,9.73995094 16.4346291,9.075 L16.4346291,9.075 L16.4346291,7.5675 L16.7428663,7.5675 C17.3063752,7.5675 17.7759659,7.905 17.822925,8.355 L17.822925,8.355 L18.9969018,20.0775 C19.0438609,20.5725 18.5507906,21 17.9403227,21 L17.9403227,21 L6.05967733,21 C5.44920939,21 4.95613913,20.5725 5.0030982,20.0775 L5.0030982,20.0775 L6.17707501,8.355 C6.22403409,7.905 6.69362481,7.5675 7.25713368,7.5675 L7.25713368,7.5675 L7.63211124,7.5675 Z M12.2347954,3 C13.2209359,3 14.0896787,3.3825 14.7471057,4.1025 C15.4045328,4.8 15.7332463,5.7 15.7332463,6.6675 L15.7332463,6.6675 L15.7332463,9.075 C15.7332463,9.255 15.592369,9.39 15.4045328,9.39 C15.2166965,9.39 15.0758192,9.255 15.0758192,9.075 L15.0758192,9.075 L15.0758192,6.6675 C15.0758192,4.935 13.8079243,3.6139993 12.2347954,3.6139993 L12.2347954,3.6139993 L11.7886842,3.6139993 C10.2155552,3.6139993 8.87722168,4.935 8.87722168,6.6675 L8.87722168,6.6675 L8.87722168,9.075 C8.87722168,9.255 8.73634446,9.39 8.54850817,9.39 C8.36067188,9.39 8.21979467,9.255 8.19631513,9.075 L8.19631513,9.075 L8.19631513,6.6675 C8.19631513,5.7 8.57198771,4.8 9.22941472,4.1025 C9.91032128,3.3825 10.8260232,3 11.7886842,3 L11.7886842,3 Z" id="Shopping-Bag"></path>
            </g>
        </g>
    </g>
</svg>