<?xml version="1.0" encoding="UTF-8"?>
<svg width="24px" height="24px" viewBox="0 0 24 24" version="1.1" xmlns="http://www.w3.org/2000/svg" xmlns:xlink="http://www.w3.org/1999/xlink">
    <title>13.Trolley</title>
    <g id="Page-1" stroke="none" stroke-width="1" fill="none" fill-rule="evenodd">
        <g id="Artboard" transform="translate(-66.000000, -169.000000)" fill="#000000" fill-rule="nonzero">
            <g id="13.Trolley" transform="translate(66.000000, 169.000000)">
                <path d="M20.3509251,4.43172382 C20.6772,4.39093946 20.9747603,4.62237527 21.0155447,4.94865016 C21.056329,5.27492505 20.8248932,5.57248537 20.4986183,5.61326973 L20.4986183,5.61326973 L18.5914591,5.83685172 C17.9749088,5.89177425 17.4547033,6.31824898 17.2799432,6.91205849 L17.2799432,6.91205849 L14.9168514,15.2774035 C15.9225819,15.844334 16.4105561,17.0252317 16.0983973,18.1367446 C15.7149514,19.4669282 14.3291809,20.2376806 12.9968393,19.8618016 C11.8991168,19.5318243 11.1678483,18.4958606 11.2245204,17.3510166 L11.2245204,17.3510166 L3.45358448,15.1362857 C3.24065843,15.0872642 3.07217575,14.924723 3.01554466,14.7136934 C2.95891358,14.5026637 3.02338248,14.2776086 3.18315802,14.1285704 C3.34293356,13.9795321 3.57192286,13.9308502 3.77850961,14.0020016 L3.77850961,14.0020016 L11.5317224,16.2167325 C11.590379,16.1091403 11.6575475,16.0064121 11.7325852,15.9095306 L11.7325852,15.9095306 L11.779847,15.856361 C11.866782,15.7527159 11.9615873,15.6559356 12.063418,15.5668822 L12.063418,15.5668822 L12.1047721,15.5255281 C12.5779329,15.1184504 13.1885418,14.9071671 13.812106,14.9347552 L13.812106,14.9347552 L16.1988287,6.5930411 C16.4915383,5.55685968 17.375525,4.7961659 18.4437659,4.66121354 L18.4437659,4.66121354 L20.1333766,4.44853528 Z M13.6850898,16.202692 L13.6289663,16.204917 L13.3276721,16.204917 C13.2435973,16.2297018 13.1624005,16.2633688 13.0854552,16.3053484 C12.8539909,16.4246623 12.6628731,16.609615 12.5360364,16.8370441 L12.5360364,16.8370441 L12.4801191,16.9587986 L12.4801191,16.9587986 L12.435605,17.0851687 C12.334007,17.4237958 12.3767616,17.7893478 12.5537596,18.0953905 C12.8137403,18.5625423 13.3292737,18.8273729 13.8604341,18.7666319 C14.3915945,18.7058909 14.8340308,18.3315115 14.9818364,17.8177272 C15.1383175,17.1326483 14.7345242,16.4441289 14.0602306,16.2462711 C13.956274,16.2180073 13.8489404,16.2040937 13.7412132,16.204917 C13.7038564,16.2019503 13.6663232,16.2019503 13.6289663,16.204917 Z M6.49030445,4.07454219 C6.62783047,3.99801562 6.79020709,3.97952748 6.94141652,4.02317875 L6.94141652,4.02317875 L14.3910635,6.12633046 C14.5425683,6.16894493 14.6708068,6.27025082 14.7473334,6.40777685 C14.8238599,6.54530288 14.8423481,6.7076795 14.7986968,6.85888892 L14.7986968,6.85888892 L12.6719142,14.3085359 C12.6283672,14.4597396 12.5262999,14.5873237 12.3883431,14.6629996 C12.3024279,14.7135921 12.2044763,14.7401207 12.1047721,14.7398001 C12.0500035,14.7488365 11.9941243,14.7488365 11.9393557,14.7398001 L11.9393557,14.7398001 L4.48970877,12.6130175 C4.33850508,12.5694705 4.21092089,12.4674032 4.135245,12.3294465 C4.05868825,12.1927548 4.03956281,12.031251 4.08207543,11.880459 L4.08207543,11.880459 L6.20885806,4.43081209 C6.25147253,4.2793072 6.35277842,4.15106877 6.49030445,4.07454219 Z" id="Trolley" transform="translate(12.007772, 11.978489) scale(-1, 1) translate(-12.007772, -11.978489) "></path>
            </g>
        </g>
    </g>
</svg>