<?xml version="1.0" encoding="UTF-8"?>
<svg width="24px" height="24px" viewBox="0 0 24 24" version="1.1" xmlns="http://www.w3.org/2000/svg" xmlns:xlink="http://www.w3.org/1999/xlink">
    <title>14.Truck</title>
    <g id="Page-1" stroke="none" stroke-width="1" fill="none" fill-rule="evenodd">
        <g id="Artboard" transform="translate(-100.000000, -169.000000)" fill="#000000" fill-rule="nonzero">
            <g id="14.Truck" transform="translate(100.000000, 169.000000)">
                <path d="M6.54950087,14.9482717 C7.6573875,14.9482717 8.55475568,15.8555358 8.55475568,16.9741359 C8.55475568,18.0927359 7.6573875,19 6.54950087,19 C5.44161424,19 4.54424606,18.0927359 4.54424606,16.9741359 C4.54424606,15.8555358 5.44161424,14.9482717 6.54950087,14.9482717 Z M17.4904642,14.9482717 C18.5983509,14.9482717 19.495719,15.8555358 19.495719,16.9741359 C19.495719,18.0927359 18.5983509,19 17.4904642,19 C16.3832438,19 15.4852094,18.0927359 15.4852094,16.9741359 C15.4852094,15.8555358 16.3832438,14.9482717 17.4904642,14.9482717 Z M6.54950087,16.0904283 C6.0665076,16.0904283 5.67478341,16.4861785 5.67478341,16.9741359 C5.67478341,17.4620932 6.06584141,17.8578434 6.54950087,17.8578434 C7.03316034,17.8578434 7.42488453,17.4620932 7.42421918,16.9741359 C7.42421918,16.4868516 7.03249414,16.0904283 6.54950087,16.0904283 Z M17.4904642,16.0904283 C17.0081372,16.0904283 16.6157468,16.4861785 16.6157468,16.9741359 C16.6157468,17.4620932 17.007471,17.8578434 17.4904642,17.8578434 C17.9747899,17.8578434 18.3658479,17.4620932 18.3651825,16.9741359 C18.3651825,16.4868516 17.9747899,16.0904283 17.4904642,16.0904283 Z M20.5669648,5 C20.8054635,5 21.0006594,5.19720206 21,5.43747897 L21,5.43747897 L21,16.5366569 C21,16.7769338 20.8047974,16.9741359 20.5669648,16.9741359 L20.5669648,16.9741359 L20.1619167,16.9741359 C20.1619167,15.4860343 18.9634272,14.2752272 17.4904642,14.2752272 C16.0175013,14.2752272 14.8190118,15.4860343 14.8190118,16.9741359 L14.8190118,16.9741359 L9.22095329,16.9741359 C9.22095329,15.4860343 8.02246379,14.2752272 6.54950087,14.2752272 C5.07653795,14.2752272 3.87804845,15.4860343 3.87804845,16.9741359 L3.87804845,16.9741359 L3.49964821,16.9741359 C3.2238424,16.9741359 3,16.7479929 3,16.4693524 L3,16.4693524 L3,11.9417816 C3,11.8199606 3.04463524,11.7015047 3.12457895,11.6092976 L3.12457895,11.6092976 L6.36096695,7.8920725 C6.45556701,7.78303928 6.59213752,7.72111918 6.7360362,7.72111918 L6.7360362,7.72111918 L9.9710918,7.72111918 L9.9710918,5.43747897 C9.9710918,5.19720206 10.1656215,5 10.4041202,5 L10.4041202,5 Z M7.52614657,8.73068602 L6.96121099,8.73068602 L4.60420385,11.4369982 L7.52614657,11.4369982 L7.52614657,8.73068602 Z" id="Truck" transform="translate(12.000000, 12.000000) scale(-1, 1) translate(-12.000000, -12.000000) "></path>
            </g>
        </g>
    </g>
</svg>