<svg width="24" height="24" viewBox="0 0 24 24" xmlns="http://www.w3.org/2000/svg"><path d="M17.45 14.948a2.016 2.016 0 0 0-2.005 2.026c0 1.119.898 2.026 2.005 2.026a2.016 2.016 0 0 0 2.006-2.026 2.016 2.016 0 0 0-2.006-2.026Zm-10.94 0a2.016 2.016 0 0 0-2.006 2.026c0 1.119.898 2.026 2.006 2.026a2.016 2.016 0 0 0 2.005-2.026 2.016 2.016 0 0 0-2.005-2.026Zm10.94 1.142a.88.88 0 0 1 .875.884.879.879 0 0 1-.875.884.879.879 0 0 1-.874-.884.88.88 0 0 1 .874-.884Zm-10.94 0a.88.88 0 0 1 .874.884.88.88 0 0 1-.874.884.878.878 0 0 1-.875-.884c0-.487.39-.884.875-.884ZM3.433 5A.436.436 0 0 0 3 5.437v11.1c0 .24.195.437.433.437h.405c0-1.488 1.199-2.699 2.672-2.699 1.472 0 2.671 1.211 2.671 2.7h5.598c0-1.489 1.199-2.7 2.671-2.7 1.473 0 2.672 1.211 2.672 2.7h.378c.276 0 .5-.227.5-.506v-4.527a.509.509 0 0 0-.125-.333L17.64 7.892a.496.496 0 0 0-.375-.17h-3.235V5.436A.437.437 0 0 0 13.596 5Zm13.04 3.73h.566l2.357 2.707h-2.922V8.731Z" fill="#000" fill-rule="nonzero"/></svg>