<svg width="24" height="24" viewBox="0 0 24 24" xmlns="http://www.w3.org/2000/svg"><path d="M11.85 12.03c-.637-.262-3.397-1.626-5.413-2.638l5.467-2.647 5.414 2.618c-2.025 1.021-4.837 2.41-5.467 2.667ZM14.555 4l5.56 3.234-2.154 1.75-5.56-2.678L14.553 4ZM3.504 7.237l5.568-3.234 2.31 2.312-5.603 2.714-2.276-1.792Zm2.247 2.5c3.234 1.629 4.747 2.357 5.47 2.678l-2.734 1.612c-.619-.242-3.445-1.649-5.487-2.678l2.75-1.611Zm.388 3.868c2.185 1.063 2.326 1.066 2.385 1.066.056 0 .11-.014.157-.043l2.81-1.648V20l-5.352-2.828v-3.567Zm11.531 3.567L12.112 20v-7.163l3.232 1.794a.31.31 0 0 0 .15.04c.058 0 .188 0 2.179-.965l-.003 3.466Zm-2.146-3.143-2.961-1.648c.753-.343 2.286-1.08 5.453-2.677L21 11.352c-2.045 1.038-4.877 2.438-5.476 2.677Z" fill="#000" fill-rule="nonzero"/></svg>