<?xml version="1.0" encoding="UTF-8"?>
<svg width="24px" height="24px" viewBox="0 0 24 24" version="1.1" xmlns="http://www.w3.org/2000/svg" xmlns:xlink="http://www.w3.org/1999/xlink">
    <title>17.Globe</title>
    <g id="Page-1" stroke="none" stroke-width="1" fill="none" fill-rule="evenodd">
        <g id="Artboard" transform="translate(-201.000000, -169.000000)" fill="#000000" fill-rule="nonzero">
            <g id="17.Globe" transform="translate(201.000000, 169.000000)">
                <path d="M12,3 C7.02943725,3 3,7.02943725 3,12 C3,16.9705627 7.02943725,21 12,21 C16.9705627,21 21,16.9705627 21,12 C20.9942139,7.03183589 16.9681641,3.00578607 12,3 Z M19.411,9 L16.672,9 C16.283407,7.17711044 15.3392346,5.51952455 13.9695,4.2555 C16.4325436,4.88563403 18.4512317,6.64574901 19.411,9 Z M20,12 C19.9974211,12.6751491 19.9088756,13.3472216 19.7365,14 L16.8595,14 C17.046835,12.6732469 17.046835,11.3267531 16.8595,10 L19.7365,10 C19.9088756,10.6527784 19.9974211,11.3248509 20,12 L20,12 Z M4,12 C4.00257889,11.3248509 4.09112443,10.6527784 4.2635,10 L7.1405,10 C6.95316501,11.3267531 6.95316501,12.6732469 7.1405,14 L4.2635,14 C4.09112443,13.3472216 4.00257889,12.6751491 4,12 Z M7.9999757,12 C7.99868588,11.3302635 8.05068342,10.6614849 8.1555,10 L11.5,10 L11.5,14 L8.1555,14 C8.05068342,13.3385151 7.99868588,12.6697365 7.9999757,12 L7.9999757,12 Z M15.6335,9 L12.5,9 L12.5,4.3745 C14.0818672,5.47449665 15.1986211,7.12298728 15.6335,9 L15.6335,9 Z M11.5,4.3745 L11.5,9 L8.3665,9 C8.80137888,7.12298728 9.91813282,5.47449665 11.5,4.3745 Z M11.5,15 L11.5,19.6255 C9.91813282,18.5255033 8.80137888,16.8770127 8.3665,15 L11.5,15 Z M12.5,19.6255 L12.5,15 L15.6335,15 C15.1986211,16.8770127 14.0818672,18.5255033 12.5,19.6255 L12.5,19.6255 Z M12.5,14 L12.5,10 L15.8445,10 C16.0518331,11.3252733 16.0518331,12.6747267 15.8445,14 L12.5,14 Z M10.0305,4.2555 C8.66076542,5.51952455 7.71659303,7.17711044 7.328,9 L4.589,9 C5.54876826,6.64574901 7.56745637,4.88563403 10.0305,4.2555 L10.0305,4.2555 Z M4.589,15 L7.328,15 C7.71590665,16.8225828 8.65918502,18.4801325 10.028,19.7445 C7.56590245,19.1136659 5.54826145,17.3536553 4.589,15 L4.589,15 Z M13.9695,19.7445 C15.3392346,18.4804755 16.283407,16.8228896 16.672,15 L19.411,15 C18.4512317,17.354251 16.4325436,19.114366 13.9695,19.7445 Z" id="globe"></path>
            </g>
        </g>
    </g>
</svg>