<svg width="24" height="24" viewBox="0 0 24 24" xmlns="http://www.w3.org/2000/svg"><path d="m10 19 4 .023c-.246 1.159-1.063 1.967-2 1.977-.946-.001-1.77-.825-2-2Zm1.996-16 .274.007a5.76 5.76 0 0 1 3.874 1.782 6.236 6.236 0 0 1 1.718 4.318v2.786c0 2.6 2.022 5.208 2.022 5.208a.51.51 0 0 1 .057.563.504.504 0 0 1-.475.336H4.536a.574.574 0 0 1-.484-.277.644.644 0 0 1 .057-.612 9.886 9.886 0 0 0 2.022-5.218V9.107c0-1.62.618-3.173 1.718-4.318A5.75 5.75 0 0 1 11.996 3Z" fill="#000" fill-rule="nonzero"/></svg>