<svg width="24" height="24" viewBox="0 0 24 24" xmlns="http://www.w3.org/2000/svg"><path d="M13.89 5.017c.54.18.81.63.81 1.17l-3.42 12.6c-.18.36-.54.63-.9.63h-.27c-.54-.18-.81-.63-.72-1.17l3.42-12.6c.09-.45.63-.72 1.08-.63Zm3.24 2.97 3.6 3.6c.36.36.36.9 0 1.26l-3.6 3.6c-.18.18-.45.27-.63.27s-.45-.09-.63-.27a.87.87 0 0 1 0-1.26l2.97-2.97-2.97-2.97a.87.87 0 0 1 0-1.26.87.87 0 0 1 1.26 0Zm-9 0c.36.36.36.9 0 1.26l-2.97 2.97 2.97 2.97c.36.36.36.9 0 1.26-.18.18-.36.27-.63.27s-.45-.09-.63-.27l-3.6-3.6a.87.87 0 0 1 0-1.26l3.6-3.6a.87.87 0 0 1 1.26 0Z" fill="#000" fill-rule="nonzero"/></svg>