<?xml version="1.0" encoding="UTF-8"?>
<svg width="24px" height="24px" viewBox="0 0 24 24" version="1.1" xmlns="http://www.w3.org/2000/svg" xmlns:xlink="http://www.w3.org/1999/xlink">
    <title>22.screen</title>
    <g id="Page-1" stroke="none" stroke-width="1" fill="none" fill-rule="evenodd">
        <g id="Artboard" transform="translate(-168.000000, -203.000000)" fill="#000000" fill-rule="nonzero">
            <g id="22.screen" transform="translate(168.000000, 203.000000)">
                <path d="M20.0227267,3 C20.5360904,3.00866263 20.9589976,3.40722814 21,3.92102339 L21,3.92102339 L21,16.4349277 C21,16.9435949 20.589248,17.3559511 20.0825598,17.3559511 L20.0825598,17.3559511 L13.8200331,17.3559511 L13.8200331,18.8175751 L14.5978629,18.8175751 C15.5373516,18.8285428 16.2931963,19.5962665 16.2931328,20.5394883 C16.2878443,20.79159 16.0855336,20.9946908 15.8344127,21 L15.8344127,21 L8.1658092,21 C7.91468827,20.9946908 7.7123776,20.79159 7.7070891,20.5394883 L7.7070891,20.5394883 L7.71352504,20.3699053 C7.74804439,19.9769382 7.91782398,19.6061767 8.19651531,19.3231054 C8.51501968,18.9995953 8.94926849,18.8175436 9.40235905,18.8175751 L9.40235905,18.8175751 L10.1801888,18.8175751 L10.1801888,17.3559511 L3.91766213,17.3559511 C3.41097389,17.3559511 3.00022192,16.9435949 3.00022192,16.4349277 L3.00022192,16.4349277 L3.00022192,3.92102339 C2.99485465,3.67861302 3.0870372,3.44426228 3.25593557,3.2709363 C3.42483394,3.09761032 3.65619085,3 3.89771778,3 L3.89771778,3 Z M11.9751805,15.1034483 C11.6282092,15.1034483 11.3469334,15.3858226 11.3469334,15.7341491 C11.3469334,16.0824755 11.6282092,16.3648498 11.9751805,16.3648498 C12.3199133,16.3594833 12.598082,16.0802282 12.6034276,15.7341491 C12.6034276,15.3858226 12.3221518,15.1034483 11.9751805,15.1034483 Z M19.1152587,4.83203562 L4.83510234,4.83203562 L4.83510234,14.1423804 L19.1152587,14.1423804 L19.1152587,4.83203562 Z M17.4399331,11.4894327 C17.5335603,11.4894327 17.6094601,11.565629 17.6094601,11.6596218 L17.6094601,11.6596218 L17.6094601,12.5205784 C17.6045037,12.6124314 17.5314287,12.6857918 17.4399331,12.6907675 L17.4399331,12.6907675 L11.1674342,12.6907675 C11.0759387,12.6857918 11.0028636,12.6124314 10.9979072,12.5205784 L10.9979072,12.5205784 L10.9979072,11.6596218 C10.9979072,11.565629 11.0738071,11.4894327 11.1674342,11.4894327 L11.1674342,11.4894327 Z M9.7613574,6.34371504 C9.85498457,6.34371504 9.93088439,6.41991152 9.93088439,6.51390436 L9.93088439,6.51390436 L9.93088439,12.5205784 C9.93088439,12.6145713 9.85498457,12.6907678 9.7613574,12.6907678 L9.7613574,12.6907678 L6.5303723,12.6907678 C6.43500495,12.6909154 6.35617121,12.6161705 6.35087313,12.5205784 L6.35087313,12.5205784 L6.35087313,6.51390436 C6.35617121,6.41831229 6.43500495,6.34356741 6.5303723,6.34371504 L6.5303723,6.34371504 Z M17.4399331,8.90656287 C17.5314287,8.91153862 17.6045037,8.98489903 17.6094601,9.07675196 L17.6094601,9.07675196 L17.6094601,9.93770858 C17.6094601,10.0317014 17.5335603,10.1078977 17.4399331,10.1078977 L17.4399331,10.1078977 L11.1674342,10.1078977 C11.1224729,10.1078977 11.079353,10.0899671 11.0475606,10.0580504 C11.0157681,10.0261338 10.9979072,9.98284554 10.9979072,9.93770858 L10.9979072,9.93770858 L10.9979072,9.07675196 C11.0028636,8.98489903 11.0759387,8.91153862 11.1674342,8.90656287 L11.1674342,8.90656287 Z M17.4399331,6.34371526 C17.5314287,6.34869101 17.6045037,6.42205143 17.6094601,6.51390436 L17.6094601,6.51390436 L17.6094601,7.37486098 C17.6094601,7.46885382 17.5335603,7.54505008 17.4399331,7.54505008 L17.4399331,7.54505008 L11.1674342,7.54505008 C11.0738071,7.54505008 10.9979072,7.46885382 10.9979072,7.37486098 L10.9979072,7.37486098 L10.9979072,6.51390436 C11.0028636,6.42205143 11.0759387,6.34869101 11.1674342,6.34371526 L11.1674342,6.34371526 Z" id="screen"></path>
            </g>
        </g>
    </g>
</svg>