<svg width="24" height="24" viewBox="0 0 24 24" xmlns="http://www.w3.org/2000/svg"><path d="M13.174 3c-1.182 0-2.152.97-2.152 2.152 0 .76.403 1.433 1.002 1.816l-.978 3.075h-.024c-.81 0-1.547.333-2.08.869L6.706 8.955a1.93 1.93 0 0 0 .208-.868A1.965 1.965 0 0 0 4.957 6.13 1.965 1.965 0 0 0 3 8.087c0 1.074.883 1.956 1.957 1.956.338 0 .656-.084.935-.238l2.403 2.103a2.892 2.892 0 0 0 .281 2.684l-2.042 2.043a2.327 2.327 0 0 0-1.186-.33A2.357 2.357 0 0 0 3 18.651 2.357 2.357 0 0 0 5.348 21a2.357 2.357 0 0 0 2.348-2.348 2.32 2.32 0 0 0-.33-1.192l2.036-2.036a2.913 2.913 0 0 0 3.087.092l.856.96a2.126 2.126 0 0 0-.367 1.198c0 1.182.97 2.152 2.152 2.152 1.182 0 2.153-.97 2.153-2.152 0-1.182-.97-2.152-2.153-2.152-.315 0-.615.072-.886.195l-.874-.984a2.916 2.916 0 0 0 .525-2.348l3.987-1.223c.324.392.814.642 1.357.642A1.77 1.77 0 0 0 21 10.044a1.77 1.77 0 0 0-1.76-1.761 1.77 1.77 0 0 0-1.762 1.76v.019l-4.053 1.247a2.98 2.98 0 0 0-1.23-1.015l.954-2.99h.025c1.182 0 2.152-.97 2.152-2.152 0-1.181-.97-2.152-2.152-2.152Zm0 1.174a.97.97 0 0 1 .978.978.97.97 0 0 1-.978.978.97.97 0 0 1-.978-.978.97.97 0 0 1 .978-.978Zm-8.217 3.13c.439 0 .782.344.782.783 0 .44-.343.783-.782.783a.774.774 0 0 1-.783-.783c0-.44.343-.783.783-.783Zm14.282 2.153c.331 0 .587.255.587.586a.578.578 0 0 1-.587.587.578.578 0 0 1-.587-.587c0-.33.256-.586.587-.586Zm-8.217 1.76c.98 0 1.76.782 1.76 1.761 0 .98-.78 1.761-1.76 1.761s-1.761-.781-1.761-1.76c0-.98.781-1.762 1.76-1.762Zm4.108 5.479a.97.97 0 0 1 .979.978.97.97 0 0 1-.979.978.97.97 0 0 1-.978-.978.97.97 0 0 1 .978-.978Zm-9.782.782c.655 0 1.174.519 1.174 1.174 0 .655-.519 1.174-1.174 1.174a1.165 1.165 0 0 1-1.174-1.174c0-.655.519-1.174 1.174-1.174Z" fill="#000" fill-rule="nonzero"/></svg>