<?xml version="1.0" encoding="UTF-8"?>
<svg width="24px" height="24px" viewBox="0 0 24 24" version="1.1" xmlns="http://www.w3.org/2000/svg" xmlns:xlink="http://www.w3.org/1999/xlink">
    <title>27.Search</title>
    <g id="Page-1" stroke="none" stroke-width="1" fill="none" fill-rule="evenodd">
        <g id="Artboard" transform="translate(-134.000000, -237.000000)" fill="#000000" fill-rule="nonzero">
            <g id="27.Search" transform="translate(134.000000, 237.000000)">
                <path d="M20.7136591,18.5157025 L17.2374242,15.0394676 C19.4681655,11.7476454 18.8305711,7.29940937 15.7649688,4.76674617 C12.6993665,2.23408296 8.21072663,2.44725402 5.3989389,5.25904174 C2.58715118,8.07082947 2.37398012,12.5594694 4.90664333,15.6250717 C7.43930654,18.690674 11.8875425,19.3282683 15.1793648,17.0975271 L18.6555997,20.5737619 C19.2239171,21.1420794 20.1453417,21.1420794 20.7136591,20.5737619 C21.2819765,20.0054445 21.2819765,19.0840199 20.7136591,18.5157025 L20.7136591,18.5157025 Z M10.8506199,15.8578776 C8.76761413,15.8586885 6.88930102,14.6044333 6.09179439,12.680142 C5.29428776,10.7558507 5.73470057,8.54061871 7.20760822,7.06771106 C8.68051587,5.59480341 10.8957479,5.1543906 12.8200392,5.95189723 C14.7443305,6.74940386 15.9985857,8.62771697 15.9977748,10.7107228 C15.9977748,13.5534177 13.6933149,15.8578776 10.8506199,15.8578776 Z" id="Search"></path>
            </g>
        </g>
    </g>
</svg>