<svg width="24" height="24" viewBox="0 0 24 24" xmlns="http://www.w3.org/2000/svg"><path d="M18.89 9.79C18.89 6.04 15.804 3 12 3 8.195 3 5.11 6.04 5.11 9.79c-1.2.112-2.115 1.108-2.11 2.296v2.819a2.32 2.32 0 0 0 .705 1.652 2.388 2.388 0 0 0 1.685.673h2.4V9.79H6.5c0-2.993 2.462-5.42 5.5-5.42 3.037 0 5.5 2.427 5.5 5.42h-1.29v7.48h1.18a1.907 1.907 0 0 1-1.81 1.3h-1.67a1.527 1.527 0 0 0-.38-.551 1.788 1.788 0 0 0-2.501.004c-.69.681-.69 1.784 0 2.465.69.68 1.808.683 2.5.004.157-.162.286-.348.38-.551h1.67c1.594 0 2.96-1.125 3.24-2.671 1.225-.092 2.174-1.095 2.18-2.306v-2.809c.028-1.209-.89-2.237-2.11-2.365Z" fill="#000" fill-rule="nonzero"/></svg>