<?xml version="1.0" encoding="UTF-8"?>
<svg width="24px" height="24px" viewBox="0 0 24 24" version="1.1" xmlns="http://www.w3.org/2000/svg" xmlns:xlink="http://www.w3.org/1999/xlink">
    <title>30.Special</title>
    <g id="Page-1" stroke="none" stroke-width="1" fill="none" fill-rule="evenodd">
        <g id="Artboard" transform="translate(-235.000000, -237.000000)" fill="#000000" fill-rule="nonzero">
            <g id="30.Special" transform="translate(235.000000, 237.000000)">
                <path d="M16.5068826,20.811378 L12.3442235,17.4092047 C12.0517704,17.1750548 11.6360373,17.1750548 11.3435843,17.4092047 L7.26097629,20.811378 C7.02865795,21.0031425 6.70588961,21.0419294 6.43475301,20.9106649 C6.1636164,20.7794004 5.99384468,20.5021615 6.00017088,20.2009881 L6.00017088,3.7604858 C6.00017088,3.34048109 6.34065198,3 6.76065669,3 L17.0072022,3 C17.4272069,3 17.767688,3.34048109 17.767688,3.7604858 L17.767688,20.2009881 C17.7831606,20.5061079 17.6145398,20.7908661 17.339558,20.9239922 C17.0645763,21.0571183 16.7366236,21.0127647 16.5068826,20.811378 L16.5068826,20.811378 Z" id="Special"></path>
            </g>
        </g>
    </g>
</svg>