<svg width="24" height="24" viewBox="0 0 24 24" xmlns="http://www.w3.org/2000/svg">
<path d="M4 18.3V16.5H6V10.2C6 8.955 6.41667 7.8486 7.25 6.8808C8.08333 5.9136 9.16667 5.28 10.5 4.98V4.35C10.5 3.975 10.646 3.6564 10.938 3.3942C11.2293 3.1314 11.5833 3 12 3C12.4167 3 12.7707 3.1314 13.062 3.3942C13.354 3.6564 13.5 3.975 13.5 4.35V4.98C14.8333 5.28 15.9167 5.9136 16.75 6.8808C17.5833 7.8486 18 8.955 18 10.2V16.5H20V18.3H4ZM12 21C11.45 21 10.9793 20.8239 10.588 20.4717C10.196 20.1189 10 19.695 10 19.2H14C14 19.695 13.8043 20.1189 13.413 20.4717C13.021 20.8239 12.55 21 12 21ZM8 16.5H16V10.2C16 9.21 15.6083 8.3625 14.825 7.6575C14.0417 6.9525 13.1 6.6 12 6.6C10.9 6.6 9.95833 6.9525 9.175 7.6575C8.39167 8.3625 8 9.21 8 10.2V16.5Z" fill="#000"/>
</svg>
