<svg width="24" height="24" viewBox="0 0 24 24" xmlns="http://www.w3.org/2000/svg">
<path d="M3.9 19.2V9.03C3.645 8.865 3.4314 8.655 3.2592 8.4C3.0864 8.145 3 7.845 3 7.5V4.8C3 4.305 3.1764 3.8811 3.5292 3.5283C3.8814 3.1761 4.305 3 4.8 3H19.2C19.695 3 20.1189 3.1761 20.4717 3.5283C20.8239 3.8811 21 4.305 21 4.8V7.5C21 7.845 20.9136 8.145 20.7408 8.4C20.5686 8.655 20.355 8.865 20.1 9.03V19.2C20.1 19.695 19.9239 20.1189 19.5717 20.4717C19.2189 20.8239 18.795 21 18.3 21H5.7C5.205 21 4.7811 20.8239 4.4283 20.4717C4.0761 20.1189 3.9 19.695 3.9 19.2ZM5.7 9.3V19.2H18.3V9.3H5.7ZM19.2 7.5V4.8H4.8V7.5H19.2ZM9.3 13.8H14.7V12H9.3V13.8ZM5.7 19.2V9.3V19.2Z" fill="#000"/>
</svg>
