<svg width="24" height="24" viewBox="0 0 24 24" xmlns="http://www.w3.org/2000/svg">
<path d="M6.6 13.8H13.8V12H6.6V13.8ZM6.6 11.1H17.4V9.3H6.6V11.1ZM6.6 8.4H17.4V6.6H6.6V8.4ZM3 21V4.8C3 4.305 3.1764 3.8811 3.5292 3.5283C3.8814 3.1761 4.305 3 4.8 3H19.2C19.695 3 20.1189 3.1761 20.4717 3.5283C20.8239 3.8811 21 4.305 21 4.8V15.6C21 16.095 20.8239 16.5189 20.4717 16.8717C20.1189 17.2239 19.695 17.4 19.2 17.4H6.6L3 21ZM4.8 16.6575L5.8575 15.6H19.2V4.8H4.8V16.6575ZM4.8 4.8V16.6575V4.8Z" fill="#000"/>
</svg>
