<svg width="24" height="24" viewBox="0 0 24 24" xmlns="http://www.w3.org/2000/svg"><path d="M18.214 5.038c.55 0 .994.445.994.994v13.974a.996.996 0 0 1-.996.994H7.531a.996.996 0 0 1-.996-.994v-.48h9.59c.861 0 1.562-.699 1.562-1.558V5.038ZM16.124 3c.55 0 .996.445.996.994v13.974a.996.996 0 0 1-.996.994H5.444a.996.996 0 0 1-.996-.994V7.555h.347l.086.003h2.73c.773 0 1.402-.628 1.402-1.4V3.434a.964.964 0 0 0-.006-.105V3Zm-5.137 11.643H7.503a.47.47 0 1 0 0 .94h3.482a.47.47 0 1 0 .002-.94Zm3.482-2.399H7.503a.47.47 0 1 0 0 .94h6.966a.47.47 0 1 0 0-.94Zm0-2.547H7.503a.47.47 0 1 0 0 .94h6.966a.47.47 0 1 0 0-.94ZM8.024 3.015c.215 0 .422.167.422.42v2.732a.835.835 0 0 1-.828.827H4.88a.419.419 0 0 1-.297-.714L7.73 3.14a.409.409 0 0 1 .293-.125Z" fill="#000" fill-rule="nonzero"/></svg>