<svg width="24" height="24" viewBox="0 0 24 24" xmlns="http://www.w3.org/2000/svg"><path d="M20.578 10.063a.42.42 0 0 1 .422.416v8.472c0 .614-.504 1.111-1.125 1.111H4.125A1.118 1.118 0 0 1 3 18.953v-8.473a.42.42 0 0 1 .422-.416h17.156ZM7.53 3.936c.226 0 .445.087.63.246l.09.086 1.062 1.123c.173.183.385.296.608.324l.112.007h9.844c.582 0 1.062.562 1.12 1.283l.005.146v1.25c0 .296-.189.536-.422.536H3.422c-.233 0-.422-.24-.422-.536V5.366c0-.74.443-1.348 1.01-1.421l.115-.007h3.404Z" fill="#000" fill-rule="nonzero"/></svg>