<svg width="24" height="24" viewBox="0 0 24 24" xmlns="http://www.w3.org/2000/svg">
<path d="M4.8 16.5V18.3H19.2V16.5H4.8ZM4.8 6.6H6.78C6.705 6.465 6.6561 6.3225 6.6333 6.1725C6.6111 6.0225 6.6 5.865 6.6 5.7C6.6 4.95 6.8625 4.3125 7.3875 3.7875C7.9125 3.2625 8.55 3 9.3 3C9.75 3 10.1661 3.1161 10.5483 3.3483C10.9311 3.5811 11.265 3.87 11.55 4.215L12 4.8L12.45 4.215C12.72 3.855 13.05 3.5625 13.44 3.3375C13.83 3.1125 14.25 3 14.7 3C15.45 3 16.0875 3.2625 16.6125 3.7875C17.1375 4.3125 17.4 4.95 17.4 5.7C17.4 5.865 17.3886 6.0225 17.3658 6.1725C17.3436 6.3225 17.295 6.465 17.22 6.6H19.2C19.695 6.6 20.1189 6.7764 20.4717 7.1292C20.8239 7.4814 21 7.905 21 8.4V18.3C21 18.795 20.8239 19.2189 20.4717 19.5717C20.1189 19.9239 19.695 20.1 19.2 20.1H4.8C4.305 20.1 3.8814 19.9239 3.5292 19.5717C3.1764 19.2189 3 18.795 3 18.3V8.4C3 7.905 3.1764 7.4814 3.5292 7.1292C3.8814 6.7764 4.305 6.6 4.8 6.6ZM4.8 13.8H19.2V8.4H14.61L16.5 10.965L15.06 12L12 7.86L8.94 12L7.5 10.965L9.345 8.4H4.8V13.8ZM9.3 6.6C9.555 6.6 9.7689 6.5139 9.9417 6.3417C10.1139 6.1689 10.2 5.955 10.2 5.7C10.2 5.445 10.1139 5.2311 9.9417 5.0583C9.7689 4.8861 9.555 4.8 9.3 4.8C9.045 4.8 8.8314 4.8861 8.6592 5.0583C8.4864 5.2311 8.4 5.445 8.4 5.7C8.4 5.955 8.4864 6.1689 8.6592 6.3417C8.8314 6.5139 9.045 6.6 9.3 6.6ZM14.7 6.6C14.955 6.6 15.1689 6.5139 15.3417 6.3417C15.5139 6.1689 15.6 5.955 15.6 5.7C15.6 5.445 15.5139 5.2311 15.3417 5.0583C15.1689 4.8861 14.955 4.8 14.7 4.8C14.445 4.8 14.2314 4.8861 14.0592 5.0583C13.8864 5.2311 13.8 5.445 13.8 5.7C13.8 5.955 13.8864 6.1689 14.0592 6.3417C14.2314 6.5139 14.445 6.6 14.7 6.6Z" fill="#000"/>
</svg>
