<svg width="24" height="24" viewBox="0 0 24 24" xmlns="http://www.w3.org/2000/svg"><path d="M19.714 7.179h-3.741a2.36 2.36 0 0 0 .815-1.768C16.788 4.08 15.651 3 14.253 3c-.828 0-1.523.39-1.965 1.1-.442-.71-1.137-1.1-1.965-1.1-1.398 0-2.535 1.08-2.535 2.41 0 .7.314 1.327.816 1.769H4.216C3.505 7.179 3 7.753 3 8.464v.804c0 .088.072.16.16.16h17.68c.088 0 .16-.072.16-.16v-.804c0-.71-.575-1.285-1.286-1.285Zm-5.461-3.054c.747 0 1.354.575 1.354 1.286 0 .71-.607 1.285-1.354 1.285h-1.354c0-1.928.607-2.571 1.354-2.571Zm-3.93 0c.748 0 1.354.643 1.354 2.571h-1.354c-.747 0-1.354-.574-1.354-1.285s.607-1.286 1.354-1.286Zm-6.322 6.67.013 8.92A1.29 1.29 0 0 0 5.3 21h6.426V10.473H4.322a.322.322 0 0 0-.321.322Zm15.68-.322h-6.83V21h5.866a1.29 1.29 0 0 0 1.285-1.286v-8.92a.322.322 0 0 0-.321-.32Z" fill="#000" fill-rule="nonzero"/></svg>