<svg width="24" height="24" viewBox="0 0 24 24" xmlns="http://www.w3.org/2000/svg"><path d="M12 3a9 9 0 1 0 9 9 9.01 9.01 0 0 0-9-9Zm7.411 6h-2.739a9.013 9.013 0 0 0-2.703-4.745A8.024 8.024 0 0 1 19.412 9ZM20 12a7.952 7.952 0 0 1-.264 2H16.86a14.305 14.305 0 0 0 0-4h2.877c.173.653.261 1.325.264 2ZM4 12a7.953 7.953 0 0 1 .263-2h2.878a14.305 14.305 0 0 0 0 4H4.263A7.953 7.953 0 0 1 4 12Zm4 0c-.001-.67.05-1.339.155-2H11.5v4H8.155A12.624 12.624 0 0 1 8 12Zm7.633-3H12.5V4.375A7.77 7.77 0 0 1 15.633 9ZM11.5 4.375V9H8.367A7.77 7.77 0 0 1 11.5 4.375ZM11.5 15v4.625A7.77 7.77 0 0 1 8.367 15H11.5Zm1 4.625V15h3.133a7.77 7.77 0 0 1-3.133 4.625Zm0-5.625v-4h3.345a12.94 12.94 0 0 1 0 4H12.5Zm-2.47-9.745A9.013 9.013 0 0 0 7.329 9H4.589a8.024 8.024 0 0 1 5.441-4.745ZM4.59 15h2.739a9.013 9.013 0 0 0 2.7 4.744A8.024 8.024 0 0 1 4.589 15Zm9.38 4.744A9.013 9.013 0 0 0 16.672 15h2.739a8.024 8.024 0 0 1-5.442 4.744Z" fill="#000" fill-rule="nonzero"/></svg>