<svg width="24" height="24" viewBox="0 0 24 24" xmlns="http://www.w3.org/2000/svg">
<path d="M11.7143 21V19.2857H17.7143V18.4286H14.2857V11.5714H17.7143V10.7143C17.7143 9.05714 17.1286 7.64286 15.9571 6.47143C14.7857 5.3 13.3714 4.71429 11.7143 4.71429C10.0571 4.71429 8.64286 5.3 7.47143 6.47143C6.3 7.64286 5.71429 9.05714 5.71429 10.7143V11.5714H9.14286V18.4286H5.71429C5.24286 18.4286 4.83914 18.2609 4.50314 17.9254C4.16771 17.5894 4 17.1857 4 16.7143V10.7143C4 9.65714 4.20343 8.66057 4.61029 7.72457C5.01771 6.78914 5.57143 5.97143 6.27143 5.27143C6.97143 4.57143 7.78914 4.01771 8.72457 3.61029C9.66057 3.20343 10.6571 3 11.7143 3C12.7714 3 13.768 3.20343 14.704 3.61029C15.6394 4.01771 16.4571 4.57143 17.1571 5.27143C17.8571 5.97143 18.4109 6.78914 18.8183 7.72457C19.2251 8.66057 19.4286 9.65714 19.4286 10.7143V19.2857C19.4286 19.7571 19.2609 20.1609 18.9254 20.4969C18.5894 20.8323 18.1857 21 17.7143 21H11.7143ZM5.71429 16.7143H7.42857V13.2857H5.71429V16.7143ZM16 16.7143H17.7143V13.2857H16V16.7143ZM17.7143 16.7143H16H17.7143ZM7.42857 16.7143H5.71429H7.42857Z" fill="#000"/>
</svg>
