<svg width="24" height="24" viewBox="0 0 24 24" xmlns="http://www.w3.org/2000/svg">
<path d="M7.9375 11.875C6.85 11.875 5.92188 11.4906 5.15313 10.7219C4.38438 9.95313 4 9.025 4 7.9375C4 6.85 4.38438 5.92188 5.15313 5.15313C5.92188 4.38438 6.85 4 7.9375 4C9.025 4 9.95313 4.38438 10.7219 5.15313C11.4906 5.92188 11.875 6.85 11.875 7.9375C11.875 9.025 11.4906 9.95313 10.7219 10.7219C9.95313 11.4906 9.025 11.875 7.9375 11.875ZM7.9375 9.625C8.40625 9.625 8.8045 9.46075 9.13225 9.13225C9.46075 8.8045 9.625 8.40625 9.625 7.9375C9.625 7.46875 9.46075 7.0705 9.13225 6.74275C8.8045 6.41425 8.40625 6.25 7.9375 6.25C7.46875 6.25 7.0705 6.41425 6.74275 6.74275C6.41425 7.0705 6.25 7.46875 6.25 7.9375C6.25 8.40625 6.41425 8.8045 6.74275 9.13225C7.0705 9.46075 7.46875 9.625 7.9375 9.625ZM18.0625 22C16.975 22 16.0469 21.6156 15.2781 20.8469C14.5094 20.0781 14.125 19.15 14.125 18.0625C14.125 16.975 14.5094 16.0469 15.2781 15.2781C16.0469 14.5094 16.975 14.125 18.0625 14.125C19.15 14.125 20.0781 14.5094 20.8469 15.2781C21.6156 16.0469 22 16.975 22 18.0625C22 19.15 21.6156 20.0781 20.8469 20.8469C20.0781 21.6156 19.15 22 18.0625 22ZM18.0625 19.75C18.5312 19.75 18.9295 19.5858 19.2572 19.2572C19.5858 18.9295 19.75 18.5312 19.75 18.0625C19.75 17.5938 19.5858 17.1955 19.2572 16.8678C18.9295 16.5392 18.5312 16.375 18.0625 16.375C17.5938 16.375 17.1955 16.5392 16.8678 16.8678C16.5392 17.1955 16.375 17.5938 16.375 18.0625C16.375 18.5312 16.5392 18.9295 16.8678 19.2572C17.1955 19.5858 17.5938 19.75 18.0625 19.75ZM5.575 22L4 20.425L20.425 4L22 5.575L5.575 22Z" fill="#000"/>
</svg>
