<svg width="24" height="24" viewBox="0 0 24 24" xmlns="http://www.w3.org/2000/svg"><path d="M17.168 13.08a3.97 3.97 0 0 1 3.96 3.96 3.97 3.97 0 0 1-3.96 3.96 3.97 3.97 0 0 1-3.96-3.96 3.97 3.97 0 0 1 3.96-3.96Zm1.876-9.72a1.224 1.224 0 0 1 1.724 0c.474.474.474 1.25-.019 1.724L5.193 20.64a1.192 1.192 0 0 1-1.705 0 1.224 1.224 0 0 1 0-1.724Zm-1.876 12.164a1.52 1.52 0 0 0-1.516 1.516 1.52 1.52 0 0 0 1.516 1.516 1.52 1.52 0 0 0 1.516-1.516 1.52 1.52 0 0 0-1.516-1.516ZM7.088 3a3.97 3.97 0 0 1 3.96 3.96 3.97 3.97 0 0 1-3.96 3.96 3.97 3.97 0 0 1-3.96-3.96A3.97 3.97 0 0 1 7.088 3Zm0 2.444A1.52 1.52 0 0 0 5.572 6.96a1.52 1.52 0 0 0 1.516 1.516A1.52 1.52 0 0 0 8.604 6.96a1.52 1.52 0 0 0-1.516-1.516Z" fill="#000" fill-rule="nonzero"/></svg>