<svg width="24" height="24" viewBox="0 0 24 24" xmlns="http://www.w3.org/2000/svg">
<path d="M6.22861 10.1707L7.97744 10.9106C8.1867 10.4921 8.40344 10.0885 8.62764 9.69987C8.85185 9.31124 9.09848 8.92261 9.36753 8.53398L8.11196 8.28735L6.22861 10.1707ZM9.41238 12.0316L11.9684 14.5652C12.5961 14.326 13.2688 13.9598 13.9862 13.4666C14.7037 12.9733 15.3763 12.4128 16.0041 11.785C17.0504 10.7387 17.8689 9.5767 18.4597 8.29901C19.0498 7.02072 19.3075 5.84348 19.2327 4.76727C18.1565 4.69254 16.9757 4.95023 15.6902 5.54035C14.4048 6.13106 13.2389 6.94957 12.1926 7.99588C11.5648 8.62367 11.0043 9.29629 10.511 10.0138C10.0177 10.7312 9.65153 11.4039 9.41238 12.0316ZM13.4033 10.5743C13.0595 10.2305 12.8876 9.80809 12.8876 9.30706C12.8876 8.80662 13.0595 8.38451 13.4033 8.04072C13.7471 7.69694 14.1731 7.52504 14.6813 7.52504C15.1895 7.52504 15.6155 7.69694 15.9593 8.04072C16.3031 8.38451 16.475 8.80662 16.475 9.30706C16.475 9.80809 16.3031 10.2305 15.9593 10.5743C15.6155 10.9181 15.1895 11.09 14.6813 11.09C14.1731 11.09 13.7471 10.9181 13.4033 10.5743ZM13.8293 17.7714L15.7126 15.888L15.466 14.6325C15.0774 14.9015 14.6888 15.1443 14.3001 15.3607C13.9115 15.5777 13.5079 15.7909 13.0894 16.0001L13.8293 17.7714ZM20.847 3.13055C21.131 4.93917 20.9556 6.69906 20.3206 8.41022C19.685 10.122 18.59 11.7551 17.0355 13.3096L17.4839 15.5293C17.5437 15.8282 17.5287 16.1197 17.4391 16.4037C17.3494 16.6877 17.1999 16.9343 16.9906 17.1436L13.2239 20.9103L11.3406 16.4934L7.5066 12.6594L3.08968 10.7761L6.83397 7.00936C7.04323 6.8001 7.29375 6.65063 7.58552 6.56094C7.87669 6.47126 8.17175 6.45631 8.4707 6.5161L10.6904 6.96452C12.2449 5.41 13.8741 4.31138 15.5781 3.66865C17.2821 3.02592 19.0384 2.84655 20.847 3.13055ZM4.68157 15.5069C5.20472 14.9837 5.84357 14.7183 6.59811 14.7105C7.35324 14.7033 7.99239 14.9613 8.51554 15.4845C9.03869 16.0076 9.29639 16.6465 9.28861 17.401C9.28144 18.1561 9.01627 18.7953 8.49312 19.3184C8.11944 19.6921 7.49554 20.0135 6.62142 20.2825C5.74671 20.5516 4.53957 20.7907 3 21C3.20926 19.4604 3.44842 18.2533 3.71747 17.3786C3.98652 16.5045 4.30789 15.8806 4.68157 15.5069ZM5.95956 16.7625C5.81009 16.9119 5.66061 17.1849 5.51114 17.5813C5.36167 17.9771 5.25704 18.3768 5.19725 18.7803C5.60082 18.7205 6.00081 18.6198 6.39721 18.4781C6.79302 18.3358 7.06566 18.1899 7.21513 18.0404C7.3945 17.8611 7.49165 17.6443 7.5066 17.3902C7.52155 17.1361 7.43934 16.9194 7.25997 16.74C7.0806 16.5607 6.86387 16.4746 6.60976 16.4817C6.35566 16.4895 6.13893 16.5831 5.95956 16.7625Z" fill="#000"/>
</svg>
