<svg xmlns="http://www.w3.org/2000/svg" height="24px" viewBox="0 0 24 24" width="24px" fill="#000000"><g fill="none" fill-rule="evenodd"><g fill="#1A1A1A" fill-rule="nonzero"><path d="M20.539 3.068a9.168 9.168 0 00-4.084.427 9.17 9.17 0 00-3.482 2.174l-2.29 2.29-.044.005-3.257.42a.207.207 0 00-.12.058l-3.14 3.141a.205.205 0 00.108.347l2.415.448.622.622-.157.085-.993.538a.206.206 0 00-.047.326l3.767 3.767a.206.206 0 00.325-.048l.623-1.15.622.622.008.04.44 2.375a.205.205 0 00.347.108l3.14-3.14a.205.205 0 00.06-.12l.425-3.302.032-.032 2.257-2.257a9.173 9.173 0 002.175-3.482 9.172 9.172 0 00.426-4.083.205.205 0 00-.178-.179zM7.523 16.326a.405.405 0 010 .574l-2.905 2.905a.404.404 0 11-.573-.573l2.905-2.906a.405.405 0 01.573 0zM8.449 17.252a.405.405 0 010 .573l-1.31 1.31a.405.405 0 11-.572-.574l1.308-1.309a.405.405 0 01.574 0zM5 16.997a.406.406 0 010 .573l-1.308 1.309a.404.404 0 01-.573 0 .405.405 0 010-.573l1.308-1.31a.406.406 0 01.574 0zM6.065 16.62a.5.5 0 11-1 0 .5.5 0 011 0zM6.598 19.684a.5.5 0 11-1 0 .5.5 0 011 0z"/></g></g></svg>