<svg width="24" height="24" viewBox="0 0 24 24" xmlns="http://www.w3.org/2000/svg">
<path d="M7.5 13.9C7.755 13.9 7.9689 13.8136 8.1417 13.6408C8.3139 13.4686 8.4 13.255 8.4 13C8.4 12.745 8.3139 12.5311 8.1417 12.3583C7.9689 12.1861 7.755 12.1 7.5 12.1C7.245 12.1 7.0311 12.1861 6.8583 12.3583C6.6861 12.5311 6.6 12.745 6.6 13C6.6 13.255 6.6861 13.4686 6.8583 13.6408C7.0311 13.8136 7.245 13.9 7.5 13.9ZM7.5 10.3C7.755 10.3 7.9689 10.2136 8.1417 10.0408C8.3139 9.8686 8.4 9.655 8.4 9.4C8.4 9.145 8.3139 8.9311 8.1417 8.7583C7.9689 8.5861 7.755 8.5 7.5 8.5C7.245 8.5 7.0311 8.5861 6.8583 8.7583C6.6861 8.9311 6.6 9.145 6.6 9.4C6.6 9.655 6.6861 9.8686 6.8583 10.0408C7.0311 10.2136 7.245 10.3 7.5 10.3ZM9.3 13.9H17.4V12.1H9.3V13.9ZM9.3 10.3H17.4V8.5H9.3V10.3ZM8.4 20.2V18.4H4.8C4.305 18.4 3.8814 18.2239 3.5292 17.8717C3.1764 17.5189 3 17.095 3 16.6V5.8C3 5.305 3.1764 4.8811 3.5292 4.5283C3.8814 4.1761 4.305 4 4.8 4H19.2C19.695 4 20.1189 4.1761 20.4717 4.5283C20.8239 4.8811 21 5.305 21 5.8V16.6C21 17.095 20.8239 17.5189 20.4717 17.8717C20.1189 18.2239 19.695 18.4 19.2 18.4H15.6V20.2H8.4ZM4.8 16.6H19.2V5.8H4.8V16.6ZM4.8 16.6V5.8V16.6Z" fill="#000"/>
</svg>
