<svg width="24" height="24" viewBox="0 0 24 24" xmlns="http://www.w3.org/2000/svg"><path d="M20.023 3a.999.999 0 0 1 .977.921v12.514a.92.92 0 0 1-.917.921H13.82v1.462h.778c.94.01 1.695.778 1.695 1.721a.47.47 0 0 1-.459.461H8.166a.47.47 0 0 1-.459-.46l.007-.17c.034-.393.204-.764.483-1.047a1.692 1.692 0 0 1 1.205-.505h.778v-1.462H3.918A.92.92 0 0 1 3 16.435V3.92A.903.903 0 0 1 3.898 3Zm-8.048 12.103a.63.63 0 0 0-.628.631c0 .348.281.63.628.63a.63.63 0 0 0 0-1.261Zm7.14-10.271H4.835v9.31h14.28v-9.31Zm-1.675 6.657a.17.17 0 0 1 .17.17v.862a.18.18 0 0 1-.17.17h-6.273a.18.18 0 0 1-.17-.17v-.861a.17.17 0 0 1 .17-.17ZM9.76 6.344a.17.17 0 0 1 .17.17v6.007a.17.17 0 0 1-.17.17h-3.23a.18.18 0 0 1-.18-.17V6.514a.18.18 0 0 1 .18-.17Zm7.679 2.563a.18.18 0 0 1 .17.17v.86a.17.17 0 0 1-.17.17h-6.273a.17.17 0 0 1-.17-.17v-.86a.18.18 0 0 1 .17-.17Zm0-2.563a.18.18 0 0 1 .17.17v.86a.17.17 0 0 1-.17.171h-6.273a.17.17 0 0 1-.17-.17v-.861a.18.18 0 0 1 .17-.17Z" fill="#000" fill-rule="nonzero"/></svg>