<svg width="24" height="24" viewBox="0 0 24 24" xmlns="http://www.w3.org/2000/svg"><path d="M9 15c1.365 0 2.557.926 2.893 2.25h8.357a.75.75 0 0 1 0 1.5h-8.357a2.985 2.985 0 0 1-5.786 0H3.75a.75.75 0 0 1 0-1.5h2.357A2.985 2.985 0 0 1 9 15Zm0 1.5a1.5 1.5 0 1 0 0 3 1.5 1.5 0 0 0 0-3ZM15 9c1.365 0 2.557.927 2.893 2.25h2.357a.75.75 0 1 1 0 1.5h-2.357a2.985 2.985 0 0 1-5.786 0H3.75a.75.75 0 1 1 0-1.5h8.357A2.985 2.985 0 0 1 15 9Zm0 1.5a1.5 1.5 0 1 0 0 3 1.5 1.5 0 0 0 0-3ZM9 3c1.365 0 2.557.927 2.893 2.25h8.357a.75.75 0 0 1 0 1.5h-8.357a2.985 2.985 0 0 1-5.786 0H3.75a.75.75 0 0 1 0-1.5h2.357A2.985 2.985 0 0 1 9 3Zm0 1.5a1.5 1.5 0 1 0 0 3 1.5 1.5 0 0 0 0-3Z" fill="#000" fill-rule="nonzero"/></svg>