<svg width="24" height="24" viewBox="0 0 24 24" xmlns="http://www.w3.org/2000/svg">
<path d="M11.9775 18.3C12.1875 18.3 12.3714 18.2214 12.5292 18.0642C12.6864 17.9064 12.765 17.7225 12.765 17.5125V17.175C13.515 17.04 14.16 16.7475 14.7 16.2975C15.24 15.8475 15.51 15.18 15.51 14.295C15.51 13.665 15.33 13.0875 14.97 12.5625C14.61 12.0375 13.89 11.58 12.81 11.19C11.91 10.89 11.2875 10.6275 10.9425 10.4025C10.5975 10.1775 10.425 9.87 10.425 9.48C10.425 9.09 10.5639 8.7825 10.8417 8.5575C11.1189 8.3325 11.52 8.22 12.045 8.22C12.345 8.22 12.6075 8.2725 12.8325 8.3775C13.0575 8.4825 13.245 8.625 13.395 8.805C13.545 8.985 13.7139 9.1089 13.9017 9.1767C14.0889 9.2439 14.265 9.24 14.43 9.165C14.655 9.075 14.8089 8.9211 14.8917 8.7033C14.9739 8.4861 14.955 8.2875 14.835 8.1075C14.595 7.7625 14.2989 7.47 13.9467 7.23C13.5939 6.99 13.215 6.855 12.81 6.825V6.4875C12.81 6.2775 12.7311 6.0936 12.5733 5.9358C12.4161 5.7786 12.2325 5.7 12.0225 5.7C11.8125 5.7 11.6289 5.7786 11.4717 5.9358C11.3139 6.0936 11.235 6.2775 11.235 6.4875V6.825C10.485 6.99 9.9 7.32 9.48 7.815C9.06 8.31 8.85 8.865 8.85 9.48C8.85 10.185 9.0564 10.755 9.4692 11.19C9.8814 11.625 10.53 12 11.415 12.315C12.36 12.66 13.0164 12.9675 13.3842 13.2375C13.7514 13.5075 13.935 13.86 13.935 14.295C13.935 14.79 13.7586 15.1536 13.4058 15.3858C13.0536 15.6186 12.63 15.735 12.135 15.735C11.745 15.735 11.3925 15.6411 11.0775 15.4533C10.7625 15.2661 10.5 14.985 10.29 14.61C10.17 14.4 10.0125 14.2575 9.8175 14.1825C9.6225 14.1075 9.4275 14.1075 9.2325 14.1825C9.0225 14.2575 8.8689 14.4 8.7717 14.61C8.6739 14.82 8.67 15.0225 8.76 15.2175C9 15.7275 9.3225 16.1436 9.7275 16.4658C10.1325 16.7886 10.62 17.01 11.19 17.13V17.5125C11.19 17.7225 11.2689 17.9064 11.4267 18.0642C11.5839 18.2214 11.7675 18.3 11.9775 18.3ZM12 21C10.755 21 9.585 20.7636 8.49 20.2908C7.395 19.8186 6.4425 19.1775 5.6325 18.3675C4.8225 17.5575 4.1814 16.605 3.7092 15.51C3.2364 14.415 3 13.245 3 12C3 10.755 3.2364 9.585 3.7092 8.49C4.1814 7.395 4.8225 6.4425 5.6325 5.6325C6.4425 4.8225 7.395 4.1811 8.49 3.7083C9.585 3.2361 10.755 3 12 3C13.245 3 14.415 3.2361 15.51 3.7083C16.605 4.1811 17.5575 4.8225 18.3675 5.6325C19.1775 6.4425 19.8186 7.395 20.2908 8.49C20.7636 9.585 21 10.755 21 12C21 13.245 20.7636 14.415 20.2908 15.51C19.8186 16.605 19.1775 17.5575 18.3675 18.3675C17.5575 19.1775 16.605 19.8186 15.51 20.2908C14.415 20.7636 13.245 21 12 21ZM12 19.2C13.995 19.2 15.6939 18.4989 17.0967 17.0967C18.4989 15.6939 19.2 13.995 19.2 12C19.2 10.005 18.4989 8.3061 17.0967 6.9033C15.6939 5.5011 13.995 4.8 12 4.8C10.005 4.8 8.3064 5.5011 6.9042 6.9033C5.5014 8.3061 4.8 10.005 4.8 12C4.8 13.995 5.5014 15.6939 6.9042 17.0967C8.3064 18.4989 10.005 19.2 12 19.2Z" fill="#000"/>
</svg>
