<svg width="24" height="24" viewBox="0 0 24 24" xmlns="http://www.w3.org/2000/svg"><path d="M6.48 8.249c.218 0 .396.178.396.396v10.909a.397.397 0 0 1-.396.396H3.396A.397.397 0 0 1 3 19.554V8.644c0-.217.178-.395.396-.395H6.48Zm4.708 4.817c.218 0 .396.178.396.396v6.092a.397.397 0 0 1-.396.396H8.104a.397.397 0 0 1-.396-.396v-6.092c0-.218.178-.396.396-.396h3.084ZM15.896 5c.218 0 .396.178.396.396v14.158a.397.397 0 0 1-.396.396h-3.084a.397.397 0 0 1-.396-.396V5.396c0-.218.178-.396.396-.396h3.084Zm4.708 5.492c.218 0 .396.178.396.396v8.666a.397.397 0 0 1-.396.396H17.52a.397.397 0 0 1-.396-.396v-8.666c0-.218.178-.396.396-.396h3.084Z" fill="#000" fill-rule="evenodd"/></svg>