<svg width="24" height="24" viewBox="0 0 24 24" xmlns="http://www.w3.org/2000/svg">
<path d="M4.89474 16.2632V4.89474H3V3H6.78947V14.3684H21V16.2632H4.89474ZM6.78947 21C6.26842 21 5.82253 20.8146 5.45179 20.4439C5.08042 20.0725 4.89474 19.6263 4.89474 19.1053C4.89474 18.5842 5.08042 18.138 5.45179 17.7666C5.82253 17.3959 6.26842 17.2105 6.78947 17.2105C7.31053 17.2105 7.75642 17.3959 8.12716 17.7666C8.49853 18.138 8.68421 18.5842 8.68421 19.1053C8.68421 19.6263 8.49853 20.0725 8.12716 20.4439C7.75642 20.8146 7.31053 21 6.78947 21ZM7.73684 13.4211V7.73684H13.4211V13.4211H7.73684ZM9.63158 11.5263H11.5263V9.63158H9.63158V11.5263ZM14.3684 13.4211V7.73684H20.0526V13.4211H14.3684ZM16.2632 11.5263H18.1579V9.63158H16.2632V11.5263ZM19.1053 21C18.5842 21 18.138 20.8146 17.7666 20.4439C17.3959 20.0725 17.2105 19.6263 17.2105 19.1053C17.2105 18.5842 17.3959 18.138 17.7666 17.7666C18.138 17.3959 18.5842 17.2105 19.1053 17.2105C19.6263 17.2105 20.0725 17.3959 20.4439 17.7666C20.8146 18.138 21 18.5842 21 19.1053C21 19.6263 20.8146 20.0725 20.4439 20.4439C20.0725 20.8146 19.6263 21 19.1053 21ZM9.63158 11.5263H11.5263H9.63158ZM16.2632 11.5263H18.1579H16.2632Z" fill="#000"/>
</svg>
