<svg width="24" height="24" viewBox="0 0 24 24" xmlns="http://www.w3.org/2000/svg"><path d="M3.665 4.432a.595.595 0 0 0-.148 1.181l1.907.224a1.506 1.506 0 0 1 1.312 1.075l2.363 8.365a2.505 2.505 0 0 0-1.182 2.86 2.517 2.517 0 0 0 3.102 1.725 2.493 2.493 0 0 0 1.772-2.511l7.771-2.215a.59.59 0 1 0-.325-1.134l-7.753 2.215a2.298 2.298 0 0 0-.201-.307l-.047-.054a2.629 2.629 0 0 0-.284-.29l-.041-.04a2.452 2.452 0 0 0-1.708-.591L7.817 6.593a2.682 2.682 0 0 0-2.245-1.932l-1.69-.212Zm6.665 11.77.057.003h.3c.085.025.166.058.243.1.232.12.423.305.55.532l.055.122.045.126c.102.339.059.704-.118 1.01a1.323 1.323 0 0 1-2.428-.277 1.33 1.33 0 0 1 .921-1.572c.104-.028.212-.042.32-.041a.709.709 0 0 1 .112 0Zm7.195-12.127a.59.59 0 0 0-.45-.052l-7.45 2.103a.59.59 0 0 0-.408.733l2.127 7.45a.59.59 0 0 0 .283.354c.086.05.184.077.284.077.055.009.11.009.165 0l7.45-2.127a.59.59 0 0 0 .354-.284.59.59 0 0 0 .053-.449l-2.126-7.45a.59.59 0 0 0-.282-.355Z" fill="#000" fill-rule="nonzero"/></svg>