<svg width="24" height="24" viewBox="0 0 24 24" xmlns="http://www.w3.org/2000/svg"><path d="M10.05 5.115c3.66 0 3 4.2 3 4.2s.52 0 .52.667a1.696 1.696 0 0 1-.91 1.386 3.06 3.06 0 0 1-.36 1.027c-.26.452-.67.76-.67 1.222 0 .462.26.678 1 1.027.74.35 1.24.544 1.93.873.64.235 1.224.61 1.71 1.098.482.75.736 1.629.73 2.526-.205 1.777-6.086 1.857-6.906 1.86L10 21H9.902c-.833-.01-6.67-.134-6.902-1.88.01-.892.282-1.762.78-2.494a4.634 4.634 0 0 1 1.71-1.099c.68-.329 1.19-.503 1.93-.873s1-.616 1-1.027c0-.41-.42-.77-.67-1.221a3.06 3.06 0 0 1-.36-1.027 1.696 1.696 0 0 1-.91-1.386c0-.668.52-.668.52-.668l-.003-.023c-.042-.335-.448-4.187 3.053-4.187ZM13.81 3l.19.01c3.66 0 3 4.2 3 4.2s.52 0 .52.667a1.696 1.696 0 0 1-.91 1.386 3.06 3.06 0 0 1-.36 1.027c-.26.452-.67.76-.67 1.222 0 .462.26.678 1 1.027.74.35 1.24.544 1.93.873.64.235 1.224.61 1.71 1.098.496.738.767 1.61.78 2.506-.13.842-1.53 1.304-3 1.55a5.016 5.016 0 0 0-.84-2.536 5.108 5.108 0 0 0-2-1.324l-.11-.052-1.07-.493c-.27-.113-.55-.236-.87-.39a2.878 2.878 0 0 1-.35-.174l.08-.113c.132-.17.252-.348.36-.534.159-.288.283-.595.37-.914a2.612 2.612 0 0 0 1-2.054 1.74 1.74 0 0 0-.46-1.232 5.062 5.062 0 0 0-1-3.337 3.442 3.442 0 0 0-1.65-1.088A2.69 2.69 0 0 1 14 3.01Z" fill="#000" fill-rule="nonzero"/></svg>