<svg width="249" height="185" viewBox="0 0 249 185" fill="none" xmlns="http://www.w3.org/2000/svg">
<path fill-rule="evenodd" clip-rule="evenodd" d="M69.1026 35.5376H216.865C223.377 35.5376 228.652 40.6673 228.652 47.0001V142.971C228.652 151.934 221.175 159.206 211.957 159.206H69.1162C62.6043 159.206 57.3295 154.076 57.3295 147.743V47.0001C57.3295 40.6673 62.6043 35.5376 69.1162 35.5376H69.1026Z" fill="#B1ACFF"/>
<path fill-rule="evenodd" clip-rule="evenodd" d="M59.5863 26.1907H207.349C213.861 26.1907 219.136 31.3204 219.136 37.6532V138.396C219.136 144.729 213.861 149.859 207.349 149.859H59.5863C53.0744 149.859 47.7996 144.729 47.7996 138.396V37.6532C47.7996 31.3204 53.0744 26.1907 59.5863 26.1907Z" fill="white" stroke="#19243D" stroke-width="0.75"/>
<path fill-rule="evenodd" clip-rule="evenodd" d="M47.7996 37.7193V37.6532C47.7996 31.3204 53.0744 26.1907 59.5863 26.1907H207.349C213.861 26.1907 219.136 31.3204 219.136 37.6532V37.7193H47.7996Z" fill="#19243D"/>
<path fill-rule="evenodd" clip-rule="evenodd" d="M59.5863 26.1907H207.349C213.861 26.1907 219.136 31.3204 219.136 37.6532V138.396C219.136 144.729 213.861 149.859 207.349 149.859H59.5863C53.0744 149.859 47.7996 144.729 47.7996 138.396V37.6532C47.7996 31.3204 53.0744 26.1907 59.5863 26.1907Z" stroke="#19243D" stroke-width="0.75" stroke-linecap="round"/>
<path d="M66.6557 34.4671C68.0822 34.4671 69.2387 33.3424 69.2387 31.9551C69.2387 30.5678 68.0822 29.4431 66.6557 29.4431C65.2291 29.4431 64.0726 30.5678 64.0726 31.9551C64.0726 33.3424 65.2291 34.4671 66.6557 34.4671Z" fill="white"/>
<path d="M58.621 34.4671C60.0475 34.4671 61.204 33.3424 61.204 31.9551C61.204 30.5678 60.0475 29.4431 58.621 29.4431C57.1944 29.4431 56.038 30.5678 56.038 31.9551C56.038 33.3424 57.1944 34.4671 58.621 34.4671Z" fill="white"/>
<path d="M74.6767 34.4671C76.1032 34.4671 77.2597 33.3424 77.2597 31.9551C77.2597 30.5678 76.1032 29.4431 74.6767 29.4431C73.2501 29.4431 72.0936 30.5678 72.0936 31.9551C72.0936 33.3424 73.2501 34.4671 74.6767 34.4671Z" fill="white"/>
<path d="M114.727 92.1363H117.718V99.6193H114.727V103.982H105.238V99.6193H92.88V92.2156L103.824 74.8831H114.727V92.1363ZM106.094 92.1363V83.4898L100.534 92.1363H106.094Z" fill="#FFC806"/>
<path d="M130.674 102.819C128.73 101.629 127.207 99.8839 126.079 97.5966C124.95 95.3094 124.393 92.5859 124.393 89.4261C124.393 86.2663 124.95 83.5428 126.079 81.2556C127.207 78.9684 128.73 77.2232 130.674 76.0334C132.618 74.8435 134.793 74.2485 137.213 74.2485C139.633 74.2485 141.822 74.8435 143.752 76.0334C145.696 77.2232 147.219 78.9684 148.347 81.2556C149.476 83.5428 150.033 86.2663 150.033 89.4261C150.033 92.5859 149.476 95.3094 148.347 97.5966C147.219 99.8839 145.696 101.629 143.752 102.819C141.808 104.009 139.633 104.604 137.213 104.604C134.793 104.604 132.604 104.009 130.674 102.819ZM139.782 94.8335C140.435 93.7229 140.761 91.9249 140.761 89.4261C140.761 86.9274 140.435 85.1293 139.782 84.0188C139.13 82.9082 138.273 82.3529 137.213 82.3529C136.153 82.3529 135.31 82.9082 134.644 84.0188C133.991 85.1293 133.665 86.9274 133.665 89.4261C133.665 91.9249 133.991 93.7229 134.644 94.8335C135.296 95.944 136.153 96.4993 137.213 96.4993C138.273 96.4993 139.116 95.944 139.782 94.8335Z" fill="#FFC806"/>
<path d="M162.281 103.57C160.337 102.38 158.814 100.635 157.686 98.3481C156.557 96.0609 156 93.3374 156 90.1776C156 87.0178 156.557 84.2943 157.686 82.0071C158.814 79.7199 160.337 77.9747 162.281 76.7848C164.225 75.5949 166.4 75 168.82 75C171.24 75 173.429 75.5949 175.359 76.7848C177.303 77.9747 178.826 79.7199 179.954 82.0071C181.083 84.2943 181.64 87.0178 181.64 90.1776C181.64 93.3374 181.083 96.0609 179.954 98.3481C178.826 100.635 177.303 102.38 175.359 103.57C173.415 104.76 171.24 105.355 168.82 105.355C166.4 105.355 164.211 104.76 162.281 103.57ZM171.389 95.5849C172.042 94.4744 172.368 92.6763 172.368 90.1776C172.368 87.6788 172.042 85.8808 171.389 84.7702C170.737 83.6597 169.88 83.1044 168.82 83.1044C167.76 83.1044 166.917 83.6597 166.251 84.7702C165.598 85.8808 165.272 87.6788 165.272 90.1776C165.272 92.6763 165.598 94.4744 166.251 95.5849C166.903 96.6955 167.76 97.2508 168.82 97.2508C169.88 97.2508 170.723 96.6955 171.389 95.5849Z" fill="#FFC806"/>
<path d="M241.268 48.6132H206.751L192.299 58.7272V48.6132H191.307C187.052 48.6132 183.612 45.2551 183.612 41.1302V7.48302C183.612 3.34489 187.065 0 191.307 0H241.268C245.523 0 248.963 3.35811 248.963 7.48302V41.1302C248.963 45.2683 245.51 48.6132 241.268 48.6132Z" fill="#6359FF"/>
<path d="M216.294 37.6397C224.388 37.6397 230.95 31.2589 230.95 23.3876C230.95 15.5164 224.388 9.1355 216.294 9.1355C208.201 9.1355 201.639 15.5164 201.639 23.3876C201.639 31.2589 208.201 37.6397 216.294 37.6397Z" stroke="white" stroke-width="0.75" stroke-linecap="round"/>
<path d="M205.935 33.4621L226.654 13.3135" stroke="white" stroke-width="0.75" stroke-linecap="round"/>
<path d="M205.935 13.3135L226.654 33.4621" stroke="white" stroke-width="0.75" stroke-linecap="round"/>
<path fill-rule="evenodd" clip-rule="evenodd" d="M67.4305 103.348H56.1467C53.1966 103.348 50.7904 105.675 50.7904 108.557V173.286H29.2969V103.348V102.409C29.2969 91.3829 38.487 82.4456 49.8251 82.4456H50.7904H67.4305V103.348Z" fill="#19243D" stroke="#19243D" stroke-width="0.75"/>
<path d="M67.4169 103.335C73.3485 103.335 78.1569 98.6584 78.1569 92.8901C78.1569 87.1217 73.3485 82.4456 67.4169 82.4456C61.4854 82.4456 56.677 87.1217 56.677 92.8901C56.677 98.6584 61.4854 103.335 67.4169 103.335Z" fill="#FFC806"/>
<path d="M67.417 97.3985C69.9773 97.3985 72.0528 95.38 72.0528 92.8902C72.0528 90.4003 69.9773 88.3818 67.417 88.3818C64.8567 88.3818 62.7811 90.4003 62.7811 92.8902C62.7811 95.38 64.8567 97.3985 67.417 97.3985Z" fill="#19243D"/>
<path d="M65.2553 91.3429C66.4266 91.3429 67.3761 90.4195 67.3761 89.2805C67.3761 88.1414 66.4266 87.218 65.2553 87.218C64.084 87.218 63.1345 88.1414 63.1345 89.2805C63.1345 90.4195 64.084 91.3429 65.2553 91.3429Z" fill="white"/>
<path d="M67.4169 103.335C73.3485 103.335 78.1569 98.6584 78.1569 92.8901C78.1569 87.1217 73.3485 82.4456 67.4169 82.4456C61.4854 82.4456 56.677 87.1217 56.677 92.8901C56.677 98.6584 61.4854 103.335 67.4169 103.335Z" stroke="#19243D" stroke-width="0.75" stroke-linecap="round"/>
<path d="M31.0778 183.969H126.079" stroke="#19243D" stroke-width="0.75" stroke-linecap="round"/>
<path fill-rule="evenodd" clip-rule="evenodd" d="M80.468 122.888H0L8.85026 185H89.3047L80.468 122.888Z" fill="#EFEEFF"/>
<path d="M44.1833 159.51C46.8037 159.51 48.9279 157.432 48.9279 154.87C48.9279 152.307 46.8037 150.229 44.1833 150.229C41.563 150.229 39.4387 152.307 39.4387 154.87C39.4387 157.432 41.563 159.51 44.1833 159.51Z" fill="#19243D"/>
</svg>
