<svg width="54" height="54" xmlns="http://www.w3.org/2000/svg" xmlns:xlink="http://www.w3.org/1999/xlink">
  <defs>
    <path id="a" d="M0 44.4h48V0H0z"/>
    <path id="c" d="M0 44.4h48V0H0z"/>
    <path id="e" d="M0 44.4h48V0H0z"/>
    <path id="g" d="M0 44.4h48V0H0z"/>
  </defs>
  <g fill="none" fill-rule="evenodd">
    <path d="M0 0h54v54H0z" fill="#FFF"/>
    <path d="M42.72 34.594V20.542a3.266 3.266 0 0 0-3.261-3.261h-6.132l-1.434-3.801H21.84l-1.434 3.801h-6.132a3.264 3.264 0 0 0-3.258 3.261v14.052a3.261 3.261 0 0 0 3.258 3.258h25.185a3.264 3.264 0 0 0 3.261-3.258Zm3.48-19.605v24.225a4.693 4.693 0 0 1-4.689 4.686H12.486A4.692 4.692 0 0 1 7.8 39.214V14.989a4.693 4.693 0 0 1 4.686-4.689h29.025a4.694 4.694 0 0 1 4.689 4.689Z" fill="#FFF"/>
    <path d="M46.2 39.214V14.989a4.694 4.694 0 0 0-4.689-4.689H12.486A4.693 4.693 0 0 0 7.8 14.989v24.225a4.692 4.692 0 0 0 4.686 4.686h29.025a4.693 4.693 0 0 0 4.689-4.686m2.4-24.225v24.225c0 3.906-3.18 7.086-7.089 7.086H12.486C8.58 46.3 5.4 43.12 5.4 39.214V14.989C5.4 11.08 8.58 7.9 12.486 7.9h29.025a7.097 7.097 0 0 1 7.089 7.089" fill="#AEAEAE"/>
    <path d="M40.548 34.594V20.542c0-.6-.489-1.086-1.089-1.086h-7.635l-1.434-3.804h-7.047l-1.434 3.804h-7.635c-.6 0-1.086.486-1.086 1.086v14.052c0 .6.486 1.086 1.086 1.086h25.185c.6 0 1.089-.486 1.089-1.086m2.172-14.052v14.052a3.264 3.264 0 0 1-3.261 3.258H14.274a3.261 3.261 0 0 1-3.258-3.258V20.542a3.264 3.264 0 0 1 3.258-3.261h6.132l1.434-3.801h10.053l1.434 3.801h6.132a3.266 3.266 0 0 1 3.261 3.261" fill="#666"/>
    <g transform="translate(5.4 7.9)">
      <mask id="b" fill="#fff">
        <use xlink:href="#a"/>
      </mask>
      <path fill="#666" mask="url(#b)" d="M29.847 15.9h3.801v-2.445h-3.801z"/>
    </g>
    <g transform="translate(5.4 7.9)">
      <mask id="d" fill="#fff">
        <use xlink:href="#c"/>
      </mask>
      <path d="M26.157 21.978a5.416 5.416 0 1 0-9.384-5.418 5.419 5.419 0 0 0 9.384 5.418m1.713-6.405a7.409 7.409 0 0 1 0 7.392 7.412 7.412 0 0 1-6.402 3.699 7.413 7.413 0 0 1-6.405-3.699 7.409 7.409 0 0 1 0-7.392 7.417 7.417 0 0 1 6.405-3.696 7.415 7.415 0 0 1 6.402 3.696" fill="#666" mask="url(#d)"/>
    </g>
    <g transform="translate(4.4 7.9)">
      <mask id="f" fill="#fff">
        <use xlink:href="#e"/>
      </mask>
      <path d="M46.057 22.645a14.504 14.504 0 1 1-25.121 14.503 14.504 14.504 0 0 1 25.12-14.503Z" fill="#E60050" mask="url(#f)"/>
    </g>
    <g transform="translate(4.4 7.9)">
      <mask id="h" fill="#fff">
        <use xlink:href="#g"/>
      </mask>
      <g fill="#FFF" mask="url(#h)">
        <path d="M30.972 35.582a1.765 1.765 0 0 1-2.492 0l-.668-.668a1.752 1.752 0 0 1-.517-1.247c0-.47.184-.913.517-1.245l2.68-2.68-1.555-1.555-2.68 2.68a3.934 3.934 0 0 0-1.16 2.8c0 1.059.412 2.053 1.16 2.802l.668.668a3.948 3.948 0 0 0 2.801 1.158 3.95 3.95 0 0 0 2.8-1.158l2.68-2.68-1.554-1.555-2.68 2.68ZM32.901 27.331l2.68-2.68a1.752 1.752 0 0 1 1.247-.516c.47 0 .913.183 1.246.516l.668.669c.333.333.516.775.516 1.246 0 .47-.183.913-.516 1.246l-2.68 2.68 1.555 1.555 2.68-2.68a3.936 3.936 0 0 0 1.16-2.801 3.936 3.936 0 0 0-1.16-2.801l-.668-.668a3.934 3.934 0 0 0-2.801-1.16 3.935 3.935 0 0 0-2.801 1.16l-2.68 2.68L32.9 27.33ZM29.604 25.326 26.6 22.322l-.704.704L28.9 26.03zM30.432 23.892h.9v-4.2h-.9zM22.932 28.092h4.2v-.9h-4.2zM37.39 34.468l3.004 3.004.703-.704-3.003-3.004zM35.232 40.392h.9v-4.5h-.9zM39.432 32.592h4.2v-.9h-4.2z"/>
      </g>
    </g>
  </g>
</svg>