<svg width="54" height="54" xmlns="http://www.w3.org/2000/svg" xmlns:xlink="http://www.w3.org/1999/xlink">
  <defs>
    <path id="a" d="M0 42h48V0H0z"/>
    <path id="c" d="M0 42h48V0H0z"/>
    <path id="e" d="M0 42h48V0H0z"/>
    <path id="g" d="M0 42h48V0H0z"/>
  </defs>
  <g fill="none" fill-rule="evenodd">
    <path d="M0 0h54v54H0z" fill="#FFF"/>
    <path d="M42 36.813c0 .657-.47 1.201-1.137 1.201H12.88a1.214 1.214 0 0 1-1.213-1.2V33.33l-2.334.521v2.962c0 1.966 1.55 3.498 3.547 3.498h27.983c1.997 0 3.47-1.532 3.47-3.498v-3.368L42 34.196v2.617ZM40.863 17.996H34.05l-1.593-4.266h-11.17l-1.594 4.266H12.88c-1.997 0-3.547 1.48-3.547 3.445v4.333l2.334-.522v-3.811c0-.656.546-1.149 1.213-1.149h8.483l1.594-4.265h7.83l1.593 4.265h8.483c.667 0 1.137.493 1.137 1.149v4.44l2.333-.75v-3.69c0-1.966-1.473-3.445-3.47-3.445" fill="#666"/>
    <g transform="translate(3 7.5)">
      <mask id="b" fill="#fff">
        <use xlink:href="#a"/>
      </mask>
      <path fill="#666" mask="url(#b)" d="M33.333 17.391h4v-2.625h-4z"/>
    </g>
    <g transform="translate(3 7.5)">
      <mask id="d" fill="#fff">
        <use xlink:href="#c"/>
      </mask>
      <path d="M30.987 17.151c-1.464-2.494-4.19-4.042-7.114-4.042-2.926 0-5.653 1.548-7.116 4.042a7.968 7.968 0 0 0-.974 2.66l.214.212 2.638-1.752.022-.04a6.04 6.04 0 0 1 5.216-2.963 6.036 6.036 0 0 1 5.21 2.963l.03.053 2.707.876a7.962 7.962 0 0 0-.833-2.009" fill="#666" mask="url(#d)"/>
    </g>
    <g transform="translate(3 7.5)">
      <mask id="f" fill="#fff">
        <use xlink:href="#e"/>
      </mask>
      <path d="M23.87 27.12a6.089 6.089 0 0 1-3.036-.81l-1.959 1.3a8.297 8.297 0 0 0 10.917-.817l-2.42-.783a6.084 6.084 0 0 1-3.502 1.11" fill="#666" mask="url(#f)"/>
    </g>
    <g transform="translate(3 7.5)">
      <mask id="h" fill="#fff">
        <use xlink:href="#g"/>
      </mask>
      <path fill="#E60050" mask="url(#h)" d="m47.051 18.479-5.718 1.875v.051L39 21.156l-4.709 1.578-2.251-.74-2.153-.696-7.425-2.402-4.563 3.03-1.974 1.31-.259.173-3.747-3.685-3.252.724-2.334.522v.016L0 22.382v2.691l6.333-1.395v-.017l2.334-.521 2.407-.536 4.26 4.19 1.696-1.125 1.819-1.208 4.022-2.67 6.377 2.063 2.1.679 2.954.968L39 23.927l2.333-.751v-.051l5.796-1.901.871.216v-2.723z"/>
    </g>
  </g>
</svg>