<svg width="54" height="54" xmlns="http://www.w3.org/2000/svg" xmlns:xlink="http://www.w3.org/1999/xlink">
  <defs>
    <path id="a" d="M0 44.4h48V0H0z"/>
    <path id="c" d="M0 44.4h48V0H0z"/>
    <path id="e" d="M0 44.4h48V0H0z"/>
    <path id="g" d="M0 44.4h48V0H0z"/>
    <path id="i" d="M0 44.4h48V0H0z"/>
    <path id="k" d="M0 44.4h48V0H0z"/>
  </defs>
  <g fill="none" fill-rule="evenodd">
    <path d="M0 0h54v54H0z" fill="#FFF"/>
    <path d="M42.82 34.694V20.642a3.266 3.266 0 0 0-3.261-3.26h-6.132l-1.434-3.802H21.94l-1.434 3.801h-6.132a3.264 3.264 0 0 0-3.258 3.261v14.052a3.261 3.261 0 0 0 3.258 3.258h25.185a3.264 3.264 0 0 0 3.261-3.258ZM46.3 15.09v24.225A4.693 4.693 0 0 1 41.611 44H12.586A4.692 4.692 0 0 1 7.9 39.314V15.09a4.693 4.693 0 0 1 4.686-4.689h29.025a4.694 4.694 0 0 1 4.689 4.69Z" fill="#FFF"/>
    <path d="M46.3 39.314V15.09a4.694 4.694 0 0 0-4.689-4.689H12.586A4.693 4.693 0 0 0 7.9 15.09v24.224A4.692 4.692 0 0 0 12.586 44h29.025a4.693 4.693 0 0 0 4.689-4.686m2.4-24.225v24.225c0 3.906-3.18 7.086-7.089 7.086H12.586C8.68 46.4 5.5 43.22 5.5 39.314V15.09C5.5 11.18 8.68 8 12.586 8h29.025a7.097 7.097 0 0 1 7.089 7.09" fill="#848484"/>
    <path d="M40.648 34.694V20.642c0-.6-.489-1.086-1.089-1.086h-7.635l-1.434-3.804h-7.047l-1.434 3.804h-7.635c-.6 0-1.086.486-1.086 1.086v14.052c0 .6.486 1.086 1.086 1.086h25.185c.6 0 1.089-.486 1.089-1.086m2.172-14.052v14.052a3.264 3.264 0 0 1-3.261 3.258H14.374a3.261 3.261 0 0 1-3.258-3.258V20.642a3.264 3.264 0 0 1 3.258-3.26h6.132l1.434-3.802h10.053l1.434 3.801h6.132a3.266 3.266 0 0 1 3.261 3.261" fill="#484848"/>
    <g transform="translate(5.5 8)">
      <mask id="b" fill="#fff">
        <use xlink:href="#a"/>
      </mask>
      <path fill="#484848" mask="url(#b)" d="M29.847 15.9h3.801v-2.445h-3.801z"/>
    </g>
    <g transform="translate(5.5 8)">
      <mask id="d" fill="#fff">
        <use xlink:href="#c"/>
      </mask>
      <path d="M26.157 21.978a5.416 5.416 0 1 0-9.384-5.418 5.419 5.419 0 0 0 9.384 5.418m1.713-6.405a7.409 7.409 0 0 1 0 7.392 7.412 7.412 0 0 1-6.402 3.7 7.413 7.413 0 0 1-6.405-3.7 7.409 7.409 0 0 1 0-7.392 7.417 7.417 0 0 1 6.405-3.696 7.415 7.415 0 0 1 6.402 3.696" fill="#484848" mask="url(#d)"/>
    </g>
    <g transform="translate(4.5 8)">
      <mask id="f" fill="#fff">
        <use xlink:href="#e"/>
      </mask>
      <path d="M46.057 22.645a14.504 14.504 0 1 1-25.121 14.503 14.504 14.504 0 0 1 25.12-14.503Z" fill="#AEAEAE" mask="url(#f)"/>
    </g>
    <g transform="translate(4.5 8)">
      <mask id="h" fill="#fff">
        <use xlink:href="#g"/>
      </mask>
      <path d="M31.192 35.363a1.765 1.765 0 0 1-2.492 0l-.669-.668a1.752 1.752 0 0 1-.516-1.247c0-.47.184-.913.516-1.245l2.68-2.68-1.554-1.555-2.68 2.68a3.934 3.934 0 0 0-1.16 2.8c0 1.059.412 2.053 1.16 2.802l.668.668a3.948 3.948 0 0 0 2.8 1.158 3.95 3.95 0 0 0 2.802-1.158l2.68-2.68-1.555-1.555-2.68 2.68Z" fill="#FFF" mask="url(#h)"/>
    </g>
    <g transform="translate(4.5 8)">
      <mask id="j" fill="#fff">
        <use xlink:href="#i"/>
      </mask>
      <path d="m40.517 23.546-.668-.668a3.936 3.936 0 0 0-2.802-1.16 3.935 3.935 0 0 0-2.8 1.16l-2.68 2.68 1.554 1.555 2.68-2.68a1.75 1.75 0 0 1 1.246-.517c.471 0 .914.184 1.247.517l.668.668c.332.332.516.775.516 1.246 0 .47-.184.913-.516 1.246l-2.68 2.68 1.555 1.555 2.68-2.68a3.935 3.935 0 0 0 1.16-2.801 3.935 3.935 0 0 0-1.16-2.801" fill="#FFF" mask="url(#j)"/>
    </g>
    <g transform="translate(4.5 8)">
      <mask id="l" fill="#fff">
        <use xlink:href="#k"/>
      </mask>
      <path d="M30.195 33.127a1.097 1.097 0 0 0 1.555 0l4.975-4.976a1.1 1.1 0 1 0-1.554-1.555l-4.976 4.976a1.1 1.1 0 0 0 0 1.555" fill="#FFF" mask="url(#l)"/>
    </g>
  </g>
</svg>