<svg width="54" height="54" xmlns="http://www.w3.org/2000/svg" xmlns:xlink="http://www.w3.org/1999/xlink">
  <defs>
    <path id="a" d="M0 42h48V0H0z"/>
    <path id="c" d="M0 42h48V0H0z"/>
  </defs>
  <g fill="none" fill-rule="evenodd">
    <path fill="#FFF" d="M0 0h54v54H0z"/>
    <path d="M42.073 36.815v-15.37a1.2 1.2 0 0 0-1.21-1.188H32.38l-1.593-4.16h-7.83l-1.594 4.16H12.88c-.667 0-1.207.532-1.207 1.188v15.37c0 .656.54 1.188 1.207 1.188h27.983a1.2 1.2 0 0 0 1.21-1.188m2.414-15.37v15.37c0 1.965-1.627 3.563-3.624 3.563H12.88c-1.997 0-3.62-1.598-3.62-3.563v-15.37c0-1.965 1.623-3.566 3.62-3.566h6.813l1.594-4.158h11.17l1.593 4.158h6.813c1.997 0 3.624 1.6 3.624 3.566" fill="#666"/>
    <g transform="translate(3 6.5)">
      <mask id="b" fill="#fff">
        <use xlink:href="#a"/>
      </mask>
      <path fill="#666" mask="url(#b)" d="M33.183 17.509h4.224v-2.674h-4.224z"/>
    </g>
    <g transform="translate(3 6.5)">
      <mask id="d" fill="#fff">
        <use xlink:href="#c"/>
      </mask>
      <path d="M29.083 24.157a5.84 5.84 0 0 0 0-5.926 6.036 6.036 0 0 0-5.21-2.963 6.04 6.04 0 0 0-5.216 2.963 5.855 5.855 0 0 0 0 5.926 6.039 6.039 0 0 0 5.213 2.963c2.15 0 4.14-1.13 5.213-2.963m1.904-7.006a7.994 7.994 0 0 1 0 8.085c-1.464 2.497-4.19 4.046-7.114 4.046-2.926 0-5.653-1.549-7.116-4.046a7.994 7.994 0 0 1 0-8.085c1.463-2.494 4.19-4.042 7.116-4.042 2.924 0 5.65 1.548 7.114 4.042" fill="#666" mask="url(#d)"/>
    </g>
  </g>
</svg>