<?xml version="1.0" encoding="UTF-8"?>
<svg width="145px" height="21px" viewBox="0 0 145 21" version="1.1" xmlns="http://www.w3.org/2000/svg" xmlns:xlink="http://www.w3.org/1999/xlink">
    <!-- Generator: Sketch 53 (72520) - https://sketchapp.com -->
    <title>commercetools_logo_hor_bw</title>
    <desc>Created with Sketch.</desc>
    <g id="commercetools_logo_hor_bw" stroke="none" stroke-width="1" fill="none" fill-rule="evenodd">
        <g fill="#FFFFFF" fill-rule="nonzero">
            <g id="XMLID_6_" transform="translate(22.813242, 2.636199)">
                <path d="M5.00308495,12.0293213 C5.80137636,12.0293213 6.26245847,11.9777376 7.27408638,11.7645249 L7.52183199,13.4667873 C6.74074514,13.68 5.87019459,13.7866063 5.00308495,13.7866063 C1.11829616,13.7866063 0,11.358733 0,8.52162896 C0.0344091125,5.75674208 1.70325107,3.41484163 4.9858804,3.41484163 C5.85643094,3.41484163 6.59966777,3.52144796 7.50462743,3.7518552 L7.16741813,5.43692308 C6.2108448,5.22371041 5.64309445,5.18932127 5.03749407,5.18932127 C2.97982914,5.22371041 1.96820123,6.75058824 1.93379212,8.52162896 C1.93379212,10.2754751 2.59100617,12.0293213 5.00308495,12.0293213 Z" id="XMLID_436_"></path>
                <path d="M12.948149,3.41140271 C16.1413147,3.42859729 17.562411,5.80488688 17.562411,8.59040724 C17.562411,11.3037104 16.3374466,13.7315837 12.9309445,13.7487783 C9.59670147,13.7143891 8.31668249,11.3002715 8.31668249,8.59040724 C8.31668249,5.80832579 9.75498339,3.44923077 12.948149,3.41140271 Z M12.948149,12.0465158 C14.9886094,12.0293213 15.6458234,10.3786425 15.6458234,8.59040724 C15.6286189,6.96036199 14.9369957,5.11366516 12.9309445,5.11366516 C10.9799478,5.13085973 10.2160655,6.93972851 10.2160655,8.59040724 C10.2160655,10.4508597 11.0315615,12.0465158 12.948149,12.0465158 Z" id="XMLID_433_"></path>
                <path d="M30.7789511,13.5733937 L30.7789511,7.19076923 C30.7789511,5.57791855 30.1767916,5.13429864 29.1651637,5.13429864 C28.4735406,5.13429864 27.6924537,5.52289593 26.983626,6.11095023 C27.0180351,6.3241629 27.0352397,6.75058824 27.0352397,6.87438914 L27.0352397,13.5768326 L25.046393,13.5768326 L25.046393,7.11855204 C25.046393,5.50570136 24.5681063,5.11366516 23.5564784,5.11366516 C22.9164689,5.11366516 22.0321547,5.5400905 21.2682724,6.10751131 L21.2682724,13.5733937 L19.3000712,13.5733937 L19.3000712,3.59022624 L21.2682724,3.59022624 L21.2682724,4.43963801 C21.8704319,3.96162896 22.8304461,3.41140271 23.8764832,3.39420814 C25.2597295,3.37701357 26.0580209,3.85502262 26.5018984,4.60126697 C27.3173944,3.83782805 28.5251542,3.41484163 29.4473185,3.39420814 C32.6955387,3.34262443 32.7471523,5.94588235 32.7471523,7.04633484 L32.7471523,13.5699548 L30.7789511,13.5699548 L30.7789511,13.5733937 Z" id="XMLID_431_"></path>
                <path d="M46.3869245,13.5733937 L46.3869245,7.19076923 C46.3869245,5.57791855 45.7847651,5.13429864 44.7731372,5.13429864 C44.081514,5.13429864 43.3004271,5.52289593 42.5915994,6.11095023 C42.6260085,6.3241629 42.6432131,6.75058824 42.6432131,6.87438914 L42.6432131,13.5768326 L40.6578073,13.5768326 L40.6578073,7.11855204 C40.6578073,5.50570136 40.1795206,5.11366516 39.1678927,5.11366516 C38.5278832,5.11366516 37.6435691,5.5400905 36.8796868,6.10751131 L36.8796868,13.5733937 L34.9114855,13.5733937 L34.9114855,3.59022624 L36.8796868,3.59022624 L36.8796868,4.43963801 C37.4818462,3.96162896 38.4418605,3.41140271 39.4878975,3.39420814 C40.8711438,3.37701357 41.6694352,3.85502262 42.1133128,4.60126697 C42.9288087,3.83782805 44.1365686,3.41484163 45.0587328,3.39420814 C48.306953,3.34262443 48.3585667,5.94588235 48.3585667,7.04633484 L48.3585667,13.5699548 L46.3869245,13.5699548 L46.3869245,13.5733937 Z" id="XMLID_429_"></path>
                <path d="M57.5457997,11.7473303 L57.8485999,13.360181 C56.9608448,13.6628054 55.7358804,13.8038009 54.7793071,13.8038009 C50.8394637,13.8038009 49.8828904,11.1627149 49.8828904,8.51819005 C49.8828904,5.87710407 51.0528002,3.42859729 54.3526341,3.42859729 C56.3930944,3.42859729 58.0963455,4.68723982 58.1135501,7.89574661 L58.0963455,8.94117647 L51.8166825,8.94117647 C51.8510916,10.8910407 52.9005695,12.080905 54.8687708,12.080905 C55.6464167,12.0843439 56.4619127,11.9949321 57.5457997,11.7473303 Z M51.9027053,7.42117647 L56.2864262,7.42117647 C56.2141671,5.39909502 55.2059801,4.99330317 54.2631704,4.99330317 C52.7732558,4.97266968 52.0816327,5.98371041 51.9027053,7.42117647 Z" id="XMLID_426_"></path>
                <path d="M65.3497864,5.41628959 C64.8336497,5.29248869 64.3897722,5.27529412 64.0732084,5.27529412 C62.8482439,5.25809955 62.2116754,5.8599095 61.7505933,6.33791855 L61.7505933,13.5733937 L59.782392,13.5733937 L59.782392,3.59022624 L61.7505933,3.59022624 L61.7505933,4.47746606 C62.2667299,3.94443439 63.0443759,3.48361991 64.0560038,3.46642534 C64.4654722,3.44923077 65.1364499,3.51800905 65.7042003,3.73122172 L65.3497864,5.41628959 Z" id="XMLID_424_"></path>
                <path d="M71.1167537,12.0293213 C71.9150451,12.0293213 72.3761272,11.9777376 73.3877551,11.7645249 L73.6355007,13.4667873 C72.8544139,13.68 71.9838633,13.7866063 71.1167537,13.7866063 C67.2319649,13.7866063 66.1136687,11.358733 66.1136687,8.52162896 C66.1480778,5.75674208 67.8169198,3.41484163 71.0995491,3.41484163 C71.9700997,3.41484163 72.7133365,3.52144796 73.6182962,3.7518552 L73.2810869,5.43692308 C72.3245135,5.22371041 71.7567632,5.18932127 71.1511628,5.18932127 C69.0934979,5.22371041 68.08187,6.75058824 68.0474608,8.52162896 C68.0474608,10.2754751 68.701234,12.0293213 71.1167537,12.0293213 Z" id="XMLID_422_"></path>
                <path d="M82.0967015,11.7473303 L82.3995017,13.360181 C81.5117466,13.6628054 80.2867822,13.8038009 79.3302088,13.8038009 C75.3903654,13.8038009 74.4337921,11.1627149 74.4337921,8.51819005 C74.4337921,5.87710407 75.6037019,3.42859729 78.9035358,3.42859729 C80.9439962,3.42859729 82.6472473,4.68723982 82.6644518,7.89574661 L82.6472473,8.94117647 L76.3675842,8.94117647 C76.4019934,10.8910407 77.4514713,12.080905 79.4196725,12.080905 C80.1973185,12.0843439 81.0128144,11.9949321 82.0967015,11.7473303 Z M76.453607,7.42117647 L80.837328,7.42117647 C80.7650688,5.39909502 79.7568818,4.99330317 78.8140721,4.99330317 C77.3241576,4.97266968 76.6325344,5.98371041 76.453607,7.42117647 Z" id="XMLID_419_"></path>
                <path d="M89.3329378,5.22027149 L86.6180589,5.22027149 L86.6180589,10.0622624 C86.6180589,11.0733032 86.7419317,11.7817195 87.7707641,11.9227149 C88.3385145,11.9742986 88.9234694,11.9227149 89.4912197,11.8504977 L89.6150925,13.5527602 C89.0301376,13.6593665 88.1974371,13.6765611 87.8602278,13.6765611 C85.5376127,13.5871493 84.6670622,12.400724 84.6670622,10.5368326 L84.6670622,5.22027149 L83.2287613,5.22027149 L83.2287613,3.85502262 L84.6670622,3.69683258 L84.6670622,1.37556561 L86.6180589,1.37556561 L86.6180589,3.59366516 L89.3329378,3.59366516 L89.3329378,5.22027149 L89.3329378,5.22027149 Z" id="XMLID_417_"></path>
                <path d="M95.0620551,3.41140271 C98.2552207,3.42859729 99.676317,5.80488688 99.676317,8.59040724 C99.676317,11.3037104 98.4513526,13.7315837 95.0448505,13.7487783 C91.7106075,13.7143891 90.4305885,11.3002715 90.4305885,8.59040724 C90.4340294,5.80832579 91.8688894,3.44923077 95.0620551,3.41140271 Z M95.0620551,12.0465158 C97.1025154,12.0293213 97.7597295,10.3786425 97.7597295,8.59040724 C97.7425249,6.96036199 97.0509018,5.11366516 95.0448505,5.11366516 C93.0938538,5.13085973 92.3299715,6.93972851 92.3299715,8.59040724 C92.3299715,10.4508597 93.1489084,12.0465158 95.0620551,12.0465158 Z" id="XMLID_414_"></path>
                <path d="M105.670384,3.41140271 C108.86355,3.42859729 110.284646,5.80488688 110.284646,8.59040724 C110.284646,11.3037104 109.059682,13.7315837 105.65318,13.7487783 C102.318937,13.7143891 101.038918,11.3002715 101.038918,8.59040724 C101.042359,5.80832579 102.477219,3.44923077 105.670384,3.41140271 Z M105.670384,12.0465158 C107.710845,12.0293213 108.368059,10.3786425 108.368059,8.59040724 C108.350854,6.96036199 107.659231,5.11366516 105.65318,5.11366516 C103.702183,5.13085973 102.938301,6.93972851 102.938301,8.59040724 C102.938301,10.4508597 103.753797,12.0465158 105.670384,12.0465158 Z" id="XMLID_411_"></path>
                <polygon id="XMLID_409_" points="111.843379 13.5733937 111.843379 0.0275113122 113.742762 0.0275113122 113.742762 13.5733937"></polygon>
                <path d="M115.745373,11.640724 C116.863669,11.9227149 117.909706,12.0671493 118.56692,12.0671493 C119.348007,12.0671493 120.146298,11.9089593 120.197912,10.9666968 C120.249525,9.97285068 119.220693,9.67366516 118.050783,9.17502262 C116.71915,8.62479638 115.28429,7.88199095 115.3187,6.03529412 C115.353109,5.11366516 115.903654,3.30479638 118.849075,3.39420814 C119.73683,3.41140271 120.800071,3.55239819 121.687826,3.78280543 L121.350617,5.41285068 C120.30458,5.16524887 119.523493,5.05864253 118.759611,5.04144796 C117.906265,5.04144796 117.252492,5.30624434 117.214642,6.1040724 C117.197437,6.77809955 117.730778,7.13230769 119.041766,7.66533937 C120.373398,8.21556561 122.252136,8.9239819 122.162672,11.0182805 C122.111058,12.3491403 121.240508,13.8038009 118.560038,13.7659729 C117.706692,13.7487783 116.34065,13.6421719 115.332463,13.2879638 L115.745373,11.640724 Z" id="XMLID_407_"></path>
            </g>
            <path d="M17.7516611,15.8072398 L9.54852871,11.9866063 C9.4831514,11.9556561 9.41433318,11.9315837 9.34207404,11.9143891 L9.34207404,11.8834389 L9.34207404,9.59656109 C9.34207404,9.36959276 9.34895586,9.36615385 9.49691505,9.30081448 L9.49691505,9.30081448 L9.82380161,9.14950226 C10.3743474,8.89502262 10.3743474,8.89502262 13.608804,7.38190045 L17.755102,5.44235294 C17.9959658,5.32886878 18.1508068,5.0881448 18.1508068,4.82334842 C18.1508068,4.55855204 17.9959658,4.31438914 17.755102,4.20434389 L9.54852871,0.380271493 C9.25261035,0.242714932 8.91196013,0.242714932 8.61260085,0.380271493 L0.41290935,4.18714932 C0.175486474,4.29719457 0.0172045562,4.53791855 0.0172045562,4.80271493 L0.0172045562,4.80271493 L0.0172045562,16.4124887 L0.0172045562,16.4124887 C0.0172045562,16.6772851 0.172045562,16.921448 0.409468439,17.0314932 L8.62292359,20.8727602 C8.6883009,20.9037104 8.75367822,20.9243439 8.81905553,20.9415385 L8.81905553,20.9724887 L9.07368296,20.9759276 C9.08056478,20.9759276 9.08744661,20.9759276 9.09432843,20.9759276 C9.09432843,20.9759276 9.09432843,20.9759276 9.09432843,20.9759276 L9.33863313,20.9793665 L9.33863313,20.9484163 C9.41433318,20.9312217 9.49003322,20.9071493 9.55885145,20.8727602 L17.7482202,17.04181 C17.989084,16.9283258 18.143925,16.6876018 18.143925,16.4228054 C18.1473659,16.161448 17.9925249,15.920724 17.7516611,15.8072398 Z M0.540223066,15.7384615 L0.540223066,5.49049774 L8.6263645,9.27330317 C8.69518272,9.30425339 8.76400095,9.32832579 8.83281917,9.34552036 C8.83626009,9.34552036 8.83626009,9.34895928 8.839701,9.34895928 C8.82593735,9.42461538 8.82249644,9.50714932 8.82249644,9.6 L8.82249644,11.8868778 L8.82249644,11.9178281 C8.81561462,11.9178281 8.81217371,11.921267 8.8087328,11.9247059 C8.74335548,11.9419005 8.67797817,11.9625339 8.61604177,11.9900452 L0.540223066,15.7384615 Z M0.63312767,4.66171946 L8.83281917,0.851402715 C8.91196013,0.813574661 8.994542,0.79638009 9.08056478,0.79638009 C9.16658757,0.79638009 9.24916944,0.813574661 9.32831039,0.851402715 L17.5314428,4.6720362 C17.5899383,4.69954751 17.6243474,4.75800905 17.6243474,4.8199095 C17.6243474,4.88180995 17.5864974,4.94027149 17.5314428,4.96778281 L13.3851448,6.90733032 C10.1506882,8.42045249 10.1506882,8.42045249 9.60358329,8.67493213 L9.29390128,8.81936652 C9.2698149,8.82624434 9.24916944,8.83312217 9.22508306,8.84 C9.21476032,8.84343891 9.20443759,8.84687783 9.19411486,8.84687783 C9.15970574,8.85375566 9.12529663,8.85719457 9.08744661,8.85375566 C9.00486474,8.85375566 8.92228287,8.83312217 8.84658282,8.79873303 L0.63312767,4.95746606 C0.619364025,4.95058824 0.60560038,4.94371041 0.595277646,4.93339367 C0.560868533,4.90244344 0.540223066,4.86117647 0.540223066,4.80959276 C0.540223066,4.74425339 0.57807309,4.68579186 0.63312767,4.66171946 Z M0.63312767,16.5638009 C0.574632178,16.5362896 0.540223066,16.4778281 0.540223066,16.4159276 C0.540223066,16.398733 0.543663977,16.3849774 0.547104888,16.3712217 C0.560868533,16.3265158 0.591836735,16.2886878 0.63312767,16.2714932 L8.81905553,12.4680543 L8.81905553,20.39819 L0.63312767,16.5638009 Z M17.5314428,16.5741176 L9.34207404,20.4050679 C9.34207404,20.4050679 9.34207404,20.4050679 9.34207404,20.4050679 L9.34207404,12.4646154 L17.5314428,16.278371 C17.5899383,16.3058824 17.6243474,16.3643439 17.6243474,16.4262443 C17.6243474,16.4915837 17.5899383,16.5500452 17.5314428,16.5741176 Z" id="XMLID_387_"></path>
        </g>
    </g>
</svg>