<svg xmlns="http://www.w3.org/2000/svg" viewBox="0 0 4998.1 1194.1" style="enable-background:new 0 0 4998.1 1194.1" xml:space="preserve">
  <path d="M1199.4 718.8c23.2 0 36.6-1.5 66-7.7l7.2 49.5c-22.7 6.2-48 9.3-73.2 9.3-112.9 0-145.4-70.6-145.4-153.1 1-80.4 49.5-148.5 144.9-148.5 25.3 0 46.9 3.1 73.2 9.8l-9.8 49c-27.8-6.2-44.3-7.2-61.9-7.2-59.8 1-89.2 45.4-90.2 96.9 0 51 19.1 102 89.2 102zM1430.3 468.2c92.8.5 134.1 69.6 134.1 150.6 0 78.9-35.6 149.5-134.6 150-96.9-1-134.1-71.2-134.1-150 0-80.9 41.8-149.5 134.6-150.6zm0 251.1c59.3-.5 78.4-48.5 78.4-100.5-.5-47.4-20.6-101.1-78.9-101.1-56.7.5-78.9 53.1-78.9 101.1 0 54.1 23.7 100.5 79.4 100.5zM1948.5 763.7V578.1c0-46.9-17.5-59.8-46.9-59.8-20.1 0-42.8 11.3-63.4 28.4 1 6.2 1.5 18.6 1.5 22.2v194.9h-57.8V576c0-46.9-13.9-58.3-43.3-58.3-18.6 0-44.3 12.4-66.5 28.9v217.1h-57.2V473.4h57.2v24.7c17.5-13.9 45.4-29.9 75.8-30.4 40.2-.5 63.4 13.4 76.3 35.1 23.7-22.2 58.8-34.5 85.6-35.1 94.4-1.5 95.9 74.2 95.9 106.2v189.7h-57.2zM2402.1 763.7V578.1c0-46.9-17.5-59.8-46.9-59.8-20.1 0-42.8 11.3-63.4 28.4 1 6.2 1.5 18.6 1.5 22.2v194.9h-57.7V576c0-46.9-13.9-58.3-43.3-58.3-18.6 0-44.3 12.4-66.5 28.9v217.1h-57.2V473.4h57.2v24.7c17.5-13.9 45.4-29.9 75.8-30.4 40.2-.5 63.4 13.4 76.3 35.1 23.7-22.2 58.8-34.5 85.6-35.1 94.4-1.5 95.9 74.2 95.9 106.2v189.7h-57.3zM2726.4 710.6l8.8 46.9c-25.8 8.8-61.4 12.9-89.2 12.9-114.5 0-142.3-76.8-142.3-153.7 0-76.8 34-148 129.9-148 59.3 0 108.8 36.6 109.3 129.9l-.5 30.4h-182.5c1 56.7 31.5 91.3 88.7 91.3 22.6.1 46.3-2.5 77.8-9.7zm-164-125.8h127.4c-2.1-58.8-31.4-70.6-58.8-70.6-43.3-.6-63.4 28.8-68.6 70.6zM2953.2 526.5c-15-3.6-27.9-4.1-37.1-4.1-35.6-.5-54.1 17-67.5 30.9v210.4h-57.2V473.4h57.2v25.8c15-15.5 37.6-28.9 67-29.4 11.9-.5 31.4 1.5 47.9 7.7l-10.3 49zM3120.8 718.8c23.2 0 36.6-1.5 66-7.7l7.2 49.5c-22.7 6.2-48 9.3-73.2 9.3-112.9 0-145.4-70.6-145.4-153.1 1-80.4 49.5-148.5 144.9-148.5 25.3 0 46.9 3.1 73.2 9.8l-9.8 49c-27.8-6.2-44.3-7.2-61.9-7.2-59.8 1-89.2 45.4-90.2 96.9 0 51 19 102 89.2 102zM3439.9 710.6l8.8 46.9c-25.8 8.8-61.4 12.9-89.2 12.9-114.5 0-142.3-76.8-142.3-153.7 0-76.8 34-148 129.9-148 59.3 0 108.8 36.6 109.3 129.9l-.5 30.4h-182.5c1 56.7 31.5 91.3 88.7 91.3 22.6.1 46.3-2.5 77.8-9.7zm-164-125.8h127.4c-2.1-58.8-31.4-70.6-58.8-70.6-43.3-.6-63.4 28.8-68.6 70.6zM3650.2 520.8h-78.9v140.8c0 29.4 3.6 50 33.5 54.1 16.5 1.5 33.5 0 50-2.1l3.6 49.5c-17 3.1-41.2 3.6-51 3.6-67.5-2.6-92.8-37.1-92.8-91.3V520.8h-41.8v-39.7l41.8-4.6V409h56.7v64.5h78.9v47.3zM3816.7 468.2c92.8.5 134.1 69.6 134.1 150.6 0 78.9-35.6 149.5-134.6 150-96.9-1-134.1-71.2-134.1-150 .1-80.9 41.8-149.5 134.6-150.6zm0 251.1c59.3-.5 78.4-48.5 78.4-100.5-.5-47.4-20.6-101.1-78.9-101.1-56.7.5-78.9 53.1-78.9 101.1 0 54.1 23.8 100.5 79.4 100.5zM4125 468.2c92.8.5 134.1 69.6 134.1 150.6 0 78.9-35.6 149.5-134.6 150-96.9-1-134.1-71.2-134.1-150 .1-80.9 41.8-149.5 134.6-150.6zm0 251.1c59.3-.5 78.4-48.5 78.4-100.5-.5-47.4-20.6-101.1-78.9-101.1-56.7.5-78.9 53.1-78.9 101.1 0 54.1 23.7 100.5 79.4 100.5zM4304.4 763.7V369.8h55.2v393.9h-55.2zM4417.8 707.5c32.5 8.2 62.9 12.4 82 12.4 22.7 0 45.9-4.6 47.4-32 1.5-28.9-28.4-37.6-62.4-52.1-38.7-16-80.4-37.6-79.4-91.3 1-26.8 17-79.4 102.6-76.8 25.8.5 56.7 4.6 82.5 11.3l-9.8 47.4c-30.4-7.2-53.1-10.3-75.3-10.8-24.8 0-43.8 7.7-44.9 30.9-.5 19.6 15 29.9 53.1 45.4 38.7 16 93.3 36.6 90.7 97.5-1.5 38.7-26.8 81-104.7 79.9-24.8-.5-64.5-3.6-93.8-13.9l12-47.9zM906.9 752 668.5 640.9c-1.9-.9-3.9-1.6-6-2.1v-67.4c0-6.6.2-6.7 4.5-8.6l9.5-4.4c16-7.4 16-7.4 110-51.4L907 450.6c7-3.3 11.5-10.3 11.5-18 0-7.7-4.5-14.8-11.5-18L668.5 303.4c-8.6-4-18.5-4-27.2 0L403 414.1c-6.9 3.2-11.5 10.2-11.5 17.9v337.6c0 7.7 4.5 14.8 11.4 18l238.7 111.7c1.9.9 3.8 1.5 5.7 2v.9l7.4.1h.6l7.1.1v-.9c2.2-.5 4.4-1.2 6.4-2.2l238-111.4c7-3.3 11.5-10.3 11.5-18 .1-7.6-4.4-14.6-11.4-17.9zm-500.2-2V452l235 110c2 .9 4 1.6 6 2.1.1 0 .1.1.2.1-.4 2.2-.5 4.6-.5 7.3v67.4c-.2 0-.3.1-.4.2-1.9.5-3.8 1.1-5.6 1.9L406.7 750zm2.7-322.1 238.3-110.8c2.3-1.1 4.7-1.6 7.2-1.6s4.9.5 7.2 1.6l238.4 111.1c1.7.8 2.7 2.5 2.7 4.3 0 1.8-1.1 3.5-2.7 4.3L780 493.2c-94 44-94 44-109.9 51.4l-9 4.2c-.7.2-1.3.4-2 .6-.3.1-.6.2-.9.2-1 .2-2 .3-3.1.2-2.4 0-4.8-.6-7-1.6L409.4 436.5c-.4-.2-.8-.4-1.1-.7-1-.9-1.6-2.1-1.6-3.6 0-1.9 1.1-3.6 2.7-4.3zm0 346.1c-1.7-.8-2.7-2.5-2.7-4.3 0-.5.1-.9.2-1.3.4-1.3 1.3-2.4 2.5-2.9l237.9-110.6v230.6L409.4 774zm491.1.3-238 111.4V654.8l238 110.9c1.7.8 2.7 2.5 2.7 4.3 0 1.9-1 3.6-2.7 4.3z"/>
</svg>