<svg width="4999" height="1195" viewBox="0 0 4999 1195" fill="none" xmlns="http://www.w3.org/2000/svg">
<path d="M1066.6 595.262L1423.33 389.32C1452.35 372.57 1452.35 330.656 1423.33 313.906L1044.84 95.4017C1026.89 85.0448 1004.76 85.0448 986.809 95.4017L597.435 320.225C579.488 330.582 568.421 349.762 568.421 370.476V828.497C568.421 844.051 576.721 858.409 590.144 866.186L986.772 1095.57C1004.76 1105.96 1026.93 1105.96 1044.88 1095.57L1423.41 876.655C1452.42 859.867 1452.38 818.028 1423.41 801.278L1066.64 595.299L1066.6 595.262ZM1015.82 137.278L1387.06 351.594L1015.82 565.911L644.583 351.594L1015.82 137.278ZM990.436 1038.63L619.196 824.31V395.639L990.436 609.956V1038.63ZM1041.21 639.269L1387.06 838.966L1041.21 1038.63V639.269Z" fill="white"/>
<path d="M2726.06 648.726C2721.68 685.817 2706.2 700.773 2679.88 700.773C2647.24 700.773 2629.97 678.152 2629.97 631.228V626.554H2777.88C2779.07 614.627 2779.52 604.383 2779.52 593.465C2779.52 522.799 2743.78 483.128 2679.66 483.128C2610.79 483.128 2573.47 524.818 2573.47 600.494V622.143C2573.47 697.781 2610.56 739.359 2678.01 739.359C2736.82 739.359 2772.31 711.541 2780.65 655.793L2726.06 648.764V648.726ZM2679.13 521.565C2708.33 521.565 2723.03 540.484 2723.03 581.313V587.632H2629.97C2631.09 543.512 2647.46 521.565 2679.13 521.565Z" fill="white"/>
<path d="M1643.11 641.063L1701.25 648.317C1694.44 707.841 1659.45 739.585 1598.84 739.585C1529.97 739.585 1494.3 695.241 1494.3 610.292V609.32C1494.3 526.278 1530.87 482.831 1599.06 482.831C1660.61 482.831 1693.58 515.547 1698.48 577.352L1641.76 584.119C1639.18 541.42 1626.06 521.828 1598.84 521.828C1567.54 521.828 1552.81 547.029 1552.81 600.047V619.602C1552.81 674.19 1567.99 700.176 1599.51 700.176C1626.36 700.176 1640.53 680.584 1643.11 641.101V641.063Z" fill="white"/>
<path d="M1831.55 482.793C1763.88 482.793 1726.34 529.941 1726.34 608.609V613.731C1726.34 691.875 1763.92 739.547 1831.55 739.547C1899.19 739.547 1936.77 691.875 1936.77 613.731V608.609C1936.77 529.941 1899.19 482.793 1831.55 482.793ZM1878.25 622.106C1878.25 675.124 1862.77 700.325 1831.55 700.325C1800.33 700.325 1784.85 675.124 1784.85 622.106V600.233C1784.85 547.215 1800 521.79 1831.55 521.79C1863.11 521.79 1878.25 547.215 1878.25 600.233V622.106Z" fill="white"/>
<path d="M3895.94 482.793C3828.26 482.793 3790.72 529.941 3790.72 608.609V613.731C3790.72 691.875 3828.26 739.547 3895.94 739.547C3963.61 739.547 4001.23 691.875 4001.23 613.731V608.609C4001.23 529.941 3963.58 482.793 3895.94 482.793ZM3942.64 622.106C3942.64 675.124 3927.27 700.325 3895.94 700.325C3864.61 700.325 3849.31 675.124 3849.31 622.106V600.233C3849.31 547.215 3864.46 521.79 3895.94 521.79C3927.42 521.79 3942.64 547.215 3942.64 600.233V622.106Z" fill="white"/>
<path d="M4089.09 416.128H4032.15V733.677H4089.09V416.128Z" fill="white"/>
<path d="M3100.55 641.063L3158.7 648.317C3151.89 707.841 3116.93 739.585 3056.29 739.585C2987.41 739.585 2951.74 695.241 2951.74 610.292V609.32C2951.74 526.278 2988.31 482.831 3056.51 482.831C3118.05 482.831 3151.03 515.547 3155.93 577.352L3099.21 584.119C3096.63 541.42 3083.5 521.828 3056.29 521.828C3024.99 521.828 3010.26 547.029 3010.26 600.047V619.602C3010.26 674.19 3025.44 700.176 3056.96 700.176C3083.8 700.176 3097.97 680.584 3100.55 641.101V641.063Z" fill="white"/>
<path d="M4311 667.908C4311 712.477 4276.45 739.322 4216.93 739.322C4153.48 739.322 4117.06 711.504 4115.49 662.001L4169.55 651.046C4169.11 683.014 4185.93 700.998 4216.7 700.998C4240.78 700.998 4254.06 691.651 4254.06 673.255C4254.06 654.859 4242.2 646.634 4210.91 635.006L4179.61 623.078C4148.39 611.151 4121.55 588.306 4121.55 554.207C4121.55 508.928 4153.07 482.793 4210.23 482.793C4267.4 482.793 4303.3 508.741 4303.52 554.207L4250.58 563.554C4251.7 534.577 4237.3 521.753 4210.91 521.753C4187.84 521.753 4175.01 530.427 4175.01 546.056C4175.01 561.685 4186.19 571.929 4217.49 583.146L4248.71 594.55C4280 606.029 4311 623.751 4311 667.871V667.908Z" fill="white"/>
<path d="M3661.05 482.793C3593.38 482.793 3555.84 529.941 3555.84 608.609V613.731C3555.84 691.875 3593.38 739.547 3661.05 739.547C3728.73 739.547 3766.34 691.875 3766.34 613.731V608.609C3766.34 529.941 3728.69 482.793 3661.05 482.793ZM3707.75 622.106C3707.75 675.124 3692.35 700.325 3661.05 700.325C3629.76 700.325 3614.43 675.124 3614.43 622.106V600.233C3614.43 547.215 3629.57 521.79 3661.05 521.79C3692.54 521.79 3707.75 547.215 3707.75 600.233V622.106Z" fill="white"/>
<path d="M3506.94 694.231C3517.48 694.231 3530.53 691.427 3542.91 686.08L3539.65 727.658C3526.75 734.425 3506.9 739.061 3488.28 739.061C3443.94 739.061 3421.09 716.665 3421.09 668.619V433.215L3478.03 416.166V488.739H3542.23V530.017H3478.03V661.852C3478.03 685.22 3487.61 694.269 3506.94 694.269V694.231Z" fill="white"/>
<path d="M3336.4 648.726C3332.03 685.817 3316.59 700.773 3290.23 700.773C3257.55 700.773 3240.31 678.152 3240.31 631.228V626.554H3388.23C3389.42 614.627 3389.87 604.383 3389.87 593.465C3389.87 522.799 3354.13 483.128 3290 483.128C3221.13 483.128 3183.82 524.818 3183.82 600.494V622.143C3183.82 697.781 3220.91 739.359 3288.36 739.359C3347.21 739.359 3382.65 711.541 3391.03 655.793L3336.4 648.764V648.726ZM3289.48 521.565C3318.68 521.565 3333.37 540.484 3333.37 581.313V587.632H3240.31C3241.43 543.512 3257.81 521.565 3289.48 521.565Z" fill="white"/>
<path d="M2144.09 553.796C2161.63 504.965 2188.62 482.831 2223.39 482.831C2260.97 482.831 2278.28 509.676 2269.23 552.375L2273.91 553.796C2291.44 504.965 2318.44 482.831 2353.21 482.831C2390.79 482.831 2408.1 509.676 2399.05 552.375L2403.72 553.796C2420.92 504.778 2447.73 482.831 2484.41 482.831C2524.3 482.831 2543.26 506.648 2543.26 552.151V733.714H2486.32V561.76C2486.32 537.494 2476.97 525.417 2458.27 525.417C2429.82 525.417 2413.48 560.414 2413.48 607.263V733.752H2356.84V562.246C2356.84 538.466 2346.18 525.417 2328.46 525.417C2300.04 525.417 2283.67 560.414 2283.67 607.263V733.752H2227.02V562.246C2227.02 538.466 2217.23 525.118 2199.5 525.118H2199.43V525.455C2199.43 525.455 2199.35 525.455 2199.32 525.455C2170.9 525.455 2154.52 560.451 2154.52 607.3V733.789H2097.88V562.283C2097.88 538.504 2088.08 525.156 2070.36 525.156C2042.84 525.156 2024.56 558.806 2024.56 608.721V733.789H1967.61V488.813H2024.78C2025.3 503.732 2022.46 517.005 2011.73 550.132L2016.41 552.226C2038.35 502.049 2060.97 482.906 2094.33 482.906C2131.9 482.906 2149.18 509.751 2140.13 552.45L2144.17 553.871L2144.09 553.796Z" fill="white"/>
<path d="M2947 532.746C2883.43 537.046 2868.55 558.283 2868.55 626.594V733.677H2811.61V488.701H2868.78C2869.3 505.975 2866.98 518.351 2855.5 551.216L2860.18 553.31C2876.1 516.257 2894.61 482.158 2951.03 480.999L2947 532.709V532.746Z" fill="white"/>
</svg>
