<svg width="249" height="227" xmlns="http://www.w3.org/2000/svg" xmlns:xlink="http://www.w3.org/1999/xlink">
  <defs>
    <path id="a" d="M0 0h250v226.694H0z"/>
    <path id="d" d="M0 66.893V0h55.852v66.893z"/>
    <path id="f" d="M98.862.002H0v102.892h98.862V.002z"/>
    <rect id="c" x="0" y="226.694" width="248.775" height="2.451" rx="1.225"/>
  </defs>
  <g fill="none" fill-rule="evenodd">
    <g transform="translate(0 -3)">
      <mask id="b" fill="#fff">
        <use xlink:href="#a"/>
      </mask>
      <ellipse fill="#F2F2F2" mask="url(#b)" cx="124.387" cy="126.213" rx="123.162" ry="122.537"/>
    </g>
    <g transform="translate(0 -3)">
      <use fill="#000" xlink:href="#c"/>
      <rect stroke="#000" x=".5" y="227.194" width="247.775" height="1.451" rx=".725"/>
    </g>
    <path fill="#333" d="M83.53 117.123h34.094v-1.299H83.53zM21.832 121.02h51.955v-1.299H21.832zM174.775 118.097h51.955v-1.299h-51.955zM158.775 142.097h51.955v-1.299h-51.955zM146.524 109.98h18.51v-1.3h-18.51zM145.524 151.98h18.51v-1.3h-18.51zM34.524 167.98h18.51v-1.3h-18.51zM32.524 130.98h18.51v-1.3h-18.51zM116.975 129.787h18.51v-1.299h-18.51zM217.963 109.33h18.51v-1.299h-18.51zM47.81 100.562h134.434v-1.299H47.81zM221.536 103.81a.65.65 0 0 1-.648-.699c.004-.057.388-5.714-2.845-9.199-1.703-1.835-4.133-2.767-7.224-2.767h-79.232a.65.65 0 0 1 0-1.299h79.232c3.47 0 6.223 1.073 8.183 3.19 3.617 3.907 3.2 9.92 3.18 10.174a.65.65 0 0 1-.646.6M125.418 90.496h-16.236a.65.65 0 0 1 0-1.299h16.236a.65.65 0 0 1 0 1.3M156.418 122.496h-16.236a.65.65 0 0 1 0-1.299h16.236a.65.65 0 0 1 0 1.3M181.919 87.899a.652.652 0 0 1-.6-.898c.044-.108.922-2.368-.705-4.784-1.846-2.741-7.175-6.009-22.075-6.009H95.543a.65.65 0 0 1 0-1.298h62.996c12.451 0 20.247 2.224 23.172 6.612 2.007 3.009.858 5.857.808 5.977a.65.65 0 0 1-.6.4"/>
    <path d="M66.643 97.315a.65.65 0 0 1-.631-.5c-.075-.313-1.794-7.737 1.445-11.838 1.363-1.724 3.383-2.6 6.006-2.6H84.11c-.206-2.377-.621-9.853 1.95-12.74.721-.81 1.618-1.222 2.664-1.222h15.663c.37-2.503 2.367-12.014 11.288-12.014h31.498c2.272 0 9.793.107 11.175 1.489 1.585 1.584 1.247 10.154 1.164 11.856a.65.65 0 0 1-1.297-.064c.232-4.727.001-10.087-.785-10.874-.685-.684-5.857-1.108-10.257-1.109h-31.498c-3.759 0-6.59 1.888-8.411 5.611-1.4 2.86-1.655 5.778-1.657 5.808l-.05.595H88.726c-.669 0-1.223.258-1.695.788-2.18 2.449-1.863 9.818-1.557 12.451l.084.725H73.463c-2.204 0-3.881.708-4.985 2.103-2.85 3.605-1.22 10.665-1.203 10.736a.65.65 0 0 1-.632.8" fill="#333"/>
    <g transform="translate(16.961 53.153)">
      <mask id="e" fill="#fff">
        <use xlink:href="#d"/>
      </mask>
      <path d="M49.52 22.08a6.331 6.331 0 0 0-6.332 6.335V41.89H39.94V11.69C39.94 5.235 34.707 0 28.25 0c-6.458 0-11.69 5.234-11.69 11.69v26.952h-3.897V25.168A6.332 6.332 0 1 0 0 25.166v16.56a6.332 6.332 0 0 0 6.332 6.333h10.229v18.834h23.38V51.306h9.579a6.332 6.332 0 0 0 6.332-6.332v-16.56a6.331 6.331 0 0 0-6.332-6.333" fill="#333" mask="url(#e)"/>
    </g>
    <g>
      <path d="M162.2 160.307s30.285 1.637 41.335 12.277c11.05 10.641 9.822 31.922 9.822 31.922s-4.91-1.228-5.32-1.637c-.41-.409 4.91 9.413 9.413 9.413 3.814 0-11.466 9.988-20.704 4.08-2.36-1.51-3.796-4.132-3.913-6.93-.082-1.972-.883-5.73-4.031-12.702-5.73-12.687-16.78-28.647-21.281-28.647l-5.32-7.776Z" fill="#00B49F"/>
      <path d="m208.608 202.283.008.007a.226.226 0 0 0-.008-.007Zm-40.628-34.978c5.507.93 16.477 17.814 21.568 29.089 2.566 5.682 3.985 10.179 4.103 13.004.108 2.582 1.43 4.928 3.536 6.275 4.184 2.675 9.577 1.662 12.419.82 3.43-1.018 6.022-2.56 7.108-3.46-4.681-.856-9.355-9.448-9.487-9.938l-.162-.607.543-.34.544-.314.416.41c.397.215 2.207.745 4.001 1.215.064-4.293-.298-21.326-9.602-30.285-9.226-8.885-32.655-11.395-39.132-11.928l4.145 6.059Zm35.727 51.716c-2.61 0-5.188-.553-7.402-1.97-2.556-1.634-4.16-4.47-4.29-7.585-.076-1.826-.825-5.458-3.959-12.399-6.063-13.425-16.81-28.166-20.535-28.166h-.432l-6.5-9.501 1.656.09c.076.003 7.73.432 16.635 2.162 12.039 2.339 20.525 5.819 25.223 10.343 5.87 5.653 8.295 14.219 9.295 20.41 1.076 6.662.789 11.928.777 12.148l-.058.987-.959-.24a78.09 78.09 0 0 1-3.376-.91c1.643 2.622 4.979 7.074 7.668 7.074.947 0 1.257.487 1.358.777.296.851-.522 1.636-1.268 2.223-2.6 2.052-8.285 4.557-13.833 4.557Z" fill="#000"/>
      <path d="m143.375 209.826-5.518 11.92-2.667 1.586s-4.198-5.743-5.578-9.01c-1.38-3.268-4.124-10.694-4.124-10.694l-1.076-.71s-10.01-.867-12.098-1.277c-2.089-.409-8.872-2.615-8.872-2.615s-.606-.394-1.209.292c-.602.686-8.375 20.086-8.375 20.086l-1.64 2.291-1.98-1.976-4.978-16.44-2.864-15.143 27.01-13.096s21.282 10.231 21.691 10.231c.41 0 9.822 7.776 9.822 7.776l2.456 16.78Z" fill="#00B49F"/>
      <path d="M211.72 190.591s-1.637 1.228-4.91-1.227c-3.275-2.456-6.549-.819-7.367 2.046-.819 2.865-3.684 6.957-5.32 5.32-1.638-1.637-4.503.819-4.503.819l2.098 6.592 1.433 7.298s1.63 3.47 3.143 4.612c1.512 1.142 4.172 1.99 6.934 2.18 2.763.19 6.037-.505 8.492-1.59 2.456-1.085 5.32-1.903 5.73-3.131.409-1.228-1.228-.819-2.456-1.637-1.227-.819-2.455-1.637-2.865-2.865-.409-1.228-2.046-1.637-2.455-2.456-.41-.818.41-.818-.41-2.046-.818-1.228.702-.92.702-.92l3.403.66-.423-9.164-1.226-4.49Z" fill="#FFF"/>
      <path d="m208.608 202.283.008.007a.226.226 0 0 0-.008-.007Zm-40.628-34.978c5.507.93 16.477 17.814 21.568 29.089 2.566 5.682 3.985 10.179 4.103 13.004.108 2.582 1.43 4.928 3.536 6.275 4.184 2.675 9.577 1.662 12.419.82 3.43-1.018 6.022-2.56 7.108-3.46-4.681-.856-9.355-9.448-9.487-9.938l-.162-.607.543-.34.544-.314.416.41c.397.215 2.207.745 4.001 1.215.064-4.293-.298-21.326-9.602-30.285-9.226-8.885-32.655-11.395-39.132-11.928l4.145 6.059Zm35.727 51.716c-2.61 0-5.188-.553-7.402-1.97-2.556-1.634-4.16-4.47-4.29-7.585-.076-1.826-.825-5.458-3.959-12.399-6.063-13.425-16.81-28.166-20.535-28.166h-.432l-6.5-9.501 1.656.09c.076.003 7.73.432 16.635 2.162 12.039 2.339 20.525 5.819 25.223 10.343 5.87 5.653 8.295 14.219 9.295 20.41 1.076 6.662.789 11.928.777 12.148l-.058.987-.959-.24a78.09 78.09 0 0 1-3.376-.91c1.643 2.622 4.979 7.074 7.668 7.074.947 0 1.257.487 1.358.777.296.851-.522 1.636-1.268 2.223-2.6 2.052-8.285 4.557-13.833 4.557Z" fill="#000"/>
      <path d="M140.1 204.506s2.047 15.961 6.958 20.054c4.911 4.092 11.868-24.146 11.868-24.146s13.097-21.69 8.595-32.332c-4.502-10.64-16.78-13.096-23.328-13.914-6.548-.819-20.053-6.548-20.872-7.367L63.57 160.716s7.366 52.794 12.278 60.979C80.758 229.88 86.898 191 86.898 191" fill="#00B49F"/>
      <path d="M148.075 225.785c-.543 0-1.067-.201-1.541-.597-5.1-4.249-7.16-19.913-7.245-20.578a.818.818 0 0 1 1.623-.208c.006.04.521 4.008 1.623 8.413 1.43 5.712 3.175 9.556 5.047 11.116.313.261.536.237.731.175 3.118-1.024 7.677-15.196 9.818-23.888l.03-.12.065-.107c.128-.213 12.828-21.456 8.541-31.59-3.138-7.417-10.767-11.932-22.675-13.421-5.87-.734-18.317-5.706-20.933-7.3l-58.673 13.663c.916 6.427 7.605 52.5 12.063 59.93.292.487.584.761.77.731.386-.075 2.48-1.18 5.772-15.613 1.761-7.725 2.986-15.44 2.998-15.518a.818.818 0 1 1 1.617.255c-.012.078-1.246 7.849-3.02 15.628-3.274 14.36-5.49 16.551-7.055 16.855-.648.127-1.606-.03-2.485-1.495-4.94-8.233-12.085-59.125-12.386-61.287l-.104-.74.728-.17L123.58 145.9l.321.322c.937.763 13.904 6.322 20.395 7.133 12.53 1.566 20.598 6.414 23.98 14.408 4.495 10.625-7.474 31.107-8.584 32.966-.216.861-1.572 6.182-3.402 11.6-4.132 12.237-6.64 13.06-7.465 13.33a2.395 2.395 0 0 1-.749.125" fill="#000"/>
      <path d="M128.641 203.278s2.456 3.684 7.367 6.14c4.911 2.455 3.274 9.003 3.274 9.003l1.281-2.046 1.325-4.86-.969-7.009s-.409-2.455-1.228-3.274c-.915-.915-8.065.934-8.065.934l-2.985 1.112Z" fill="#A8DBD5"/>
      <path d="M148.075 225.785c-.543 0-1.067-.201-1.541-.597-5.1-4.249-7.16-19.913-7.245-20.578a.818.818 0 0 1 1.623-.208c.006.04.521 4.008 1.623 8.413 1.43 5.712 3.175 9.556 5.047 11.116.313.261.536.237.731.175 3.118-1.024 7.677-15.196 9.818-23.888l.03-.12.065-.107c.128-.213 12.828-21.456 8.541-31.59-3.138-7.417-10.767-11.932-22.675-13.421-5.87-.734-18.317-5.706-20.933-7.3l-58.673 13.663c.916 6.427 7.605 52.5 12.063 59.93.292.487.584.761.77.731.386-.075 2.48-1.18 5.772-15.613 1.761-7.725 2.986-15.44 2.998-15.518a.818.818 0 1 1 1.617.255c-.012.078-1.246 7.849-3.02 15.628-3.274 14.36-5.49 16.551-7.055 16.855-.648.127-1.606-.03-2.485-1.495-4.94-8.233-12.085-59.125-12.386-61.287l-.104-.74.728-.17L123.58 145.9l.321.322c.937.763 13.904 6.322 20.395 7.133 12.53 1.566 20.598 6.414 23.98 14.408 4.495 10.625-7.474 31.107-8.584 32.966-.216.861-1.572 6.182-3.402 11.6-4.132 12.237-6.64 13.06-7.465 13.33a2.395 2.395 0 0 1-.749.125" fill="#000"/>
      <path d="M91.98 222.563c-.245 0-.493-.064-.728-.189-2.925-1.56-5.941-16.46-6.796-20.99a.818.818 0 1 1 1.609-.304c2.16 11.444 4.704 19.08 5.891 19.816 1.462-1.266 7.612-15.698 16.269-40.397a.819.819 0 0 1 1.545.541c-.035.1-3.526 10.05-7.323 20.023-7.797 20.48-9.222 21.09-9.907 21.384-.18.078-.369.116-.56.116" fill="#000"/>
      <path d="M124.879 203.722c-13.059 0-22.242-4.146-22.363-4.202a.817.817 0 1 1 .685-1.487c.158.073 15.956 7.186 35.477 2.404a.82.82 0 0 1 .39 1.59 59.594 59.594 0 0 1-14.19 1.695" fill="#000"/>
      <path d="M135.56 224.197c-.19 0-.38-.023-.57-.071-3.438-.86-8.827-15.972-10.398-20.584a.82.82 0 0 1 1.55-.527c3.08 9.047 7.491 19.084 9.246 19.523 1.198.296 3.74-3.509 5.565-9.67a.819.819 0 0 1 1.57.465c-.035.115-.85 2.85-2.088 5.533-1.652 3.578-3.252 5.331-4.876 5.331" fill="#000"/>
      <path d="M116.773 151.712s-11.868 16.37-14.733 22.1-11.05 15.552-11.05 15.552-2.046-8.185-5.73-11.05c-3.683-2.865-9.003.41-9.003 4.502s-9.413-16.78-8.185-18.417c1.228-1.637 4.502-9.003 4.502-9.003l44.2-3.684Z" fill="#FFF"/>
      <path d="m91.4 99.737 3.273-1.637s13.506-25.783 23.328-30.694c0 0 5.32 4.093-2.046 42.562 0 0 3.13 10.833 4.092 12.278.333.498 1.002 1.604 1.68 2.742a12.676 12.676 0 0 0 5.642 5.05l.863.393-4.502.41 9.004 11.868s-27.42 23.327-50.338 25.783c0 0-13.096 1.637-46.246-23.328l10.231-13.096-4.092-.818 1.474-1.72a10.088 10.088 0 0 1 1.967-1.765c2.448-1.674 8.513-6.722 7.2-14.932 0 0-7.777-38.47-6.549-39.697 0 0 1.228.409 27.42 24.964l9.823-7.776-3.684 8.594 7.776-4.91-1.228 5.32c-.409 2.455 4.911.41 4.911.41" fill="#00B49F"/>
      <g transform="translate(34.992 66.443)">
        <mask id="g" fill="#fff">
          <use xlink:href="#f"/>
        </mask>
        <path d="M56.407 33.294h.004-.004ZM2.317 78.568c16.527 12.368 27.828 17.875 34.427 20.318 7.242 2.683 10.53 2.355 10.563 2.35 20.569-2.204 45.191-21.727 49.31-25.1l-9.423-12.42 3.162-.287a13.435 13.435 0 0 1-4.324-4.464c-.823-1.382-1.381-2.292-1.658-2.707-1.004-1.507-3.874-11.384-4.198-12.505l-.054-.189.037-.192c6.04-31.542 3.515-39.637 2.617-41.354-9.427 5.461-22.239 29.769-22.37 30.019l-.122.234-3.583 1.787c-.944.364-4.13 1.465-5.454.385-.276-.225-.716-.745-.558-1.693l.01-.05.78-3.381-8.321 5.255 3.448-8.046-7.842 6.209-.515-.483C20.471 15.587 14.241 10.086 12.087 8.277c.343 5.344 4.093 25.286 6.652 37.951 1.383 8.638-4.812 13.905-7.539 15.77a9.288 9.288 0 0 0-1.808 1.622l-.564.658 4.023.805L2.317 78.568Zm44.495 24.326c-3.105 0-16.846-1.453-46.147-23.518L0 78.874l9.927-12.706-4.161-.833 2.384-2.781a10.92 10.92 0 0 1 2.126-1.907c2.47-1.69 8.082-6.447 6.853-14.127-.014-.064-1.96-9.704-3.731-19.37C9.739 7.185 10.333 6.59 10.81 6.114l.357-.358.48.16c.88.293 10.785 9.274 27.206 24.662l11.802-9.344-3.918 9.143 7.231-4.566-1.669 7.23c-.017.114-.002.157-.002.158.287.238 2.004.02 3.78-.655l3.002-1.501C60.547 28.273 73.09 5.007 82.642.23l.46-.23.406.313c.584.45 5.493 5.477-1.705 43.172 1.206 4.16 3.292 10.902 3.933 11.863.292.438.865 1.372 1.702 2.777a11.808 11.808 0 0 0 5.277 4.725l3.68 1.673-6.112.555 8.579 11.309-.59.501c-.069.06-7.01 5.94-16.668 12.04-16.2 10.231-27.492 13.224-34.113 13.934-.06.007-.284.031-.68.031Z" fill="#000" mask="url(#g)"/>
      </g>
      <path d="M102.04 100.146s6.548-.409 9.413 4.093 1.228-16.37 1.228-16.37-11.05 10.64-10.641 12.277" fill="#A8DBD5"/>
      <path d="M103.208 99.335c2.118.106 6.457.771 8.821 4.29.447-2.003.353-8.133-.037-13.943-3.803 3.741-7.611 7.843-8.784 9.653m8.944 6.363c-.492 0-.958-.341-1.39-1.02-2.565-4.031-8.612-3.717-8.672-3.715l-.678.04-.166-.658c-.145-.581-.365-1.458 5.367-7.514 2.692-2.846 5.472-5.525 5.5-5.552l1.248-1.202.136 1.728c.003.04.325 4.174.432 8.324.215 8.273-.544 9.218-1.409 9.507a1.161 1.161 0 0 1-.368.062" fill="#000"/>
      <path d="M56.04 104.913s4.188-5.05 9.43-4.054c5.242.997-11.085-12.109-11.085-12.109s.182 15.34 1.655 16.163" fill="#A8DBD5"/>
      <path d="M55.234 90.494c.12 5.333.5 10.918 1.015 13.012 1.528-1.47 4.986-4.178 9.168-3.488-1.153-1.697-5.684-5.827-10.183-9.524Zm1.001 15.465-.594-.332c-.523-.292-1.312-.733-1.798-9.056a193.198 193.198 0 0 1-.277-7.811l-.02-1.733 1.351 1.085c.032.026 3.263 2.623 6.36 5.387 6.175 5.511 6.344 6.71 5.962 7.54-.278.601-.918.81-1.902.624-4.709-.895-8.608 3.725-8.647 3.772l-.435.524Z" fill="#000"/>
      <path d="M67.253 150.894c.406.05 6.139-1.228 6.139-4.093 0-2.864-4.911-3.683-4.911-3.683s-6.957-.819-7.776 2.046c0 0 0 4.911 6.548 5.73" fill="#A8DBD5"/>
      <path d="M61.53 145.28c.054.692.582 4.124 5.771 4.795.936-.075 5.273-1.35 5.273-3.274 0-2.102-4.186-2.869-4.228-2.876-1.961-.228-6.187-.192-6.816 1.355Zm5.812 4.8Zm.013.002h.004-.004Zm-.12 1.628a.647.647 0 0 1-.083-.004c-7.182-.898-7.265-6.485-7.265-6.542v-.114l.031-.11c.982-3.436 7.876-2.727 8.659-2.635.267.044 5.634.979 5.634 4.496 0 .951-.444 1.825-1.319 2.597-1.762 1.556-4.915 2.312-5.657 2.312Z" fill="#000"/>
      <path d="M57.431 122.655c0 5.199 4.267 8.678 9.413 9.413 5.73.819 8.726-4.26 9.413-9.413.818-6.138-4.214-9.412-9.413-9.412-5.198 0-9.413 3.274-9.413 9.412" fill="#FFF"/>
      <path d="M66.844 114.06c-5.22 0-8.594 3.374-8.594 8.595 0 5.083 4.374 7.984 8.71 8.603 1.814.26 3.413-.124 4.75-1.137 1.927-1.458 3.288-4.22 3.736-7.574.294-2.207-.237-4.158-1.534-5.64-1.56-1.782-4.202-2.846-7.068-2.846m1.207 18.914c-.43 0-.871-.032-1.323-.097-6.05-.864-10.115-4.972-10.115-10.223 0-6.12 4.111-10.231 10.231-10.231 3.33 0 6.433 1.273 8.3 3.405 1.617 1.847 2.283 4.245 1.924 6.935-.505 3.784-2.097 6.942-4.369 8.662-1.36 1.03-2.92 1.549-4.648 1.549" fill="#000"/>
      <path d="M85.26 122.655c-.686 5.153 4.215 9.413 9.413 9.413 5.199 0 10.02-4.25 9.413-9.413-.818-6.957-4.214-9.412-9.413-9.412-5.198 0-8.594 3.274-9.412 9.412" fill="#FFF"/>
      <path d="m85.26 122.655.812.109c-.255 1.911.361 3.828 1.734 5.397 1.694 1.934 4.26 3.089 6.867 3.089 2.563 0 5.097-1.13 6.78-3.024 1.404-1.578 2.05-3.522 1.82-5.475-.707-6.01-3.359-8.69-8.6-8.69-4.867 0-7.842 3.01-8.601 8.703l-.811-.109Zm9.413 10.232c-3.071 0-6.099-1.364-8.098-3.648-1.689-1.929-2.444-4.306-2.126-6.692.858-6.433 4.585-10.123 10.224-10.123 6.079 0 9.424 3.315 10.226 10.136.285 2.423-.504 4.822-2.222 6.754-1.99 2.237-4.981 3.573-8.004 3.573Z" fill="#000"/>
      <path d="M88.944 122.655c.364 2.916 2.382 5.32 5.32 5.32s5.645-2.4 5.32-5.32c-.409-3.683-2.382-5.32-5.32-5.32s-5.73 2.046-5.32 5.32M68.322 117.86c-2.929-.232-5.692 1.257-6.287 4.134-.595 2.878 1.208 6.014 4.133 6.287 3.69.345 5.693-1.255 6.287-4.133.595-2.877-.844-6.025-4.133-6.287" fill="#000"/>
      <path d="M65.783 118.43c-.59-.478-1.396-.564-1.943-.039-.547.526-.621 1.458-.038 1.943.735.613 1.396.565 1.943.039.547-.526.7-1.407.038-1.943M98.524 118.84c-.59-.479-1.396-.565-1.943-.04-.548.526-.622 1.458-.039 1.944.736.612 1.396.564 1.943.038.548-.526.701-1.406.039-1.943M91.809 125.93c-.41-.41-2.047-2.047-1.638-2.866.41-.818 1.638 2.865 1.638 2.865M93.036 126.748s.41.5 1.228.5c.819 0-1.228-.5-1.228-.5M68.665 127.282c.523-.25 2.612-1.247 2.499-2.155-.113-.908-2.499 2.155-2.499 2.155M67.235 127.79s-.523.513-1.294-.049c-.772-.56 1.294.05 1.294.05" fill="#FFF"/>
      <path fill="#A8DBD5" d="M65 138h21l-5.24 1.844h-5.322l-5.729.409zM87.716 191.41s-.41 2.865.41 7.776c.818 4.911 0 11.05 0 11.05s-2.047-8.595-2.047-9.413c0-.818.41-2.456.41-2.456l1.227-6.957Z"/>
    </g>
  </g>
</svg>