<svg width="249" height="227" xmlns="http://www.w3.org/2000/svg" xmlns:xlink="http://www.w3.org/1999/xlink">
  <defs>
    <path id="a" d="M0 0h250v226.694H0z"/>
    <path id="d" d="M0 176.852h226.48V2H0z"/>
    <rect id="c" x="0" y="226.694" width="248.775" height="2.451" rx="1.225"/>
  </defs>
  <g fill="none" fill-rule="evenodd">
    <g transform="translate(0 -3)">
      <mask id="b" fill="#fff">
        <use xlink:href="#a"/>
      </mask>
      <ellipse fill="#F2F2F2" mask="url(#b)" cx="124.387" cy="126.213" rx="123.162" ry="122.537"/>
    </g>
    <g transform="translate(0 -3)">
      <use fill="#000" xlink:href="#c"/>
      <rect stroke="#000" x=".5" y="227.194" width="247.775" height="1.451" rx=".725"/>
    </g>
    <g transform="translate(12 47)">
      <path d="M11.805 171.649a2.84 2.84 0 0 1 2.842 2.838 2.84 2.84 0 0 1-2.842 2.837H2.842A2.84 2.84 0 0 1 0 174.487a2.84 2.84 0 0 1 2.842-2.838h1.42v-68.325h6.122v68.325h1.42ZM7.05 99.832a4.587 4.587 0 0 0 4.591-4.584 4.587 4.587 0 0 0-4.59-4.584 4.587 4.587 0 0 0-4.592 4.584 4.587 4.587 0 0 0 4.591 4.584ZM222.217 172.304v-68.325h-6.121v68.325h-1.421a2.84 2.84 0 0 0-2.842 2.838 2.84 2.84 0 0 0 2.842 2.837h8.963a2.84 2.84 0 0 0 2.842-2.837 2.84 2.84 0 0 0-2.842-2.838h-1.421ZM218.883 100.487a4.587 4.587 0 0 0 4.591-4.584 4.587 4.587 0 0 0-4.59-4.584 4.587 4.587 0 0 0-4.592 4.584 4.587 4.587 0 0 0 4.591 4.584Z" fill="#000"/>
      <path d="M114.278 176.416H34.923c-1.443 0-2.623-1.45-2.623-3.222V3.785c0-1.772 1.18-3.222 2.623-3.222h79.355v175.853Z" fill="#FFF"/>
      <path d="M34.923 2.067c-1.205 0-2.186 1.197-2.186 2.669v168.38c0 1.472.98 2.669 2.186 2.669h78.918V2.067H34.923Zm79.793 174.785H34.923c-1.688 0-3.06-1.675-3.06-3.735V4.736c0-2.06 1.372-3.736 3.06-3.736h79.793v175.852Z" fill="#000"/>
      <path d="M196.804 176.852h-79.356V1h79.356c1.448 0 2.623 1.434 2.623 3.202V173.65c0 1.769-1.175 3.202-2.623 3.202" fill="#A8DBD5"/>
      <path d="M194.18 176.416h-79.355V.563h79.355c1.449 0 2.624 1.443 2.624 3.222v169.41c0 1.778-1.175 3.22-2.624 3.22" fill="#FFF"/>
      <path d="M115.262 175.785h78.918c1.206 0 2.186-1.197 2.186-2.668V4.736c0-1.472-.98-2.669-2.186-2.669h-78.918v173.718Zm78.918 1.067h-79.792V1h79.792c1.688 0 3.06 1.676 3.06 3.736v168.38c0 2.06-1.372 3.736-3.06 3.736ZM90.887 95.802a1.64 1.64 0 0 0-1.64 1.637 1.64 1.64 0 0 0 1.64 1.638h12.68a1.64 1.64 0 0 0 1.639-1.638 1.64 1.64 0 0 0-1.64-1.637H90.887Zm12.68 4.148h-12.68a2.515 2.515 0 0 1-2.514-2.51 2.515 2.515 0 0 1 2.514-2.51h12.68a2.515 2.515 0 0 1 2.513 2.51 2.515 2.515 0 0 1-2.514 2.51Z" fill="#000"/>
      <path d="M125.646 95.802a1.64 1.64 0 0 0-1.64 1.637 1.64 1.64 0 0 0 1.64 1.638h12.68a1.64 1.64 0 0 0 1.639-1.638 1.64 1.64 0 0 0-1.64-1.637h-12.679Zm12.68 4.148h-12.68a2.515 2.515 0 0 1-2.514-2.51 2.515 2.515 0 0 1 2.514-2.51h12.68a2.515 2.515 0 0 1 2.513 2.51 2.515 2.515 0 0 1-2.514 2.51Z" fill="#000"/>
      <path d="M45.198 48.805h56.401a2.075 2.075 0 0 0 2.077-2.073v-31.87c0-1.146-.93-2.074-2.077-2.074H45.198a2.075 2.075 0 0 0-2.077 2.073v31.87c0 1.146.93 2.074 2.077 2.074" fill="#00B49F"/>
      <path d="M45.198 13.224a1.64 1.64 0 0 0-1.64 1.637v31.87a1.64 1.64 0 0 0 1.64 1.638h56.401a1.64 1.64 0 0 0 1.64-1.637v-31.87a1.64 1.64 0 0 0-1.64-1.638H45.198Zm56.401 36.018H45.198a2.515 2.515 0 0 1-2.514-2.51v-31.87a2.515 2.515 0 0 1 2.514-2.511h56.401a2.515 2.515 0 0 1 2.514 2.51v31.87a2.515 2.515 0 0 1-2.514 2.51Z" fill="#000"/>
      <path fill="#A8DBD5" d="M43.558 35.926v7.422l47.876-30.124H80.066z"/>
      <path d="M127.832 48.587h56.402a2.075 2.075 0 0 0 2.076-2.074v-31.87c0-1.145-.93-2.074-2.076-2.074h-56.402a2.075 2.075 0 0 0-2.077 2.074v31.87c0 1.146.93 2.074 2.077 2.074" fill="#00B49F"/>
      <path d="M127.832 13.006a1.64 1.64 0 0 0-1.64 1.637v31.87a1.64 1.64 0 0 0 1.64 1.637h56.402a1.64 1.64 0 0 0 1.64-1.637v-31.87a1.64 1.64 0 0 0-1.64-1.637h-56.402Zm56.402 36.018h-56.402a2.515 2.515 0 0 1-2.514-2.51v-31.87a2.515 2.515 0 0 1 2.514-2.511h56.402a2.515 2.515 0 0 1 2.514 2.51v31.87a2.515 2.515 0 0 1-2.514 2.51Z" fill="#000"/>
      <path fill="#A8DBD5" d="M126.193 35.708v7.422l47.875-30.124H162.7z"/>
      <mask id="e" fill="#fff">
        <use xlink:href="#d"/>
      </mask>
      <path fill="#A8DBD5" mask="url(#e)" d="M109 175h4.809V2H109z"/>
      <path d="M117.313 128.828c-13.232 0-26.732-1.107-40.352-3.316-36.392-5.902-60.7-17.474-61.716-17.964a3.272 3.272 0 0 1-1.53-4.372 3.282 3.282 0 0 1 4.377-1.527c.242.116 24.625 11.704 60.13 17.433 20.794 3.355 41.285 4.074 60.904 2.137 24.465-2.415 47.645-8.994 68.896-19.552a3.281 3.281 0 0 1 4.397 1.473 3.272 3.272 0 0 1-1.475 4.39c-22.006 10.933-45.997 17.736-71.306 20.219-7.334.72-14.787 1.08-22.325 1.08" fill="#00B49F" mask="url(#e)"/>
      <path d="M117.313 124.026c-13.115 0-26.498-1.098-40.002-3.288-36.08-5.851-60.87-17.657-61.117-17.776a1.09 1.09 0 1 1 .95-1.966c.244.118 24.803 11.805 60.588 17.599 20.998 3.4 41.697 4.135 61.522 2.185 24.762-2.434 48.227-9.089 69.742-19.778a1.09 1.09 0 1 1 .974 1.954c-21.767 10.815-45.502 17.544-70.546 20.001a226.485 226.485 0 0 1-22.111 1.069" fill="#A8DBD5" mask="url(#e)"/>
    </g>
  </g>
</svg>