<svg width="169" height="121" viewBox="0 0 169 121" fill="none" xmlns="http://www.w3.org/2000/svg">
<g clip-path="url(#clip0_1905_2419)">
<rect width="169" height="121" fill="white"/>
<path fill-rule="evenodd" clip-rule="evenodd" d="M51.41 7.46973H160.1C164.89 7.46973 168.77 11.3497 168.77 16.1397V88.7297C168.77 95.5097 163.27 101.01 156.49 101.01H51.42C46.63 101.01 42.75 97.1297 42.75 92.3397V16.1397C42.75 11.3497 46.63 7.46973 51.42 7.46973H51.41Z" fill="#B1ACFF"/>
<path fill-rule="evenodd" clip-rule="evenodd" d="M44.4102 0.399902H153.1C157.89 0.399902 161.77 4.2799 161.77 9.0699V85.2699C161.77 90.0599 157.89 93.9399 153.1 93.9399H44.4102C39.6202 93.9399 35.7402 90.0599 35.7402 85.2699V9.0699C35.7402 4.2799 39.6202 0.399902 44.4102 0.399902Z" fill="white" stroke="#19243D" stroke-width="0.75"/>
<path fill-rule="evenodd" clip-rule="evenodd" d="M35.7402 9.1199V9.0699C35.7402 4.2799 39.6202 0.399902 44.4102 0.399902H153.1C157.89 0.399902 161.77 4.2799 161.77 9.0699V9.1199H35.7402Z" fill="#19243D"/>
<path fill-rule="evenodd" clip-rule="evenodd" d="M44.4102 0.399902H153.1C157.89 0.399902 161.77 4.2799 161.77 9.0699V85.2699C161.77 90.0599 157.89 93.9399 153.1 93.9399H44.4102C39.6202 93.9399 35.7402 90.0599 35.7402 85.2699V9.0699C35.7402 4.2799 39.6202 0.399902 44.4102 0.399902Z" stroke="#19243D" stroke-width="0.75" stroke-linecap="round"/>
<path d="M49.6105 6.65987C50.6598 6.65987 51.5105 5.80921 51.5105 4.75986C51.5105 3.71052 50.6598 2.85986 49.6105 2.85986C48.5611 2.85986 47.7104 3.71052 47.7104 4.75986C47.7104 5.80921 48.5611 6.65987 49.6105 6.65987Z" fill="white"/>
<path d="M43.7003 6.65987C44.7496 6.65987 45.6003 5.80921 45.6003 4.75986C45.6003 3.71052 44.7496 2.85986 43.7003 2.85986C42.6509 2.85986 41.8003 3.71052 41.8003 4.75986C41.8003 5.80921 42.6509 6.65987 43.7003 6.65987Z" fill="white"/>
<path d="M55.5104 6.65987C56.5597 6.65987 57.4104 5.80921 57.4104 4.75986C57.4104 3.71052 56.5597 2.85986 55.5104 2.85986C54.461 2.85986 53.6104 3.71052 53.6104 4.75986C53.6104 5.80921 54.461 6.65987 55.5104 6.65987Z" fill="white"/>
<path fill-rule="evenodd" clip-rule="evenodd" d="M50.1799 58.7597H41.8799C39.7099 58.7597 37.9399 60.5197 37.9399 62.6997V111.66H22.1299V58.7597V58.0497C22.1299 49.7097 28.8899 42.9497 37.2299 42.9497H37.9399H50.1799V58.7597Z" fill="#19243D" stroke="#19243D" stroke-width="0.75"/>
<path d="M50.17 58.7497C54.5331 58.7497 58.07 55.2128 58.07 50.8497C58.07 46.4867 54.5331 42.9497 50.17 42.9497C45.807 42.9497 42.27 46.4867 42.27 50.8497C42.27 55.2128 45.807 58.7497 50.17 58.7497Z" fill="#FFC806"/>
<path d="M50.1698 54.2599C52.0531 54.2599 53.5798 52.7332 53.5798 50.8499C53.5798 48.9666 52.0531 47.4399 50.1698 47.4399C48.2865 47.4399 46.7598 48.9666 46.7598 50.8499C46.7598 52.7332 48.2865 54.2599 50.1698 54.2599Z" fill="#19243D"/>
<path d="M48.58 49.6796C49.4416 49.6796 50.14 48.9811 50.14 48.1196C50.14 47.258 49.4416 46.5596 48.58 46.5596C47.7185 46.5596 47.02 47.258 47.02 48.1196C47.02 48.9811 47.7185 49.6796 48.58 49.6796Z" fill="white"/>
<path d="M50.17 58.7497C54.5331 58.7497 58.07 55.2128 58.07 50.8497C58.07 46.4867 54.5331 42.9497 50.17 42.9497C45.807 42.9497 42.27 46.4867 42.27 50.8497C42.27 55.2128 45.807 58.7497 50.17 58.7497Z" stroke="#19243D" stroke-width="0.75" stroke-linecap="round"/>
<path d="M23.4399 119.74H93.3199" stroke="#19243D" stroke-width="0.75" stroke-linecap="round"/>
<path fill-rule="evenodd" clip-rule="evenodd" d="M59.7701 73.5396H0.580078L7.09008 120.52H66.2701L59.7701 73.5396Z" fill="#EFEEFF"/>
<path d="M33.0798 101.24C35.0073 101.24 36.5698 99.6682 36.5698 97.7297C36.5698 95.7912 35.0073 94.2197 33.0798 94.2197C31.1524 94.2197 29.5898 95.7912 29.5898 97.7297C29.5898 99.6682 31.1524 101.24 33.0798 101.24Z" fill="#19243D"/>
<path d="M115.188 46.5492V36.601C115.188 29.519 109.43 23.748 102.335 23.748C95.2406 23.748 89.4825 29.5062 89.4825 36.601V46.5492C85.6138 47.2561 82.7476 50.6493 82.7476 54.608V77.3191C82.7476 81.8562 86.4364 85.545 90.9735 85.545H113.685C118.222 85.545 121.91 81.8562 121.91 77.3191V54.608C121.91 50.6621 119.044 47.2689 115.176 46.5492H115.188ZM94.7908 46.3821V36.601C94.7908 32.4366 98.1711 29.0563 102.335 29.0563C106.5 29.0563 109.88 32.4366 109.88 36.601V46.3821H94.7908Z" fill="#B1ACFF"/>
<path d="M106.474 39.6216H83.7632C79.4757 39.6216 76 43.0973 76 47.3848V70.0959C76 74.3834 79.4757 77.8591 83.7632 77.8591H106.474C110.762 77.8591 114.238 74.3834 114.238 70.0959V47.3848C114.238 43.0973 110.762 39.6216 106.474 39.6216Z" fill="white" stroke="#19243D" stroke-width="0.95" stroke-linecap="round"/>
<path d="M87.1176 39.6212V29.3774C87.1176 24.956 90.7164 21.37 95.125 21.37C99.5335 21.37 103.132 24.9688 103.132 29.3774V39.6212H107.502V29.3774C107.502 22.5396 101.963 17 95.125 17C88.2872 17 82.7476 22.5396 82.7476 29.3774V39.6212H87.1176Z" fill="white" stroke="#19243D" stroke-width="0.95" stroke-linecap="round"/>
<path d="M95.1251 59.9416C98.1207 59.9416 100.549 57.5133 100.549 54.5177C100.549 51.5221 98.1207 49.0938 95.1251 49.0938C92.1296 49.0938 89.7012 51.5221 89.7012 54.5177C89.7012 57.5133 92.1296 59.9416 95.1251 59.9416Z" fill="#6359FF"/>
<path d="M97.4901 57.5767H92.7603V68.386H97.4901V57.5767Z" fill="#6359FF"/>
</g>
<defs>
<clipPath id="clip0_1905_2419">
<rect width="169" height="121" fill="white"/>
</clipPath>
</defs>
</svg>
