<svg width="665" height="476" viewBox="0 0 665 476" fill="none" xmlns="http://www.w3.org/2000/svg">
<path fill-rule="evenodd" clip-rule="evenodd" d="M200.925 29.1328H630.557C649.491 29.1328 664.828 44.4698 664.828 63.4038V350.339C664.828 377.139 643.087 398.88 616.287 398.88H200.964C182.03 398.88 166.693 383.543 166.693 364.609V63.4038C166.693 44.4698 182.03 29.1328 200.964 29.1328H200.925Z" fill="#ADDAF6"/>
<path fill-rule="evenodd" clip-rule="evenodd" d="M173.249 1.18555H602.882C621.816 1.18555 637.153 16.5225 637.153 35.4565V336.661C637.153 355.595 621.816 370.932 602.882 370.932H173.249C154.315 370.932 138.979 355.595 138.979 336.661V35.4565C138.979 16.5225 154.315 1.18555 173.249 1.18555Z" fill="white"/>
<path d="M602.882 372.119H173.25C153.683 372.119 137.793 356.228 137.793 336.662V35.4568C137.793 15.8903 153.683 0 173.25 0H602.882C622.448 0 638.339 15.8903 638.339 35.4568V336.662C638.339 356.228 622.448 372.119 602.882 372.119ZM173.25 2.37169C155.027 2.37169 140.165 17.1948 140.165 35.4568V336.662C140.165 354.884 154.988 369.747 173.25 369.747H602.882C621.104 369.747 635.967 354.924 635.967 336.662V35.4568C635.967 17.2343 621.144 2.37169 602.882 2.37169H173.25Z" fill="#19243D"/>
<path fill-rule="evenodd" clip-rule="evenodd" d="M138.98 35.6542V35.4565C138.98 16.5225 154.317 1.18555 173.251 1.18555H602.884C621.818 1.18555 637.155 16.5225 637.155 35.4565V35.6542H138.98Z" fill="#19243D"/>
<path d="M602.884 372.119H173.252C153.685 372.119 137.795 356.228 137.795 336.662V35.4568C137.795 15.8903 153.685 0 173.252 0H602.884C622.45 0 638.341 15.8903 638.341 35.4568V336.662C638.341 356.228 622.45 372.119 602.884 372.119ZM173.252 2.37169C155.029 2.37169 140.167 17.1948 140.167 35.4568V336.662C140.167 354.884 154.99 369.747 173.252 369.747H602.884C621.106 369.747 635.969 354.924 635.969 336.662V35.4568C635.969 17.2343 621.146 2.37169 602.884 2.37169H173.252Z" fill="#19243D"/>
<path d="M193.803 25.925C197.951 25.925 201.314 22.5625 201.314 18.4147C201.314 14.2668 197.951 10.9043 193.803 10.9043C189.655 10.9043 186.293 14.2668 186.293 18.4147C186.293 22.5625 189.655 25.925 193.803 25.925Z" fill="white"/>
<path d="M170.444 25.925C174.592 25.925 177.954 22.5625 177.954 18.4147C177.954 14.2668 174.592 10.9043 170.444 10.9043C166.296 10.9043 162.934 14.2668 162.934 18.4147C162.934 22.5625 166.296 25.925 170.444 25.925Z" fill="white"/>
<path d="M217.13 25.925C221.277 25.925 224.64 22.5625 224.64 18.4147C224.64 14.2668 221.277 10.9043 217.13 10.9043C212.982 10.9043 209.619 14.2668 209.619 18.4147C209.619 22.5625 212.982 25.925 217.13 25.925Z" fill="white"/>
<path fill-rule="evenodd" clip-rule="evenodd" d="M196.064 231.877H163.256C154.678 231.877 147.682 238.834 147.682 247.451V440.981H85.1875V231.877V229.07C85.1875 196.104 111.909 169.383 144.875 169.383H147.682H196.064V231.877Z" fill="#19243D"/>
<path d="M148.868 442.128H84.002V229.071C84.002 195.511 111.316 168.197 144.875 168.197H197.25V233.063H163.256C155.35 233.063 148.868 239.506 148.868 247.451V442.167V442.128ZM86.3736 439.756H146.496V247.412C146.496 238.162 154.006 230.691 163.256 230.691H194.879V170.569H144.875C112.62 170.569 86.3736 196.816 86.3736 229.071V439.796V439.756Z" fill="#19243D"/>
<path d="M196.022 231.837C213.269 231.837 227.25 217.856 227.25 200.61C227.25 183.364 213.269 169.383 196.022 169.383C178.776 169.383 164.795 183.364 164.795 200.61C164.795 217.856 178.776 231.837 196.022 231.837Z" fill="#ADDAF6"/>
<path d="M196.022 214.089C203.466 214.089 209.501 208.054 209.501 200.61C209.501 193.166 203.466 187.131 196.022 187.131C188.578 187.131 182.543 193.166 182.543 200.61C182.543 208.054 188.578 214.089 196.022 214.089Z" fill="#19243D"/>
<path d="M189.739 195.983C193.144 195.983 195.905 193.222 195.905 189.817C195.905 186.411 193.144 183.65 189.739 183.65C186.333 183.65 183.572 186.411 183.572 189.817C183.572 193.222 186.333 195.983 189.739 195.983Z" fill="white"/>
<path d="M196.022 233.024C178.156 233.024 163.609 218.477 163.609 200.61C163.609 182.744 178.156 168.197 196.022 168.197C213.889 168.197 228.436 182.744 228.436 200.61C228.436 218.477 213.889 233.024 196.022 233.024ZM196.022 170.529C179.46 170.529 165.981 184.009 165.981 200.571C165.981 217.133 179.46 230.612 196.022 230.612C212.585 230.612 226.064 217.133 226.064 200.571C226.064 184.009 212.585 170.529 196.022 170.529Z" fill="#19243D"/>
<path d="M366.587 474.102H90.3636C89.6916 474.102 89.1777 473.588 89.1777 472.916C89.1777 472.244 89.6916 471.73 90.3636 471.73H366.587C367.259 471.73 367.773 472.244 367.773 472.916C367.773 473.588 367.259 474.102 366.587 474.102Z" fill="#19243D"/>
<path fill-rule="evenodd" clip-rule="evenodd" d="M233.967 290.297H0L25.7329 476H259.661L233.967 290.297Z" fill="#E7EDF0"/>
<path d="M128.463 399.792C136.082 399.792 142.259 393.58 142.259 385.917C142.259 378.255 136.082 372.043 128.463 372.043C120.844 372.043 114.668 378.255 114.668 385.917C114.668 393.58 120.844 399.792 128.463 399.792Z" fill="#19243D"/>
<path d="M438.206 186.236V155.604C438.206 133.797 420.475 116.027 398.629 116.027C376.783 116.027 359.053 133.758 359.053 155.604V186.236C347.14 188.413 338.314 198.861 338.314 211.051V280.982C338.314 294.953 349.673 306.311 363.643 306.311H433.575C447.546 306.311 458.904 294.953 458.904 280.982V211.051C458.904 198.901 450.079 188.452 438.166 186.236H438.206ZM375.398 185.722V155.604C375.398 142.781 385.806 132.372 398.629 132.372C411.452 132.372 421.861 142.781 421.861 155.604V185.722H375.398Z" fill="#ADDAF6"/>
<path d="M411.369 164.898H341.437C328.236 164.898 317.533 175.601 317.533 188.803V258.734C317.533 271.936 328.236 282.639 341.437 282.639H411.369C424.571 282.639 435.273 271.936 435.273 258.734V188.803C435.273 175.601 424.571 164.898 411.369 164.898Z" fill="white"/>
<path d="M411.41 283.867H341.478C327.626 283.867 316.387 272.627 316.387 258.775V188.844C316.387 174.992 327.626 163.752 341.478 163.752H411.41C425.262 163.752 436.502 174.992 436.502 188.844V258.775C436.502 272.627 425.262 283.867 411.41 283.867ZM341.478 166.127C328.972 166.127 318.761 176.298 318.761 188.844V258.775C318.761 271.281 328.972 281.492 341.478 281.492H411.41C423.916 281.492 434.127 271.321 434.127 258.775V188.844C434.127 176.298 423.916 166.127 411.41 166.127H341.478Z" fill="#19243D"/>
<path d="M351.765 164.899V133.356C351.765 119.742 362.846 108.7 376.421 108.7C389.996 108.7 401.077 119.782 401.077 133.356V164.899H414.533V133.356C414.533 112.302 397.476 95.2441 376.421 95.2441C355.366 95.2441 338.309 112.302 338.309 133.356V164.899H351.765Z" fill="white"/>
<path d="M415.722 166.088H399.891V133.358C399.891 120.417 389.364 109.889 376.423 109.889C363.481 109.889 352.954 120.417 352.954 133.358V166.088H337.123V133.358C337.123 111.67 354.774 94.0586 376.423 94.0586C398.071 94.0586 415.722 111.71 415.722 133.358V166.088ZM402.266 163.713H413.348V133.358C413.348 112.976 396.765 96.4332 376.423 96.4332C356.08 96.4332 339.498 113.016 339.498 133.358V163.713H350.579V133.358C350.579 119.111 362.175 107.515 376.423 107.515C390.67 107.515 402.266 119.111 402.266 133.358V163.713Z" fill="#19243D"/>
<path d="M376.426 227.473C385.65 227.473 393.127 219.995 393.127 210.772C393.127 201.548 385.65 194.07 376.426 194.07C367.202 194.07 359.725 201.548 359.725 210.772C359.725 219.995 367.202 227.473 376.426 227.473Z" fill="#0785D8"/>
<path d="M383.709 220.191H369.145V253.475H383.709V220.191Z" fill="#0785D8"/>
</svg>
