<svg width="205" height="186" xmlns="http://www.w3.org/2000/svg" xmlns:xlink="http://www.w3.org/1999/xlink">
  <defs>
    <path id="a" d="M0 0h205.416v186.266H0z"/>
    <path id="d" d="M0 164.149h176.996V.196H0z"/>
    <rect id="c" x="0" y="186.266" width="204.409" height="2.014" rx="1.007"/>
  </defs>
  <g fill="none" fill-rule="evenodd">
    <g transform="translate(0 -3)">
      <mask id="b" fill="#fff">
        <use xlink:href="#a"/>
      </mask>
      <ellipse fill="#F2F2F2" mask="url(#b)" cx="102.205" cy="103.705" rx="101.198" ry="100.684"/>
    </g>
    <g transform="translate(0 -3)">
      <use fill="#000" xlink:href="#c"/>
      <rect stroke="#000" x=".5" y="186.766" width="203.409" height="1.014" rx=".507"/>
    </g>
    <path fill="#A8DBD5" d="m147.606 94.763 2.37.236V46.11l-2.37-1.18z"/>
    <g transform="translate(16.111 20.198)">
      <path d="M149.85 47.64c3.602 0 6.522 2.912 6.522 6.503l-4.348 79.108c0 3.591-2.92 6.502-6.523 6.502H20.052c-3.602 0-6.522-2.911-6.522-6.502L9.182 54.143c0-3.591 2.92-6.502 6.522-6.502h8.936v-4.985c0-3.247 2.641-5.88 5.9-5.88h29.664c3.258 0 5.899 2.633 5.899 5.88v4.985h83.747Z" fill="#A8DBD5"/>
      <path d="m9.655 54.13 4.349 79.108v.013c0 3.325 2.713 6.03 6.048 6.03h125.45c3.334 0 6.048-2.705 6.048-6.03v-.026l4.348-79.095c-.007-3.319-2.718-6.017-6.048-6.017H65.629v-5.457c0-2.982-2.434-5.408-5.425-5.408H30.539c-2.991 0-5.425 2.426-5.425 5.408v5.457h-9.41c-3.33 0-6.042 2.698-6.049 6.017m135.846 86.095H20.052c-3.853 0-6.989-3.121-6.996-6.96l-4.348-79.11v-.012c0-3.846 3.138-6.975 6.996-6.975h8.463v-4.512c0-3.503 2.858-6.352 6.372-6.352h29.665c3.514 0 6.373 2.85 6.373 6.352v4.512h83.273c3.857 0 6.996 3.129 6.996 6.975v.025l-4.348 79.096c-.008 3.84-3.144 6.961-6.997 6.961" fill="#000"/>
      <path d="M132.864 132.086 71.99 105.213c-3.59-1.584-5.21-5.77-3.621-9.347l33.672-75.802c1.59-3.578 5.788-5.194 9.377-3.61l60.875 26.872c3.59 1.585 5.21 5.77 3.621 9.348l-33.672 75.802c-1.589 3.578-5.787 5.194-9.377 3.61" fill="#FFF"/>
      <path d="M108.549 16.32c-2.547 0-4.98 1.469-6.076 3.935L68.801 96.057a6.549 6.549 0 0 0-.122 5.06 6.577 6.577 0 0 0 3.502 3.664l60.875 26.873c1.62.716 3.424.759 5.076.122a6.58 6.58 0 0 0 3.676-3.491l33.672-75.802c1.481-3.334-.035-7.248-3.38-8.724l-60.875-26.873a6.619 6.619 0 0 0-2.676-.566m27.191 116.849a7.59 7.59 0 0 1-3.067-.651l-60.875-26.873a7.518 7.518 0 0 1-4.004-4.187 7.487 7.487 0 0 1 .14-5.783l33.673-75.802c1.692-3.81 6.179-5.538 10.002-3.85l60.875 26.872c3.822 1.687 5.555 6.16 3.863 9.97l-33.672 75.802a7.522 7.522 0 0 1-4.201 3.99 7.595 7.595 0 0 1-2.734.512" fill="#000"/>
      <path d="M152.745 82.226 95.553 56.98a2.359 2.359 0 0 1-1.207-3.115l13.142-29.587a2.372 2.372 0 0 1 3.126-1.203l57.192 25.246a2.36 2.36 0 0 1 1.207 3.117l-13.142 29.586a2.372 2.372 0 0 1-3.126 1.203" fill="#FFF"/>
      <path d="M152.937 81.794a1.9 1.9 0 0 0 2.5-.962l13.143-29.587c.205-.461.217-.975.035-1.446a1.88 1.88 0 0 0-1-1.046l-57.193-25.247a1.888 1.888 0 0 0-1.45-.035 1.879 1.879 0 0 0-1.05.997L94.779 54.055a1.872 1.872 0 0 0-.035 1.446c.182.47.538.842 1 1.046l57.193 25.247Zm.763 1.107c-.384 0-.774-.078-1.147-.243L95.361 57.412a2.823 2.823 0 0 1-1.501-1.571 2.808 2.808 0 0 1 .053-2.168l13.142-29.587a2.822 2.822 0 0 1 1.575-1.496 2.833 2.833 0 0 1 2.176.052l57.192 25.246a2.82 2.82 0 0 1 1.501 1.571 2.808 2.808 0 0 1-.052 2.169l-13.143 29.586a2.848 2.848 0 0 1-2.604 1.687Z" fill="#000"/>
      <path d="m133.943 124.554-10.616-4.686a2.359 2.359 0 0 1-1.207-3.116l14.774-33.257a2.372 2.372 0 0 1 3.125-1.204l10.616 4.686a2.36 2.36 0 0 1 1.207 3.116l-14.774 33.258a2.372 2.372 0 0 1-3.125 1.203" fill="#FFF"/>
      <path d="M139.06 82.56a1.902 1.902 0 0 0-1.733 1.126l-14.773 33.258a1.872 1.872 0 0 0-.035 1.445c.182.471.537.843 1 1.047l10.615 4.686c.464.205.979.217 1.45.035a1.879 1.879 0 0 0 1.051-.997l14.773-33.258c.205-.461.218-.975.036-1.446a1.882 1.882 0 0 0-1.001-1.047l-10.615-4.686a1.892 1.892 0 0 0-.767-.162m-4.16 42.67c-.391 0-.782-.082-1.15-.245l-10.615-4.686a2.822 2.822 0 0 1-1.502-1.57 2.808 2.808 0 0 1 .053-2.169l14.773-33.257a2.822 2.822 0 0 1 1.576-1.497 2.832 2.832 0 0 1 2.175.052l10.615 4.686a2.82 2.82 0 0 1 1.502 1.57 2.808 2.808 0 0 1-.053 2.17l-14.773 33.257a2.851 2.851 0 0 1-2.6 1.688" fill="#000"/>
      <path d="M125.916 77.874 90.821 62.382a.236.236 0 1 1 .192-.432l35.095 15.492a.236.236 0 1 1-.192.432" fill="#FFF"/>
      <path d="M126.108 77.442Zm-.097.925a.71.71 0 0 1-.286-.061L90.629 62.814a.709.709 0 1 1 .576-1.296L126.3 77.01a.709.709 0 0 1-.289 1.357Z" fill="#000"/>
      <path d="M121.96 86.782 86.863 71.29a.236.236 0 1 1 .192-.432L122.15 86.35a.236.236 0 1 1-.192.432" fill="#FFF"/>
      <path d="M122.151 86.35Zm-.096.925a.712.712 0 0 1-.287-.06L86.672 71.721a.708.708 0 1 1 .576-1.296l35.095 15.492a.709.709 0 0 1-.288 1.357Z" fill="#000"/>
      <path d="M118.002 95.69 82.907 80.199a.236.236 0 1 1 .192-.432l35.095 15.493a.236.236 0 1 1-.192.432" fill="#FFF"/>
      <path d="M118.194 95.259h-.001Zm-.096.925a.712.712 0 0 1-.288-.061L82.715 80.63a.705.705 0 0 1-.362-.934.712.712 0 0 1 .937-.362l35.096 15.493a.709.709 0 0 1-.288 1.357Z" fill="#000"/>
      <path d="M114.045 104.599 78.95 89.107a.236.236 0 0 1-.121-.312.237.237 0 0 1 .313-.12l35.095 15.492a.237.237 0 0 1-.192.432" fill="#FFF"/>
      <path d="M114.237 104.167h-.001Zm-.096.925a.712.712 0 0 1-.288-.061L78.758 89.539a.705.705 0 0 1-.362-.935.707.707 0 0 1 .394-.374.707.707 0 0 1 .544.013l35.095 15.492a.709.709 0 0 1-.288 1.357Z" fill="#000"/>
      <path d="M110.088 113.507 74.993 98.015a.236.236 0 1 1 .192-.432l35.095 15.492a.236.236 0 1 1-.192.432" fill="#FFF"/>
      <path d="M110.28 113.075h-.001Zm-.097.925a.712.712 0 0 1-.287-.06L74.8 98.446a.709.709 0 1 1 .575-1.296l35.096 15.492a.706.706 0 0 1 .362.935.707.707 0 0 1-.65.422Z" fill="#000"/>
      <path d="M110.407 29.957a3.538 3.538 0 0 0 1.81 4.674 3.558 3.558 0 0 0 4.69-1.805 3.539 3.539 0 0 0-1.811-4.674 3.559 3.559 0 0 0-4.689 1.805" fill="#FFF"/>
      <path d="M110.84 30.148a3.07 3.07 0 0 0 1.57 4.05 3.087 3.087 0 0 0 4.063-1.563 3.07 3.07 0 0 0-1.57-4.051 3.087 3.087 0 0 0-4.063 1.564m2.81 5.258a4.015 4.015 0 0 1-3.677-5.64 4.039 4.039 0 0 1 5.314-2.046 4.015 4.015 0 0 1 2.052 5.297 4.035 4.035 0 0 1-3.688 2.39" fill="#000"/>
      <path fill="#FFF" d="m133.959 64.376-16.226-7.163 12.814-7 12.814-7.001 3.412 14.164 3.413 14.163z"/>
      <path d="m118.801 57.168 30.7 13.552-6.456-26.796L118.8 57.168Zm32.07 15.19-34.206-15.1 27.012-14.757 7.194 29.857Z" fill="#000"/>
      <path fill="#FFF" d="m118.107 62.545-13.955-6.16 10.671-5.235 10.671-5.234 3.284 11.395 3.284 11.394z"/>
      <path d="m105.271 56.362 26.056 11.502-6.132-21.275-19.924 9.773Zm27.527 13.184-29.765-13.139 22.76-11.164 7.005 24.303Z" fill="#000"/>
      <path d="m124.584 97.797-66.576-.056c-3.926-.003-7.105-3.179-7.102-7.092l.07-82.901c.004-3.913 3.189-7.083 7.115-7.08l66.576.057c3.926.003 7.105 3.178 7.102 7.092l-.071 82.9c-.003 3.914-3.188 7.084-7.114 7.08" fill="#FFF"/>
      <path d="M58.085 1.14c-3.656 0-6.631 2.964-6.635 6.609l-.07 82.9c-.003 3.647 2.97 6.616 6.628 6.62l66.577.056h.006a6.6 6.6 0 0 0 4.686-1.933 6.56 6.56 0 0 0 1.947-4.675l.071-82.9a6.558 6.558 0 0 0-1.939-4.679 6.602 6.602 0 0 0-4.69-1.94L58.09 1.14h-.005Zm66.506 97.13h-.007l-66.577-.057a7.544 7.544 0 0 1-5.359-2.218 7.496 7.496 0 0 1-2.216-5.346l.07-82.901c.005-4.166 3.405-7.552 7.583-7.552h.006l66.576.057a7.544 7.544 0 0 1 5.36 2.218 7.496 7.496 0 0 1 2.216 5.346l-.071 82.901a7.498 7.498 0 0 1-2.225 5.343 7.545 7.545 0 0 1-5.356 2.209Z" fill="#000"/>
      <path d="m122.557 44.181-62.549-.053a2.365 2.365 0 0 1-2.367-2.363l.027-32.358a2.366 2.366 0 0 1 2.372-2.36l62.549.053a2.365 2.365 0 0 1 2.367 2.364l-.028 32.358a2.366 2.366 0 0 1-2.371 2.36" fill="#FFF"/>
      <path d="M122.557 43.71h.002a1.895 1.895 0 0 0 1.895-1.889l.028-32.357c0-1.042-.849-1.89-1.894-1.891L60.04 7.52h-.001c-.506 0-.981.196-1.34.552-.358.356-.555.83-.556 1.336l-.027 32.357c-.001 1.042.848 1.89 1.894 1.891l62.548.053Zm.002.944h-.002l-62.55-.053a2.842 2.842 0 0 1-2.84-2.837l.028-32.357c0-.757.297-1.469.834-2.004a2.83 2.83 0 0 1 2.009-.828h.002l62.55.053a2.842 2.842 0 0 1 2.84 2.837l-.028 32.357a2.843 2.843 0 0 1-2.843 2.832Z" fill="#000"/>
      <path d="m122.517 90.474-11.61-.01a2.366 2.366 0 0 1-2.366-2.364l.03-36.373a2.366 2.366 0 0 1 2.372-2.36l11.61.01a2.365 2.365 0 0 1 2.367 2.364l-.031 36.373a2.366 2.366 0 0 1-2.372 2.36" fill="#FFF"/>
      <path d="M122.518 90.002h.001a1.895 1.895 0 0 0 1.896-1.889l.03-36.372c.001-.505-.195-.98-.553-1.336a1.886 1.886 0 0 0-1.34-.555l-11.61-.01a1.894 1.894 0 0 0-1.896 1.888l-.031 36.372c-.001 1.042.848 1.89 1.893 1.892l11.61.01Zm.001.944h-.002l-11.61-.01a2.842 2.842 0 0 1-2.84-2.836l.031-36.373a2.842 2.842 0 0 1 2.843-2.832h.002l11.61.01c.76 0 1.473.296 2.01.832.536.536.831 1.248.83 2.005l-.03 36.372a2.843 2.843 0 0 1-2.844 2.832Z" fill="#000"/>
      <path d="m96.252 51.576-38.382-.07c-.131 0-.237-.225-.237-.501 0-.277.106-.502.237-.501l38.383.069c.13 0 .236.224.236.502 0 .277-.106.5-.237.5" fill="#FFF"/>
      <path d="m96.252 51.48-38.382-.032a.707.707 0 0 1-.502-1.21.707.707 0 0 1 .502-.207h.001l38.382.033a.71.71 0 0 1 .71.709c0 .39-.32.708-.71.708" fill="#000"/>
      <path d="m96.244 61.318-38.382-.069c-.131 0-.237-.225-.237-.502s.106-.501.237-.5l38.382.068c.131 0 .237.225.237.502s-.106.501-.237.501" fill="#FFF"/>
      <path d="M96.244 61.224 57.86 61.19a.707.707 0 0 1-.501-1.21.707.707 0 0 1 .502-.207h.001l38.382.032a.71.71 0 0 1 .71.71c0 .39-.32.708-.711.708" fill="#000"/>
      <path d="m96.236 71.061-38.383-.07c-.13 0-.237-.224-.236-.501 0-.277.106-.502.237-.501l38.382.07c.13 0 .237.224.237.501s-.107.501-.237.501" fill="#FFF"/>
      <path d="m96.236 70.966-38.383-.032a.707.707 0 0 1-.502-1.21.707.707 0 0 1 .502-.207h.002l38.381.032a.71.71 0 0 1 .71.709c0 .39-.32.708-.71.708" fill="#000"/>
      <path d="m96.227 80.804-38.382-.07c-.131 0-.237-.225-.237-.501 0-.277.106-.502.237-.501l38.383.069c.13 0 .236.224.236.502 0 .277-.106.5-.237.5" fill="#FFF"/>
      <path d="m96.227 80.709-38.382-.033a.707.707 0 0 1-.502-1.21.707.707 0 0 1 .502-.207h.001l38.382.033a.71.71 0 0 1 .71.709c0 .39-.32.708-.71.708" fill="#000"/>
      <path d="m96.219 90.546-38.382-.069c-.131 0-.237-.225-.237-.502s.106-.501.237-.5l38.382.068c.131 0 .237.225.237.502s-.106.501-.237.501" fill="#FFF"/>
      <path d="m96.219 90.452-38.383-.033a.707.707 0 0 1-.71-.71.707.707 0 0 1 .71-.707h.002l38.382.032a.71.71 0 0 1 .71.71c0 .39-.32.708-.711.708" fill="#000"/>
      <path d="M62.64 13.426a3.548 3.548 0 0 0 3.551 3.546 3.549 3.549 0 0 0 3.557-3.54 3.548 3.548 0 0 0-3.55-3.545 3.549 3.549 0 0 0-3.558 3.54" fill="#FFF"/>
      <path d="M63.114 13.427c0 .82.32 1.591.9 2.172.582.58 1.355.9 2.178.9h.002c.822 0 1.595-.318 2.177-.897.582-.579.903-1.35.903-2.17.001-.82-.319-1.592-.9-2.172a3.064 3.064 0 0 0-2.177-.901h-.002a3.08 3.08 0 0 0-3.08 3.068m3.08 4.018h-.004a4.008 4.008 0 0 1-2.847-1.179 3.982 3.982 0 0 1-1.177-2.84 4.027 4.027 0 0 1 4.028-4.012h.003c1.076.001 2.087.42 2.847 1.179a3.982 3.982 0 0 1 1.177 2.84c0 1.072-.42 2.08-1.182 2.838a4.009 4.009 0 0 1-2.846 1.174" fill="#000"/>
      <path fill="#FFF" d="m98.137 35.422-17.745-.015 8.882-11.566 8.883-11.565 8.863 11.58 8.863 11.581z"/>
      <path d="m81.35 34.935 33.575.029-16.769-21.91-16.805 21.881Zm35.492.975-37.41-.032 18.726-24.38 18.684 24.412Z" fill="#000"/>
      <path fill="#FFF" d="m82.895 40.133-15.262-.013 7.638-9.087 7.639-9.087 7.623 9.1 7.624 9.1z"/>
      <path d="m68.647 39.648 28.496.024-14.234-16.99-14.262 16.966Zm30.524.97-32.553-.027 16.293-19.38 16.26 19.408Z" fill="#000"/>
      <path d="m111.483 121.685-59.737 29.3c-3.522 1.727-7.783.281-9.516-3.23L5.516 73.37c-1.733-3.511-.282-7.758 3.24-9.486l59.738-29.3c3.522-1.727 7.782-.282 9.515 3.23l36.714 74.385c1.733 3.511.282 7.758-3.24 9.486" fill="#A8DBD5"/>
      <path d="m109.588 122.865-59.738 29.3c-3.522 1.728-7.782.282-9.515-3.23L3.62 74.552c-1.733-3.512-.283-7.758 3.24-9.486l59.737-29.3c3.522-1.728 7.783-.282 9.516 3.23l36.713 74.385c1.733 3.51.283 7.758-3.24 9.485" fill="#FFF"/>
      <path d="M69.725 35.51c-.982 0-1.978.218-2.918.679L7.07 65.489a6.575 6.575 0 0 0-3.351 3.802 6.55 6.55 0 0 0 .327 5.051l36.714 74.385c1.615 3.273 5.599 4.625 8.881 3.014l59.737-29.3c3.283-1.61 4.639-5.58 3.024-8.853L75.688 39.203c-1.152-2.335-3.513-3.693-5.963-3.693M46.72 153.37a7.614 7.614 0 0 1-2.45-.408 7.525 7.525 0 0 1-4.36-3.818L3.196 74.76a7.488 7.488 0 0 1-.375-5.773 7.515 7.515 0 0 1 3.83-4.346l59.738-29.3c3.751-1.839 8.304-.294 10.15 3.445l36.714 74.385c1.845 3.74.295 8.278-3.456 10.118l-59.738 29.3a7.573 7.573 0 0 1-3.34.78" fill="#000"/>
      <path d="M83.984 75.671 27.86 103.2a2.373 2.373 0 0 1-3.172-1.077L10.358 73.09a2.359 2.359 0 0 1 1.08-3.162l56.124-27.528a2.373 2.373 0 0 1 3.172 1.077l14.33 29.033a2.359 2.359 0 0 1-1.08 3.162" fill="#FFF"/>
      <path d="M68.605 42.63c-.281 0-.566.062-.834.193L11.648 70.351a1.89 1.89 0 0 0-.864 2.53l14.33 29.033a1.9 1.9 0 0 0 2.537.86l56.124-27.527a1.889 1.889 0 0 0 .864-2.53l-14.33-29.033a1.898 1.898 0 0 0-1.704-1.055m-41.786 61.285a2.847 2.847 0 0 1-2.556-1.583L9.933 73.297a2.834 2.834 0 0 1 1.297-3.794l56.123-27.528a2.851 2.851 0 0 1 3.806 1.292l14.33 29.034a2.834 2.834 0 0 1-1.296 3.794L28.07 103.623c-.403.197-.83.29-1.25.29" fill="#000"/>
      <path d="m104.485 117.208-10.417 5.11a2.373 2.373 0 0 1-3.172-1.077L74.788 88.605a2.358 2.358 0 0 1 1.08-3.162l10.417-5.11a2.373 2.373 0 0 1 3.172 1.077l16.108 32.636a2.359 2.359 0 0 1-1.08 3.162" fill="#FFF"/>
      <path d="M87.33 80.562c-.287 0-.571.066-.836.196l-10.417 5.109a1.877 1.877 0 0 0-.957 1.086c-.163.478-.13.99.093 1.443l16.109 32.637a1.9 1.9 0 0 0 2.537.86l10.417-5.109a1.89 1.89 0 0 0 .864-2.53L89.032 81.62a1.905 1.905 0 0 0-1.703-1.056m5.698 42.47a2.847 2.847 0 0 1-2.556-1.584L74.363 88.813a2.807 2.807 0 0 1-.14-2.164 2.818 2.818 0 0 1 1.436-1.63l10.417-5.11a2.833 2.833 0 0 1 2.171-.139c.72.244 1.3.752 1.635 1.432l16.108 32.636a2.834 2.834 0 0 1-1.296 3.794l-10.417 5.11c-.402.197-.83.29-1.25.29" fill="#000"/>
      <path d="m63.42 93.391-34.44 16.892a.237.237 0 0 1-.317-.108.235.235 0 0 1 .108-.316l34.44-16.892a.237.237 0 0 1 .209.424" fill="#FFF"/>
      <path d="M28.877 110.78a.712.712 0 0 1-.674-.938.704.704 0 0 1 .36-.407l34.439-16.892a.707.707 0 0 1 .543-.034.708.708 0 0 1 .085 1.306l-34.44 16.892a.707.707 0 0 1-.313.072" fill="#000"/>
      <path d="m67.735 102.133-34.44 16.892a.237.237 0 0 1-.317-.108.236.236 0 0 1 .108-.316l34.44-16.892a.237.237 0 0 1 .316.108.236.236 0 0 1-.107.316" fill="#FFF"/>
      <path d="M33.192 119.521a.712.712 0 0 1-.674-.937.704.704 0 0 1 .359-.407l34.439-16.892a.71.71 0 0 1 .628 1.272l-34.44 16.892a.707.707 0 0 1-.312.072" fill="#000"/>
      <path d="m72.05 110.875-34.44 16.892a.237.237 0 0 1-.317-.108.236.236 0 0 1 .108-.316L71.84 110.45a.236.236 0 1 1 .21.424" fill="#FFF"/>
      <path d="M37.506 128.263a.712.712 0 0 1-.674-.937.704.704 0 0 1 .36-.407l34.439-16.892a.71.71 0 0 1 .628 1.272l-34.44 16.891a.707.707 0 0 1-.313.073" fill="#000"/>
      <path d="m76.364 119.617-34.44 16.892a.237.237 0 0 1-.317-.108.236.236 0 0 1 .108-.316l34.44-16.892a.236.236 0 1 1 .21.424" fill="#FFF"/>
      <path d="M76.154 119.193Zm-34.333 17.812a.708.708 0 0 1-.315-1.344l34.44-16.892a.709.709 0 1 1 .628 1.272l-34.44 16.891a.712.712 0 0 1-.313.073Z" fill="#000"/>
      <path d="M80.678 128.358 46.24 145.25a.237.237 0 0 1-.317-.107.236.236 0 0 1 .108-.317l34.44-16.892a.236.236 0 1 1 .21.424" fill="#FFF"/>
      <path d="M46.135 145.747a.704.704 0 0 1-.638-.396.708.708 0 0 1 .324-.948L80.26 127.51a.714.714 0 0 1 .952.323.705.705 0 0 1-.324.949l-34.44 16.89a.71.71 0 0 1-.313.074" fill="#000"/>
      <path d="M16.601 74.502a3.559 3.559 0 0 0 4.758 1.614 3.538 3.538 0 0 0 1.62-4.742 3.56 3.56 0 0 0-4.758-1.615 3.538 3.538 0 0 0-1.62 4.743" fill="#FFF"/>
      <path d="M19.787 69.866c-.465 0-.927.106-1.357.317a3.053 3.053 0 0 0-1.556 1.765 3.04 3.04 0 0 0 .153 2.345 3.056 3.056 0 0 0 1.77 1.551c.78.265 1.615.21 2.353-.152a3.07 3.07 0 0 0-1.363-5.826m.007 7.089c-.437 0-.876-.072-1.302-.216a3.997 3.997 0 0 1-2.316-2.029 3.978 3.978 0 0 1-.199-3.066 3.994 3.994 0 0 1 2.035-2.31 4.013 4.013 0 0 1 3.076-.197 3.999 3.999 0 0 1 2.316 2.028 4.014 4.014 0 0 1-1.836 5.375 4.025 4.025 0 0 1-1.774.415" fill="#000"/>
      <path fill="#FFF" d="m58.196 78.58-15.923 7.81 2.836-14.289 2.837-14.289 13.086 6.479 13.087 6.479z"/>
      <path d="m48.29 58.51-5.366 27.034L73.05 70.768 48.29 58.51Zm-6.668 28.726 5.98-30.122 27.586 13.658-33.566 16.464Z" fill="#000"/>
      <path fill="#FFF" d="M46.615 89.525 32.92 96.242l2.821-11.517 2.82-11.518 10.874 4.801 10.874 4.801z"/>
      <path d="M38.887 73.868 33.62 95.372 59.19 82.83l-20.303-8.963Zm-6.668 23.244 6.016-24.565 23.193 10.239L32.22 97.112Z" fill="#000"/>
      <path d="M160.874 68.425c0-3.913-3.183-7.086-7.108-7.086H7.582c-3.926 0-7.108 3.173-7.108 7.086l3.96 72.037h152.48l3.96-72.037ZM12.32 161.718h136.707c3.926 0 7.108-3.172 7.108-7.085l.779-14.171H4.434l.778 14.17c0 3.914 3.183 7.086 7.108 7.086" fill="#A8DBD5"/>
      <path d="M160.874 70.078c0-3.913-3.183-7.085-7.108-7.085H7.582c-3.926 0-7.108 3.172-7.108 7.085l3.96 72.037h152.48l3.96-72.037Z" fill="#FFF"/>
      <path d="M4.882 141.642h151.583l3.935-71.577c-.007-3.64-2.98-6.6-6.634-6.6H7.582c-3.654 0-6.627 2.96-6.634 6.6l3.934 71.577Zm152.48.945H3.985L0 70.078c0-4.167 3.401-7.558 7.582-7.558h146.184c4.18 0 7.582 3.39 7.582 7.558l-.001.026-3.985 72.483Z" fill="#000"/>
      <path d="M12.32 163.372h136.707c3.926 0 7.108-3.173 7.108-7.086l.779-14.171H4.434l.778 14.171c0 3.913 3.183 7.086 7.108 7.086" fill="#FFF"/>
      <path d="m4.934 142.587.752 13.699c0 3.646 2.976 6.613 6.634 6.613h136.707c3.658 0 6.634-2.967 6.634-6.613l.001-.026.752-13.673H4.934Zm144.093 21.257H12.32c-4.176 0-7.574-3.383-7.581-7.545l-.806-14.657h153.481l-.805 14.657c-.007 4.162-3.405 7.545-7.582 7.545Z" fill="#000"/>
      <mask id="e" fill="#fff">
        <use xlink:href="#d"/>
      </mask>
      <path fill="#00B49F" mask="url(#e)" d="M11.373 92.516h35.639V75.004H11.373z"/>
      <path d="M138.129 102.884H85.768h52.36ZM92.627 92.688c0-10.777 8.048-19.513 19.164-19.513 11.674 0 18.766 8.736 18.766 19.513v10.146h-37.93V92.688Zm44.416 10.146h-1.705V92.16c0-13.074-10.631-23.672-23.746-23.672-13.115 0-23.746 10.598-23.746 23.672v10.674h-1.207c-4.015 0-7.27 3.244-7.27 7.247v44.932c0 4.002 3.255 7.247 7.27 7.247h50.404c4.015 0 7.27-3.245 7.27-7.247V110.08c0-4.003-3.255-7.247-7.27-7.247Z" fill="#A8DBD5" mask="url(#e)"/>
      <path d="M141.92 104.302H89.558h52.36ZM96.417 94.105c0-10.776 8.048-19.513 19.164-19.513 11.674 0 18.766 8.737 18.766 19.513v10.146h-37.93V94.105Zm44.416 10.146h-1.705V93.577c0-13.073-10.631-23.672-23.746-23.672-13.115 0-23.746 10.599-23.746 23.672v10.674H90.43c-4.015 0-7.27 3.244-7.27 7.247v44.932c0 4.002 3.255 7.247 7.27 7.247h50.404c4.015 0 7.27-3.245 7.27-7.247v-44.932c0-4.003-3.255-7.247-7.27-7.247Z" fill="#00B49F" mask="url(#e)"/>
      <path d="M96.891 103.779h36.983v-9.673c0-11.212-7.522-19.042-18.292-19.042-5.187 0-9.949 1.979-13.409 5.57-3.406 3.536-5.282 8.32-5.282 13.472v9.673Zm37.93.05h3.834V93.577c0-12.792-10.44-23.2-23.272-23.2-12.833 0-23.273 10.408-23.273 23.2v10.252h3.834v-9.723c0-5.397 1.97-10.413 5.546-14.126 3.64-3.779 8.645-5.86 14.092-5.86 5.717 0 10.596 2.03 14.11 5.869 3.308 3.614 5.13 8.627 5.13 14.117v9.723Zm-45.225.945c-3.355.411-5.962 3.27-5.962 6.724v44.932c0 3.735 3.049 6.774 6.796 6.774h50.404c3.747 0 6.796-3.039 6.796-6.774v-44.932c0-3.454-2.606-6.313-5.962-6.724H89.596Zm51.238 59.375H90.43c-4.27 0-7.743-3.463-7.743-7.72v-44.931c0-4.257 3.473-7.72 7.743-7.72h.733v-10.2c0-13.314 10.865-24.145 24.22-24.145 13.355 0 24.22 10.831 24.22 24.144v10.202h1.231c.301 0 .598.017.89.05h.196v.025c3.757.528 6.658 3.754 6.658 7.644v44.932c0 4.256-3.474 7.719-7.744 7.719Z" fill="#000" mask="url(#e)"/>
      <path d="M123.707 127.981c0-4.445-3.615-8.05-8.075-8.05-4.46 0-8.075 3.605-8.075 8.05a8.044 8.044 0 0 0 4.356 7.145v9.215a3.134 3.134 0 0 0 3.14 3.13h1.159a3.134 3.134 0 0 0 3.139-3.13v-9.215a8.044 8.044 0 0 0 4.356-7.145" fill="#FFF" mask="url(#e)"/>
      <path d="M115.632 120.404c-4.191 0-7.601 3.4-7.601 7.577a7.555 7.555 0 0 0 4.101 6.726l.255.132v9.502a2.664 2.664 0 0 0 2.666 2.657h1.159a2.664 2.664 0 0 0 2.665-2.657v-9.502l.255-.132a7.555 7.555 0 0 0 4.101-6.726c0-4.178-3.41-7.577-7.6-7.577m.579 27.539h-1.16a3.611 3.611 0 0 1-3.613-3.602v-8.934a8.493 8.493 0 0 1-4.356-7.426c0-4.699 3.835-8.522 8.55-8.522 4.713 0 8.548 3.823 8.548 8.522a8.493 8.493 0 0 1-4.356 7.426v8.934a3.611 3.611 0 0 1-3.613 3.602" fill="#000" mask="url(#e)"/>
    </g>
  </g>
</svg>