<svg width="138" height="153" viewBox="0 0 138 153" fill="none" xmlns="http://www.w3.org/2000/svg">
<path d="M130.48 90.2697L122.1 70.2396L77.1999 44.3196C75.0499 43.0796 72.3999 43.0796 70.2499 44.3196L28.8199 68.2396C26.6699 69.4796 25.3499 71.7697 25.3499 74.2597V122.1C25.3499 124.58 26.6699 126.88 28.8199 128.12L70.2499 152.04C72.3999 153.28 75.0499 153.28 77.1999 152.04L114.94 130.25C119.37 127.69 122.1 122.97 122.1 117.85V99.5896L128.61 95.8297C130.54 94.7197 131.34 92.3496 130.48 90.2896V90.2697Z" fill="#B1ACFF"/>
<path d="M54.0098 56.63L9.12982 82.55C8.13982 83.12 7.03982 82 7.62982 81.02L16.6198 65.72L65.2398 37.73L54.0198 56.64L54.0098 56.63Z" fill="white" stroke="#19243D" stroke-width="0.75" stroke-linecap="round" stroke-linejoin="bevel"/>
<path d="M113.47 65.66L65.2297 37.73L16.7197 65.66V117.73C16.7197 120.07 17.9697 122.24 19.9997 123.41L61.8197 147.55C63.8497 148.72 66.3497 148.72 68.3797 147.55L110.2 123.41C112.23 122.24 113.48 120.07 113.48 117.73V65.66H113.47Z" fill="white" stroke="#19243D" stroke-width="0.75" stroke-linecap="round"/>
<path d="M113.47 65.66L65.1397 93.59L16.7197 65.66L65.2297 37.73L113.47 65.66Z" fill="#EFEEFF" stroke="#19243D" stroke-width="0.75" stroke-linecap="round" stroke-linejoin="bevel"/>
<path d="M65.0999 148.01V93.5898" stroke="#19243D" stroke-width="0.75" stroke-linecap="round"/>
<path d="M113.47 65.6599L123.03 87.1099C123.57 88.3199 123.1 89.7399 121.96 90.3999L78.6299 115.42C77.3199 116.18 75.6499 115.66 74.9899 114.29L65.0999 93.5899L113.48 65.6499L113.47 65.6599Z" fill="white" stroke="#19243D" stroke-width="0.75" stroke-linecap="round" stroke-linejoin="bevel"/>
<path d="M13.7599 29.6596H20.3199L27.5899 34.8896V29.6596H28.0899C30.2299 29.6596 31.9599 27.9296 31.9599 25.7896V14.1996C31.9599 12.0596 30.2299 10.3296 28.0899 10.3296H13.7599C11.6199 10.3296 9.88989 12.0596 9.88989 14.1996V25.7896C9.88989 27.9296 11.6199 29.6596 13.7599 29.6596Z" fill="#6359FF"/>
<path d="M24.5698 16.2197L16.7998 23.9997" stroke="white" stroke-width="0.75" stroke-linecap="round"/>
<path d="M24.5099 23.9398L16.8599 16.2798" stroke="white" stroke-width="0.75" stroke-linecap="round"/>
<path d="M14.52 107.67L12.91 104.64L7.51001 108.88L5.26001 106L10.65 101.76L8.09001 99.4798L18.4 98.0098L14.52 107.67Z" fill="#B1ACFF"/>
<path d="M15.1499 105.31L13.5399 102.29L8.14989 106.52L5.88989 103.64L11.2799 99.4097L8.71989 97.1197L19.0299 95.6597L15.1499 105.31Z" fill="white" stroke="#19243D" stroke-width="0.75" stroke-linecap="round"/>
<path d="M135.08 57.1997C136.466 57.1997 137.59 56.0759 137.59 54.6897C137.59 53.3035 136.466 52.1797 135.08 52.1797C133.694 52.1797 132.57 53.3035 132.57 54.6897C132.57 56.0759 133.694 57.1997 135.08 57.1997Z" stroke="#19243D" stroke-width="0.75" stroke-linecap="round" stroke-linejoin="round"/>
<path d="M62.24 20.1797C63.6262 20.1797 64.75 19.0559 64.75 17.6697C64.75 16.2834 63.6262 15.1597 62.24 15.1597C60.8537 15.1597 59.73 16.2834 59.73 17.6697C59.73 19.0559 60.8537 20.1797 62.24 20.1797Z" stroke="#19243D" stroke-width="0.75" stroke-linecap="round" stroke-linejoin="round"/>
<path d="M44.5 15.7798C46.0078 15.7798 47.23 14.5576 47.23 13.0498C47.23 11.5421 46.0078 10.3198 44.5 10.3198C42.9923 10.3198 41.77 11.5421 41.77 13.0498C41.77 14.5576 42.9923 15.7798 44.5 15.7798Z" fill="#EFEEFF"/>
<mask id="mask0_1829_982" style="mask-type:luminance" maskUnits="userSpaceOnUse" x="16" y="13" width="98" height="81">
<path d="M113.47 65.6598L65.14 93.5898L16.72 65.6598V13.0498H113.47V65.6598Z" fill="white"/>
</mask>
<g mask="url(#mask0_1829_982)">
<path d="M95.69 39.0398H70.65V36.8498C70.65 35.8498 69.84 35.0498 68.85 35.0498H39.03C38.03 35.0498 37.23 35.8598 37.23 36.8498V39.0398H34.47C32.42 39.0398 30.76 40.6998 30.76 42.7498V81.1198C30.76 83.1698 32.42 84.8298 34.47 84.8298H95.69C97.74 84.8298 99.4 83.1698 99.4 81.1198V42.7498C99.4 40.6998 97.74 39.0398 95.69 39.0398Z" fill="#EFEEFF" stroke="#19243D" stroke-width="0.75" stroke-linecap="round" stroke-linejoin="bevel"/>
<path d="M95.68 42.1997H34.47C32.421 42.1997 30.76 43.8607 30.76 45.9097V99.1997C30.76 101.249 32.421 102.91 34.47 102.91H95.68C97.729 102.91 99.39 101.249 99.39 99.1997V45.9097C99.39 43.8607 97.729 42.1997 95.68 42.1997Z" fill="white" stroke="#19243D" stroke-width="0.75" stroke-linecap="round"/>
</g>
<path d="M113.47 65.6597L65.14 93.5897L16.72 65.6597" stroke="#19243D" stroke-width="0.75" stroke-linecap="round" stroke-linejoin="bevel"/>
<path d="M85.1768 106.779L81.3123 112.092L107.053 130.815L110.918 125.502L85.1768 106.779Z" fill="#6359FF"/>
<path d="M46.29 82.5495C38.18 93.7095 40.64 109.329 51.8 117.439C62.95 125.549 78.58 123.089 86.69 111.929C94.8 100.769 92.34 85.1495 81.18 77.0395C70.03 68.9295 54.4 71.3895 46.29 82.5495ZM82.05 108.559C75.8 117.159 63.76 119.059 55.16 112.799C46.56 106.549 44.66 94.5095 50.92 85.9095C57.17 77.3095 69.21 75.4095 77.81 81.6695C86.41 87.9195 88.31 99.9595 82.05 108.559Z" fill="#19243D"/>
<path opacity="0.85" d="M82.0494 108.567C88.3029 99.9694 86.4025 87.93 77.8047 81.6765C69.207 75.423 57.1676 77.3233 50.9141 85.9211C44.6606 94.5189 46.5609 106.558 55.1587 112.812C63.7565 119.065 75.7959 117.165 82.0494 108.567Z" fill="white"/>
<path d="M93.6284 124.278L100.563 114.743L128.076 134.754C129.337 135.672 129.615 137.432 128.698 138.693L125.08 143.667C124.162 144.928 122.402 145.206 121.141 144.289L93.6284 124.278Z" fill="#19243D"/>
<path d="M98.707 113.386L91.772 122.921L94.2951 124.756L101.23 115.221L98.707 113.386Z" fill="#6359FF"/>
<path d="M120.61 36.7397L116.76 40.5897" stroke="#19243D" stroke-width="0.75" stroke-linecap="round"/>
<path d="M120.61 40.5897L116.76 36.7397" stroke="#19243D" stroke-width="0.75" stroke-linecap="round"/>
<path d="M4.25991 45.3296L0.409912 49.1796" stroke="#19243D" stroke-width="0.75" stroke-linecap="round"/>
<path d="M4.25991 49.1796L0.409912 45.3296" stroke="#19243D" stroke-width="0.75" stroke-linecap="round"/>
<path d="M87.7499 1.0498L83.8999 4.89981" stroke="#19243D" stroke-width="0.75" stroke-linecap="round"/>
<path d="M87.7499 4.89981L83.8999 1.0498" stroke="#19243D" stroke-width="0.75" stroke-linecap="round"/>
</svg>
