<svg width="182" height="200" viewBox="0 0 182 200" fill="none" xmlns="http://www.w3.org/2000/svg">
<path d="M171.291 117.619L160.281 91.3014L101.287 57.2454C98.4625 55.6161 94.9807 55.6161 92.1558 57.2454L37.7213 88.6736C34.8964 90.3028 33.1621 93.3117 33.1621 96.5833V159.44C33.1621 162.698 34.8964 165.72 37.7213 167.349L92.1558 198.778C94.9807 200.407 98.4625 200.407 101.287 198.778L150.874 170.148C156.694 166.784 160.281 160.583 160.281 153.856V129.864L168.834 124.924C171.37 123.465 172.421 120.352 171.291 117.645V117.619Z" fill="#ADDAF6"/>
<path d="M70.82 73.4185L11.8526 107.475C10.5519 108.223 9.10659 106.752 9.88179 105.464L21.6937 85.3617L85.575 48.5859L70.8332 73.4316L70.82 73.4185Z" fill="white"/>
<path d="M11.1034 108.069C10.6173 108.069 10.1574 107.872 9.78955 107.504C9.18516 106.886 9.08004 105.993 9.52677 105.257L21.3255 85.1547L21.47 85.0102L85.3514 48.2344L85.8901 48.7731L71.1483 73.6187L71.0037 73.7633L12.0363 107.819C11.7472 107.99 11.4188 108.069 11.1034 108.069ZM21.9562 85.654L10.1968 105.678C9.88152 106.203 10.0786 106.703 10.3414 106.965C10.6173 107.254 11.1034 107.438 11.629 107.136L70.5176 73.1326L84.4448 49.6797L21.9562 85.654Z" fill="#19243D"/>
<path d="M148.943 85.2868L85.5611 48.5898L21.8242 85.2868V153.701C21.8242 156.776 23.4666 159.627 26.1338 161.164L81.0807 192.881C83.7479 194.419 87.0326 194.419 89.6998 192.881L144.647 161.164C147.314 159.627 148.956 156.776 148.956 153.701V85.2868H148.943Z" fill="white"/>
<path d="M85.3899 194.432C83.8264 194.432 82.276 194.025 80.8833 193.223L25.9363 161.506C23.1509 159.903 21.4297 156.907 21.4297 153.701V85.0507L21.6268 84.9324L85.5607 48.1172L85.7578 48.2354L149.337 85.0507V153.688C149.337 156.894 147.616 159.89 144.83 161.493L89.8834 193.21C88.4907 194.012 86.9272 194.419 85.3768 194.419L85.3899 194.432ZM22.218 85.5105V153.701C22.218 156.631 23.7947 159.364 26.3305 160.823L81.2774 192.54C83.8132 193.998 86.9666 194.012 89.5024 192.54L144.449 160.823C146.985 159.351 148.562 156.631 148.562 153.701V85.5105L85.5739 49.0369L22.2312 85.5105H22.218Z" fill="#19243D"/>
<path d="M148.945 85.2829L85.4448 121.98L21.8262 85.2829L85.563 48.5859L148.945 85.2829Z" fill="#E7EDF0"/>
<path d="M85.2475 122.323L21.6289 85.6263V84.9431L85.3658 48.2461H85.7599L149.142 84.9431V85.6263L85.6417 122.323H85.2475ZM22.6143 85.2847L85.4446 121.522L148.17 85.2847L85.576 49.0476L22.6275 85.2847H22.6143Z" fill="#19243D"/>
<path d="M85.3903 193.88C85.1669 193.88 84.9961 193.709 84.9961 193.486V121.984C84.9961 121.761 85.1669 121.59 85.3903 121.59C85.6136 121.59 85.7844 121.761 85.7844 121.984V193.486C85.7844 193.709 85.6136 193.88 85.3903 193.88Z" fill="#19243D"/>
<path d="M148.944 85.2866L161.504 113.47C162.214 115.059 161.596 116.925 160.098 117.792L103.168 150.666C101.446 151.664 99.2522 150.981 98.385 149.181L85.3906 121.984L148.957 85.2734L148.944 85.2866Z" fill="white"/>
<path d="M101.459 151.522C101.078 151.522 100.697 151.469 100.329 151.351C99.3172 151.035 98.4763 150.313 98.0295 149.354L85.0352 122.156L85.1928 121.644L148.759 84.9336L149.311 85.1175L161.872 113.301C162.66 115.074 161.977 117.15 160.295 118.136L103.364 151.009C102.786 151.351 102.116 151.522 101.459 151.522ZM85.9023 122.156L98.739 149.025C99.1069 149.787 99.7507 150.352 100.565 150.602C101.38 150.851 102.234 150.76 102.97 150.339L159.901 117.466C161.241 116.69 161.78 115.048 161.149 113.642L148.772 85.8665L85.9023 122.169V122.156Z" fill="#19243D"/>
<path d="M17.9344 37.9874H26.5535L36.1055 44.859V37.9874H36.7624C39.5742 37.9874 41.8472 35.7143 41.8472 32.9026V17.6746C41.8472 14.8629 39.5742 12.5898 36.7624 12.5898H17.9344C15.1226 12.5898 12.8496 14.8629 12.8496 17.6746V32.9026C12.8496 35.7143 15.1226 37.9874 17.9344 37.9874Z" fill="#0785D8"/>
<path d="M21.9274 30.9309C21.8223 30.9309 21.7303 30.8914 21.6515 30.8126C21.4938 30.6549 21.4938 30.4053 21.6515 30.2608L31.8604 20.0518C32.0181 19.8942 32.2677 19.8942 32.4122 20.0518C32.5568 20.2095 32.5699 20.4592 32.4122 20.6037L22.2033 30.8126C22.1245 30.8914 22.0325 30.9309 21.9274 30.9309Z" fill="white"/>
<path d="M32.0568 30.866C31.9517 30.866 31.8597 30.8266 31.7808 30.7477L21.7296 20.6965C21.5719 20.5388 21.5719 20.2892 21.7296 20.1446C21.8872 20.0001 22.1369 19.987 22.2814 20.1446L32.3327 30.1959C32.4903 30.3536 32.4903 30.6032 32.3327 30.7477C32.2538 30.8266 32.1619 30.866 32.0568 30.866Z" fill="white"/>
<path d="M18.9342 140.481L16.8189 136.5L9.72383 142.071L6.76758 138.287L13.8495 132.716L10.4859 129.72L24.0321 127.789L18.9342 140.481Z" fill="#ADDAF6"/>
<path d="M19.7623 137.382L17.647 133.414L10.5651 138.972L7.5957 135.188L14.6776 129.63L11.314 126.621L24.8602 124.703L19.7623 137.382Z" fill="white"/>
<path d="M10.4868 139.523L7.03125 135.122L14.0606 129.603L10.4079 126.345L25.4651 124.203L19.8023 138.314L17.5161 134.005L10.4868 139.523ZM8.13492 135.253L10.6182 138.419L17.7657 132.809L19.6972 136.449L24.2301 125.189L12.208 126.897L15.2956 129.643L8.14806 135.253H8.13492Z" fill="#19243D"/>
<path d="M177.335 74.5638C175.298 74.5638 173.643 72.9083 173.643 70.8717C173.643 68.8352 175.298 67.1797 177.335 67.1797C179.371 67.1797 181.027 68.8352 181.027 70.8717C181.027 72.9083 179.371 74.5638 177.335 74.5638ZM177.335 67.9812C175.732 67.9812 174.431 69.2819 174.431 70.8849C174.431 72.4878 175.732 73.7886 177.335 73.7886C178.938 73.7886 180.238 72.4878 180.238 70.8849C180.238 69.2819 178.938 67.9812 177.335 67.9812Z" fill="#19243D"/>
<path d="M81.6315 25.9075C79.595 25.9075 77.9395 24.252 77.9395 22.2155C77.9395 20.1789 79.595 18.5234 81.6315 18.5234C83.668 18.5234 85.3235 20.1789 85.3235 22.2155C85.3235 24.252 83.668 25.9075 81.6315 25.9075ZM81.6315 19.3249C80.0285 19.3249 78.7278 20.6257 78.7278 22.2286C78.7278 23.8316 80.0285 25.1323 81.6315 25.1323C83.2344 25.1323 84.5352 23.8316 84.5352 22.2286C84.5352 20.6257 83.2344 19.3249 81.6315 19.3249Z" fill="#19243D"/>
<path d="M58.3233 19.7481C60.3043 19.7481 61.9102 18.1421 61.9102 16.1611C61.9102 14.1801 60.3043 12.5742 58.3233 12.5742C56.3423 12.5742 54.7363 14.1801 54.7363 16.1611C54.7363 18.1421 56.3423 19.7481 58.3233 19.7481Z" fill="#E7EDF0"/>
<mask id="mask0_877_5275" style="mask-type:luminance" maskUnits="userSpaceOnUse" x="21" y="16" width="128" height="106">
<path d="M148.945 85.284L85.4448 121.981L21.8262 85.284V16.1602H148.945V85.284Z" fill="white"/>
</mask>
<g mask="url(#mask0_877_5275)">
<path d="M125.586 50.3088H92.6865V47.4314C92.6865 46.1175 91.6222 45.0664 90.3215 45.0664H51.1413C49.8274 45.0664 48.7763 46.1307 48.7763 47.4314V50.3088H45.1499C42.4564 50.3088 40.2754 52.4899 40.2754 55.1834V105.597C40.2754 108.291 42.4564 110.472 45.1499 110.472H125.586C128.28 110.472 130.461 108.291 130.461 105.597V55.1834C130.461 52.4899 128.28 50.3088 125.586 50.3088Z" fill="#E7EDF0"/>
<path d="M125.586 110.854H45.1496C42.2459 110.854 39.8809 108.489 39.8809 105.585V55.1713C39.8809 52.2676 42.2459 49.9026 45.1496 49.9026H48.3817V47.4193C48.3817 45.8952 49.6168 44.6602 51.1409 44.6602H90.3211C91.8452 44.6602 93.0803 45.8952 93.0803 47.4193V49.9026H125.586C128.49 49.9026 130.842 52.2676 130.842 55.1713V105.585C130.842 108.489 128.477 110.854 125.586 110.854ZM45.1496 50.7041C42.6795 50.7041 40.6692 52.7143 40.6692 55.1844V105.598C40.6692 108.069 42.6795 110.079 45.1496 110.079H125.586C128.056 110.079 130.066 108.069 130.066 105.598V55.1844C130.066 52.7143 128.056 50.7041 125.586 50.7041H92.6861L92.292 50.3099V47.4325C92.292 46.3419 91.4117 45.4616 90.3211 45.4616H51.1409C50.0504 45.4616 49.1701 46.3551 49.1701 47.4325V50.3099L48.7759 50.7041H45.1496Z" fill="#19243D"/>
<path d="M125.573 54.4609H45.1499C42.4578 54.4609 40.2754 56.6434 40.2754 59.3355V129.353C40.2754 132.045 42.4578 134.227 45.1499 134.227H125.573C128.265 134.227 130.448 132.045 130.448 129.353V59.3355C130.448 56.6434 128.265 54.4609 125.573 54.4609Z" fill="white"/>
<path d="M125.586 134.623H45.1496C42.2459 134.623 39.8809 132.257 39.8809 129.354V59.3234C39.8809 56.4197 42.2459 54.0547 45.1496 54.0547H125.586C128.49 54.0547 130.842 56.4197 130.842 59.3234V129.354C130.842 132.257 128.477 134.623 125.586 134.623ZM45.1496 54.8562C42.6795 54.8562 40.6692 56.8664 40.6692 59.3365V129.367C40.6692 131.837 42.6795 133.847 45.1496 133.847H125.586C128.056 133.847 130.066 131.837 130.066 129.367V59.3365C130.066 56.8664 128.056 54.8562 125.586 54.8562H45.1496Z" fill="#19243D"/>
</g>
<path d="M85.2449 122.325L21.6263 85.6279C21.4424 85.5228 21.3767 85.2732 21.4818 85.0892C21.5869 84.9053 21.8366 84.8396 22.0205 84.9447L85.442 121.523L148.745 84.9447C148.942 84.8396 149.179 84.9053 149.284 85.0892C149.389 85.2732 149.323 85.5228 149.139 85.6279L85.6391 122.325H85.2449Z" fill="#19243D"/>
<path d="M111.767 139.312L106.689 146.293L140.511 170.893L145.588 163.912L111.767 139.312Z" fill="#0785D8"/>
<path d="M60.6765 107.479C50.0209 122.142 53.2531 142.665 67.9161 153.32C82.566 163.976 103.102 160.744 113.758 146.081C124.413 131.418 121.181 110.895 106.518 100.239C91.8683 89.5834 71.3322 92.8156 60.6765 107.479ZM107.661 141.653C99.4495 152.952 83.6302 155.449 72.3308 147.224C61.0313 139.012 58.5349 123.193 66.7598 111.893C74.9717 100.594 90.7909 98.0974 102.09 106.322C113.39 114.534 115.886 130.353 107.661 141.653Z" fill="#19243D"/>
<g opacity="0.85">
<path d="M107.659 141.664C115.875 130.367 113.378 114.549 102.082 106.332C90.7851 98.1156 74.9667 100.613 66.7503 111.909C58.5338 123.206 61.0307 139.024 72.3272 147.24C83.6238 155.457 99.4422 152.96 107.659 141.664Z" fill="white"/>
</g>
<path d="M122.873 162.301L131.985 149.773L168.133 176.065C169.791 177.271 170.156 179.584 168.95 181.241L164.197 187.776C162.991 189.433 160.679 189.799 159.021 188.593L122.873 162.301Z" fill="#19243D"/>
<path d="M129.545 147.992L120.434 160.52L123.749 162.931L132.861 150.403L129.545 147.992Z" fill="#0785D8"/>
<path d="M153.265 52.7374C153.16 52.7374 153.068 52.698 152.989 52.6192C152.832 52.4615 152.832 52.2119 152.989 52.0674L158.048 47.0089C158.205 46.8512 158.455 46.8512 158.6 47.0089C158.757 47.1665 158.757 47.4162 158.6 47.5607L153.541 52.6192C153.462 52.698 153.37 52.7374 153.265 52.7374Z" fill="#19243D"/>
<path d="M158.324 52.7374C158.219 52.7374 158.127 52.698 158.048 52.6192L152.989 47.5607C152.832 47.403 152.832 47.1534 152.989 47.0089C153.147 46.8512 153.397 46.8512 153.541 47.0089L158.6 52.0674C158.757 52.225 158.757 52.4747 158.6 52.6192C158.521 52.698 158.429 52.7374 158.324 52.7374Z" fill="#19243D"/>
<path d="M0.394166 64.0265C0.289055 64.0265 0.197084 63.9871 0.11825 63.9082C-0.0394167 63.7506 -0.0394167 63.5009 0.11825 63.3564L5.17673 58.2979C5.33439 58.1403 5.58404 58.1403 5.72857 58.2979C5.88623 58.4556 5.88623 58.7052 5.72857 58.8498L0.670082 63.9082C0.591248 63.9871 0.499277 64.0265 0.394166 64.0265Z" fill="#19243D"/>
<path d="M5.45264 64.0265C5.34753 64.0265 5.25556 63.9871 5.17673 63.9082L0.11825 58.8498C-0.0394167 58.6921 -0.0394167 58.4425 0.11825 58.2979C0.275917 58.1403 0.525554 58.1403 0.670082 58.2979L5.72857 63.3564C5.88623 63.5141 5.88623 63.7637 5.72857 63.9082C5.64973 63.9871 5.55776 64.0265 5.45264 64.0265Z" fill="#19243D"/>
<path d="M110.089 5.84682C109.984 5.84682 109.892 5.8074 109.814 5.72857C109.656 5.5709 109.656 5.32126 109.814 5.17673L114.872 0.11825C115.03 -0.0394167 115.279 -0.0394167 115.424 0.11825C115.582 0.275917 115.582 0.525554 115.424 0.670082L110.365 5.72857C110.287 5.8074 110.195 5.84682 110.089 5.84682Z" fill="#19243D"/>
<path d="M115.148 5.84682C115.043 5.84682 114.951 5.8074 114.872 5.72857L109.814 0.670082C109.656 0.512415 109.656 0.262778 109.814 0.11825C109.971 -0.0394167 110.221 -0.0394167 110.365 0.11825L115.424 5.17673C115.582 5.3344 115.582 5.58404 115.424 5.72857C115.345 5.8074 115.253 5.84682 115.148 5.84682Z" fill="#19243D"/>
</svg>
