<svg width="180" height="146" viewBox="0 0 180 146" fill="none" xmlns="http://www.w3.org/2000/svg">
<path d="M151.49 100.68C154.506 100.68 156.95 98.2352 156.95 95.2198C156.95 92.2043 154.506 89.7598 151.49 89.7598C148.475 89.7598 146.03 92.2043 146.03 95.2198C146.03 98.2352 148.475 100.68 151.49 100.68Z" fill="#EFEEFF"/>
<path d="M13.0604 106.35C14.9216 106.35 16.4304 104.841 16.4304 102.98C16.4304 101.119 14.9216 99.6099 13.0604 99.6099C11.1992 99.6099 9.69043 101.119 9.69043 102.98C9.69043 104.841 11.1992 106.35 13.0604 106.35Z" fill="#EFEEFF"/>
<path d="M171.29 120.46L165.58 126.18" stroke="#19243D" stroke-width="0.75" stroke-linecap="round"/>
<path d="M171.29 126.18L165.58 120.46" stroke="#19243D" stroke-width="0.75" stroke-linecap="round"/>
<path d="M35.8604 79.75L30.1504 85.47" stroke="#19243D" stroke-width="0.75" stroke-linecap="round"/>
<path d="M35.8604 85.47L30.1504 79.75" stroke="#19243D" stroke-width="0.75" stroke-linecap="round"/>
<path d="M8.27021 44.71H21.4802L36.1102 55.25V44.71H37.1102C41.4202 44.71 44.9102 41.22 44.9102 36.91V13.59C44.9102 9.28004 41.4202 5.79004 37.1102 5.79004H8.27021C3.96021 5.79004 0.470215 9.28004 0.470215 13.59V36.91C0.470215 41.22 3.96021 44.71 8.27021 44.71Z" fill="#6359FF"/>
<path d="M30.0404 17.6699L14.4004 33.3199" stroke="white" stroke-width="0.75" stroke-linecap="round"/>
<path d="M29.9205 33.2L14.5205 17.79" stroke="white" stroke-width="0.75" stroke-linecap="round"/>
<path d="M56.4099 136.62H124.76C127.09 136.62 128.99 138.51 128.99 140.85V145.05H52.1899V140.85C52.1899 138.52 54.0799 136.62 56.4199 136.62H56.4099Z" fill="#B1ACFF"/>
<path d="M60.0303 145.04L63.1503 123.03C64.4403 113.89 69.5103 105.71 77.1103 100.48L81.0403 97.7803C82.1803 96.9903 82.1803 95.3003 81.0403 94.5103L77.1103 91.8103C69.5103 86.5803 64.4503 78.4003 63.1503 69.2603L60.0303 49.8403H122.16L119.04 69.2603C117.75 78.4003 112.68 86.5803 105.08 91.8103L101.15 94.5203C100.01 95.3103 100.01 97.0003 101.15 97.7903L105.08 100.49C112.68 105.72 117.74 113.9 119.04 123.04L122.16 145.06H60.0303V145.04Z" fill="#B1ACFF"/>
<path d="M111.68 68.3702L113.78 53.4902H52.8203L54.9203 68.3702C55.9703 75.7802 60.0703 82.4002 66.2303 86.6402L77.0003 94.0502C78.4603 95.0502 78.4603 97.2102 77.0003 98.2102L66.2303 105.62C60.0703 109.86 55.9703 116.49 54.9203 123.89L52.8203 138.77H113.78L111.68 123.89C110.63 116.48 106.53 109.86 100.37 105.62L89.6003 98.2102C88.1403 97.2102 88.1403 95.0502 89.6003 94.0502L100.37 86.6402C106.53 82.4002 110.63 75.7702 111.68 68.3702Z" fill="white" stroke="#19243D" stroke-width="0.75" stroke-linecap="round"/>
<path d="M60.0303 138.67L61.1303 130.92C61.9303 125.25 65.0803 120.17 69.8003 116.92L80.5703 109.51C80.5703 109.51 80.5903 109.49 80.6003 109.49C82.2603 108.34 84.3803 108.34 86.0403 109.49C86.0503 109.49 86.0603 109.51 86.0803 109.51L96.8403 116.92C101.56 120.17 104.7 125.25 105.51 130.92L106.61 138.67H60.0403H60.0303Z" fill="#EFEEFF"/>
<path d="M49.1399 137.01H117.49C119.82 137.01 121.72 138.9 121.72 141.24V144.93H44.9199V141.24C44.9199 138.91 46.8099 137.01 49.1499 137.01H49.1399Z" fill="#6359FF" stroke="#6359FF" stroke-width="0.75" stroke-linecap="round"/>
<path d="M44.9099 47.8701H121.71V51.5601C121.71 53.8901 119.82 55.7901 117.48 55.7901H49.1299C46.7999 55.7901 44.8999 53.9001 44.8999 51.5601V47.8701H44.9099Z" fill="#6359FF" stroke="#6359FF" stroke-width="0.75" stroke-linecap="round"/>
<path d="M4.89014 144.93H161.73" stroke="#19243D" stroke-width="0.75" stroke-linecap="round"/>
<path d="M118.44 13.4099H173.74C176.93 13.4099 179.52 15.9999 179.52 19.1899V63.5299C179.52 69.1199 174.98 73.6499 169.4 73.6499H118.45C115.26 73.6499 112.67 71.0599 112.67 67.8699V19.1799C112.67 15.9899 115.26 13.3999 118.45 13.3999L118.44 13.4099Z" fill="#B1ACFF"/>
<path d="M166.45 4.47998H111.16C107.968 4.47998 105.38 7.06777 105.38 10.26V59.55C105.38 62.7422 107.968 65.33 111.16 65.33H166.45C169.643 65.33 172.23 62.7422 172.23 59.55V10.26C172.23 7.06777 169.643 4.47998 166.45 4.47998Z" fill="white" stroke="#19243D" stroke-width="0.75" stroke-linecap="round"/>
<path d="M105.38 16.4197V10.2497C105.38 7.05973 107.97 4.46973 111.16 4.46973H166.46C169.65 4.46973 172.24 7.05973 172.24 10.2497V16.4197H105.39H105.38Z" fill="#19243D"/>
<path d="M155.2 13.9698C157.1 13.9698 158.64 12.4297 158.64 10.5298C158.64 8.62998 157.1 7.08984 155.2 7.08984C153.3 7.08984 151.76 8.62998 151.76 10.5298C151.76 12.4297 153.3 13.9698 155.2 13.9698Z" fill="white" stroke="#19243D" stroke-width="0.75" stroke-linecap="round"/>
<path d="M155.2 8.88996V0.959961" stroke="#19243D" stroke-width="0.75" stroke-linecap="round"/>
<path d="M122.41 13.9698C124.31 13.9698 125.85 12.4297 125.85 10.5298C125.85 8.62998 124.31 7.08984 122.41 7.08984C120.51 7.08984 118.97 8.62998 118.97 10.5298C118.97 12.4297 120.51 13.9698 122.41 13.9698Z" fill="white" stroke="#19243D" stroke-width="0.75" stroke-linecap="round"/>
<path d="M122.41 8.88996V0.959961" stroke="#19243D" stroke-width="0.75" stroke-linecap="round"/>
<path d="M124.51 27.96H115.89V36.58H124.51V27.96Z" fill="#EFEEFF"/>
<path d="M136.91 27.96H128.29V36.58H136.91V27.96Z" fill="#EFEEFF"/>
<path d="M149.32 27.96H140.7V36.58H149.32V27.96Z" fill="#EFEEFF"/>
<path d="M161.72 27.96H153.1V36.58H161.72V27.96Z" fill="#EFEEFF"/>
<path d="M124.51 41.1602H115.89V49.7802H124.51V41.1602Z" fill="#EFEEFF"/>
<path d="M136.91 41.1602H128.29V49.7802H136.91V41.1602Z" fill="#EFEEFF"/>
<path d="M149.32 41.1602H140.7V49.7802H149.32V41.1602Z" fill="#EFEEFF"/>
<path d="M161.72 41.1602H153.1V49.7802H161.72V41.1602Z" fill="#FFC806"/>
</svg>
