<svg width="248" height="200" viewBox="0 0 248 200" fill="none" xmlns="http://www.w3.org/2000/svg">
<path d="M208.923 138.369C213.094 138.369 216.476 134.987 216.476 130.815C216.476 126.644 213.094 123.262 208.923 123.262C204.751 123.262 201.369 126.644 201.369 130.815C201.369 134.987 204.751 138.369 208.923 138.369Z" fill="#E7EDF0"/>
<path d="M17.418 146.211C19.9928 146.211 22.08 144.124 22.08 141.549C22.08 138.974 19.9928 136.887 17.418 136.887C14.8432 136.887 12.7559 138.974 12.7559 141.549C12.7559 144.124 14.8432 146.211 17.418 146.211Z" fill="#E7EDF0"/>
<path d="M228.415 174.056C228.304 174.056 228.208 174.014 228.125 173.931C227.958 173.765 227.958 173.502 228.125 173.35L236.038 165.437C236.204 165.271 236.466 165.271 236.619 165.437C236.785 165.603 236.785 165.866 236.619 166.018L228.706 173.931C228.623 174.014 228.526 174.056 228.415 174.056Z" fill="#19243D"/>
<path d="M236.312 174.056C236.202 174.056 236.105 174.014 236.022 173.931L228.109 166.018C227.943 165.852 227.943 165.589 228.109 165.437C228.275 165.271 228.538 165.271 228.69 165.437L236.603 173.35C236.769 173.516 236.769 173.779 236.603 173.931C236.52 174.014 236.423 174.056 236.312 174.056Z" fill="#19243D"/>
<path d="M41.0596 117.743C40.9489 117.743 40.852 117.702 40.769 117.619C40.603 117.453 40.603 117.19 40.769 117.038L48.6821 109.125C48.8481 108.958 49.111 108.958 49.2632 109.125C49.4153 109.291 49.4292 109.553 49.2632 109.706L41.3501 117.619C41.2671 117.702 41.1702 117.743 41.0596 117.743Z" fill="#19243D"/>
<path d="M48.959 117.738C48.8483 117.738 48.7515 117.697 48.6685 117.614L40.7554 109.7C40.5894 109.534 40.5894 109.272 40.7554 109.119C40.9214 108.967 41.1842 108.953 41.3364 109.119L49.2495 117.032C49.4155 117.198 49.4155 117.461 49.2495 117.614C49.1665 117.697 49.0697 117.738 48.959 117.738Z" fill="#19243D"/>
<path d="M10.7906 60.9438H29.0654L49.3047 75.525V60.9438H50.6881C56.6506 60.9438 61.4787 56.1157 61.4787 50.1533V17.8922C61.4787 11.9297 56.6506 7.10156 50.6881 7.10156H10.7906C4.8281 7.10156 0 11.9297 0 17.8922V50.1533C0 56.1157 4.8281 60.9438 10.7906 60.9438Z" fill="#0785D8"/>
<path d="M19.2705 45.6033C19.1598 45.6033 19.063 45.5618 18.98 45.4788C18.814 45.3128 18.814 45.0499 18.98 44.8977L40.6165 23.2612C40.7825 23.0952 41.0454 23.0952 41.1975 23.2612C41.3635 23.4272 41.3635 23.6901 41.1975 23.8423L19.561 45.4788C19.478 45.5618 19.3812 45.6033 19.2705 45.6033Z" fill="white"/>
<path d="M40.7412 45.4374C40.6305 45.4374 40.5337 45.3959 40.4507 45.3129L19.1323 23.9946C18.9663 23.8286 18.9663 23.5657 19.1323 23.4136C19.2983 23.2476 19.5612 23.2476 19.7134 23.4136L41.0317 44.7319C41.1977 44.8979 41.1977 45.1608 41.0317 45.3129C40.9487 45.3959 40.8518 45.4374 40.7412 45.4374Z" fill="white"/>
<path d="M77.3888 188.09H171.945C175.168 188.09 177.797 190.705 177.797 193.942V199.752H71.5508V193.942C71.5508 190.718 74.1654 188.09 77.4026 188.09H77.3888Z" fill="#ADDAF6"/>
<path d="M82.3984 199.736L86.7147 169.287C88.4993 156.643 95.5132 145.326 106.027 138.091L111.464 134.356C113.041 133.263 113.041 130.925 111.464 129.832L106.027 126.097C95.5132 118.862 88.5131 107.545 86.7147 94.901L82.3984 68.0352H168.35L164.033 94.901C162.249 107.545 155.235 118.862 144.721 126.097L139.284 129.846C137.707 130.939 137.707 133.277 139.284 134.37L144.721 138.105C155.235 145.34 162.235 156.656 164.033 169.301L168.35 199.763H82.3984V199.736Z" fill="#ADDAF6"/>
<path d="M153.851 93.6672L156.756 73.082H72.4238L75.329 93.6672C76.7816 103.918 82.4535 113.076 90.9753 118.942L105.875 129.193C107.894 130.577 107.894 133.565 105.875 134.948L90.9753 145.199C82.4535 151.065 76.7816 160.237 75.329 170.474L72.4238 191.059H156.756L153.851 170.474C152.399 160.223 146.727 151.065 138.205 145.199L123.306 134.948C121.286 133.565 121.286 130.577 123.306 129.193L138.205 118.942C146.727 113.076 152.399 103.904 153.851 93.6672Z" fill="white"/>
<path d="M157.24 191.487H71.9531L74.9274 170.431C76.3939 160.097 82.1627 150.787 90.7536 144.866L105.653 134.615C106.497 134.034 106.981 133.107 106.981 132.083C106.981 131.06 106.497 130.133 105.653 129.552L90.7536 119.301C82.1627 113.38 76.3939 104.069 74.9274 93.7352L71.9531 72.6797H157.24L154.266 93.7352C152.8 104.069 147.045 113.38 138.44 119.301L123.54 129.552C122.697 130.133 122.212 131.06 122.212 132.083C122.212 133.107 122.697 134.034 123.54 134.615L138.44 144.866C147.031 150.787 152.8 160.097 154.266 170.431L157.24 191.487ZM72.9077 190.657H156.272L153.422 170.556C151.997 160.457 146.353 151.34 137.956 145.558L123.056 135.307C121.991 134.573 121.368 133.37 121.368 132.083C121.368 130.797 122.005 129.593 123.056 128.86L137.956 118.609C146.353 112.826 151.997 103.71 153.422 93.6107L156.272 73.5097H72.9077L75.7575 93.6107C77.1824 103.71 82.8267 112.826 91.224 118.609L106.123 128.86C107.189 129.593 107.811 130.797 107.811 132.083C107.811 133.37 107.175 134.573 106.123 135.307L91.224 145.558C82.8267 151.34 77.1824 160.457 75.7575 170.556L72.9077 190.657Z" fill="#19243D"/>
<path d="M82.3984 190.924L83.9202 180.203C85.0269 172.359 89.3847 165.331 95.9143 160.835L110.814 150.584C110.814 150.584 110.841 150.556 110.855 150.556C113.152 148.966 116.084 148.966 118.381 150.556C118.395 150.556 118.409 150.584 118.436 150.584L133.322 160.835C139.851 165.331 144.195 172.359 145.316 180.203L146.838 190.924H82.4123H82.3984Z" fill="#E7EDF0"/>
<path d="M67.3341 188.629H161.89C165.113 188.629 167.742 191.244 167.742 194.481V199.586H61.4961V194.481C61.4961 191.257 64.1107 188.629 67.3479 188.629H67.3341Z" fill="#0785D8"/>
<path d="M168.142 199.999H61.0664V194.493C61.0664 191.035 63.8747 188.227 67.3332 188.227H161.889C165.348 188.227 168.156 191.035 168.156 194.493V199.999H168.142ZM61.8964 199.169H167.312V194.48C167.312 191.478 164.877 189.043 161.875 189.043H67.3194C64.3174 189.043 61.8826 191.478 61.8826 194.48V199.169H61.8964Z" fill="#0785D8"/>
<path d="M61.4826 65.3086H167.728V70.4134C167.728 73.6367 165.114 76.2652 161.877 76.2652H67.3206C64.0972 76.2652 61.4688 73.6505 61.4688 70.4134V65.3086H61.4826Z" fill="#0785D8"/>
<path d="M161.889 76.6695H67.3332C63.8747 76.6695 61.0664 73.8611 61.0664 70.4026V64.8828H168.142V70.4026C168.142 73.8611 165.334 76.6695 161.875 76.6695H161.889ZM61.8964 65.7267V70.4164C61.8964 73.4184 64.3312 75.8532 67.3332 75.8532H161.889C164.891 75.8532 167.326 73.4184 167.326 70.4164V65.7267H61.9103H61.8964Z" fill="#0785D8"/>
<path d="M223.09 200.002H6.11619C5.88101 200.002 5.70117 199.822 5.70117 199.587C5.70117 199.352 5.88101 199.172 6.11619 199.172H223.104C223.339 199.172 223.519 199.352 223.519 199.587C223.519 199.822 223.339 200.002 223.104 200.002H223.09Z" fill="#19243D"/>
<path d="M163.201 17.6388H239.704C244.117 17.6388 247.7 21.2219 247.7 25.6349V86.9753C247.7 94.7085 241.419 100.975 233.7 100.975H163.215C158.802 100.975 155.219 97.3924 155.219 92.9793V25.6211C155.219 21.208 158.802 17.625 163.215 17.625L163.201 17.6388Z" fill="#ADDAF6"/>
<path d="M229.62 5.28516H153.131C148.715 5.28516 145.135 8.86513 145.135 13.2813V81.4695C145.135 85.8856 148.715 89.4656 153.131 89.4656H229.62C234.036 89.4656 237.616 85.8856 237.616 81.4695V13.2813C237.616 8.86513 234.036 5.28516 229.62 5.28516Z" fill="white"/>
<path d="M229.619 89.8656H153.116C148.482 89.8656 144.705 86.0889 144.705 81.4684V13.2801C144.705 8.64569 148.482 4.88281 153.116 4.88281H229.619C234.253 4.88281 238.03 8.65952 238.03 13.2801V81.4684C238.03 86.1028 234.253 89.8656 229.619 89.8656ZM153.116 5.69902C148.938 5.69902 145.535 9.10221 145.535 13.2801V81.4684C145.535 85.6462 148.938 89.0494 153.116 89.0494H229.619C233.797 89.0494 237.2 85.6462 237.2 81.4684V13.2801C237.2 9.10221 233.797 5.69902 229.619 5.69902H153.116Z" fill="#19243D"/>
<path d="M145.135 21.8013V13.2656C145.135 8.85256 148.718 5.26953 153.131 5.26953H229.633C234.046 5.26953 237.63 8.85256 237.63 13.2656V21.8013H145.149H145.135Z" fill="#19243D"/>
<path d="M214.054 18.4124C216.682 18.4124 218.813 16.2817 218.813 13.6535C218.813 11.0252 216.682 8.89453 214.054 8.89453C211.426 8.89453 209.295 11.0252 209.295 13.6535C209.295 16.2817 211.426 18.4124 214.054 18.4124Z" fill="white"/>
<path d="M214.055 18.8284C211.205 18.8284 208.881 16.5042 208.881 13.6544C208.881 10.8046 211.205 8.48047 214.055 8.48047C216.905 8.48047 219.229 10.8046 219.229 13.6544C219.229 16.5042 216.905 18.8284 214.055 18.8284ZM214.055 9.31051C211.661 9.31051 209.711 11.2611 209.711 13.6544C209.711 16.0477 211.661 17.9983 214.055 17.9983C216.448 17.9983 218.399 16.0477 218.399 13.6544C218.399 11.2611 216.448 9.31051 214.055 9.31051Z" fill="#19243D"/>
<path d="M214.056 11.8005C213.82 11.8005 213.641 11.6206 213.641 11.3855V0.415022C213.641 0.179842 213.82 0 214.056 0C214.291 0 214.471 0.179842 214.471 0.415022V11.3855C214.471 11.6206 214.291 11.8005 214.056 11.8005Z" fill="#19243D"/>
<path d="M168.691 18.4124C171.319 18.4124 173.45 16.2817 173.45 13.6535C173.45 11.0252 171.319 8.89453 168.691 8.89453C166.062 8.89453 163.932 11.0252 163.932 13.6535C163.932 16.2817 166.062 18.4124 168.691 18.4124Z" fill="white"/>
<path d="M168.692 18.8284C165.842 18.8284 163.518 16.5042 163.518 13.6544C163.518 10.8046 165.842 8.48047 168.692 8.48047C171.541 8.48047 173.865 10.8046 173.865 13.6544C173.865 16.5042 171.541 18.8284 168.692 18.8284ZM168.692 9.31051C166.298 9.31051 164.348 11.2611 164.348 13.6544C164.348 16.0477 166.298 17.9983 168.692 17.9983C171.085 17.9983 173.035 16.0477 173.035 13.6544C173.035 11.2611 171.085 9.31051 168.692 9.31051Z" fill="#19243D"/>
<path d="M168.692 11.8005C168.457 11.8005 168.277 11.6206 168.277 11.3855V0.415022C168.277 0.179842 168.457 0 168.692 0C168.928 0 169.107 0.179842 169.107 0.415022V11.3855C169.107 11.6206 168.928 11.8005 168.692 11.8005Z" fill="#19243D"/>
<path d="M171.599 37.7617H159.674V49.6867H171.599V37.7617Z" fill="#E7EDF0"/>
<path d="M188.753 37.7617H176.828V49.6867H188.753V37.7617Z" fill="#E7EDF0"/>
<path d="M205.921 37.7617H193.996V49.6867H205.921V37.7617Z" fill="#E7EDF0"/>
<path d="M223.075 37.7617H211.15V49.6867H223.075V37.7617Z" fill="#E7EDF0"/>
<path d="M171.599 56.0273H159.674V67.9523H171.599V56.0273Z" fill="#E7EDF0"/>
<path d="M188.753 56.0273H176.828V67.9523H188.753V56.0273Z" fill="#E7EDF0"/>
<path d="M205.921 56.0273H193.996V67.9523H205.921V56.0273Z" fill="#E7EDF0"/>
<path d="M223.075 56.0273H211.15V67.9523H223.075V56.0273Z" fill="#FFE476"/>
</svg>
