<svg width="249" height="227" xmlns="http://www.w3.org/2000/svg" xmlns:xlink="http://www.w3.org/1999/xlink">
  <defs>
    <rect id="c" x="0" y="226.694" width="248.775" height="2.451" rx="1.225"/>
    <path id="a" d="M0 0h250v226.694H0z"/>
  </defs>
  <g fill="none" fill-rule="evenodd">
    <g transform="translate(0 -3)">
      <mask id="b" fill="#fff">
        <use xlink:href="#a"/>
      </mask>
      <ellipse fill="#F2F2F2" mask="url(#b)" cx="124.387" cy="126.213" rx="123.162" ry="122.537"/>
    </g>
    <g transform="translate(0 -3)">
      <use fill="#000" xlink:href="#c"/>
      <rect stroke="#000" x=".5" y="227.194" width="247.775" height="1.451" rx=".725"/>
    </g>
    <path d="M160.922 215.16c0-4.66-3.826-8.473-8.502-8.473h-6.498c11.232-9.168 18.4-23.096 18.4-38.694 0-27.61-22.457-49.993-50.16-49.993C86.457 118 64 140.383 64 167.993c0 18.441 10.02 34.548 24.93 43.213H73.068c-4.676 0-8.502 3.813-8.502 8.474 0 4.66-1.842 3.954 2.834 3.954h85.02c24.371 1.13 8.501 0 8.501-8.473" fill="#00B49F"/>
    <path d="M95.652 189.2c0 2.48-2.04 4.51-4.534 4.51h-1.7c-2.494 0-4.535-2.03-4.535-4.51v-20.29c0 2.48-2.04 4.508-4.534 4.508h-1.7c-2.495 0-4.535-2.029-4.535-4.509V152c0 2.48-2.04 4.509-4.535 4.509h-1.7c-.86 0-1.661-.245-2.348-.662A49.7 49.7 0 0 0 64 168.117c0 18.4 10.02 34.472 24.93 43.118H73.069c-4.676 0-8.502 3.804-8.502 8.454s-1.842 3.946 2.834 3.946h85.02c24.371 1.127 8.501 0 8.501-8.455 0-4.65-3.826-8.455-8.502-8.455h-6.498c11.232-9.147 18.401-23.044 18.401-38.608 0-.472-.008-.941-.021-1.41h-.83c-2.493 0-4.534-2.029-4.534-4.508v12.4c0 2.48-2.04 4.508-4.534 4.508h-1.7c-2.494 0-4.535-2.029-4.535-4.509v-7.89c0 2.48-2.04 4.509-4.534 4.509h-1.7c-2.494 0-4.535-2.03-4.535-4.51v25.364c0 2.48-2.04 4.51-4.534 4.51h-1.7c-2.495 0-4.535-2.03-4.535-4.51v-23.109c0 2.48-2.04 4.51-4.534 4.51h-1.7c-1.63 0-3.063-.87-3.862-2.163v6.706c0 2.48-2.04 4.51-4.535 4.51h-1.7c-2.494 0-4.534-2.03-4.534-4.51v-16.288a4.544 4.544 0 0 1-3.862 2.162h-1.7c-2.494 0-4.534-2.029-4.534-4.509" fill="#A8DBD5"/>
    <path d="M160.975 216.16c0-4.66-3.787-8.473-8.417-8.473h-6.433c11.12-9.168 18.217-23.096 18.217-38.694 0-27.61-22.233-49.993-49.66-49.993-1.238 0-2.466.048-3.682.137 25.74 1.927 46.047 24.268 46.047 51.548 0 16.126-11.586 30.526-22.706 40.005h10.923c4.63 0 8.417 3.942 8.417 8.76 0 2.25 1.036 3.997 2.167 5.334 19.32.85 5.127-.569 5.127-8.623" fill="#FFF"/>
    <path d="M67.522 222.383h84.795c4.647.214 9.386.436 11.609.345l-.021-.02c-1.585-1.45-4.24-3.88-4.24-7.65 0-4.04-3.296-7.327-7.348-7.327h-9.646l2.448-1.999c11.4-9.308 17.939-23.06 17.939-37.73 0-26.88-21.936-48.748-48.899-48.748-26.962 0-48.898 21.868-48.898 48.747 0 17.276 9.313 33.423 24.303 42.138l3.613 2.1H73.175c-4.052 0-7.349 3.287-7.349 7.327 0 1.304-.139 2.238-.244 2.85.103-.002.21-.004.318-.008.428-.01.96-.025 1.622-.025M162.59 225c-2.12 0-5.346-.133-10.324-.363H67.522c-.637 0-1.15.014-1.563.025-1.221.03-1.891.049-2.398-.538-.48-.555-.366-1.196-.245-1.875.1-.56.25-1.405.25-2.683 0-5.283 4.31-9.58 9.61-9.58h11.936C71.382 200.515 63 184.765 63 168 63 139.88 85.95 117 114.16 117c28.21 0 51.159 22.879 51.159 51.001 0 14.331-5.962 27.823-16.46 37.476h3.458c5.299 0 9.61 4.298 9.61 9.58 0 2.78 2.111 4.713 3.508 5.991 1.013.928 1.887 1.729 1.45 2.777-.348.833-.897 1.175-4.296 1.175" fill="#000"/>
    <path d="m178.728 31.282-75.405 74.574c-3.804 3.763-2.794 10.167 1.99 12.554 11.591 5.783 31.878 16.381 52.437 29.379 4.58 2.896 10.637.346 11.772-4.965l22.29-104.342c1.62-7.585-7.578-12.646-13.084-7.2" fill="#A8DBD5"/>
    <path fill="#FFF" d="M168.832 142 146 62.632l2.167-.632L171 141.368zM145.794 142 128 80.63l2.206-.63L148 141.37zM125.894 131 113 95.767l2.107-.767L128 130.233zM178.911 96 161 48.817l2.089-.817L181 95.183zM185.878 59 177 32.711l2.122-.711L188 58.289z"/>
    <path fill="#FFF" d="M118.334 92 118 89.767 183.666 80l.334 2.233zM101.167 110l-.167-2.246L178.833 102l.167 2.246zM173.998 125 115 124.95l.002-1.95 58.998.05zM143.193 67 143 64.769 187.807 61l.193 2.231zM163.39 48l-.39-2.234L190.61 41l.39 2.234z"/>
    <path d="m179.432 32.215-75.197 74.406a6.613 6.613 0 0 0-1.898 5.803 6.576 6.576 0 0 0 3.592 4.907c10.564 5.274 31.418 16.103 52.393 29.369a6.544 6.544 0 0 0 6.128.506 6.567 6.567 0 0 0 3.91-4.74l22.23-104.107c.765-3.582-1.3-6.14-3.3-7.242-2-1.1-5.26-1.474-7.858 1.098M161.85 150a8.815 8.815 0 0 1-4.728-1.39c-20.891-13.213-41.67-24.002-52.195-29.257-2.6-1.298-4.354-3.694-4.813-6.573-.459-2.885.467-5.715 2.54-7.766l75.197-74.407c2.865-2.834 6.996-3.41 10.52-1.47 3.526 1.943 5.26 5.748 4.418 9.695L170.56 142.938c-.617 2.889-2.526 5.203-5.239 6.349a8.893 8.893 0 0 1-3.471.713" fill="#000"/>
    <path d="m88.322 148.347 1.331 1.331c.43.43 1.132.43 1.561 0l5.464-5.464c.43-.429.43-1.131 0-1.56l-1.331-1.332a1.107 1.107 0 0 0-1.561 0l-5.464 5.464c-.43.429-.43 1.131 0 1.56M128.293 150.494l1.213 1.213a1.009 1.009 0 0 0 1.423 0l1.778-1.778a1.009 1.009 0 0 0 0-1.423l-1.214-1.213a1.008 1.008 0 0 0-1.422 0l-1.778 1.778a1.009 1.009 0 0 0 0 1.423M108.293 158.493l1.213 1.214a1.009 1.009 0 0 0 1.423 0l1.778-1.778c.39-.391.39-1.031 0-1.422l-1.214-1.214a1.008 1.008 0 0 0-1.422 0l-1.778 1.778a1.008 1.008 0 0 0 0 1.422M114.288 140.236l1.26 1.406c.406.453 1.097.48 1.535.06l5.571-5.35c.438-.42.464-1.135.058-1.588l-1.26-1.406a1.063 1.063 0 0 0-1.535-.06l-5.571 5.35a1.155 1.155 0 0 0-.058 1.588M141.288 169.237l1.26 1.405c.406.453 1.097.48 1.535.06l5.57-5.35c.439-.42.465-1.136.059-1.589l-1.26-1.405a1.063 1.063 0 0 0-1.535-.06l-5.57 5.35a1.155 1.155 0 0 0-.059 1.589M120.18 156.467l-.998 1.523c-.323.49-.204 1.169.262 1.507l5.94 4.312a1.002 1.002 0 0 0 1.435-.276l1-1.522c.322-.49.203-1.17-.264-1.509l-5.94-4.311a1.003 1.003 0 0 0-1.434.276M95.18 125.467l-.998 1.522c-.323.491-.204 1.17.262 1.508l5.94 4.312a1.003 1.003 0 0 0 1.435-.276l1-1.522c.322-.49.203-1.17-.264-1.509l-5.94-4.311a1.003 1.003 0 0 0-1.434.276" fill="#FFF"/>
  </g>
</svg>