<?xml version="1.0" encoding="UTF-8"?>
<svg width="50px" height="50px" viewBox="0 0 50 50" version="1.1" xmlns="http://www.w3.org/2000/svg" xmlns:xlink="http://www.w3.org/1999/xlink">
    <title>Group 4</title>
    <defs>
        <rect id="path-1" x="0" y="0" width="50" height="50"></rect>
    </defs>
    <g id="ALL-components" stroke="none" stroke-width="1" fill="none" fill-rule="evenodd">
        <g id="Shared-/-Image-container" transform="translate(-792.000000, -1107.000000)">
            <g id="Group-4" transform="translate(792.000000, 1107.000000)">
                <g id="Image-container-thumbnail-">
                    <g id="Mask" fill="#D8D8D8" fill-rule="nonzero">
                        <rect id="path-1" x="0" y="0" width="50" height="50"></rect>
                    </g>
                    <g id="Path-Clipped">
                        <mask id="mask-2" fill="white">
                            <use xlink:href="#path-1"></use>
                        </mask>
                        <g id="path-1"></g>
                        <g id="Path" mask="url(#mask-2)">
                            <g transform="translate(-4.545455, 0.000000)" id="Group">
                                <path d="M0,3.26994697 C0,1.46400758 1.58283333,0 3.53535606,0 L54.7979545,0 C56.7505303,0 58.3333333,1.46400758 58.3333333,3.26994697 L58.3333333,46.7300758 C58.3333333,48.5359848 56.7505303,50 54.7979545,50 L3.53535606,50 C1.58283333,50 0,48.5359848 0,46.7300758 L0,3.26994697 Z" id="Path" fill="#B4E1FD" fill-rule="nonzero"></path>
                                <path d="M26.5151515,12.8787879 C26.5151515,15.8075758 24.1409091,18.1818182 21.2121212,18.1818182 C18.2833333,18.1818182 15.9090909,15.8075758 15.9090909,12.8787879 C15.9090909,9.95 18.2833333,7.57575758 21.2121212,7.57575758 C24.1409091,7.57575758 26.5151515,9.95 26.5151515,12.8787879 Z" id="Path" fill="#E8F3FC" fill-rule="nonzero"></path>
                                <path d="M16.4967424,26.9165152 L0,46.4212121 L0,49.9999992 L58.3333333,49.9999992 L58.3333333,33.8291667 L45.6393182,19.1043939 C44.577803,17.8730303 42.609697,17.8745455 41.5502273,19.1074242 L29.8783333,32.6899242 C28.8316667,33.9079545 26.8934848,33.9268182 25.8212879,32.7293939 L20.5668939,26.8616667 C19.4892424,25.6581818 17.5387879,25.6844697 16.4967424,26.9165152 Z" id="Path" fill="#E8F4FC" fill-rule="nonzero"></path>
                            </g>
                        </g>
                    </g>
                </g>
                <g id="Group-2-Copy-2" transform="translate(22.000000, 22.000000)">
                    <circle id="Oval" fill="#078CDF" cx="12" cy="12" r="12"></circle>
                    <g id="Component/Icon/24px/chain/conected" transform="translate(3.000000, 3.000000)" fill="#FFFFFF">
                        <g id="ChainIcon" transform="translate(2.250000, 5.250000)">
                            <path d="M3.375,6.75 C2.44125225,6.75 1.64542725,6.4208025 0.987525,5.762475 C0.32917725,5.1045525 0,4.3087275 0,3.375 C0,2.4412725 0.32917725,1.64519775 0.987525,0.98685 C1.64542725,0.32894775 2.44125225,0 3.375,0 L5.4,0 C5.5912275,0 5.751675,0.06457725 5.881275,0.193725 C6.0104025,0.323325 6.075,0.48375225 6.075,0.675 C6.075,0.86624775 6.0104025,1.02645225 5.881275,1.1556 C5.751675,1.2852 5.5912275,1.35 5.4,1.35 L3.375,1.35 C2.81250225,1.35 2.33437275,1.54687725 1.940625,1.940625 C1.54687725,2.3343525 1.35,2.8125225 1.35,3.375 C1.35,3.9374775 1.54687725,4.4156475 1.940625,4.809375 C2.33437275,5.2031025 2.81250225,5.4 3.375,5.4 L5.4,5.4 C5.5912275,5.4 5.751675,5.4645975 5.881275,5.593725 C6.0104025,5.723325 6.075,5.8837725 6.075,6.075 C6.075,6.2662275 6.0104025,6.4264725 5.881275,6.5556 C5.751675,6.6852 5.5912275,6.75 5.4,6.75 L3.375,6.75 Z M4.725,4.05 C4.53375225,4.05 4.37354775,3.9852 4.2444,3.8556 C4.1148,3.7264725 4.05,3.5662275 4.05,3.375 C4.05,3.1837725 4.1148,3.023325 4.2444,2.893725 C4.37354775,2.7645975 4.53375225,2.7 4.725,2.7 L8.775,2.7 C8.9662275,2.7 9.126675,2.7645975 9.256275,2.893725 C9.3854025,3.023325 9.45,3.1837725 9.45,3.375 C9.45,3.5662275 9.3854025,3.7264725 9.256275,3.8556 C9.126675,3.9852 8.9662275,4.05 8.775,4.05 L4.725,4.05 Z M8.1,6.75 C7.9087725,6.75 7.7485275,6.6852 7.6194,6.5556 C7.4898,6.4264725 7.425,6.2662275 7.425,6.075 C7.425,5.8837725 7.4898,5.723325 7.6194,5.593725 C7.7485275,5.4645975 7.9087725,5.4 8.1,5.4 L10.125,5.4 C10.6874775,5.4 11.1656475,5.2031025 11.559375,4.809375 C11.9531025,4.4156475 12.15,3.9374775 12.15,3.375 C12.15,2.8125225 11.9531025,2.3343525 11.559375,1.940625 C11.1656475,1.54687725 10.6874775,1.35 10.125,1.35 L8.1,1.35 C7.9087725,1.35 7.7485275,1.2852 7.6194,1.1556 C7.4898,1.02645225 7.425,0.86624775 7.425,0.675 C7.425,0.48375225 7.4898,0.323325 7.6194,0.193725 C7.7485275,0.06457725 7.9087725,0 8.1,0 L10.125,0 C11.0587275,0 11.8548225,0.32894775 12.51315,0.98685 C13.1710725,1.64519775 13.5,2.4412725 13.5,3.375 C13.5,4.3087275 13.1710725,5.1045525 12.51315,5.762475 C11.8548225,6.4208025 11.0587275,6.75 10.125,6.75 L8.1,6.75 Z" id="🌈-Color"></path>
                        </g>
                    </g>
                </g>
            </g>
        </g>
    </g>
</svg>