<?xml version="1.0" encoding="UTF-8"?>
<svg width="50px" height="50px" viewBox="0 0 50 50" version="1.1" xmlns="http://www.w3.org/2000/svg" xmlns:xlink="http://www.w3.org/1999/xlink">
    <title>Group 3</title>
    <defs>
        <rect id="path-1" x="0" y="0" width="50" height="50"></rect>
    </defs>
    <g id="ALL-components" stroke="none" stroke-width="1" fill="none" fill-rule="evenodd">
        <g id="Shared-/-Image-container" transform="translate(-851.000000, -1107.000000)">
            <g id="Group-3" transform="translate(851.000000, 1107.000000)">
                <g id="Image-container-thumbnail--Copy">
                    <g id="Mask" fill="#D8D8D8" fill-rule="nonzero">
                        <rect id="path-1" x="0" y="0" width="50" height="50"></rect>
                    </g>
                    <g id="Path-Clipped">
                        <mask id="mask-2" fill="white">
                            <use xlink:href="#path-1"></use>
                        </mask>
                        <g id="path-1"></g>
                        <g id="Path" mask="url(#mask-2)">
                            <g transform="translate(-4.545455, 0.000000)" id="Group">
                                <path d="M0,3.26994697 C0,1.46400758 1.58283333,0 3.53535606,0 L54.7979545,0 C56.7505303,0 58.3333333,1.46400758 58.3333333,3.26994697 L58.3333333,46.7300758 C58.3333333,48.5359848 56.7505303,50 54.7979545,50 L3.53535606,50 C1.58283333,50 0,48.5359848 0,46.7300758 L0,3.26994697 Z" id="Path" fill="#B4E1FD" fill-rule="nonzero"></path>
                                <path d="M26.5151515,12.8787879 C26.5151515,15.8075758 24.1409091,18.1818182 21.2121212,18.1818182 C18.2833333,18.1818182 15.9090909,15.8075758 15.9090909,12.8787879 C15.9090909,9.95 18.2833333,7.57575758 21.2121212,7.57575758 C24.1409091,7.57575758 26.5151515,9.95 26.5151515,12.8787879 Z" id="Path" fill="#E8F3FC" fill-rule="nonzero"></path>
                                <path d="M16.4967424,26.9165152 L0,46.4212121 L0,49.9999992 L58.3333333,49.9999992 L58.3333333,33.8291667 L45.6393182,19.1043939 C44.577803,17.8730303 42.609697,17.8745455 41.5502273,19.1074242 L29.8783333,32.6899242 C28.8316667,33.9079545 26.8934848,33.9268182 25.8212879,32.7293939 L20.5668939,26.8616667 C19.4892424,25.6581818 17.5387879,25.6844697 16.4967424,26.9165152 Z" id="Path" fill="#E8F4FC" fill-rule="nonzero"></path>
                            </g>
                        </g>
                    </g>
                </g>
                <g id="Group-2-Copy-3" transform="translate(22.000000, 22.000000)">
                    <circle id="Oval" fill="#E60050" cx="12" cy="12" r="12"></circle>
                    <g id="link_off_FILL0_wght500_GRAD0_opsz48-(1)" transform="translate(5.000000, 5.000000)" fill="#FFFFFF" fill-rule="nonzero">
                        <path d="M9.45817078,7.08192458 L8.36584309,6.00780234 L9.45817078,6.00780234 C9.60381448,6.00780234 9.73428695,6.05938448 9.84958821,6.16254876 C9.96488947,6.26571305 10.0225401,6.39011704 10.0225401,6.53576073 C10.0225401,6.68140442 9.96488947,6.80884265 9.84958821,6.91807542 C9.73428695,7.02730819 9.60381448,7.08192458 9.45817078,7.08192458 Z M12.3892501,10.0130039 L11.3879497,9.02990897 C12.0069354,8.90853923 12.5166883,8.62028609 12.9172085,8.16514954 C13.3177287,7.710013 13.5179887,7.17902037 13.5179887,6.57217165 C13.5179887,5.85609016 13.2813177,5.25834417 12.8079757,4.77893368 C12.3346337,4.29952319 11.739922,4.05981795 11.0238405,4.05981795 L8.85739055,4.05981795 C8.68747291,4.05981795 8.54182922,4.00216732 8.42045947,3.88686606 C8.29908973,3.7715648 8.23840485,3.62288687 8.23840485,3.44083225 C8.23840485,3.25877763 8.29908973,3.1100997 8.42045947,2.99479844 C8.54182922,2.87949718 8.68747291,2.82184655 8.85739055,2.82184655 L11.005635,2.82184655 C12.0736888,2.82184655 12.9687906,3.18292154 13.6909406,3.90507152 C14.4130906,4.6272215 14.7741656,5.51625488 14.7741656,6.57217165 C14.7741656,7.37321196 14.5435631,8.07715648 14.082358,8.6840052 C13.621153,9.29085392 13.0567837,9.73385349 12.3892501,10.0130039 Z M13.0082358,13.8179454 L0.173385349,1.00130039 C0.0641525791,0.879930646 0.00650195059,0.743389684 0.000433463372,0.591677503 C-0.00563502384,0.439965323 0.0520156047,0.303424361 0.173385349,0.182054616 C0.294755093,0.0606848721 0.431296055,0 0.583008236,0 C0.734720416,0 0.871261378,0.0606848721 0.992631123,0.182054616 L13.8274816,13.0169051 C13.9488513,13.1382748 14.0095362,13.2717815 14.0095362,13.4174252 C14.0095362,13.5630689 13.9488513,13.6965756 13.8274816,13.8179454 C13.7182488,13.9393151 13.5847421,14 13.4269614,14 C13.2691808,14 13.1296055,13.9393151 13.0082358,13.8179454 L13.0082358,13.8179454 Z M6.21759861,10.2678804 L3.79627221,10.2678804 C2.72821847,10.2678804 1.8331166,9.90680537 1.11096662,9.1846554 C0.388816645,8.46250542 0.0277416558,7.57347204 0.0277416558,6.51755527 C0.0277416558,5.61941916 0.294755093,4.83658431 0.828781968,4.16905072 C1.36280884,3.50151712 2.0485479,3.07065453 2.88599913,2.87646294 L4.01473775,4.00520156 L3.79627221,4.00520156 C3.06805375,4.00520156 2.46727352,4.24490681 1.99393151,4.7243173 C1.52058951,5.20372779 1.28391851,5.80147378 1.28391851,6.51755527 C1.28391851,7.23363676 1.52058951,7.83138275 1.99393151,8.31079324 C2.46727352,8.79020373 3.06805375,9.02990897 3.79627221,9.02990897 L6.21759861,9.02990897 C6.38751625,9.02990897 6.53315995,9.0875596 6.65452969,9.20286086 C6.77589944,9.31816212 6.83658431,9.46684005 6.83658431,9.64889467 C6.83658431,9.83094928 6.77589944,9.97962722 6.65452969,10.0949285 C6.53315995,10.2102297 6.38751625,10.2678804 6.21759861,10.2678804 L6.21759861,10.2678804 Z M7.10966623,7.08192458 L5.36194192,7.08192458 C5.19202427,7.08192458 5.05244907,7.03034244 4.9432163,6.92717815 C4.83398353,6.82401387 4.77936714,6.68747291 4.77936714,6.51755527 C4.77936714,6.34763762 4.83398353,6.21109666 4.9432163,6.10793238 C5.05244907,6.0047681 5.19202427,5.95318596 5.36194192,5.95318596 L5.96272215,5.95318596 L7.10966623,7.08192458 Z" id="Shape"></path>
                    </g>
                </g>
            </g>
        </g>
    </g>
</svg>