<svg width="60px" height="60px" viewBox="0 0 60 60" version="1.1" xmlns="http://www.w3.org/2000/svg" xmlns:xlink="http://www.w3.org/1999/xlink"><title>thumbnail</title><g id="ALL-components" stroke="none" stroke-width="1" fill="none" fill-rule="evenodd"><g id="thumbnail"><path d="M3.63636623,0 C1.62805714,0 0,1.50583636 0,3.36337403 L0,48.0652208 C0,49.9227273 1.62805714,51.4285714 3.63636623,51.4285714 L17.9220779,51.4285714 C17.9220779,44.1126234 23.8528831,38.1818182 31.1688312,38.1818182 C38.4847792,38.1818182 44.4155844,44.1126234 44.4155844,51.4285714 L56.3636104,51.4285714 C58.371974,51.4285714 60,49.9227273 60,48.0652208 L60,3.36337403 C60,1.50583636 58.371974,0 56.3636104,0 L3.63636623,0 Z" id="Path" fill="#B4E1FD"></path><path d="M27.2727273,13.2467532 C27.2727273,16.2592208 24.8306494,18.7012987 21.8181818,18.7012987 C18.8057143,18.7012987 16.3636364,16.2592208 16.3636364,13.2467532 C16.3636364,10.2342857 18.8057143,7.79220779 21.8181818,7.79220779 C24.8306494,7.79220779 27.2727273,10.2342857 27.2727273,13.2467532 Z" id="Path" fill="#E8F3FC" fill-rule="nonzero"></path><path d="M0,47.7475325 L16.9680779,27.6855584 C18.0398961,26.4183117 20.0460779,26.3912727 21.1545195,27.6291429 L26.559039,33.6645195 C27.6618701,34.8961558 29.6554286,34.8767532 30.732,33.6239221 L42.7373766,19.6533506 C43.8271169,18.3852468 45.8514545,18.3836883 46.9432987,19.6502338 L60,34.7957143 L60,48.4285714 C60,50.0854257 58.6568542,51.4285714 57,51.4285714 L44.4155844,51.4285714 L44.4155844,51.4285714 C44.4155844,44.1126234 38.4847792,38.1818182 31.1688312,38.1818182 C23.8528831,38.1818182 17.9220779,44.1126234 17.9220779,51.4285714 L3,51.4285714 C1.34314575,51.4285714 1.53517375e-15,50.0854257 0,48.4285714 L0,47.7475325 L0,47.7475325 Z" id="Path" fill="#E8F4FC"></path><path d="M31.1688312,60 C26.0046234,60 21.8181818,55.8135584 21.8181818,50.6493506 C21.8181818,45.4851429 26.0046234,41.2987013 31.1688312,41.2987013 C36.333039,41.2987013 40.5194805,45.4851429 40.5194805,50.6493506 C40.5194805,55.8135584 36.333039,60 31.1688312,60 Z M31.1982078,45.4234286 L31.0757143,45.0536104 L31.0766494,45.0532987 L31.0776623,45.052987 L31.1982078,45.4234286 Z M31.7580779,45.0532987 C31.6474286,45.0168312 31.533039,45 31.4173247,45 C31.3016883,45 31.1872987,45.0167532 31.0766494,45.0532987 C30.9501039,45.0946753 30.8393766,45.1634026 30.7445455,45.2505974 L27.4718182,48.260026 C27.2802078,48.4361299 27.1852208,48.6675584 27.1852208,48.922987 C27.1852208,49.1784156 27.2802857,49.4099221 27.4718961,49.586026 C27.6644416,49.7630649 27.902026,49.8503377 28.1625974,49.8434026 L28.1636104,49.8434026 C28.4071948,49.8362338 28.6339481,49.7543377 28.8173766,49.586026 L30.4432987,48.1004416 L30.4432987,55.3716623 C30.4432987,55.6325455 30.5445195,55.8642078 30.7365195,56.0412468 L30.7374545,56.0421039 C30.9281299,56.2168052 31.1636104,56.2987013 31.4173247,56.2987013 C31.6711169,56.2987013 31.9067532,56.2167273 32.0971948,56.0416364 C32.2895065,55.8647532 32.3913506,55.6330909 32.3913506,55.3716623 L32.3913506,48.1043377 L34.0026234,49.5859481 C34.1925195,49.7604935 34.4258961,49.8499481 34.683039,49.8499481 C34.9401039,49.8499481 35.1732468,49.7603377 35.3628312,49.5859481 L35.3690649,49.5801818 L35.3750649,49.5741818 C35.5527273,49.395974 35.6495065,49.1704675 35.6495065,48.9165195 C35.6495065,48.6616364 35.5517922,48.4336364 35.3628312,48.2599481 L32.0901818,45.2505974 C31.9952727,45.1633247 31.8843896,45.0945974 31.7580779,45.0532987 Z M31.7580779,45.0532987 L31.7589351,45.0536104 L31.6365195,45.4234286 L31.7571429,45.052987 L31.7580779,45.0532987 Z M28.8173766,49.586026 L28.8165195,49.5868052 L28.5536883,49.2991169 L28.8173766,49.586026 Z" id="Shape" fill="#B4E1FD"></path></g></g></svg>