<svg width="249" height="226" xmlns="http://www.w3.org/2000/svg" xmlns:xlink="http://www.w3.org/1999/xlink">
  <defs>
    <path id="a" d="M0 0h250v226.694H0z"/>
    <path d="M.501 1.813a2.166 2.166 0 0 0-.221.908v.095a2.2 2.2 0 0 0 1.255 1.935c.688.329 17.138 8.107 41.768 12.074 9.217 1.485 18.353 2.229 27.308 2.229 5.102 0 10.145-.241 15.11-.726 17.128-1.669 33.364-6.24 48.256-13.589.437-.215.77-.553.979-.951V1.752A2.227 2.227 0 0 0 132 .799c-14.382 7.096-30.069 11.517-46.627 13.14-13.276 1.302-27.144.82-41.217-1.436C20.128 8.653 3.626.864 3.463.786A2.222 2.222 0 0 0 .501 1.813Z" id="c"/>
    <path d="M.833.69a.73.73 0 0 0 .344.979c.168.08 16.946 8.014 41.363 11.947 9.138 1.472 18.196 2.21 27.071 2.21 5.054 0 10.049-.239 14.965-.719 16.948-1.651 33.011-6.174 47.742-13.442a.73.73 0 0 0 .333-.984.743.743 0 0 0-.992-.329c-14.561 7.184-30.44 11.657-47.198 13.293-13.418 1.31-27.426.816-41.637-1.469C18.606 8.282 1.985.427 1.821.347A.74.74 0 0 0 .833.69Z" id="e"/>
    <rect id="g" x="0" y="226" width="248.775" height="2.451" rx="1.225"/>
  </defs>
  <g fill="none" fill-rule="evenodd">
    <g transform="translate(0 -3)">
      <mask id="b" fill="#fff">
        <use xlink:href="#a"/>
      </mask>
      <ellipse fill="#F2F2F2" mask="url(#b)" cx="124.387" cy="126.213" rx="123.162" ry="122.537"/>
    </g>
    <path fill="#FFF" d="M96.424 115.33h58.053V58.09H96.424z"/>
    <path d="M96.831 114.925h57.241v-56.43H96.831v56.43Zm-.811.811h58.864V57.683H96.02v58.053Z" fill="#000"/>
    <path d="M170.107 223.52H80.795a6.09 6.09 0 0 1 0-12.18h89.312a6.09 6.09 0 0 1 0 12.18Z" fill="#FFF"/>
    <path d="M80.796 211.747a5.69 5.69 0 0 0-5.684 5.683 5.69 5.69 0 0 0 5.684 5.683h89.312a5.69 5.69 0 0 0 5.683-5.683 5.69 5.69 0 0 0-5.683-5.683H80.796Zm89.312 12.179H80.796a6.503 6.503 0 0 1-6.496-6.496 6.503 6.503 0 0 1 6.496-6.495h89.312a6.502 6.502 0 0 1 6.495 6.495 6.502 6.502 0 0 1-6.495 6.496Z" fill="#000"/>
    <path d="M159.958 211.34H90.944a6.09 6.09 0 0 1 0-12.178h69.014a6.09 6.09 0 1 1 0 12.179" fill="#FFF"/>
    <path d="M90.944 199.567a5.69 5.69 0 0 0-5.683 5.684 5.69 5.69 0 0 0 5.683 5.683h69.014a5.69 5.69 0 0 0 5.683-5.683 5.69 5.69 0 0 0-5.683-5.684H90.944Zm69.014 12.18H90.944a6.503 6.503 0 0 1-6.495-6.496 6.504 6.504 0 0 1 6.495-6.496h69.014a6.504 6.504 0 0 1 6.496 6.496 6.503 6.503 0 0 1-6.496 6.496Z" fill="#000"/>
    <path d="M158.943 127.51H91.96a6.09 6.09 0 1 1 0-12.18h66.983a6.09 6.09 0 0 1 0 12.18" fill="#FFF"/>
    <path d="M91.96 115.736a5.69 5.69 0 0 0-5.684 5.684 5.69 5.69 0 0 0 5.684 5.683h66.983a5.69 5.69 0 0 0 5.684-5.683 5.69 5.69 0 0 0-5.684-5.684H91.96Zm66.983 12.18H91.96a6.503 6.503 0 0 1-6.496-6.496 6.503 6.503 0 0 1 6.496-6.496h66.983a6.503 6.503 0 0 1 6.496 6.496 6.503 6.503 0 0 1-6.496 6.495Z" fill="#000"/>
    <path d="M159.654 199.162H91.25V157.51c0-16.57 13.431-30 30-30h8.405c16.568 0 30 13.43 30 30v41.652Z" fill="#FFF"/>
    <path d="M97 127.874h57a6 6 0 0 1 6 6v32H91v-32a6 6 0 0 1 6-6Z" fill="#FFF"/>
    <path d="M91.655 198.756h67.593v-65.157a5.69 5.69 0 0 0-5.684-5.684H97.339a5.69 5.69 0 0 0-5.684 5.684v65.157Zm68.404.812H90.843v-65.97a6.503 6.503 0 0 1 6.496-6.494h56.225a6.502 6.502 0 0 1 6.495 6.495v65.969Z" fill="#000"/>
    <path fill="#00B49F" d="m125.386 104.775-16.645-16.441-.609-.61 5.684-7.916 22.937-.203 5.684 8.188z"/>
    <path d="M114.05 80.052h22.802l5.084 7.806-16.45 15.97-16.518-15.971 5.082-7.805Zm-.511-.941-5.747 8.825 17.696 17.335 17.624-17.335-5.75-8.825h-23.823Z" fill="#000"/>
    <path d="M108.69 87.687a.47.47 0 1 0-.036.941h33.557a.472.472 0 1 0 0-.94h-33.52Z" fill="#000"/>
    <path fill="#000" d="m119.644 87.948-.895.294 6.256 15.915.894-.294z"/>
    <path fill="#000" d="m131.241 88.018-6.237 15.845.895.294 6.238-15.846z"/>
    <path fill="#000" d="m125.451 79.166-7.051 9.082.743.578 6.308-8.126 6.31 8.126.744-.577z"/>
    <path fill="#000" d="m114.091 79.263-.796.504 5.711 9.023.797-.505zM136.812 79.263l-5.712 9.022.796.505 5.711-9.023z"/>
    <path fill="#FFF" d="M118.753 111.473h13.397v-3.045h-13.397z"/>
    <path d="M119.159 111.067h12.585v-2.232h-12.585v2.232Zm-.812.813h14.208v-3.856h-14.208v3.856Z" fill="#000"/>
    <path d="M132.555 115.533h-.812v-12.99a5.486 5.486 0 0 1 5.481-5.481v.812a4.674 4.674 0 0 0-4.669 4.669v12.99ZM119.159 115.533h-.812v-12.99a4.673 4.673 0 0 0-4.668-4.669v-.812a5.487 5.487 0 0 1 5.48 5.481v12.99Z" fill="#000"/>
    <path fill="#FFF" d="M104.174 194.29h2.03v-60.895h-2.03z"/>
    <path d="M104.58 193.885h1.218v-60.083h-1.218v60.083Zm-.813.811h2.842V132.99h-2.842v61.706Z" fill="#000"/>
    <path fill="#FFF" d="M145.48 194.29h2.03v-60.895h-2.03z"/>
    <path d="M145.886 193.885h1.218v-60.083h-1.218v60.083Zm-.811.811h2.842V132.99h-2.842v61.706Z" fill="#000"/>
    <path fill="#FFF" d="M124.827 194.29h2.03v-60.895h-2.03z"/>
    <path d="M125.233 193.885h1.218v-60.083h-1.218v60.083Zm-.812.811h2.841V132.99h-2.841v61.706Z" fill="#000"/>
    <path fill="#A8DBD5" d="M124.066 58.495h7.814L96.967 73.009v-3.248zM96.765 110.053v3.045l57.24-24.054v-3.247zM96.968 128.929h57.038v-1.015H96.968z"/>
    <path d="m213.275 110.42.002.812" fill="#E9795C"/>
    <path d="M223.02 223.277H183.64a3.045 3.045 0 1 1 0-6.089h39.378a3.044 3.044 0 1 1 0 6.09" fill="#000"/>
    <path d="M182.626 217.594c-.895 0-1.623.728-1.623 1.624v2.03c0 .895.728 1.624 1.623 1.624h41.409c.895 0 1.623-.729 1.623-1.625v-2.03c0-.895-.728-1.624-1.623-1.624h-41.41Zm41.409 6.09h-41.41a2.439 2.439 0 0 1-2.435-2.436v-2.03a2.439 2.439 0 0 1 2.436-2.436h41.409a2.439 2.439 0 0 1 2.436 2.435v2.03a2.439 2.439 0 0 1-2.436 2.436Z" fill="#000"/>
    <path d="M207.39 210.28v-58.452h-8.12v58.451c-7.682.745-13.397 3.555-13.397 6.91h34.913c0-3.355-5.714-6.165-13.396-6.91" fill="#FFF"/>
    <path d="M186.312 216.782h34.036c-.463-2.872-5.786-5.399-12.998-6.1l-.366-.035v-58.413h-7.308v58.413l-.366.035c-7.212.701-12.535 3.228-12.998 6.1Zm34.881.812h-35.726v-.406c0-3.467 5.49-6.436 13.398-7.276v-58.49h8.93v58.49c7.91.84 13.398 3.809 13.398 7.276v.406Z" fill="#000"/>
    <path d="M194.196 146.144a9.134 9.134 0 0 0 9.134 9.134 9.134 9.134 0 1 0 0-18.268 9.134 9.134 0 0 0-9.134 9.134" fill="#000"/>
    <path d="M203.33 137.416c-4.812 0-8.728 3.916-8.728 8.729 0 4.812 3.916 8.728 8.728 8.728 4.813 0 8.729-3.916 8.729-8.728 0-4.813-3.916-8.73-8.73-8.73m0 18.27c-5.26 0-9.54-4.28-9.54-9.54 0-5.261 4.28-9.541 9.54-9.541 5.262 0 9.542 4.28 9.542 9.54 0 5.26-4.28 9.54-9.541 9.54M66.723 223.277H27.345a3.045 3.045 0 1 1 0-6.089h39.378a3.044 3.044 0 1 1 0 6.09" fill="#000"/>
    <path d="M26.33 217.594c-.895 0-1.623.728-1.623 1.624v2.03c0 .895.728 1.624 1.623 1.624h41.409c.895 0 1.623-.729 1.623-1.625v-2.03c0-.895-.728-1.624-1.623-1.624h-41.41Zm41.409 6.09h-41.41a2.439 2.439 0 0 1-2.435-2.436v-2.03a2.439 2.439 0 0 1 2.436-2.436h41.409a2.439 2.439 0 0 1 2.436 2.435v2.03a2.439 2.439 0 0 1-2.436 2.436Z" fill="#000"/>
    <path d="M51.094 210.28v-58.452h-8.12v58.451c-7.681.745-13.396 3.555-13.396 6.91H64.49c0-3.355-5.713-6.165-13.395-6.91" fill="#FFF"/>
    <path d="M30.016 216.782h34.036c-.463-2.872-5.786-5.399-12.998-6.1l-.366-.035v-58.413H43.38v58.413l-.366.035c-7.212.701-12.535 3.228-12.998 6.1Zm34.881.812H29.171v-.406c0-3.467 5.49-6.436 13.398-7.276v-58.49h8.93v58.49c7.91.84 13.398 3.809 13.398 7.276v.406Z" fill="#000"/>
    <path d="M37.9 146.144a9.134 9.134 0 0 0 9.135 9.134 9.134 9.134 0 0 0 0-18.268 9.134 9.134 0 0 0-9.135 9.134" fill="#000"/>
    <path d="M47.035 137.416c-4.813 0-8.73 3.916-8.73 8.729 0 4.812 3.917 8.728 8.73 8.728 4.812 0 8.728-3.916 8.728-8.728 0-4.813-3.916-8.73-8.728-8.73m0 18.27c-5.261 0-9.541-4.28-9.541-9.54 0-5.261 4.28-9.541 9.54-9.541 5.26 0 9.54 4.28 9.54 9.54 0 5.26-4.28 9.54-9.54 9.54" fill="#000"/>
    <g transform="translate(58 153.874)">
      <mask id="d" fill="#fff">
        <use xlink:href="#c"/>
      </mask>
      <path fill="#00B49F" mask="url(#d)" d="M-3.105 22.414h141.697V-2.793H-3.105z"/>
    </g>
    <g transform="translate(59 153.874)">
      <mask id="f" fill="#fff">
        <use xlink:href="#e"/>
      </mask>
      <path fill="#A8DBD5" mask="url(#f)" d="M-2.624 19.186h138.736V-3.086H-2.624z"/>
    </g>
    <g transform="translate(0 -3)">
      <use fill="#000" xlink:href="#g"/>
      <rect stroke="#000" x=".5" y="226.5" width="247.775" height="1.451" rx=".725"/>
    </g>
  </g>
</svg>