<svg width="169" height="121" viewBox="0 0 169 121" fill="none" xmlns="http://www.w3.org/2000/svg">
<g clip-path="url(#clip0_1905_2536)">
<rect width="169" height="121" fill="white"/>
<path fill-rule="evenodd" clip-rule="evenodd" d="M51.41 7.46973H160.1C164.89 7.46973 168.77 11.3497 168.77 16.1397V88.7297C168.77 95.5097 163.27 101.01 156.49 101.01H51.42C46.63 101.01 42.75 97.1297 42.75 92.3397V16.1397C42.75 11.3497 46.63 7.46973 51.42 7.46973H51.41Z" fill="#B1ACFF"/>
<path fill-rule="evenodd" clip-rule="evenodd" d="M44.41 0.399902H153.1C157.89 0.399902 161.77 4.2799 161.77 9.0699V85.2699C161.77 90.0599 157.89 93.9399 153.1 93.9399H44.41C39.62 93.9399 35.74 90.0599 35.74 85.2699V9.0699C35.74 4.2799 39.62 0.399902 44.41 0.399902Z" fill="white" stroke="#19243D" stroke-width="0.75"/>
<path fill-rule="evenodd" clip-rule="evenodd" d="M35.74 9.1199V9.0699C35.74 4.2799 39.62 0.399902 44.41 0.399902H153.1C157.89 0.399902 161.77 4.2799 161.77 9.0699V9.1199H35.74Z" fill="#19243D"/>
<path fill-rule="evenodd" clip-rule="evenodd" d="M44.41 0.399902H153.1C157.89 0.399902 161.77 4.2799 161.77 9.0699V85.2699C161.77 90.0599 157.89 93.9399 153.1 93.9399H44.41C39.62 93.9399 35.74 90.0599 35.74 85.2699V9.0699C35.74 4.2799 39.62 0.399902 44.41 0.399902Z" stroke="#19243D" stroke-width="0.75" stroke-linecap="round"/>
<path d="M49.61 6.65987C50.6593 6.65987 51.51 5.80921 51.51 4.75986C51.51 3.71052 50.6593 2.85986 49.61 2.85986C48.5606 2.85986 47.71 3.71052 47.71 4.75986C47.71 5.80921 48.5606 6.65987 49.61 6.65987Z" fill="white"/>
<path d="M43.7 6.65987C44.7494 6.65987 45.6 5.80921 45.6 4.75986C45.6 3.71052 44.7494 2.85986 43.7 2.85986C42.6507 2.85986 41.8 3.71052 41.8 4.75986C41.8 5.80921 42.6507 6.65987 43.7 6.65987Z" fill="white"/>
<path d="M55.5101 6.65987C56.5595 6.65987 57.4101 5.80921 57.4101 4.75986C57.4101 3.71052 56.5595 2.85986 55.5101 2.85986C54.4608 2.85986 53.6101 3.71052 53.6101 4.75986C53.6101 5.80921 54.4608 6.65987 55.5101 6.65987Z" fill="white"/>
<path d="M79.8212 67.3122H110.419L123.229 76.5313V67.3122H124.109C127.881 67.3122 130.93 64.2512 130.93 60.4912V29.821C130.93 26.0489 127.869 23 124.109 23H79.8212C76.0491 23 73.0002 26.061 73.0002 29.821V60.4912C73.0002 64.2632 76.0612 67.3122 79.8212 67.3122Z" fill="#6359FF"/>
<path fill-rule="evenodd" clip-rule="evenodd" d="M50.1801 58.7597H41.8801C39.7101 58.7597 37.9401 60.5197 37.9401 62.6997V111.66H22.1301V58.7597V58.0497C22.1301 49.7097 28.8901 42.9497 37.2301 42.9497H37.9401H50.1801V58.7597Z" fill="#19243D" stroke="#19243D" stroke-width="0.75"/>
<path d="M50.17 58.7497C54.5331 58.7497 58.07 55.2128 58.07 50.8497C58.07 46.4867 54.5331 42.9497 50.17 42.9497C45.807 42.9497 42.27 46.4867 42.27 50.8497C42.27 55.2128 45.807 58.7497 50.17 58.7497Z" fill="#FFC806"/>
<path d="M50.17 54.2599C52.0533 54.2599 53.58 52.7332 53.58 50.8499C53.58 48.9666 52.0533 47.4399 50.17 47.4399C48.2867 47.4399 46.76 48.9666 46.76 50.8499C46.76 52.7332 48.2867 54.2599 50.17 54.2599Z" fill="#19243D"/>
<path d="M48.58 49.6796C49.4416 49.6796 50.14 48.9811 50.14 48.1196C50.14 47.258 49.4416 46.5596 48.58 46.5596C47.7185 46.5596 47.02 47.258 47.02 48.1196C47.02 48.9811 47.7185 49.6796 48.58 49.6796Z" fill="white"/>
<path d="M50.17 58.7497C54.5331 58.7497 58.07 55.2128 58.07 50.8497C58.07 46.4867 54.5331 42.9497 50.17 42.9497C45.807 42.9497 42.27 46.4867 42.27 50.8497C42.27 55.2128 45.807 58.7497 50.17 58.7497Z" stroke="#19243D" stroke-width="0.75" stroke-linecap="round"/>
<path d="M23.4402 119.74H93.3202" stroke="#19243D" stroke-width="0.75" stroke-linecap="round"/>
<path fill-rule="evenodd" clip-rule="evenodd" d="M59.7701 73.5396H0.580078L7.09008 120.52H66.2701L59.7701 73.5396Z" fill="#EFEEFF"/>
<path d="M33.0801 101.24C35.0076 101.24 36.5701 99.6682 36.5701 97.7297C36.5701 95.7912 35.0076 94.2197 33.0801 94.2197C31.1526 94.2197 29.5901 95.7912 29.5901 97.7297C29.5901 99.6682 31.1526 101.24 33.0801 101.24Z" fill="#19243D"/>
<circle cx="102.5" cy="44.5" r="15.5" stroke="white" stroke-width="2"/>
<path d="M92 45H112" stroke="white" stroke-width="5"/>
</g>
<defs>
<clipPath id="clip0_1905_2536">
<rect width="169" height="121" fill="white"/>
</clipPath>
</defs>
</svg>
