<svg width="506" height="363" viewBox="0 0 506 363" fill="none" xmlns="http://www.w3.org/2000/svg">
<path fill-rule="evenodd" clip-rule="evenodd" d="M152.921 23.1357H479.915C494.325 23.1357 505.998 34.7958 505.998 49.1906V267.336C505.998 287.711 489.452 304.239 469.054 304.239H152.951C138.54 304.239 126.867 292.579 126.867 278.185V49.1906C126.867 34.7958 138.54 23.1357 152.951 23.1357H152.921Z" fill="#ADDAF6"/>
<path fill-rule="evenodd" clip-rule="evenodd" d="M131.861 1.88965H458.855C473.266 1.88965 484.938 13.5497 484.938 27.9445V256.939C484.938 271.333 473.266 282.993 458.855 282.993H131.861C117.45 282.993 105.777 271.333 105.777 256.939V27.9445C105.777 13.5497 117.45 1.88965 131.861 1.88965Z" fill="white"/>
<path d="M458.855 283.895H131.861C116.969 283.895 104.875 271.814 104.875 256.939V27.9447C104.875 13.0691 116.969 0.988281 131.861 0.988281H458.855C473.747 0.988281 485.841 13.0691 485.841 27.9447V256.939C485.841 271.814 473.747 283.895 458.855 283.895ZM131.861 2.79138C117.992 2.79138 106.68 14.0608 106.68 27.9447V256.939C106.68 270.793 117.962 282.092 131.861 282.092H458.855C472.724 282.092 484.036 270.823 484.036 256.939V27.9447C484.036 14.0908 472.754 2.79138 458.855 2.79138H131.861Z" fill="#19243D"/>
<path fill-rule="evenodd" clip-rule="evenodd" d="M105.779 28.0947V27.9445C105.779 13.5497 117.452 1.88965 131.863 1.88965H458.857C473.267 1.88965 484.94 13.5497 484.94 27.9445V28.0947H105.779Z" fill="#19243D"/>
<path d="M458.857 283.895H131.863C116.971 283.895 104.877 271.814 104.877 256.939V27.9447C104.877 13.0691 116.971 0.988281 131.863 0.988281H458.857C473.749 0.988281 485.843 13.0691 485.843 27.9447V256.939C485.843 271.814 473.749 283.895 458.857 283.895ZM131.863 2.79138C117.994 2.79138 106.682 14.0608 106.682 27.9447V256.939C106.682 270.793 117.964 282.092 131.863 282.092H458.857C472.726 282.092 484.038 270.823 484.038 256.939V27.9447C484.038 14.0908 472.756 2.79138 458.857 2.79138H131.863Z" fill="#19243D"/>
<path d="M147.505 20.7009C150.662 20.7009 153.221 18.1445 153.221 14.9911C153.221 11.8376 150.662 9.28125 147.505 9.28125C144.348 9.28125 141.789 11.8376 141.789 14.9911C141.789 18.1445 144.348 20.7009 147.505 20.7009Z" fill="white"/>
<path d="M129.728 20.7009C132.885 20.7009 135.444 18.1445 135.444 14.9911C135.444 11.8376 132.885 9.28125 129.728 9.28125C126.571 9.28125 124.012 11.8376 124.012 14.9911C124.012 18.1445 126.571 20.7009 129.728 20.7009Z" fill="white"/>
<path d="M165.257 20.7009C168.414 20.7009 170.973 18.1445 170.973 14.9911C170.973 11.8376 168.414 9.28125 165.257 9.28125C162.1 9.28125 159.541 11.8376 159.541 14.9911C159.541 18.1445 162.1 20.7009 165.257 20.7009Z" fill="white"/>
<path fill-rule="evenodd" clip-rule="evenodd" d="M149.224 177.274H124.254C117.725 177.274 112.4 182.564 112.4 189.115V336.248H64.8359V177.274V175.141C64.8359 150.078 85.1734 129.763 110.264 129.763H112.4H149.224V177.274Z" fill="#19243D"/>
<path d="M113.303 337.119H63.9336V175.14C63.9336 149.626 84.7223 128.86 110.264 128.86H150.127V178.175H124.254C118.237 178.175 113.303 183.074 113.303 189.114V337.149V337.119ZM65.7387 335.316H111.498V189.084C111.498 182.052 117.214 176.372 124.254 176.372H148.322V130.663H110.264C85.7151 130.663 65.7387 150.618 65.7387 175.14V335.346V335.316Z" fill="#19243D"/>
<path d="M149.193 177.243C162.319 177.243 172.96 166.614 172.96 153.503C172.96 140.391 162.319 129.762 149.193 129.762C136.067 129.762 125.426 140.391 125.426 153.503C125.426 166.614 136.067 177.243 149.193 177.243Z" fill="#ADDAF6"/>
<path d="M149.193 163.751C154.858 163.751 159.452 159.163 159.452 153.503C159.452 147.844 154.858 143.256 149.193 143.256C143.527 143.256 138.934 147.844 138.934 153.503C138.934 159.163 143.527 163.751 149.193 163.751Z" fill="#19243D"/>
<path d="M144.41 149.986C147.002 149.986 149.103 147.888 149.103 145.298C149.103 142.709 147.002 140.61 144.41 140.61C141.818 140.61 139.717 142.709 139.717 145.298C139.717 147.888 141.818 149.986 144.41 149.986Z" fill="white"/>
<path d="M149.193 178.145C135.595 178.145 124.523 167.086 124.523 153.503C124.523 139.919 135.595 128.86 149.193 128.86C162.792 128.86 173.863 139.919 173.863 153.503C173.863 167.086 162.792 178.145 149.193 178.145ZM149.193 130.633C136.588 130.633 126.329 140.881 126.329 153.473C126.329 166.064 136.588 176.312 149.193 176.312C161.799 176.312 172.058 166.064 172.058 153.473C172.058 140.881 161.799 130.633 149.193 130.633Z" fill="#19243D"/>
<path d="M279.008 361.43H68.7736C68.2622 361.43 67.8711 361.039 67.8711 360.529C67.8711 360.018 68.2622 359.627 68.7736 359.627H279.008C279.519 359.627 279.91 360.018 279.91 360.529C279.91 361.039 279.519 361.43 279.008 361.43Z" fill="#19243D"/>
<path fill-rule="evenodd" clip-rule="evenodd" d="M178.073 221.689H0L19.5853 362.872H197.628L178.073 221.689Z" fill="#E7EDF0"/>
<path d="M97.777 304.933C103.576 304.933 108.277 300.211 108.277 294.385C108.277 288.559 103.576 283.837 97.777 283.837C91.9782 283.837 87.2773 288.559 87.2773 294.385C87.2773 300.211 91.9782 304.933 97.777 304.933Z" fill="#19243D"/>
<path d="M248.778 208.565H291.68L339.194 242.758V208.565H342.442C356.439 208.565 367.774 197.243 367.774 183.261V107.608C367.774 93.6257 356.439 82.3037 342.442 82.3037H248.778C234.78 82.3037 223.445 93.6257 223.445 107.608V183.261C223.445 197.243 234.78 208.565 248.778 208.565Z" fill="#0785D8"/>
<path d="M296.159 187.429C272.798 187.429 253.816 168.469 253.816 145.133C253.816 121.797 272.798 102.837 296.159 102.837C319.521 102.837 338.502 121.797 338.502 145.133C338.502 168.469 319.521 187.429 296.159 187.429ZM296.159 108.594C275.987 108.594 259.58 124.983 259.58 145.133C259.58 165.283 275.987 181.672 296.159 181.672C316.332 181.672 332.739 165.283 332.739 145.133C332.739 124.983 316.332 108.594 296.159 108.594Z" fill="white"/>
<path d="M320.209 139.374H272.256V150.888H320.209V139.374Z" fill="white"/>
</svg>
