<svg width="252" height="265" viewBox="0 0 252 265" fill="none" xmlns="http://www.w3.org/2000/svg">
<rect width="252" height="265" fill="white"/>
<path fill-rule="evenodd" clip-rule="evenodd" d="M71.546 47.1172H165.505C169.647 47.1172 173 50.4705 173 54.6124V117.36C173 123.226 168.247 127.98 162.38 127.98H71.546C67.4041 127.98 64.0508 124.627 64.0508 120.485V54.6124C64.0508 50.4705 67.4041 47.1172 71.546 47.1172Z" fill="#B1ACFF"/>
<path fill-rule="evenodd" clip-rule="evenodd" d="M65.4952 41.0071H159.454C163.596 41.0071 166.949 44.3604 166.949 48.5023V114.375C166.949 118.516 163.596 121.87 159.454 121.87H65.4952C61.3533 121.87 58 118.516 58 114.375V48.5023C58 44.3604 61.3533 41.0071 65.4952 41.0071Z" fill="white" stroke="#19243D" stroke-width="0.75"/>
<path fill-rule="evenodd" clip-rule="evenodd" d="M77.4644 121.863H65.503C61.3611 121.863 58.0078 118.509 58.0078 114.367V48.4952C58.0078 44.3533 61.3611 41 65.503 41H77.4644V121.863Z" fill="#2E2E7A"/>
<path fill-rule="evenodd" clip-rule="evenodd" d="M65.4952 41.0071H159.454C163.596 41.0071 166.949 44.3604 166.949 48.5023V114.375C166.949 118.516 163.596 121.87 159.454 121.87H65.4952C61.3533 121.87 58 118.516 58 114.375V48.5023C58 44.3604 61.3533 41.0071 65.4952 41.0071Z" stroke="#19243D" stroke-width="0.75" stroke-linecap="round"/>
<path d="M66.5713 49.564H74.4276" stroke="white" stroke-width="0.75" stroke-linecap="round"/>
<path d="M66.5713 59.1448H74.4276" stroke="white" stroke-width="0.75" stroke-linecap="round"/>
<path d="M66.5713 68.7183H74.4276" stroke="white" stroke-width="0.75" stroke-linecap="round"/>
<path d="M66.5713 78.2991H74.4276" stroke="white" stroke-width="0.75" stroke-linecap="round"/>
<path d="M66.5713 87.8801H74.4276" stroke="white" stroke-width="0.75" stroke-linecap="round"/>
<path d="M81.5986 48.311H95.9257" stroke="#19243D" stroke-width="0.75" stroke-linecap="round"/>
<path d="M81.5986 51.2073H105.087" stroke="#19243D" stroke-width="0.75" stroke-linecap="round"/>
<path d="M132.429 56.0198H81.5986V80.5395H132.429V56.0198Z" fill="#EFEEFF"/>
<path d="M159.66 56.0198H135.693V89.8698H159.66V56.0198Z" fill="#EFEEFF"/>
<path d="M159.66 92.7661H135.693V105.693H159.66V92.7661Z" fill="#EFEEFF"/>
<path d="M132.429 83.6716H81.5986V115.2H132.429V83.6716Z" fill="#EFEEFF"/>
<path d="M62.1786 51.2074C63.0863 51.2074 63.8221 50.4716 63.8221 49.5639C63.8221 48.6562 63.0863 47.9204 62.1786 47.9204C61.271 47.9204 60.5352 48.6562 60.5352 49.5639C60.5352 50.4716 61.271 51.2074 62.1786 51.2074Z" fill="white"/>
<path d="M62.1786 60.7884C63.0863 60.7884 63.8221 60.0526 63.8221 59.145C63.8221 58.2373 63.0863 57.5015 62.1786 57.5015C61.271 57.5015 60.5352 58.2373 60.5352 59.145C60.5352 60.0526 61.271 60.7884 62.1786 60.7884Z" fill="white"/>
<path d="M62.1786 70.3617C63.0863 70.3617 63.8221 69.6259 63.8221 68.7182C63.8221 67.8105 63.0863 67.0747 62.1786 67.0747C61.271 67.0747 60.5352 67.8105 60.5352 68.7182C60.5352 69.6259 61.271 70.3617 62.1786 70.3617Z" fill="white"/>
<path d="M62.1786 79.9425C63.0863 79.9425 63.8221 79.2067 63.8221 78.299C63.8221 77.3913 63.0863 76.6555 62.1786 76.6555C61.271 76.6555 60.5352 77.3913 60.5352 78.299C60.5352 79.2067 61.271 79.9425 62.1786 79.9425Z" fill="white"/>
<path d="M62.1786 89.5236C63.0863 89.5236 63.8221 88.7877 63.8221 87.8801C63.8221 86.9724 63.0863 86.2366 62.1786 86.2366C61.271 86.2366 60.5352 86.9724 60.5352 87.8801C60.5352 88.7877 61.271 89.5236 62.1786 89.5236Z" fill="white"/>
<path d="M136.651 109.149H158.746C159.277 109.149 159.705 109.577 159.705 110.108V114.353C159.705 114.883 159.277 115.311 158.746 115.311H136.651C136.121 115.311 135.693 114.883 135.693 114.353V110.108C135.693 109.577 136.121 109.149 136.651 109.149Z" fill="#FFC806"/>
<path d="M147 170.155C148.022 170.155 148.85 169.327 148.85 168.305C148.85 167.283 148.022 166.455 147 166.455C145.979 166.455 145.15 167.283 145.15 168.305C145.15 169.327 145.979 170.155 147 170.155Z" fill="#EFEEFF"/>
<path d="M28.3598 85.7C29.3815 85.7 30.2098 84.8717 30.2098 83.85C30.2098 82.8283 29.3815 82 28.3598 82C27.338 82 26.5098 82.8283 26.5098 83.85C26.5098 84.8717 27.338 85.7 28.3598 85.7Z" fill="#EFEEFF"/>
<path fill-rule="evenodd" clip-rule="evenodd" d="M91.3295 233.325C91.1095 235.075 91.5595 237.225 92.6895 239.765C93.8195 242.305 94.9295 244.755 96.0095 247.135L97.5495 246.615L95.9195 241.815C99.0795 244.315 101.15 245.395 102.13 245.065C103.71 244.535 105.28 243.995 106.86 243.465C107.38 243.285 107.66 242.725 107.48 242.205C107.27 241.595 106.87 241.065 106.34 240.695L100.12 236.385L91.3195 233.335L91.3295 233.325Z" fill="#19243D"/>
<path fill-rule="evenodd" clip-rule="evenodd" d="M97.5298 228.225C101.24 236.035 103.8 238.685 105.34 240.045C106.69 241.245 103.29 243.135 100.05 240.935C96.7998 238.735 92.0698 236.805 90.5698 232.385C89.0698 227.965 82.5698 218.375 79.0098 212.225C76.6398 208.125 73.6598 199.335 70.0898 185.875L78.2898 183.095C88.6498 207.975 95.0598 223.015 97.5398 228.225H97.5298Z" fill="white" stroke="#19243D" stroke-width="0.75" stroke-linecap="round"/>
<path fill-rule="evenodd" clip-rule="evenodd" d="M70.5402 231.245C69.3302 232.535 68.4302 234.545 67.8502 237.265C67.2702 239.985 66.7202 242.625 66.2002 245.185L67.7602 245.665L69.2702 240.815C70.3602 244.695 71.4002 246.795 72.3902 247.105C73.9802 247.605 75.5802 248.095 77.1702 248.595C77.7002 248.755 78.2502 248.465 78.4202 247.935C78.6102 247.315 78.6002 246.655 78.3902 246.045L75.8902 238.885L70.5502 231.235L70.5402 231.245Z" fill="#19243D"/>
<path fill-rule="evenodd" clip-rule="evenodd" d="M78.57 230.765C76.98 239.275 77.2 241.445 77.58 243.765C77.87 245.545 74.46 246.235 73.12 242.535C71.78 238.835 69.08 234.495 70.47 230.025C71.86 225.565 74.15 214.935 74.89 207.855C75.63 200.775 80.16 222.235 78.57 230.755V230.765Z" fill="#B1ACFF"/>
<path fill-rule="evenodd" clip-rule="evenodd" d="M53.5397 164.005L83.0697 174.715C86.5997 175.965 89.3197 178.815 90.3997 182.395L90.4197 182.455C91.5297 186.135 91.5397 190.045 90.4497 193.725L79.8797 229.305L69.8597 224.055L78.6997 189.255L63.7597 184.235L44.1297 182.215L40.9297 165.925L53.5397 163.995V164.005Z" fill="#B1ACFF"/>
<path fill-rule="evenodd" clip-rule="evenodd" d="M51.6301 162.765L53.4701 170.725L74.3301 182.965C77.9501 185.085 80.7901 188.315 82.4501 192.175L98.4601 229.545L84.8801 233.155L67.9501 197.155L41.8801 187.085C34.9101 184.395 30.0701 177.985 29.3901 170.545L28.8701 164.915L51.6201 162.785L51.6301 162.765Z" fill="white" stroke="#19243D" stroke-width="0.75" stroke-linecap="round"/>
<path fill-rule="evenodd" clip-rule="evenodd" d="M33.3506 129.225L33.5606 113.965L37.5606 110.325L42.3806 111.345L43.4706 119.885C43.7406 121.975 42.2906 123.905 40.2006 124.225L40.6506 127.175" fill="white"/>
<path d="M33.3506 129.225L33.5606 113.965L37.5606 110.325L42.3806 111.345L43.4706 119.885C43.7406 121.975 42.2906 123.905 40.2006 124.225L40.6506 127.175" stroke="#19243D" stroke-width="0.75" stroke-linecap="round"/>
<path d="M26.5143 114.146C29.0473 113.758 30.7862 111.39 30.3981 108.857C30.01 106.324 27.642 104.585 25.109 104.973C22.5759 105.361 20.837 107.729 21.2251 110.262C21.6132 112.795 23.9812 114.534 26.5143 114.146Z" fill="#19243D"/>
<path fill-rule="evenodd" clip-rule="evenodd" d="M33.3805 121.595C33.9305 121.195 34.4705 120.565 34.9805 119.685C35.4905 118.805 35.5505 117.945 35.1405 117.105L34.3705 116.475C33.9805 116.155 33.8505 115.605 34.0605 115.145C34.2705 114.685 34.7605 114.415 35.2605 114.505C39.2405 113.995 40.6505 113.105 41.3405 111.465C41.5905 111.905 42.0505 112.335 42.4705 112.415L42.6805 113.805C43.9005 112.585 44.4205 111.345 44.2305 110.095C44.0405 108.845 43.1705 108.535 41.6205 109.165C41.6505 107.295 41.0105 106.335 39.7105 106.295C37.9605 106.235 33.0205 107.065 30.9605 109.675C29.0405 112.115 28.3705 114.385 29.5405 117.285C29.9505 118.295 31.2305 119.735 33.3705 121.595H33.3805Z" fill="#19243D"/>
<path fill-rule="evenodd" clip-rule="evenodd" d="M39.9605 123.975L36.4805 124.505L40.2005 125.505L39.9605 123.975Z" fill="#19243D"/>
<path d="M63.7905 131.725C71.6105 127.655 71.6205 124.335 71.9905 112.165C71.9905 112.165 71.7505 108.365 71.9005 105.095C71.9705 103.635 72.2705 102.515 74.4105 101.375C76.1705 100.435 78.1805 97.555 78.1805 97.555C75.9905 95.885 75.0705 99.425 71.9005 100.125C68.0105 100.975 66.7305 102.975 66.1005 105.755C65.4605 108.575 65.2805 111.815 64.8905 115.165C64.5005 118.515 64.0505 122.475 62.2305 123.465" fill="white"/>
<path d="M63.7905 131.725C71.6105 127.655 71.6205 124.335 71.9905 112.165C71.9905 112.165 71.7505 108.365 71.9005 105.095C71.9705 103.635 72.2705 102.515 74.4105 101.375C76.1705 100.435 78.1805 97.555 78.1805 97.555C75.9905 95.885 75.0705 99.425 71.9005 100.125C68.0105 100.975 66.7305 102.975 66.1005 105.755C65.4605 108.575 65.2805 111.815 64.8905 115.165C64.5005 118.515 64.0505 122.475 62.2305 123.465" stroke="#19243D" stroke-width="0.75" stroke-linecap="round"/>
<path d="M66.5107 104.295C67.0407 102.645 69.3307 99.125 69.9407 97.155C69.9407 97.155 71.9907 98.115 70.7507 100.415" stroke="#19243D" stroke-width="0.75" stroke-linecap="round"/>
<path fill-rule="evenodd" clip-rule="evenodd" d="M30.43 129.785C25.97 130.965 22.59 132.745 20.3 135.125C18.01 137.505 14.05 146.335 13 156.845L24.35 156.095L25.86 149.945C28.59 153.515 30.13 156.465 30.49 158.805C30.61 159.585 29.9 162.065 28.36 166.255L29.82 168.495L55.12 164.135C55.64 161.865 55.42 159.495 54.51 157.365L51.35 149.985L52.44 148.795C54.33 146.735 54.81 143.755 53.67 141.205L52.56 138.725L64.92 131.915L63.34 121.585L30.43 129.795V129.785Z" fill="#B1ACFF"/>
<path fill-rule="evenodd" clip-rule="evenodd" d="M33.6204 128.985C33.6204 128.985 35.7104 135.175 39.9304 133.825C43.2404 132.765 40.3703 127.225 40.3703 127.225L35.5404 127.575L33.6104 128.985H33.6204Z" fill="white"/>
<path fill-rule="evenodd" clip-rule="evenodd" d="M13.6401 156.845C13.5201 162.185 14.7201 164.755 21.5701 169.165C28.4201 173.575 37.5201 176.495 37.5201 176.495C40.0401 177.575 42.2701 176.685 44.8801 175.855C47.3001 176.315 49.0401 176.745 51.5801 175.875C51.5801 175.875 49.6101 172.895 45.7601 171.965C43.4201 171.395 39.6001 172.385 39.6001 172.385L23.2701 157.955L23.3501 156.115" fill="white"/>
<path d="M13.6401 156.845C13.5201 162.185 14.7201 164.755 21.5701 169.165C28.4201 173.575 37.5201 176.495 37.5201 176.495C40.0401 177.575 42.2701 176.685 44.8801 175.855C47.3001 176.315 49.0401 176.745 51.5801 175.875C51.5801 175.875 49.6101 172.895 45.7601 171.965C43.4201 171.395 39.6001 172.385 39.6001 172.385L23.2701 157.955L23.3501 156.115" stroke="#19243D" stroke-width="0.75" stroke-linecap="round"/>
<path fill-rule="evenodd" clip-rule="evenodd" d="M45.5498 173.185C45.5498 173.185 48.5398 173.885 49.8098 176.275Z" fill="white"/>
<path d="M45.5498 173.185C45.5498 173.185 48.5398 173.885 49.8098 176.275" stroke="#19243D" stroke-width="0.75" stroke-linecap="round"/>
<path fill-rule="evenodd" clip-rule="evenodd" d="M44.8701 174.405C44.8701 174.405 47.5301 175.015 48.0901 176.395Z" fill="white"/>
<path d="M44.8701 174.405C44.8701 174.405 47.5301 175.015 48.0901 176.395" stroke="#19243D" stroke-width="0.75" stroke-linecap="round"/>
<path fill-rule="evenodd" clip-rule="evenodd" d="M25.64 150.865L24.35 156.095L13 156.845L14.3 151.955L25.64 150.865Z" fill="#B1ACFF"/>
<path d="M70.0598 173.345L38.2998 178.205" stroke="#19243D" stroke-width="0.75" stroke-linecap="round"/>
<path fill-rule="evenodd" clip-rule="evenodd" d="M50.3301 154.875L77.2301 150.755L77.5401 172.565L50.6401 176.685L50.3301 154.875Z" fill="#EFEEFF"/>
<path d="M64.3789 165.608C65.2578 165.474 65.8611 164.652 65.7265 163.773C65.5918 162.894 64.7702 162.291 63.8912 162.426C63.0123 162.56 62.409 163.382 62.5436 164.261C62.6783 165.14 63.4999 165.743 64.3789 165.608Z" fill="#19243D"/>
<path fill-rule="evenodd" clip-rule="evenodd" d="M214.97 214.025L217.15 220.195L213.22 227.245C212.88 227.855 213.1 228.625 213.71 228.965C214.1 229.185 214.58 229.175 214.97 228.945L226.54 222.075L223.41 209.005L214.97 214.015V214.025Z" fill="#19243D"/>
<path fill-rule="evenodd" clip-rule="evenodd" d="M151.979 92.605C152.009 93.155 152.119 93.695 152.329 94.175C152.739 95.085 156.88 98.275 156.88 98.275C156.88 98.275 158.049 97.025 156.609 95.955" fill="white"/>
<path d="M151.979 92.605C152.009 93.155 152.119 93.695 152.329 94.175C152.739 95.085 156.88 98.275 156.88 98.275C156.88 98.275 158.049 97.025 156.609 95.955" stroke="#19243D" stroke-width="0.75" stroke-linecap="round"/>
<path fill-rule="evenodd" clip-rule="evenodd" d="M158.65 96.3049C159.91 96.9349 160.62 96.8449 161.69 96.1649C163.87 97.6849 167.17 99.8849 173.64 103.455C180.11 107.025 185.09 108.635 192.82 104.885C195.12 103.765 206.83 97.8249 206.83 97.8249L198.99 87.9849C198.99 87.9849 188.6 97.9949 183.1 96.5349C174.03 94.1249 159.78 88.2449 158.25 87.6849C150.09 84.7049 147.01 84.2549 147.01 84.2549C147.01 84.2549 146.54 86.5349 148.91 87.3349C151.28 88.1349 152.57 88.7149 152.57 88.7149" fill="white"/>
<path d="M158.65 96.3049C159.91 96.9349 160.62 96.8449 161.69 96.1649C163.87 97.6849 167.17 99.8849 173.64 103.455C180.11 107.025 185.09 108.635 192.82 104.885C195.12 103.765 206.83 97.8249 206.83 97.8249L198.99 87.9849C198.99 87.9849 188.6 97.9949 183.1 96.5349C174.03 94.1249 159.78 88.2449 158.25 87.6849C150.09 84.7049 147.01 84.2549 147.01 84.2549C147.01 84.2549 146.54 86.5349 148.91 87.3349C151.28 88.1349 152.57 88.7149 152.57 88.7149" stroke="#19243D" stroke-width="0.75" stroke-linecap="round"/>
<path fill-rule="evenodd" clip-rule="evenodd" d="M157.099 93.4748C159.509 95.1948 158.059 97.0148 158.059 97.0148L151.989 92.5948C151.989 92.5948 151.189 91.3548 152.149 90.4648" fill="white"/>
<path d="M157.099 93.4748C159.509 95.1948 158.059 97.0148 158.059 97.0148L151.989 92.5948C151.989 92.5948 151.189 91.3548 152.149 90.4648" stroke="#19243D" stroke-width="0.75" stroke-linecap="round"/>
<path fill-rule="evenodd" clip-rule="evenodd" d="M155.22 92.3549L152.15 90.4749C152.15 90.4749 151.64 89.4449 152.58 88.7249" fill="white"/>
<path d="M155.22 92.3549L152.15 90.4749C152.15 90.4749 151.64 89.4449 152.58 88.7249" stroke="#19243D" stroke-width="0.75" stroke-linecap="round"/>
<path fill-rule="evenodd" clip-rule="evenodd" d="M157.84 91.4749C159.65 92.6849 158.12 94.3049 158.12 94.3049L157.09 93.4649" fill="white"/>
<path d="M157.84 91.4749C159.65 92.6849 158.12 94.3049 158.12 94.3049L157.09 93.4649" stroke="#19243D" stroke-width="0.75" stroke-linecap="round"/>
<path d="M159.05 87.9848C157.21 87.3848 156.15 88.8048 155.53 91.0448C155.26 92.0348 155 93.6948 155 93.6948C155 93.6948 156.91 94.7048 157.46 92.5048C158.23 89.4348 159.4 90.2048 159.4 90.2048C159.4 90.2048 158.39 92.3548 160.68 93.4348" fill="white"/>
<path d="M159.05 87.9848C157.21 87.3848 156.15 88.8048 155.53 91.0448C155.26 92.0348 155 93.6948 155 93.6948C155 93.6948 156.91 94.7048 157.46 92.5048C158.23 89.4348 159.4 90.2048 159.4 90.2048C159.4 90.2048 158.39 92.3548 160.68 93.4348" stroke="#19243D" stroke-width="0.75" stroke-linecap="round"/>
<path d="M155.759 90.2248L154.359 89.4348" stroke="#19243D" stroke-width="0.75" stroke-linecap="round"/>
<path fill-rule="evenodd" clip-rule="evenodd" d="M224.689 80.965C232.689 81.725 236.629 83.375 239.589 85.685C242.559 87.995 246.629 95.545 248.709 108.595L236.559 109.475L235.629 116.505C235.229 119.515 233.879 121.535 233.529 124.935L199.599 123.365C199.599 123.365 200.149 117.935 200.279 114.885L200.829 102.625L197.089 103.605L190.619 92.655C190.619 92.655 198.369 84.555 204.559 82.555C210.739 80.555 224.669 80.945 224.669 80.945L224.689 80.965Z" fill="#6359FF"/>
<path fill-rule="evenodd" clip-rule="evenodd" d="M213.53 101.715C211.24 100.205 207.92 97.4148 206.5 99.1348C206.17 99.7348 210.74 102.065 211.32 102.755C209.19 101.245 205.13 98.6548 204.06 100.385C203.92 100.915 210.47 104.755 210.47 104.755C207.77 103.285 204.93 101.145 204.22 102.745C204.65 103.315 206.24 104.365 210.1 106.695C208.28 106.075 205.94 103.845 205.24 105.235C205.44 105.995 208.06 108.015 210.32 108.995C213.4 110.335 215.14 109.815 215.92 109.935L234.3 120.275C242.98 125.785 247.1 120.865 247.35 115.335C247.47 112.785 247.43 108.675 247.43 108.675L236.76 109.415L237.77 112.175C237.77 112.175 220.09 105.725 219.17 104.415C217.42 101.915 215.84 100.155 213.65 99.4848L213.54 101.705L213.53 101.715Z" fill="white"/>
<path fill-rule="evenodd" clip-rule="evenodd" d="M201.88 189.505L206.62 194.015L206.32 202.085C206.29 202.785 206.84 203.365 207.54 203.395C207.99 203.415 208.42 203.185 208.66 202.805L215.84 191.425L207.12 181.195L201.88 189.505Z" fill="#19243D"/>
<path fill-rule="evenodd" clip-rule="evenodd" d="M201.18 125.725L174.67 136.615C169.64 138.685 165.83 142.935 164.33 148.155C162.88 153.195 164.5 158.615 168.48 162.025L202.33 191.055L211.37 180.295L187.3 153.035L211.99 147.665L226.29 138.355L216.86 123.675L202.99 122.615L201.17 125.735L201.18 125.725Z" fill="#B1ACFF"/>
<path fill-rule="evenodd" clip-rule="evenodd" d="M212.11 123.175L200.29 159.125C198.88 163.405 198.88 168.015 200.29 172.285L214.23 214.665L228 207.785L215.84 165.995L230.54 136.515C232.44 132.705 232.49 127.565 231.14 123.525L230.87 123.505L212.12 123.175H212.11Z" fill="white" stroke="#19243D" stroke-width="0.75" stroke-linecap="round"/>
<path d="M198.967 91.0998L198.781 111.959L214.161 112.096L214.346 91.2367L198.967 91.0998Z" fill="#EFEEFF"/>
<path d="M207.574 101.213C207.579 100.656 207.131 100.199 206.573 100.194C206.015 100.189 205.559 100.638 205.554 101.195C205.549 101.753 205.997 102.209 206.555 102.214C207.113 102.219 207.569 101.771 207.574 101.213Z" fill="#19243D"/>
<path fill-rule="evenodd" clip-rule="evenodd" d="M219.15 104.395C217.4 101.895 216.3 100.725 214.3 99.7748V102.255C209.9 99.9348 207.91 97.3948 206.49 99.1148C206.16 99.7148 210.73 102.045 211.31 102.735C209.18 101.225 205.12 98.6348 204.05 100.365C203.91 100.895 210.46 104.735 210.46 104.735C207.76 103.265 204.92 101.125 204.21 102.725C204.64 103.295 206.23 104.345 210.09 106.675C208.27 106.055 206.48 103.595 204.97 105.375C205.17 106.135 208.13 107.515 210.36 108.875C213.23 110.615 215.13 109.805 215.91 109.925L219.15 104.395Z" fill="white"/>
<path d="M215.89 103.075C214.16 102.215 211.29 100.475 209.24 99.2349C207.78 98.3549 206.92 98.6149 206.5 99.1349C206.17 99.7349 211.32 102.755 211.32 102.755C211.32 102.755 209.02 101.355 206.95 100.265C205.14 99.3149 204.39 99.8349 204.05 100.375C203.91 100.905 210.46 104.745 210.46 104.745C210.46 104.745 208.05 103.245 206.44 102.345C205.39 101.755 204.51 102.075 204.21 102.735C204.64 103.305 210.09 106.685 210.09 106.685C210.09 106.685 208.4 105.655 207 104.905C206.19 104.465 205.24 104.755 204.93 105.415C205.53 106.075 208.04 107.485 210.24 108.785C213.13 110.485 215.12 109.825 215.9 109.945L234.28 120.285C242.96 125.795 247.08 120.875 247.33 115.345C247.45 112.795 247.41 108.685 247.41 108.685" stroke="#19243D" stroke-width="0.75" stroke-linecap="round"/>
<path d="M232.77 98.2148L237.77 112.175C237.77 112.175 220.09 105.725 219.17 104.415C217.42 101.915 216.53 100.535 214.34 99.8748" stroke="#19243D" stroke-width="0.75" stroke-linecap="round"/>
<path fill-rule="evenodd" clip-rule="evenodd" d="M210.46 63.4949L210.62 73.2549C210.66 75.6549 212.61 77.5949 215.01 77.6149L214.98 81.0049C213.79 84.9849 213.98 86.8349 215.51 87.1449C217.04 87.4549 220.37 86.3949 223.55 82.1349L222.42 65.0649L215.74 61.5649L210.47 63.4849L210.46 63.4949Z" fill="white" stroke="#19243D" stroke-width="0.75" stroke-linecap="round"/>
<path fill-rule="evenodd" clip-rule="evenodd" d="M222.94 73.6649L219.56 68.8049L220.32 67.9649C220.71 67.5349 220.76 66.9049 220.46 66.4149L220.43 66.3649C220.14 65.9149 219.58 65.7349 219.09 65.9249C218.56 66.1349 218.17 66.5949 218.07 67.1549L217.88 68.1649C217.84 68.4049 217.63 68.5749 217.39 68.5749C217.16 68.5749 216.91 68.3849 216.95 68.1549C217.68 64.0249 215.11 65.4649 214.95 63.0349C214.09 63.5749 212.6 63.7249 210.48 63.4849L210.54 66.3149C208.99 64.7749 208.22 63.2949 208.23 61.8549C208.24 60.4149 208.88 59.9349 210.13 60.4149C209.62 57.7449 210.25 56.6349 212.01 57.1049C214.66 57.8049 219.4 56.8249 222.47 60.5249C226.05 61.5049 225.42 63.2849 225.03 65.1049C224.77 66.3149 224.08 69.1649 222.95 73.6549L222.94 73.6649Z" fill="#19243D"/>
<path fill-rule="evenodd" clip-rule="evenodd" d="M215.129 77.345L219.129 77.375L215.109 79.095L215.129 77.345Z" fill="#19243D"/>
<path d="M112.51 203.3L116.81 199" stroke="#19243D" stroke-width="0.75" stroke-linecap="round" stroke-linejoin="round"/>
<path d="M112.51 199L116.81 203.3" stroke="#19243D" stroke-width="0.75" stroke-linecap="round" stroke-linejoin="round"/>
<path d="M29.8302 54.4401C31.4428 54.4401 32.7502 53.1328 32.7502 51.5201C32.7502 49.9074 31.4428 48.6001 29.8302 48.6001C28.2175 48.6001 26.9102 49.9074 26.9102 51.5201C26.9102 53.1328 28.2175 54.4401 29.8302 54.4401Z" fill="#EFEEFF"/>
<path d="M246.599 75.4401C246.599 73.1801 244.199 70.7801 241.939 70.7801C244.199 70.7801 246.599 68.3801 246.599 66.1201C246.599 68.3801 248.999 70.7801 251.259 70.7801C248.999 70.7801 246.599 73.1801 246.599 75.4401Z" stroke="#19243D" stroke-width="0.75" stroke-linecap="round" stroke-linejoin="round"/>
<path d="M62.59 25.18C64.5727 25.18 66.18 23.5727 66.18 21.59C66.18 19.6073 64.5727 18 62.59 18C60.6073 18 59 19.6073 59 21.59C59 23.5727 60.6073 25.18 62.59 25.18Z" stroke="#FFC806" stroke-width="0.75" stroke-linecap="round" stroke-linejoin="round"/>
<path d="M107.36 156.72C106.98 156.72 106.68 156.42 106.68 156.04C106.68 152.71 103.02 149.04 99.68 149.04C99.3 149.04 99 148.74 99 148.36C99 147.98 99.3 147.68 99.68 147.68C103.01 147.68 106.68 144.02 106.68 140.68C106.68 140.31 106.98 140 107.36 140C107.74 140 108.04 140.3 108.04 140.68C108.04 144.01 111.7 147.68 115.04 147.68C115.42 147.68 115.72 147.98 115.72 148.36C115.72 148.74 115.42 149.04 115.04 149.04C111.71 149.04 108.04 152.7 108.04 156.04C108.04 156.41 107.74 156.72 107.36 156.72Z" fill="#EFEEFF"/>
<path d="M186.36 43.72C185.98 43.72 185.68 43.42 185.68 43.04C185.68 39.71 182.02 36.04 178.68 36.04C178.3 36.04 178 35.74 178 35.36C178 34.98 178.3 34.68 178.68 34.68C182.01 34.68 185.68 31.02 185.68 27.68C185.68 27.31 185.98 27 186.36 27C186.74 27 187.04 27.3 187.04 27.68C187.04 31.01 190.7 34.68 194.04 34.68C194.42 34.68 194.72 34.98 194.72 35.36C194.72 35.74 194.42 36.04 194.04 36.04C190.71 36.04 187.04 39.7 187.04 43.04C187.04 43.41 186.74 43.72 186.36 43.72Z" fill="#EFEEFF"/>
<path d="M13.36 45.72C12.98 45.72 12.68 45.42 12.68 45.04C12.68 41.71 9.02 38.04 5.68 38.04C5.3 38.04 5 37.74 5 37.36C5 36.98 5.3 36.68 5.68 36.68C9.01 36.68 12.68 33.02 12.68 29.68C12.68 29.31 12.98 29 13.36 29C13.74 29 14.04 29.3 14.04 29.68C14.04 33.01 17.7 36.68 21.04 36.68C21.42 36.68 21.72 36.98 21.72 37.36C21.72 37.74 21.42 38.04 21.04 38.04C17.71 38.04 14.04 41.7 14.04 45.04C14.04 45.41 13.74 45.72 13.36 45.72Z" fill="#FFC806"/>
<path d="M123.2 15.8601V12.6101" stroke="#19243D" stroke-width="0.75" stroke-linecap="round" stroke-linejoin="round"/>
<path d="M119.82 17.29L117.52 14.99" stroke="#19243D" stroke-width="0.75" stroke-linecap="round" stroke-linejoin="round"/>
<path d="M118.44 20.7H115.18" stroke="#19243D" stroke-width="0.75" stroke-linecap="round" stroke-linejoin="round"/>
<path d="M119.86 24.0801L117.57 26.3801" stroke="#19243D" stroke-width="0.75" stroke-linecap="round" stroke-linejoin="round"/>
<path d="M123.279 28.72V25.46" stroke="#19243D" stroke-width="0.75" stroke-linecap="round" stroke-linejoin="round"/>
<path d="M128.96 26.32L126.66 24.02" stroke="#19243D" stroke-width="0.75" stroke-linecap="round" stroke-linejoin="round"/>
<path d="M131.3 20.6299H128.04" stroke="#19243D" stroke-width="0.75" stroke-linecap="round" stroke-linejoin="round"/>
<path d="M128.91 14.95L126.6 17.24" stroke="#19243D" stroke-width="0.75" stroke-linecap="round" stroke-linejoin="round"/>
</svg>
