<svg width="296" height="300" viewBox="0 0 296 300" fill="none" xmlns="http://www.w3.org/2000/svg">
<g clip-path="url(#clip0_14_1531)">
<path fill-rule="evenodd" clip-rule="evenodd" d="M160.247 151.935H179.611L181.62 166.531H162.256L160.247 151.935Z" fill="#E7EDF0"/>
<path d="M203.835 106.578H133.861C132.311 106.578 131.055 107.835 131.055 109.384V151.75C131.055 153.3 132.311 154.556 133.861 154.556H203.835C205.386 154.556 206.642 153.3 206.642 151.75V109.384C206.642 107.835 205.386 106.578 203.835 106.578Z" fill="#E7EDF0"/>
<path fill-rule="evenodd" clip-rule="evenodd" d="M206.642 147.212H131.055V109.384C131.055 107.837 132.314 106.578 133.861 106.578H203.824C205.371 106.578 206.63 107.837 206.63 109.384V147.212H206.642Z" fill="#19243D"/>
<path fill-rule="evenodd" clip-rule="evenodd" d="M203.235 143.494H134.451V112.618C134.451 111.209 135.593 110.054 137.014 110.054H200.672C202.081 110.054 203.235 111.197 203.235 112.618V143.494Z" fill="#19243D"/>
<path d="M169.762 153.309C171.032 153.309 172.06 152.275 172.06 150.999C172.06 149.724 171.032 148.69 169.762 148.69C168.492 148.69 167.464 149.724 167.464 150.999C167.464 152.275 168.492 153.309 169.762 153.309Z" fill="#19243D"/>
<path d="M82.2013 70.5171C83.2025 70.5171 84.0141 69.7054 84.0141 68.7043C84.0141 67.703 83.2025 66.8914 82.2013 66.8914C81.2 66.8914 80.3884 67.703 80.3884 68.7043C80.3884 69.7054 81.2 70.5171 82.2013 70.5171Z" fill="white"/>
<path fill-rule="evenodd" clip-rule="evenodd" d="M88.6437 39.6869H192.578C197.151 39.6869 200.868 43.3935 200.868 47.9776V117.386C200.868 123.876 195.614 129.13 189.126 129.13H88.6437C84.0712 129.13 80.353 125.423 80.353 120.839V47.9661C80.353 43.3935 84.0596 39.6754 88.6437 39.6754V39.6869Z" fill="#ADDAF6"/>
<path fill-rule="evenodd" clip-rule="evenodd" d="M81.9592 32.9322H185.894C190.466 32.9322 194.184 36.6387 194.184 41.223V114.096C194.184 118.668 190.477 122.386 185.894 122.386H81.9592C77.3866 122.386 73.6685 118.68 73.6685 114.096V41.223C73.6685 36.6504 77.3751 32.9322 81.9592 32.9322Z" fill="white"/>
<path d="M185.894 122.721H81.959C77.2016 122.721 73.3218 118.853 73.3218 114.084V41.2113C73.3218 36.4539 77.2016 32.5741 81.959 32.5741H185.894C190.651 32.5741 194.531 36.4424 194.531 41.2113V114.084C194.531 118.842 190.662 122.721 185.894 122.721ZM81.959 33.2669C77.5827 33.2669 74.0146 36.8349 74.0146 41.2113V114.084C74.0146 118.46 77.5827 122.028 81.959 122.028H185.894C190.269 122.028 193.837 118.46 193.837 114.084V41.2113C193.837 36.8349 190.269 33.2669 185.894 33.2669H81.959Z" fill="#19243D"/>
<path fill-rule="evenodd" clip-rule="evenodd" d="M84.1408 122.375H81.9584C77.3858 122.375 73.6677 118.668 73.6677 114.084V41.2114C73.6677 36.6388 77.3743 32.9207 81.9584 32.9207H84.1408V122.375Z" fill="#19243D"/>
<path d="M185.892 122.721H81.9582C77.2008 122.721 73.321 118.853 73.321 114.084V41.2113C73.321 36.4539 77.2008 32.5741 81.9582 32.5741H185.892C190.65 32.5741 194.529 36.4424 194.529 41.2113V114.084C194.529 118.842 190.662 122.721 185.892 122.721ZM81.9582 33.2669C77.582 33.2669 74.014 36.8349 74.014 41.2113V114.084C74.014 118.46 77.582 122.028 81.9582 122.028H185.892C190.269 122.028 193.837 118.46 193.837 114.084V41.2113C193.837 36.8349 190.269 33.2669 185.892 33.2669H81.9582Z" fill="#19243D"/>
<path d="M134.128 49.5366H92.697V82.965H134.128V49.5366Z" fill="#E7EDF0"/>
<path d="M180.223 49.5366H138.792V82.965H180.223V49.5366Z" fill="white"/>
<path d="M180.57 83.3112H138.447V49.19H180.57V83.3112ZM139.139 82.6184H179.878V49.8828H139.139V82.6184Z" fill="#19243D"/>
<path d="M78.2867 44.2133C79.2878 44.2133 80.0996 43.4017 80.0996 42.4004C80.0996 41.3993 79.2878 40.5876 78.2867 40.5876C77.2855 40.5876 76.4739 41.3993 76.4739 42.4004C76.4739 43.4017 77.2855 44.2133 78.2867 44.2133Z" fill="white"/>
<path d="M78.2867 54.8135C79.2878 54.8135 80.0996 54.0019 80.0996 53.0006C80.0996 51.9994 79.2878 51.1878 78.2867 51.1878C77.2855 51.1878 76.4739 51.9994 76.4739 53.0006C76.4739 54.0019 77.2855 54.8135 78.2867 54.8135Z" fill="white"/>
<path d="M78.2867 65.4019C79.2878 65.4019 80.0996 64.5903 80.0996 63.589C80.0996 62.5879 79.2878 61.7762 78.2867 61.7762C77.2855 61.7762 76.4739 62.5879 76.4739 63.589C76.4739 64.5903 77.2855 65.4019 78.2867 65.4019Z" fill="white"/>
<path d="M78.2867 76.0021C79.2878 76.0021 80.0996 75.1904 80.0996 74.1892C80.0996 73.1879 79.2878 72.3763 78.2867 72.3763C77.2855 72.3763 76.4739 73.1879 76.4739 74.1892C76.4739 75.1904 77.2855 76.0021 78.2867 76.0021Z" fill="white"/>
<path d="M113.642 56.211H97.7879C97.5915 56.211 97.4414 56.0609 97.4414 55.8647C97.4414 55.6683 97.5915 55.5182 97.7879 55.5182H113.642C113.838 55.5182 113.988 55.6683 113.988 55.8647C113.988 56.0609 113.838 56.211 113.642 56.211Z" fill="#19243D"/>
<path d="M123.769 59.4209H97.7879C97.5915 59.4209 97.4414 59.2709 97.4414 59.0746C97.4414 58.8782 97.5915 58.7281 97.7879 58.7281H123.769C123.965 58.7281 124.115 58.8782 124.115 59.0746C124.115 59.2709 123.965 59.4209 123.769 59.4209Z" fill="#19243D"/>
<path d="M160.328 56.2108H144.474C144.277 56.2108 144.127 56.0606 144.127 55.8643C144.127 55.6681 144.277 55.5179 144.474 55.5179H160.328C160.524 55.5179 160.674 55.6681 160.674 55.8643C160.674 56.0606 160.524 56.2108 160.328 56.2108Z" fill="#19243D"/>
<path d="M170.455 59.4209H144.474C144.277 59.4209 144.127 59.2709 144.127 59.0746C144.127 58.8782 144.277 58.7281 144.474 58.7281H170.455C170.652 58.7281 170.802 58.8782 170.802 59.0746C170.802 59.2709 170.652 59.4209 170.455 59.4209Z" fill="#19243D"/>
<path d="M155.985 82.9594C155.985 91.3295 162.771 98.1147 171.14 98.1147C179.511 98.1147 186.296 91.3295 186.296 82.9594C186.296 74.5892 179.511 67.804 171.14 67.804C162.771 67.804 155.985 74.5892 155.985 82.9594Z" fill="#FFE476"/>
<path d="M170.846 89.27L165.222 81.2563L166.643 80.2634L170.673 86.0022L176.157 76.0025L177.671 76.8339L170.846 89.27Z" fill="#19243D"/>
<path d="M209.172 295.787C208.975 295.787 208.825 295.637 208.825 295.441V166.564H109.579V295.441C109.579 295.637 109.429 295.787 109.233 295.787C109.036 295.787 108.886 295.637 108.886 295.441V165.872H209.518V295.441C209.518 295.637 209.368 295.787 209.172 295.787Z" fill="#19243D"/>
<path d="M242.402 295.833C242.207 295.833 242.057 295.683 242.057 295.487V166.611H209.425C209.228 166.611 209.078 166.461 209.078 166.264C209.078 166.069 209.228 165.919 209.425 165.919H242.749V295.487C242.749 295.683 242.599 295.833 242.402 295.833Z" fill="#19243D"/>
<path fill-rule="evenodd" clip-rule="evenodd" d="M265.887 282.034L266.718 290.013L258.196 295.175C257.412 295.647 257.157 296.676 257.631 297.461C257.931 297.958 258.474 298.258 259.051 298.258H277.942L277.354 281.826L265.876 282.046L265.887 282.034Z" fill="#19243D"/>
<path fill-rule="evenodd" clip-rule="evenodd" d="M236.338 281.318L233.279 298.892L216.743 299.217C216.143 299.217 215.589 298.917 215.289 298.408C214.816 297.623 215.081 296.596 215.866 296.133L223.476 291.595L225.497 281.33H236.35L236.338 281.318Z" fill="#19243D"/>
<path fill-rule="evenodd" clip-rule="evenodd" d="M225.048 283.142H223.524L234.25 161.333C234.482 158.667 235.117 156.046 236.109 153.55L237.968 148.898H258.372L237.541 283.154L235.879 283.13H225.024L225.048 283.142Z" fill="#ADDAF6"/>
<path fill-rule="evenodd" clip-rule="evenodd" d="M274.005 150.502L277.932 162.974C279.491 167.916 279.618 173.204 278.325 178.227L276.87 183.838L280.311 282.033H263.244L245.728 149.648L274.018 150.502H274.005Z" fill="white"/>
<path d="M280.668 282.38H262.944L262.897 282.08L245.323 149.29L274.26 150.167L278.255 162.869C279.837 167.881 279.964 173.227 278.647 178.308L277.205 183.862L280.656 282.37L280.668 282.38ZM263.544 281.688H279.953L276.523 183.793V183.746L277.99 178.134C279.271 173.17 279.144 167.962 277.597 163.078L273.752 150.838L246.12 150.007L263.544 281.688Z" fill="#19243D"/>
<path fill-rule="evenodd" clip-rule="evenodd" d="M190.301 99.1882C190.117 99.7887 190.024 100.401 190.059 100.99C190.129 102.121 193.257 107.11 193.257 107.11C193.257 107.11 194.978 106.243 193.881 104.558" fill="white"/>
<path d="M193.13 107.548L192.969 107.283C192.645 106.763 189.794 102.19 189.712 101.013C189.679 100.424 189.759 99.7771 189.967 99.0843C190.024 98.8996 190.209 98.7956 190.394 98.8534C190.579 98.9111 190.683 99.1074 190.626 99.2806C190.441 99.8926 190.359 100.458 190.394 100.966C190.441 101.682 192.16 104.685 193.35 106.613C193.534 106.463 193.766 106.22 193.859 105.897C193.951 105.551 193.859 105.158 193.581 104.731C193.477 104.569 193.524 104.35 193.684 104.246C193.847 104.142 194.066 104.188 194.169 104.35C194.563 104.95 194.678 105.528 194.528 106.082C194.286 106.959 193.442 107.387 193.407 107.41L193.13 107.548Z" fill="#19243D"/>
<path fill-rule="evenodd" clip-rule="evenodd" d="M192.471 95.3198C192.471 95.3198 191.329 94.1997 189.146 92.4214C186.952 90.6433 188.349 88.4262 188.349 88.4262C188.349 88.4262 191.421 90.1006 198.88 96.4629C200.276 97.6523 212.783 111.52 220.403 114.938C223.417 116.289 235.888 106.255 235.888 106.255L242.493 118.506C242.493 118.506 228.393 126.739 225.565 127.293C219.849 128.402 214.387 125.492 208.96 119.176C203.521 112.86 200.888 109.245 199.192 106.786C197.795 107.075 196.928 106.971 195.924 105.735C194.919 104.5 191.005 98.4374 191.005 98.4374" fill="white"/>
<path d="M223.151 127.859C218.325 127.859 213.567 125.065 208.672 119.384C203.406 113.275 200.738 109.638 199.007 107.144C197.667 107.386 196.698 107.236 195.636 105.932C194.665 104.754 190.854 98.8534 190.692 98.6108C190.589 98.4492 190.635 98.2298 190.797 98.1259C190.959 98.0219 191.179 98.0681 191.282 98.2298C191.317 98.2875 195.231 104.338 196.178 105.493C197.102 106.624 197.83 106.694 199.099 106.417L199.319 106.37L199.446 106.555C201.166 109.026 203.821 112.675 209.192 118.922C214.734 125.365 220.058 127.986 225.472 126.924C227.99 126.439 239.988 119.522 242.007 118.345L235.761 106.751C233.487 108.553 223.174 116.532 220.242 115.227C214.007 112.433 204.538 102.721 200.496 98.5761C199.561 97.6177 198.892 96.9249 198.637 96.7055C192.598 91.5556 189.423 89.4771 188.476 88.8998C188.221 89.5118 187.864 90.932 189.353 92.1445C191.524 93.9111 192.656 95.0081 192.703 95.0543C192.841 95.1929 192.841 95.4123 192.703 95.5393C192.563 95.6779 192.344 95.6779 192.218 95.5393C192.218 95.5393 191.062 94.4077 188.915 92.6641C186.513 90.7243 188.026 88.2417 188.038 88.207L188.211 87.9299L188.499 88.0915C188.626 88.1608 191.686 89.8582 199.088 96.1629C199.364 96.4053 200.011 97.0635 200.993 98.0796C205.011 102.202 214.411 111.844 220.518 114.58C222.829 115.608 232.216 108.691 235.646 105.943L235.968 105.678L242.921 118.587L242.631 118.76C242.054 119.095 228.452 127.028 225.6 127.594C224.78 127.755 223.96 127.836 223.141 127.836L223.151 127.859Z" fill="#19243D"/>
<path fill-rule="evenodd" clip-rule="evenodd" d="M195.369 102.121C197.24 104.881 195 106.243 195 106.243L190.324 99.188C190.324 99.188 189.965 97.56 191.329 97.0057" fill="white"/>
<path d="M194.896 106.705L189.988 99.2573C189.838 98.5992 189.908 97.2019 191.189 96.6707C191.362 96.59 191.571 96.6707 191.639 96.8555C191.709 97.0287 191.639 97.2366 191.455 97.3058C190.497 97.6985 190.612 98.7723 190.647 99.0379L195.081 105.724C195.3 105.516 195.612 105.146 195.727 104.615C195.878 103.922 195.659 103.149 195.092 102.306C194.989 102.144 195.022 101.936 195.184 101.821C195.346 101.717 195.554 101.751 195.669 101.913C196.351 102.929 196.605 103.888 196.409 104.765C196.154 105.92 195.231 106.497 195.196 106.52L194.907 106.694L194.896 106.705Z" fill="#19243D"/>
<path fill-rule="evenodd" clip-rule="evenodd" d="M192.471 95.3202C191.189 95.7127 191.329 97.0059 191.329 97.0059L193.834 100.193" fill="white"/>
<path d="M193.835 100.539C193.73 100.539 193.627 100.493 193.557 100.412L190.994 97.1446V97.0406C190.924 96.498 191.144 95.3663 192.368 94.9852C192.553 94.9275 192.748 95.0314 192.806 95.2161C192.865 95.4009 192.76 95.5973 192.576 95.655C191.744 95.9091 191.674 96.6249 191.674 96.879L194.112 99.9851C194.227 100.135 194.204 100.355 194.054 100.47C193.995 100.516 193.915 100.539 193.835 100.539Z" fill="#19243D"/>
<path fill-rule="evenodd" clip-rule="evenodd" d="M196.942 100.297C198.385 102.283 196.122 103.391 196.122 103.391L195.36 102.098" fill="white"/>
<path d="M195.983 103.842L195.059 102.271C194.966 102.109 195.012 101.89 195.186 101.798C195.346 101.705 195.566 101.752 195.659 101.925L196.236 102.906C196.513 102.71 196.905 102.352 197.033 101.867C197.137 101.44 197.01 100.978 196.652 100.493C196.536 100.343 196.571 100.123 196.733 100.008C196.883 99.8925 197.102 99.9271 197.217 100.089C197.702 100.758 197.864 101.417 197.702 102.04C197.437 103.114 196.317 103.68 196.271 103.703L195.983 103.842Z" fill="#19243D"/>
<path d="M199.181 103.83C199.089 103.83 198.996 103.796 198.937 103.726C197.228 101.994 198.095 100.331 198.592 99.6502C198.557 99.6502 198.51 99.6502 198.452 99.6502C198.152 99.6617 197.483 99.9158 196.433 101.44C195.924 102.167 195.335 102.572 194.689 102.606C193.66 102.722 192.853 101.809 192.818 101.763L192.656 101.579L192.771 101.359C192.806 101.29 193.707 99.6733 194.389 98.7264C195.474 97.2138 196.571 96.3824 197.633 96.2322C198.372 96.14 199.111 96.3593 199.804 96.902C199.954 97.0175 199.977 97.2368 199.861 97.387C199.746 97.5371 199.527 97.5601 199.377 97.4447C198.834 97.0059 198.292 96.8328 197.737 96.9135C196.86 97.0406 195.924 97.7795 194.954 99.1306C194.447 99.8349 193.788 100.966 193.51 101.452C193.742 101.648 194.157 101.925 194.642 101.902C195.081 101.867 195.486 101.579 195.866 101.036C196.813 99.6617 197.69 98.9574 198.464 98.9458C199.019 98.9458 199.354 99.3269 199.389 99.3615L199.561 99.604L199.354 99.8119C199.284 99.8811 197.714 101.475 199.446 103.241C199.584 103.38 199.573 103.599 199.446 103.726C199.377 103.796 199.296 103.83 199.204 103.83H199.181Z" fill="#19243D"/>
<path d="M195.233 98.507C195.14 98.507 195.036 98.4608 194.968 98.38L193.801 96.9944C193.674 96.8443 193.697 96.6249 193.847 96.5093C193.997 96.3824 194.205 96.4054 194.331 96.5555L195.498 97.9412C195.625 98.0913 195.602 98.3107 195.452 98.4261C195.383 98.484 195.313 98.507 195.233 98.507Z" fill="#19243D"/>
<path fill-rule="evenodd" clip-rule="evenodd" d="M265.506 97.5946C275.357 98.5299 280.194 100.562 283.844 103.403C287.492 106.243 292.516 115.539 295.067 131.6L280.125 132.686L278.982 141.335C278.497 145.041 276.834 147.536 276.407 151.716L234.653 149.787C234.653 149.787 235.323 143.113 235.496 139.349L236.177 124.268L231.582 125.469L223.625 111.994C223.625 111.994 233.164 102.029 240.774 99.5692C248.382 97.1096 265.518 97.583 265.518 97.583L265.506 97.5946Z" fill="#0785D8"/>
<path fill-rule="evenodd" clip-rule="evenodd" d="M251.777 123.137C248.959 121.278 244.872 117.848 243.128 119.961C242.724 120.7 248.347 123.564 249.063 124.407C246.442 122.548 241.454 119.361 240.126 121.485C239.953 122.132 248.013 126.866 248.013 126.866C244.698 125.065 241.2 122.432 240.322 124.395C240.842 125.088 242.804 126.393 247.563 129.256C245.322 128.494 242.436 125.746 241.581 127.467C241.824 128.39 245.057 130.885 247.84 132.097C251.626 133.748 253.762 133.113 254.733 133.252L277.354 145.977C288.034 152.755 293.104 146.704 293.416 139.891C293.554 136.763 293.508 131.693 293.508 131.693L280.379 132.605L281.614 136C281.614 136 259.86 128.067 258.728 126.451C256.58 123.379 254.629 121.208 251.927 120.388L251.788 123.125L251.777 123.137Z" fill="white"/>
<path d="M233.848 110.074L233.621 135.742L252.545 135.911L252.774 110.242L233.848 110.074Z" fill="#E7EDF0"/>
<path d="M244.438 122.508C244.443 121.826 243.896 121.267 243.213 121.261C242.531 121.255 241.972 121.804 241.967 122.486C241.96 123.168 242.508 123.726 243.191 123.732C243.873 123.738 244.431 123.19 244.438 122.508Z" fill="#19243D"/>
<path fill-rule="evenodd" clip-rule="evenodd" d="M258.693 126.439C256.546 123.368 255.183 121.924 252.724 120.758V123.818C247.32 120.966 244.86 117.837 243.117 119.95C242.713 120.689 248.337 123.552 249.052 124.395C246.431 122.536 241.442 119.349 240.115 121.474C239.942 122.121 248.002 126.855 248.002 126.855C244.687 125.054 241.189 122.421 240.31 124.384C240.83 125.077 242.793 126.382 247.55 129.245C245.311 128.483 243.105 125.458 241.246 127.652C241.489 128.575 245.137 130.284 247.885 131.959C251.42 134.107 253.751 133.102 254.721 133.252L258.705 126.451L258.693 126.439Z" fill="white"/>
<path d="M285.667 149.29C283.531 149.29 280.735 148.54 277.157 146.277L254.617 133.598C254.432 133.587 254.167 133.598 253.855 133.61C252.561 133.679 250.425 133.806 247.584 132.132L246.28 131.37C243.878 129.973 241.615 128.656 240.956 127.929L240.806 127.756L240.898 127.548C241.107 127.097 241.51 126.751 242.03 126.578C242.204 126.52 242.377 126.485 242.562 126.474C241.315 125.643 240.264 124.892 240.044 124.603L239.918 124.442L239.998 124.257C240.206 123.795 240.588 123.449 241.073 123.287C241.21 123.241 241.36 123.206 241.51 123.195C239.652 121.867 239.744 121.566 239.791 121.393L239.826 121.301C240.276 120.573 241.222 119.927 243.127 120.7C242.631 120.135 242.747 119.915 242.816 119.788C243.231 119.28 244.351 118.379 246.672 119.788L246.984 119.973C249.432 121.451 252.793 123.483 254.824 124.499C254.998 124.58 255.067 124.788 254.974 124.961C254.894 125.134 254.686 125.204 254.512 125.111C252.458 124.084 249.085 122.051 246.614 120.562L246.302 120.377C245.045 119.615 244.04 119.511 243.462 120.077C243.774 120.608 245.945 122.121 248.185 123.495C248.808 123.864 249.201 124.107 249.213 124.107L248.855 124.696C248.393 124.419 247.966 124.165 247.561 123.922C246.499 123.299 244.952 122.398 243.497 121.636C242.042 120.874 241.026 120.827 240.483 121.509C240.865 121.959 242.607 123.148 244.733 124.476C246.419 125.469 248.139 126.543 248.161 126.555L247.804 127.144C246.28 126.254 245.045 125.504 244.04 124.869C243.624 124.626 243.219 124.395 242.85 124.188C242.272 123.864 241.707 123.772 241.257 123.922C241.026 124.003 240.841 124.13 240.703 124.315C241.557 125.054 245.322 127.467 247.689 128.945L247.331 129.534C247.331 129.534 245.24 128.252 243.543 127.351C243.116 127.121 242.631 127.074 242.192 127.213C241.95 127.294 241.742 127.432 241.592 127.617C242.377 128.31 244.501 129.545 246.557 130.746L247.861 131.508C250.517 133.067 252.538 132.952 253.739 132.894C254.132 132.871 254.444 132.859 254.709 132.894L254.824 132.94L277.445 145.665C282.029 148.575 285.955 149.325 288.795 147.848C291.256 146.566 292.814 143.586 292.987 139.868C293.125 136.785 293.08 131.739 293.08 131.693C293.08 131.497 293.23 131.347 293.427 131.347C293.611 131.347 293.772 131.497 293.772 131.693C293.772 131.739 293.819 136.797 293.68 139.903C293.495 143.863 291.798 147.074 289.119 148.46C288.241 148.921 287.076 149.279 285.597 149.279L285.667 149.29Z" fill="#19243D"/>
<path d="M282.182 136.588L281.489 136.335C279.249 135.516 259.596 128.321 258.43 126.659L258.164 126.277C256.213 123.483 255.139 121.947 252.668 121.197C252.483 121.139 252.38 120.954 252.438 120.77C252.495 120.585 252.68 120.481 252.865 120.539C255.566 121.347 256.755 123.056 258.731 125.885L258.996 126.266C259.758 127.351 272.621 132.351 281.027 135.434L275.126 118.945C275.058 118.76 275.161 118.564 275.335 118.506C275.52 118.437 275.716 118.541 275.773 118.714L282.171 136.6L282.182 136.588Z" fill="#19243D"/>
<path fill-rule="evenodd" clip-rule="evenodd" d="M248.003 76.1061L248.2 88.115C248.246 91.0709 250.647 93.4496 253.603 93.4728L253.569 97.6412C252.103 102.549 252.333 104.812 254.215 105.205C256.098 105.597 260.197 104.281 264.111 99.0383L262.714 78.0344L254.492 73.7274L248.003 76.0946V76.1061Z" fill="white"/>
<path d="M254.919 105.62C254.642 105.62 254.377 105.597 254.134 105.539C253.487 105.401 253.003 105.077 252.691 104.546C251.986 103.368 252.148 101.151 253.21 97.5833L253.245 93.7958C250.242 93.5996 247.899 91.1632 247.853 88.1032L247.656 75.8519L254.515 73.3461L263.049 77.8149V78.0111L264.458 99.1421L264.376 99.246C261.028 103.726 257.31 105.608 254.908 105.608L254.919 105.62ZM248.361 76.3484L248.546 88.1147C248.592 90.9091 250.809 93.1145 253.603 93.1377H253.95L253.892 97.7565C252.887 101.105 252.691 103.218 253.292 104.211C253.5 104.569 253.822 104.789 254.284 104.881C256.028 105.239 259.978 103.957 263.753 98.9573L262.379 78.2767L254.469 74.1313L248.361 76.3599V76.3484Z" fill="#19243D"/>
<path fill-rule="evenodd" clip-rule="evenodd" d="M263.362 88.6227L259.205 82.6413L260.14 81.6137C260.625 81.094 260.682 80.3089 260.302 79.7084L260.255 79.6392C259.91 79.085 259.216 78.8655 258.604 79.0965C257.958 79.3505 257.472 79.9163 257.346 80.6091L257.114 81.8562C257.057 82.1448 256.802 82.3642 256.502 82.3527C256.214 82.3527 255.902 82.1218 255.96 81.833C256.86 76.7525 253.697 78.5191 253.501 75.5285C252.438 76.1981 250.614 76.383 248.005 76.0827L248.073 79.5699C246.156 77.6762 245.21 75.8518 245.232 74.085C245.256 72.3184 246.029 71.7295 247.565 72.3068C246.941 69.0159 247.703 67.6534 249.886 68.2307C253.154 69.0852 258.985 67.8844 262.761 72.4455C267.16 73.6578 266.398 75.8401 265.914 78.0804C265.591 79.5699 264.747 83.0802 263.35 88.6112L263.362 88.6227Z" fill="#19243D"/>
<path fill-rule="evenodd" clip-rule="evenodd" d="M253.742 93.1493L258.673 93.184L253.719 95.3087L253.742 93.1493Z" fill="#19243D"/>
<path d="M72.1213 112.606C83.5758 110.885 85.0077 106.752 90.6541 91.7867C90.6541 91.7867 91.982 86.9601 93.564 82.9532C94.2683 81.175 95.1344 79.9049 98.2752 79.3967C100.862 78.9812 104.591 76.256 104.591 76.256C102.582 73.2538 99.9264 77.2606 95.6886 76.7756C90.4924 76.1752 88.0562 78.115 86.0815 81.302C84.084 84.5352 82.479 88.4959 80.562 92.4796C78.6453 96.4748 76.4052 101.209 73.7263 101.659" fill="white"/>
<path d="M72.1211 112.952C71.9478 112.952 71.8094 112.825 71.7747 112.664C71.7516 112.479 71.8786 112.294 72.0634 112.271C83.1831 110.597 84.6496 106.694 90.1229 92.2023L90.3191 91.6712C90.3191 91.6712 91.6586 86.81 93.229 82.8378C94.0489 80.7824 95.0765 79.5699 98.2057 79.0619C100.273 78.727 103.182 76.8102 104.095 76.1867C103.206 75.1013 102.224 75.4361 100.504 76.1405C99.1987 76.6832 97.5591 77.353 95.6423 77.122C90.5385 76.5331 88.2522 78.4383 86.3701 81.4867C84.9729 83.75 83.772 86.3711 82.5018 89.1423C81.9707 90.2971 81.4395 91.4633 80.8736 92.6296L80.7814 92.8144C78.8184 96.9019 76.5898 101.532 73.7723 102.006C73.5645 102.04 73.4028 101.913 73.3682 101.717C73.3336 101.532 73.4606 101.348 73.6569 101.313C76.1164 100.897 78.3565 96.2438 80.1578 92.5026L80.2502 92.3178C80.8159 91.1515 81.3471 89.9853 81.8667 88.8422C83.1484 86.0478 84.3609 83.4035 85.7812 81.1057C87.5363 78.2767 89.9496 75.7595 95.7231 76.4176C97.4782 76.614 98.9448 76.0134 100.249 75.4823C101.958 74.7779 103.587 74.1198 104.88 76.0481L105.065 76.3252L104.799 76.5216C104.649 76.637 100.965 79.3043 98.3327 79.72C95.2382 80.2165 94.5106 81.4752 93.8871 83.0687C92.3283 87.0062 91.0119 91.8098 90.9889 91.8559L90.781 92.4217C85.3424 106.844 83.7027 111.197 72.1789 112.941C72.1557 112.941 72.1442 112.941 72.1327 112.941L72.1211 112.952Z" fill="#19243D"/>
<path d="M87.1777 80.0206C87.1084 80.0206 87.0276 79.9975 86.9698 79.9513C86.8197 79.8359 86.785 79.6165 86.9006 79.4664C87.5587 78.5889 88.8636 77.3764 90.2376 76.0947C91.7733 74.6629 93.3668 73.1964 94.1867 72.0533L94.4176 71.7299L94.7063 72.0071C94.7063 72.0071 95.6763 72.9538 95.6647 74.2934C95.6647 75.2171 95.2028 76.0947 94.3252 76.9145C94.1867 77.0415 93.9673 77.0415 93.8402 76.8915C93.7133 76.7528 93.7133 76.5335 93.8634 76.4064C94.5908 75.7252 94.9719 75.0208 94.9719 74.2934C94.9719 73.6583 94.6947 73.1271 94.4753 72.8154C93.5746 73.9354 92.1198 75.2863 90.6995 76.6027C89.3485 77.8614 88.0668 79.0507 87.4433 79.8821C87.3739 79.9745 87.2701 80.0206 87.1662 80.0206H87.1777Z" fill="#19243D"/>
<path fill-rule="evenodd" clip-rule="evenodd" d="M52.6747 79.7663C52.6747 86.0709 52.4438 90.7706 54.3259 94.9852C51.7855 96.4055 48.1945 96.29 44.7188 96.0013L43.541 91.8675L47.9404 79.9741L52.6747 79.7663Z" fill="#19243D"/>
<path fill-rule="evenodd" clip-rule="evenodd" d="M34.5813 102.641L37.9183 82.6879L43.8881 78.7157L49.9965 81.0135L49.7077 92.422C49.6385 95.2164 47.3522 97.445 44.5578 97.445V101.405" fill="white"/>
<path fill-rule="evenodd" clip-rule="evenodd" d="M17.9754 280.499C17.017 282.427 16.6822 285.083 16.9823 288.466C17.271 291.838 17.5713 295.117 17.8599 298.292H19.8459L19.8922 292.116C22.5364 296.261 24.4879 298.327 25.7581 298.339C27.7903 298.35 29.8226 298.362 31.8548 298.385C32.5246 298.385 33.0672 297.854 33.0788 297.185C33.0788 296.399 32.8363 295.626 32.3744 294.99L26.9243 287.531L17.9985 280.499H17.9754Z" fill="#19243D"/>
<path fill-rule="evenodd" clip-rule="evenodd" d="M27.1561 277.093C28.3223 287.577 30.2046 291.642 31.4401 293.835C32.5139 295.752 27.8489 296.583 24.9852 292.738C22.1216 288.905 17.4335 284.794 17.4682 279.102C17.5029 273.408 15.078 261.193 15.078 247.775C14.9164 234.646 18.5074 228.502 22.0755 217.279H35.3545C29.3616 250.061 26.394 270.095 27.1676 277.081L27.1561 277.093Z" fill="white"/>
<path d="M29.7883 295.811C28.2525 295.811 26.2088 294.967 24.7077 292.958C24.1188 292.161 23.449 291.364 22.7447 290.522C20.1004 287.346 17.0866 283.744 17.1213 279.114C17.1328 276.85 16.7518 273.443 16.2899 269.506C15.5971 263.421 14.7311 255.846 14.7311 247.787C14.604 237.579 16.6941 231.667 19.3499 224.172C20.1235 221.991 20.9318 219.727 21.7401 217.187L21.8209 216.944H35.7581L35.6888 217.349C29.2341 252.682 26.7861 270.534 27.502 277.058C28.6105 287.046 30.3541 291.192 31.7397 293.675C32.1208 294.344 31.9591 295.014 31.3356 295.417C30.943 295.671 30.4118 295.811 29.7883 295.811ZM22.329 217.637C21.5438 220.097 20.7702 222.291 20.008 224.404C17.3754 231.829 15.2968 237.694 15.4239 247.787C15.4239 255.812 16.2899 263.363 16.9827 269.425C17.4561 273.548 17.8256 276.816 17.8141 279.114C17.7794 283.489 20.7008 286.989 23.2759 290.083C23.9917 290.937 24.6615 291.734 25.2619 292.543C27.2364 295.187 30.0193 295.441 30.9545 294.84C31.2778 294.632 31.3356 294.367 31.1393 294.02C29.719 291.479 27.9407 287.265 26.8207 277.138C26.0933 270.568 28.5181 252.774 34.9382 217.637H22.329Z" fill="#19243D"/>
<path fill-rule="evenodd" clip-rule="evenodd" d="M45.4373 280.499C44.4789 282.427 44.1441 285.083 44.4442 288.466C44.7329 291.838 45.0331 295.117 45.3218 298.292H47.3079L47.3541 292.116C49.9983 296.261 51.9497 298.327 53.2199 298.339C55.2522 298.35 57.2845 298.362 59.3167 298.385C59.9865 298.385 60.5292 297.854 60.5407 297.185C60.5407 296.399 60.2983 295.626 59.8363 294.99L54.3861 287.531L45.4603 280.499H45.4373Z" fill="#19243D"/>
<path fill-rule="evenodd" clip-rule="evenodd" d="M54.6279 277.093C55.2861 287.624 57.6764 291.642 58.9119 293.835C59.9857 295.752 55.3207 296.583 52.457 292.738C49.5935 288.905 44.9053 284.794 44.94 279.102C44.9747 273.408 38.3352 249.991 37.5962 240.062C36.8687 230.131 36.7417 228.514 40.3097 217.279H53.7157C52.815 226.458 52.434 242.221 54.6279 277.081V277.093Z" fill="white"/>
<path d="M57.2499 295.811C55.7141 295.811 53.6704 294.967 52.1691 292.958C51.5803 292.161 50.9106 291.364 50.2062 290.522C47.562 287.346 44.5482 283.744 44.5829 279.114C44.6059 276.399 43.0356 269.413 41.3843 262.023C39.6176 254.16 37.6316 245.258 37.2506 240.096C36.5231 230.223 36.3961 228.457 39.9756 217.187L40.0565 216.944H54.0976L54.0629 217.326C53.3239 224.924 52.608 239.392 54.9751 277.081C55.6102 287.265 57.8965 291.329 59.1204 293.513L59.2128 293.685C59.5939 294.355 59.4322 295.025 58.8087 295.429C58.4161 295.683 57.8849 295.821 57.2614 295.821L57.2499 295.811ZM40.553 217.637C37.0889 228.561 37.2044 230.131 37.9319 239.969C38.3129 245.154 40.2989 254.033 42.0541 261.873C43.7168 269.31 45.2872 276.331 45.2757 279.125C45.241 283.501 48.1624 287 50.7374 290.095C51.4533 290.949 52.1231 291.746 52.7235 292.554C54.7095 295.209 57.4924 295.452 58.4161 294.852C58.7394 294.644 58.7971 294.378 58.6009 294.032L58.5085 293.858C57.2614 291.629 54.9289 287.484 54.2823 277.138C51.9498 240.015 52.5965 225.386 53.3354 217.661H40.5645L40.553 217.637Z" fill="#19243D"/>
<path fill-rule="evenodd" clip-rule="evenodd" d="M36.1512 92.6645C36.9594 92.2603 37.7793 91.5329 38.6338 90.4821C39.4768 89.4313 39.7192 88.3113 39.3613 87.1335L38.4837 86.152C38.0334 85.6555 37.9755 84.905 38.3451 84.3391C38.7146 83.7733 39.4074 83.5308 40.0425 83.7387C45.3657 83.8657 47.294 82.7341 48.518 80.7249C48.7489 81.36 49.2223 81.7295 49.7535 81.9258L49.9151 84.3276C51.7627 82.965 52.6864 81.4524 52.6864 79.778C52.6864 78.6695 52.1552 76.7182 49.996 77.2377C50.0653 75.448 49.2223 74.2124 47.5249 73.9007C45.2501 73.4735 38.6106 73.5658 35.3891 76.5796C32.3753 79.397 31.0474 82.2376 32.0058 86.2674C32.3406 87.6762 33.7263 89.8124 36.1627 92.6875L36.1512 92.6645Z" fill="#19243D"/>
<path fill-rule="evenodd" clip-rule="evenodd" d="M44.2568 97.1214H39.5918L44.2568 99.1768V97.1214Z" fill="#19243D"/>
<path fill-rule="evenodd" clip-rule="evenodd" d="M34.6042 102.999L35.1122 99.9623L44.5922 99.8467V103.565" fill="#ADDAF6"/>
<path d="M34.5811 102.988C34.5811 102.988 34.5464 102.988 34.5234 102.988C34.3386 102.953 34.2116 102.78 34.2346 102.583L37.6064 82.4802L43.8417 78.3348L50.3543 80.7828L50.0655 92.4336C49.9963 95.3204 47.7562 97.6183 44.9156 97.7914V101.406C44.9156 101.602 44.7656 101.752 44.5692 101.752C44.3729 101.752 44.2228 101.602 44.2228 101.406V97.1101H44.5692C47.202 97.1101 49.315 95.0549 49.3727 92.4221L49.6499 81.2677L43.9341 79.12L38.2415 82.9074L34.9274 102.71C34.9044 102.884 34.7543 102.999 34.5811 102.999V102.988Z" fill="#19243D"/>
<path fill-rule="evenodd" clip-rule="evenodd" d="M30.5742 103.022C24.4891 103.68 19.7086 105.331 16.2214 107.987C12.7458 110.643 7.37641 118.818 1.57983 134.152L18.5192 137.859L21.5792 130.458C24.4428 135.688 24.8469 137.917 24.8469 141.047C24.8469 142.097 18.346 159.163 16.8103 173.562C15.2745 187.962 15.0089 219.392 15.0089 219.392L58.772 219.542C58.772 219.542 67.6631 200.825 56.6011 143.968L53.9453 133.668L55.6197 132.328C58.5064 130.007 59.7419 126.197 58.7489 122.629L57.7905 119.153L75.3534 112.71V98.8651L30.5859 103.022H30.5742Z" fill="#ADDAF6"/>
<path d="M37.9488 154.596L31.3394 167.207C30.6378 168.546 31.1542 170.2 32.493 170.902L36.41 172.954C37.7486 173.656 39.4026 173.14 40.1043 171.801L46.7136 159.19C47.4153 157.852 46.8989 156.198 45.5601 155.496L41.6431 153.443C40.3044 152.742 38.6505 153.258 37.9488 154.596Z" fill="#E7EDF0"/>
<path fill-rule="evenodd" clip-rule="evenodd" d="M43.1949 164.245C44.8229 164.313 45.4465 162.558 44.8229 161.957C44.8229 161.957 40.4005 161.127 36.1974 158.101L37.0403 156.461C33.5531 155.803 33.2183 156.565 30.9205 156.242C28.6225 155.918 16.048 144.983 15.6553 143.448C15.1473 141.415 17.4219 137.028 17.5721 136.578L4.91664 133.229C3.64647 136.161 2.26084 144.383 3.9236 148.471C7.96504 158.379 27.9067 162.304 30.5393 165.434C35.0773 170.814 39.0495 170.421 40.1811 170.283C41.2202 170.156 41.7976 169.279 41.3935 168.517L41.4513 168.285C42.4327 168.078 43.3218 167.328 42.6521 166.426L42.5366 166.404C44.1186 166.311 44.0724 164.948 43.4488 164.405L43.1602 164.267L43.1949 164.245Z" fill="white"/>
<path d="M36.8444 156.704C36.8444 156.704 36.7982 156.704 36.7751 156.704C34.8352 156.335 33.9692 156.438 33.1378 156.542C32.4912 156.623 31.8676 156.692 30.84 156.542C28.3573 156.196 15.6788 145.053 15.2977 143.483C14.8474 141.659 16.3717 138.321 17.0183 136.89C17.1222 136.647 17.203 136.485 17.2261 136.416C17.2838 136.231 17.4801 136.138 17.6649 136.196C17.8496 136.255 17.942 136.45 17.8842 136.635C17.8612 136.716 17.7688 136.9 17.6534 137.178C17.0875 138.425 15.5749 141.727 15.979 143.309C16.2908 144.545 28.7384 155.538 30.9554 155.85C31.8908 155.976 32.4334 155.918 33.0685 155.838C33.9115 155.733 34.8699 155.618 36.9136 156C37.0984 156.035 37.2254 156.22 37.1907 156.403C37.1562 156.565 37.0176 156.68 36.8559 156.68L36.8444 156.704Z" fill="#19243D"/>
<path d="M39.201 170.641C35.3673 170.641 32.2727 167.963 30.2752 165.607C29.4553 164.637 26.5801 163.471 23.243 162.119C16.1185 159.244 6.34979 155.296 3.60162 148.552C1.88112 144.338 3.26676 136.116 4.59466 133.044C4.67548 132.871 4.87178 132.79 5.04498 132.859C5.21819 132.94 5.29903 133.136 5.22975 133.31C3.98267 136.208 2.62012 144.303 4.23671 148.286C6.88095 154.764 16.488 158.644 23.497 161.472C27.0535 162.904 29.8595 164.048 30.7947 165.157C32.8501 167.593 36.1295 170.376 40.1247 169.879C40.5634 169.821 40.9214 169.614 41.0831 169.302C41.164 169.152 41.2332 168.897 41.0831 168.608C40.9907 168.435 41.06 168.228 41.2332 168.147C41.3949 168.066 41.6142 168.123 41.6951 168.297C41.9145 168.725 41.9145 169.209 41.6951 169.625C41.4295 170.133 40.8752 170.491 40.2171 170.571C39.8706 170.618 39.5243 170.641 39.1893 170.641H39.201Z" fill="#19243D"/>
<path d="M40.3193 168.69C38.1253 168.69 36.4741 167.511 36.3933 167.454C36.2432 167.338 36.2085 167.119 36.3124 166.969C36.4279 166.819 36.6472 166.784 36.7974 166.888C36.8205 166.899 38.9105 168.4 41.3816 167.881C41.9243 167.766 42.3861 167.466 42.5132 167.154C42.5824 166.969 42.5362 166.784 42.3861 166.576C42.2706 166.426 42.3053 166.207 42.4554 166.092C42.6056 165.976 42.825 166.011 42.9404 166.161C43.3214 166.669 43.2752 167.119 43.1713 167.396C42.9289 168.055 42.1667 168.425 41.5316 168.563C41.116 168.655 40.7118 168.69 40.3193 168.69Z" fill="#19243D"/>
<path d="M42.0286 166.704C39.2458 166.704 37.4329 165.387 37.3521 165.329C37.2021 165.214 37.1674 164.995 37.2828 164.845C37.3983 164.695 37.6176 164.66 37.7678 164.775C37.7909 164.787 39.7192 166.184 42.5252 165.999C42.883 165.976 43.345 165.872 43.4836 165.469C43.576 165.179 43.4836 164.81 43.241 164.602C43.1025 164.475 43.0794 164.255 43.2065 164.117C43.3334 163.978 43.5528 163.955 43.6914 164.083C44.1417 164.475 44.3265 165.145 44.1417 165.699C43.9454 166.288 43.3681 166.646 42.5714 166.692C42.3866 166.692 42.2134 166.704 42.0402 166.704H42.0286Z" fill="#19243D"/>
<path d="M43.2645 164.545C43.2645 164.545 43.1951 164.545 43.1489 164.545C40.932 164.452 38.5995 163.378 38.4956 163.331C38.3223 163.251 38.2415 163.043 38.3224 162.869C38.4032 162.696 38.611 162.616 38.7842 162.696C38.8074 162.696 41.0937 163.758 43.1721 163.84C44.119 163.875 44.4885 163.205 44.5808 162.996C44.7078 162.696 44.7194 162.396 44.6039 162.212C43.7263 162.062 38.969 161.15 35.8975 158.389C35.7589 158.262 35.7474 158.044 35.8743 157.904C36.0014 157.767 36.2208 157.754 36.3594 157.882C39.5232 160.722 44.7771 161.554 44.8348 161.554H44.9503L45.0312 161.646C45.4122 162.015 45.4814 162.651 45.2158 163.274C44.9503 163.886 44.2921 164.533 43.2528 164.533L43.2645 164.545Z" fill="#19243D"/>
<path fill-rule="evenodd" clip-rule="evenodd" d="M16.2214 107.987C12.7458 110.643 7.37641 118.818 1.57983 134.152L18.5192 137.859L21.5792 130.457L16.2329 107.975L16.2214 107.987Z" fill="#ADDAF6"/>
<path fill-rule="evenodd" clip-rule="evenodd" d="M39.3611 87.1216C39.7653 88.0568 39.6152 93.4954 40.2734 95.1236C40.2734 95.1236 36.4629 96.6478 28.9919 96.1859C28.9919 96.1859 29.3499 83.5305 33.3567 78.7038C37.3751 73.8771 37.3751 79.4659 37.3751 79.4659L36.6592 87.0407L39.3496 87.1216H39.3611Z" fill="#19243D"/>
<path d="M2.39926 76.1292C3.71934 76.1292 4.78948 75.0589 4.78948 73.7389C4.78948 72.4188 3.71934 71.3487 2.39926 71.3487C1.07917 71.3487 0.0090332 72.4188 0.0090332 73.7389C0.0090332 75.0589 1.07917 76.1292 2.39926 76.1292Z" fill="#E7EDF0"/>
<path d="M189.403 8.29073C189.206 8.29073 189.056 8.14061 189.056 7.94431C189.056 6.2931 187.243 4.49176 185.603 4.49176C185.406 4.49176 185.256 4.34166 185.256 4.14536C185.256 3.94906 185.406 3.79895 185.603 3.79895C187.255 3.79895 189.056 1.98608 189.056 0.346409C189.056 0.150111 189.206 0 189.403 0C189.598 0 189.748 0.150111 189.748 0.346409C189.748 1.99763 191.562 3.79895 193.201 3.79895C193.398 3.79895 193.548 3.94906 193.548 4.14536C193.548 4.34166 193.398 4.49176 193.201 4.49176C191.55 4.49176 189.748 6.30465 189.748 7.94431C189.748 8.14061 189.598 8.29073 189.403 8.29073ZM187.058 4.14536C188.051 4.60724 188.941 5.49636 189.403 6.48939C189.864 5.49636 190.753 4.60724 191.747 4.14536C190.753 3.68348 189.864 2.79437 189.403 1.80133C188.941 2.79437 188.051 3.68348 187.058 4.14536Z" fill="#19243D"/>
<path d="M175.765 214.046C173.964 214.046 172.497 212.579 172.497 210.778C172.497 208.977 173.964 207.51 175.765 207.51C177.566 207.51 179.033 208.977 179.033 210.778C179.033 212.579 177.566 214.046 175.765 214.046ZM175.765 208.192C174.344 208.192 173.189 209.346 173.189 210.766C173.189 212.187 174.344 213.342 175.765 213.342C177.185 213.342 178.34 212.187 178.34 210.766C178.34 209.346 177.185 208.192 175.765 208.192Z" fill="#19243D"/>
<path d="M87.154 154.579C86.9577 154.579 86.8076 154.429 86.8076 154.233V151.578C86.8076 151.381 86.9577 151.231 87.154 151.231C87.3503 151.231 87.5004 151.381 87.5004 151.578V154.233C87.5004 154.429 87.3503 154.579 87.154 154.579Z" fill="#19243D"/>
<path d="M84.3947 155.746C84.3023 155.746 84.2216 155.711 84.1523 155.641L82.2816 153.771C82.1431 153.632 82.1431 153.413 82.2816 153.287C82.4202 153.159 82.6396 153.147 82.7665 153.287L84.6373 155.156C84.7757 155.296 84.7757 155.515 84.6373 155.641C84.5679 155.711 84.4871 155.746 84.3947 155.746Z" fill="#19243D"/>
<path d="M83.2631 158.529H80.6073C80.4111 158.529 80.261 158.379 80.261 158.182C80.261 157.986 80.4111 157.836 80.6073 157.836H83.2631C83.4595 157.836 83.6096 157.986 83.6096 158.182C83.6096 158.379 83.4595 158.529 83.2631 158.529Z" fill="#19243D"/>
<path d="M82.5594 163.158C82.467 163.158 82.3861 163.124 82.3169 163.055C82.1782 162.916 82.1782 162.696 82.3169 162.569L84.1874 160.7C84.326 160.56 84.5454 160.56 84.6724 160.7C84.7995 160.837 84.811 161.057 84.6724 161.184L82.8018 163.055C82.7326 163.124 82.6517 163.158 82.5594 163.158Z" fill="#19243D"/>
<path d="M87.2108 165.064C87.0145 165.064 86.8645 164.914 86.8645 164.717V162.062C86.8645 161.866 87.0145 161.716 87.2108 161.716C87.4072 161.716 87.5573 161.866 87.5573 162.062V164.717C87.5573 164.914 87.4072 165.064 87.2108 165.064Z" fill="#19243D"/>
<path d="M91.8432 163.113C91.7509 163.113 91.67 163.078 91.6008 163.008L89.7302 161.138C89.5916 161 89.5916 160.78 89.7302 160.653C89.8687 160.525 90.088 160.515 90.2151 160.653L92.0857 162.524C92.2243 162.662 92.2243 162.881 92.0857 163.008C92.0165 163.078 91.9356 163.113 91.8432 163.113Z" fill="#19243D"/>
<path d="M93.7479 158.471H91.0921C90.8957 158.471 90.7456 158.321 90.7456 158.124C90.7456 157.927 90.8957 157.777 91.0921 157.777H93.7479C93.9441 157.777 94.0942 157.927 94.0942 158.124C94.0942 158.321 93.9441 158.471 93.7479 158.471Z" fill="#19243D"/>
<path d="M89.9138 155.711C89.8214 155.711 89.7405 155.676 89.6712 155.608C89.5328 155.468 89.5328 155.249 89.6712 155.121L91.5533 153.252C91.692 153.113 91.9113 153.113 92.0384 153.252C92.1769 153.39 92.1769 153.609 92.0384 153.737L90.1562 155.608C90.087 155.676 89.9945 155.711 89.9138 155.711Z" fill="#19243D"/>
<path d="M13.2529 56.8339H43.0325L52.247 63.4734V56.8339H52.8705C55.5841 56.8339 57.7781 54.64 57.7781 51.9265V25.5533C57.7781 22.8398 55.5841 20.6458 52.8705 20.6458H13.2529C10.5394 20.6458 8.34546 22.8398 8.34546 25.5533V51.9265C8.34546 54.64 10.5394 56.8339 13.2529 56.8339Z" fill="#FFE476"/>
<path d="M276.247 57.8388H236.33L223.975 66.7299V57.8388L223.131 52.4464C219.495 52.4464 216.55 49.5019 216.55 45.8646V31.5695C216.55 27.9321 219.495 24.9877 223.131 24.9877H276.247C279.885 24.9877 282.83 27.9321 282.83 31.5695V51.257C282.83 54.8944 279.885 57.8388 276.247 57.8388Z" fill="#ADDAF6"/>
<path d="M272.693 54.4438H232.901L220.592 63.3119V54.4438H219.75C216.124 54.4438 213.191 51.5109 213.191 47.8852V28.2553C213.191 24.6296 216.124 21.6967 219.75 21.6967H272.704C276.329 21.6967 279.262 24.6296 279.262 28.2553V47.8852C279.262 51.5109 276.329 54.4438 272.704 54.4438H272.693Z" fill="#0785D8"/>
<path d="M268.121 31.6039H220.583C220.386 31.6039 220.236 31.4538 220.236 31.2576C220.236 31.0613 220.386 30.9111 220.583 30.9111H268.121C268.318 30.9111 268.468 31.0613 268.468 31.2576C268.468 31.4538 268.318 31.6039 268.121 31.6039Z" fill="white"/>
<path d="M267.405 37.5388H220.583C220.386 37.5388 220.236 37.3887 220.236 37.1925C220.236 36.9962 220.386 36.846 220.583 36.846H267.405C267.601 36.846 267.751 36.9962 267.751 37.1925C267.751 37.3887 267.601 37.5388 267.405 37.5388Z" fill="white"/>
<path d="M248.836 43.4859H220.569C220.372 43.4859 220.222 43.3358 220.222 43.1395C220.222 42.9431 220.372 42.793 220.569 42.793H248.836C249.032 42.793 249.183 42.9431 249.183 43.1395C249.183 43.3358 249.032 43.4859 248.836 43.4859Z" fill="white"/>
<path d="M36.0819 52.504C33.149 52.504 32.283 51.6841 30.3085 49.8482L30.2161 49.7673L24.9275 44.525C24.5696 44.1786 24.3733 43.7052 24.3733 43.2087C24.3733 42.7121 24.558 42.2387 24.916 41.8808C25.6435 41.1533 26.8328 41.1418 27.5603 41.8691L30.3085 44.5943V32.9665C30.3085 31.9387 31.1513 31.0959 32.1791 31.0959C33.2067 31.0959 34.0496 31.9387 34.0496 32.9665V42.7353C34.0496 42.9315 33.8995 43.0816 33.7033 43.0816C33.507 43.0816 33.3568 42.9315 33.3568 42.7353V32.9665C33.3568 32.3199 32.8257 31.7887 32.1791 31.7887C31.5324 31.7887 31.0013 32.3199 31.0013 32.9665V46.257L27.0753 42.3658C26.6134 41.9038 25.8628 41.9154 25.4009 42.3658C25.1815 42.5851 25.0546 42.8854 25.0546 43.2087C25.0546 43.5204 25.1815 43.8206 25.4009 44.04L30.7703 49.3516C32.7449 51.1991 33.4607 51.9035 36.5207 51.8112C38.7608 51.7533 42.5252 50.9336 42.5252 46.0954V40.853C42.5252 40.2064 41.994 39.6753 41.3473 39.6753C40.7007 39.6753 40.1695 40.2064 40.1695 40.853V42.7353C40.1695 42.9315 40.0194 43.0816 39.8232 43.0816C39.6268 43.0816 39.4767 42.9315 39.4767 42.7353V40.853C39.4767 39.8254 40.3196 38.9824 41.3473 38.9824C42.375 38.9824 43.218 39.8254 43.218 40.853V46.0954C43.218 50.0559 40.7815 52.3884 36.5438 52.504C36.3821 52.504 36.2205 52.504 36.0703 52.504H36.0819Z" fill="#19243D"/>
<path d="M36.7742 43.0815C36.5779 43.0815 36.4277 42.9313 36.4277 42.735V39.2247C36.4277 38.5781 35.8966 38.047 35.25 38.047C34.6034 38.047 34.0722 38.5781 34.0722 39.2247V42.735C34.0722 42.9313 33.9221 43.0815 33.7259 43.0815C33.5295 43.0815 33.3794 42.9313 33.3794 42.735V39.2247C33.3794 38.1856 34.2223 37.3542 35.25 37.3542C36.2777 37.3542 37.1206 38.1971 37.1206 39.2247V42.735C37.1206 42.9313 36.9706 43.0815 36.7742 43.0815Z" fill="#19243D"/>
<path d="M39.8348 43.0819C39.6384 43.0819 39.4883 42.9317 39.4883 42.7354V39.9873C39.4883 39.3407 38.9571 38.8096 38.3105 38.8096C37.6639 38.8096 37.1328 39.3407 37.1328 39.9873V42.7354C37.1328 42.9317 36.9826 43.0819 36.7863 43.0819C36.5899 43.0819 36.4399 42.9317 36.4399 42.7354V39.9873C36.4399 38.948 37.2828 38.1166 38.3105 38.1166C39.3382 38.1166 40.1811 38.9596 40.1811 39.9873V42.7354C40.1811 42.9317 40.031 43.0819 39.8348 43.0819Z" fill="#19243D"/>
<path d="M28.9924 29.8951C28.8769 29.8951 28.7498 29.8374 28.6921 29.7218L27.0756 26.8929C26.9832 26.7312 27.0409 26.5118 27.2026 26.4194C27.3642 26.327 27.5836 26.3849 27.676 26.5465L29.2925 29.3755C29.3849 29.5371 29.3272 29.7565 29.1656 29.8489C29.1078 29.8835 29.0501 29.8951 28.9924 29.8951Z" fill="#19243D"/>
<path d="M27.5837 32.2157C27.5837 32.2157 27.5144 32.2157 27.4797 32.2042L24.3737 31.1996C24.189 31.1419 24.0966 30.9455 24.1543 30.7609C24.212 30.576 24.4084 30.4838 24.593 30.5415L27.6992 31.5461C27.8839 31.6038 27.9763 31.8 27.9186 31.9848C27.8724 32.135 27.7338 32.2272 27.5837 32.2272V32.2157Z" fill="#19243D"/>
<path d="M24.7203 35.9111C24.5816 35.9111 24.4547 35.8303 24.397 35.6917C24.3276 35.5185 24.42 35.3107 24.5932 35.2413L27.4568 34.1213C27.63 34.052 27.8379 34.1444 27.9072 34.3176C27.9765 34.4908 27.8841 34.6986 27.7109 34.768L24.8472 35.888C24.8472 35.888 24.7665 35.9111 24.7203 35.9111Z" fill="#19243D"/>
<path d="M34.9271 29.9296C34.8462 29.9296 34.7654 29.9064 34.6962 29.8487C34.5461 29.7217 34.5345 29.5022 34.6615 29.3637L36.7862 26.8926C36.9131 26.7426 37.1325 26.7309 37.2711 26.858C37.4212 26.985 37.4328 27.2044 37.3058 27.343L35.1812 29.814C35.1118 29.8949 35.0195 29.9296 34.9156 29.9296H34.9271Z" fill="#19243D"/>
<path d="M36.1748 32.2854C36.0131 32.2854 35.863 32.1699 35.8399 31.9967C35.8053 31.8119 35.9322 31.6272 36.117 31.5925L39.327 31.0153C39.5119 30.9691 39.6966 31.1076 39.7312 31.2924C39.7659 31.4771 39.6388 31.6619 39.4541 31.6965L36.244 32.2738C36.244 32.2738 36.1978 32.2738 36.1863 32.2738L36.1748 32.2854Z" fill="#19243D"/>
<path d="M32.0753 29.2255C31.879 29.2255 31.7288 29.0638 31.7404 28.8675L31.7982 25.796C31.7982 25.6113 31.9599 25.4612 32.1446 25.4612C32.3409 25.4612 32.491 25.6228 32.4794 25.8192L32.4217 28.8905C32.4217 29.0754 32.26 29.2255 32.0753 29.2255Z" fill="#19243D"/>
</g>
<defs>
<clipPath id="clip0_14_1531">
<rect width="295.982" height="300" fill="white" transform="translate(0.0090332)"/>
</clipPath>
</defs>
</svg>
