<svg width="163" height="113" viewBox="0 0 163 113" fill="none" xmlns="http://www.w3.org/2000/svg">
<path d="M150.54 53.5501C151.971 53.5501 153.13 52.3905 153.13 50.9601C153.13 49.5297 151.971 48.3701 150.54 48.3701C149.11 48.3701 147.95 49.5297 147.95 50.9601C147.95 52.3905 149.11 53.5501 150.54 53.5501Z" stroke="#19243D" stroke-width="0.75" stroke-linecap="round" stroke-linejoin="round"/>
<path d="M65.5602 4.88012C66.5985 4.88012 67.4402 4.03841 67.4402 3.00012C67.4402 1.96182 66.5985 1.12012 65.5602 1.12012C64.5219 1.12012 63.6802 1.96182 63.6802 3.00012C63.6802 4.03841 64.5219 4.88012 65.5602 4.88012Z" stroke="#19243D" stroke-width="0.75" stroke-linecap="round" stroke-linejoin="round"/>
<path d="M54.33 15.1301C56.7379 15.1301 58.69 13.1781 58.69 10.7701C58.69 8.36219 56.7379 6.41016 54.33 6.41016C51.922 6.41016 49.97 8.36219 49.97 10.7701C49.97 13.1781 51.922 15.1301 54.33 15.1301Z" fill="#EFEEFF"/>
<path d="M139.18 38.5401C141.516 38.5401 143.41 36.6462 143.41 34.3101C143.41 31.9739 141.516 30.0801 139.18 30.0801C136.844 30.0801 134.95 31.9739 134.95 34.3101C134.95 36.6462 136.844 38.5401 139.18 38.5401Z" fill="#EFEEFF"/>
<path d="M124.49 43.0303H88.6701V39.9003C88.6701 38.4703 87.5101 37.3203 86.0901 37.3203H43.4401C42.0101 37.3203 40.8601 38.4803 40.8601 39.9003V43.0303H36.9201C33.9901 43.0303 31.6201 45.4003 31.6201 48.3303V103.6C31.6201 106.53 33.9901 108.9 36.9201 108.9H120.95C125.84 108.9 129.8 104.94 129.8 100.05V48.3303C129.8 45.4003 127.43 43.0303 124.5 43.0303H124.49Z" fill="#B1ACFF"/>
<path d="M117.15 35.6905H81.33V32.5605C81.33 31.1305 80.17 29.9805 78.75 29.9805H36.1C34.67 29.9805 33.52 31.1405 33.52 32.5605V35.6905H29.58C26.65 35.6905 24.28 38.0605 24.28 40.9905V96.2605C24.28 99.1905 26.65 101.56 29.58 101.56H117.16C120.09 101.56 122.46 99.1905 122.46 96.2605V40.9905C122.46 38.0605 120.09 35.6905 117.16 35.6905H117.15Z" fill="#EFEEFF" stroke="#19243D" stroke-width="0.75" stroke-linecap="round" stroke-linejoin="bevel"/>
<path d="M117.15 40.2104H29.57C26.6429 40.2104 24.27 42.5833 24.27 45.5105V96.2505C24.27 99.1776 26.6429 101.55 29.57 101.55H117.15C120.077 101.55 122.45 99.1776 122.45 96.2505V45.5105C122.45 42.5833 120.077 40.2104 117.15 40.2104Z" fill="white" stroke="#19243D" stroke-width="0.75" stroke-linecap="round"/>
<path d="M126.322 80.9289L123.24 85.1665L143.741 100.078L146.823 95.84L126.322 80.9289Z" fill="#6359FF"/>
<path d="M95.3301 61.6402C88.8701 70.5302 90.8301 82.9702 99.7201 89.4402C108.61 95.9002 121.05 93.9402 127.52 85.0502C133.98 76.1602 132.02 63.7202 123.13 57.2502C114.24 50.7902 101.8 52.7502 95.3301 61.6402ZM123.82 82.3602C118.84 89.2102 109.25 90.7202 102.4 85.7402C95.5501 80.7602 94.0401 71.1702 99.0201 64.3202C104 57.4702 113.59 55.9602 120.44 60.9402C127.29 65.9202 128.8 75.5102 123.82 82.3602Z" fill="#19243D"/>
<path opacity="0.85" d="M123.812 82.3513C128.792 75.5044 127.278 65.9167 120.431 60.9366C113.584 55.9565 103.997 57.4699 99.0165 64.3168C94.0364 71.1638 95.5498 80.7515 102.397 85.7316C109.244 90.7117 118.831 89.1983 123.812 82.3513Z" fill="white"/>
<path d="M133.05 94.8735L138.573 87.2798L160.489 103.22C161.492 103.95 161.707 105.355 160.983 106.349L158.101 110.312C157.371 111.315 155.966 111.529 154.972 110.806L133.056 94.8654L133.05 94.8735Z" fill="#19243D"/>
<path d="M137.077 86.1948L131.554 93.7886L133.56 95.2473L139.083 87.6536L137.077 86.1948Z" fill="#6359FF"/>
<path d="M98.7702 15.8203L94.2002 20.3803" stroke="#19243D" stroke-width="0.75" stroke-linecap="round"/>
<path d="M98.7702 20.3803L94.2002 15.8203" stroke="#19243D" stroke-width="0.75" stroke-linecap="round"/>
<path d="M6.19012 59.4004L1.62012 63.9604" stroke="#19243D" stroke-width="0.75" stroke-linecap="round"/>
<path d="M6.19012 63.9604L1.62012 59.4004" stroke="#19243D" stroke-width="0.75" stroke-linecap="round"/>
<path d="M5.42009 24.8502H13.6001L22.6601 31.3802V24.8502H23.2801C25.9501 24.8502 28.1101 22.6902 28.1101 20.0202V5.57023C28.1101 2.90023 25.9501 0.740234 23.2801 0.740234H5.42009C2.75009 0.740234 0.590088 2.90023 0.590088 5.57023V20.0202C0.590088 22.6902 2.75009 24.8502 5.42009 24.8502Z" fill="#6359FF"/>
<path d="M18.9002 8.11035L9.21021 17.8004" stroke="white" stroke-width="0.75" stroke-linecap="round"/>
<path d="M18.8303 17.7202L9.28027 8.18018" stroke="white" stroke-width="0.75" stroke-linecap="round"/>
<path d="M22.09 90.6904L20.43 87.5604L14.86 91.9404L12.52 88.9604L18.1 84.5904L15.45 82.2304L26.1 80.7104L22.09 90.6904Z" fill="#B1ACFF"/>
<path d="M22.79 88.2603L21.13 85.1303L15.55 89.5103L13.22 86.5303L18.8 82.1603L16.15 79.8003L26.8 78.2803L22.79 88.2603Z" fill="white" stroke="#19243D" stroke-width="0.75" stroke-linecap="round"/>
</svg>
