<svg width="291" height="200" viewBox="0 0 291 200" fill="none" xmlns="http://www.w3.org/2000/svg">
<path d="M269.232 95.3583C266.377 95.3583 264.043 93.0242 264.043 90.1694C264.043 87.3146 266.377 84.9805 269.232 84.9805C272.087 84.9805 274.421 87.3146 274.421 90.1694C274.421 93.0242 272.087 95.3583 269.232 95.3583ZM269.232 86.0577C266.97 86.0577 265.12 87.9071 265.12 90.1694C265.12 92.4317 266.97 94.281 269.232 94.281C271.494 94.281 273.344 92.4317 273.344 90.1694C273.344 87.9071 271.494 86.0577 269.232 86.0577Z" fill="#19243D"/>
<path d="M116.652 7.97277C114.498 7.97277 112.738 6.21321 112.738 4.05865C112.738 1.90409 114.498 0.144531 116.652 0.144531C118.807 0.144531 120.567 1.90409 120.567 4.05865C120.567 6.21321 118.807 7.97277 116.652 7.97277ZM116.652 1.20386C115.09 1.20386 113.816 2.47864 113.816 4.0407C113.816 5.60276 115.09 6.87754 116.652 6.87754C118.214 6.87754 119.489 5.60276 119.489 4.0407C119.489 2.47864 118.214 1.20386 116.652 1.20386Z" fill="#19243D"/>
<path d="M96.4884 25.8362C100.812 25.8362 104.317 22.3313 104.317 18.0079C104.317 13.6845 100.812 10.1797 96.4884 10.1797C92.165 10.1797 88.6602 13.6845 88.6602 18.0079C88.6602 22.3313 92.165 25.8362 96.4884 25.8362Z" fill="#E7EDF0"/>
<path d="M248.835 67.8693C253.03 67.8693 256.43 64.469 256.43 60.2745C256.43 56.08 253.03 52.6797 248.835 52.6797C244.641 52.6797 241.24 56.08 241.24 60.2745C241.24 64.469 244.641 67.8693 248.835 67.8693Z" fill="#E7EDF0"/>
<path d="M222.456 75.9279H158.142V70.3081C158.142 67.7406 156.06 65.6758 153.51 65.6758H76.9334C74.3658 65.6758 72.3011 67.7585 72.3011 70.3081V75.9279H65.2269C59.9662 75.9279 55.7109 80.1832 55.7109 85.4439V184.679C55.7109 189.94 59.9662 194.195 65.2269 194.195H216.1C224.88 194.195 231.99 187.085 231.99 178.305V85.4439C231.99 80.1832 227.735 75.9279 222.474 75.9279H222.456Z" fill="#ADDAF6"/>
<path d="M209.276 62.7482H144.963V57.1284C144.963 54.5609 142.88 52.4961 140.33 52.4961H63.7537C61.1862 52.4961 59.1214 54.5788 59.1214 57.1284V62.7482H52.0472C46.7865 62.7482 42.5312 67.0035 42.5312 72.2642V171.5C42.5312 176.76 46.7865 181.016 52.0472 181.016H209.294C214.555 181.016 218.81 176.76 218.81 171.5V72.2642C218.81 67.0035 214.555 62.7482 209.294 62.7482H209.276Z" fill="#E7EDF0"/>
<path d="M209.278 181.538H52.0312C46.4832 181.538 41.9766 177.032 41.9766 171.484V72.2482C41.9766 66.7002 46.4832 62.1935 52.0312 62.1935H58.5846V57.1124C58.5846 54.2576 60.9008 51.9414 63.7556 51.9414H140.332C143.187 51.9414 145.503 54.2576 145.503 57.1124V62.1935H209.278C214.826 62.1935 219.333 66.7002 219.333 72.2482V171.484C219.333 177.032 214.826 181.538 209.278 181.538ZM52.0312 63.2708C47.0757 63.2708 43.0538 67.2927 43.0538 72.2482V171.484C43.0538 176.439 47.0757 180.461 52.0312 180.461H209.278C214.234 180.461 218.256 176.439 218.256 171.484V72.2482C218.256 67.2927 214.234 63.2708 209.278 63.2708H144.965L144.426 62.7322V57.1124C144.426 54.8501 142.595 53.0187 140.332 53.0187H63.7556C61.4933 53.0187 59.6619 54.8501 59.6619 57.1124V62.7322L59.1233 63.2708H52.0312Z" fill="#19243D"/>
<path d="M209.279 70.8633H52.0316C46.7761 70.8633 42.5156 75.1237 42.5156 80.3793V171.481C42.5156 176.737 46.7761 180.997 52.0316 180.997H209.279C214.534 180.997 218.795 176.737 218.795 171.481V80.3793C218.795 75.1237 214.534 70.8633 209.279 70.8633Z" fill="white"/>
<path d="M209.278 181.539H52.0312C46.4832 181.539 41.9766 177.033 41.9766 171.485V80.3827C41.9766 74.8347 46.4832 70.3281 52.0312 70.3281H209.278C214.826 70.3281 219.333 74.8347 219.333 80.3827V171.485C219.333 177.033 214.826 181.539 209.278 181.539ZM52.0312 71.4054C47.0757 71.4054 43.0538 75.4273 43.0538 80.3827V171.485C43.0538 176.44 47.0757 180.462 52.0312 180.462H209.278C214.234 180.462 218.256 176.44 218.256 171.485V80.3827C218.256 75.4273 214.234 71.4054 209.278 71.4054H52.0312Z" fill="#19243D"/>
<path d="M225.747 143.977L220.213 151.586L257.021 178.358L262.555 170.75L225.747 143.977Z" fill="#0785D8"/>
<path d="M170.101 109.344C158.502 125.306 162.021 147.642 177.983 159.258C193.945 170.857 216.28 167.338 227.897 151.376C239.496 135.415 235.977 113.079 220.015 101.462C204.053 89.8635 181.718 93.3827 170.101 109.344ZM221.254 146.546C212.312 158.845 195.094 161.557 182.795 152.615C170.496 143.674 167.785 126.455 176.726 114.156C185.668 101.857 202.886 99.1461 215.185 108.088C227.484 117.029 230.195 134.248 221.254 146.546Z" fill="#19243D"/>
<g opacity="0.85">
<path d="M221.24 146.531C230.182 134.238 227.464 117.023 215.171 108.082C202.877 99.1401 185.663 101.857 176.721 114.151C167.78 126.444 170.497 143.659 182.791 152.6C195.084 161.542 212.298 158.825 221.24 146.531Z" fill="white"/>
</g>
<path d="M237.826 169.012L247.743 155.377L287.093 183.998C288.893 185.307 289.278 187.83 287.979 189.616L282.804 196.731C281.495 198.531 278.972 198.917 277.186 197.618L237.837 168.997L237.826 169.012Z" fill="#19243D"/>
<path d="M245.057 153.432L235.141 167.066L238.742 169.686L248.658 156.051L245.057 153.432Z" fill="#0785D8"/>
<path d="M168.072 35.806C167.928 35.806 167.803 35.7521 167.695 35.6444C167.479 35.429 167.479 35.0878 167.695 34.8903L175.9 26.685C176.116 26.4696 176.457 26.4696 176.654 26.685C176.87 26.9005 176.87 27.2416 176.654 27.4391L168.449 35.6444C168.341 35.7521 168.215 35.806 168.072 35.806Z" fill="#19243D"/>
<path d="M176.277 35.806C176.133 35.806 176.008 35.7521 175.9 35.6444L167.695 27.4391C167.479 27.2237 167.479 26.8825 167.695 26.685C167.91 26.4696 168.251 26.4696 168.449 26.685L176.654 34.8903C176.87 35.1058 176.87 35.4469 176.654 35.6444C176.546 35.7521 176.421 35.806 176.277 35.806Z" fill="#19243D"/>
<path d="M1.85114 114.044C1.7075 114.044 1.58182 113.99 1.47409 113.883C1.25864 113.667 1.25864 113.326 1.47409 113.129L9.67938 104.923C9.89484 104.708 10.236 104.708 10.4335 104.923C10.6489 105.139 10.6489 105.48 10.4335 105.677L2.22819 113.883C2.12046 113.99 1.99478 114.044 1.85114 114.044Z" fill="#19243D"/>
<path d="M10.0564 114.044C9.91279 114.044 9.78711 113.99 9.67938 113.883L1.47409 105.677C1.25864 105.462 1.25864 105.121 1.47409 104.923C1.68955 104.708 2.03069 104.708 2.22819 104.923L10.4335 113.129C10.6489 113.344 10.6489 113.685 10.4335 113.883C10.3258 113.99 10.2001 114.044 10.0564 114.044Z" fill="#19243D"/>
<path d="M8.6721 43.2887H23.359L39.626 55.0131V43.2887H40.7392C45.5331 43.2887 49.4113 39.4105 49.4113 34.6166V8.67211C49.4113 3.87821 45.5331 0 40.7392 0H8.6721C3.87821 0 0 3.87821 0 8.67211V34.6166C0 39.4105 3.87821 43.2887 8.6721 43.2887Z" fill="#0785D8"/>
<path d="M15.4781 31.1707C15.3345 31.1707 15.2088 31.1168 15.101 31.0091C14.8856 30.7936 14.8856 30.4525 15.101 30.255L32.4991 12.8569C32.7146 12.6414 33.0557 12.6414 33.2532 12.8569C33.4687 13.0724 33.4687 13.4135 33.2532 13.611L15.8551 31.0091C15.7474 31.1168 15.6217 31.1707 15.4781 31.1707Z" fill="white"/>
<path d="M32.7514 31.0263C32.6077 31.0263 32.4821 30.9725 32.3743 30.8648L15.2456 13.736C15.0301 13.5205 15.0301 13.1794 15.2456 12.9819C15.461 12.7664 15.8022 12.7664 15.9997 12.9819L33.1284 30.1107C33.3439 30.3261 33.3439 30.6673 33.1284 30.8648C33.0207 30.9725 32.895 31.0263 32.7514 31.0263Z" fill="white"/>
<path d="M38.6006 161.505L35.6201 155.885L25.6194 163.749L21.418 158.399L31.4367 150.552L26.6787 146.315L45.8004 143.586L38.6006 161.505Z" fill="#ADDAF6"/>
<path d="M39.8565 157.141L36.876 151.522L26.8573 159.386L22.6738 154.035L32.6925 146.189L27.9345 141.952L47.0563 139.223L39.8565 157.141Z" fill="white"/>
<path d="M26.7677 160.136L21.9199 153.942L31.8489 146.15L26.7138 141.571L47.9003 138.555L39.9285 158.413L36.7146 152.344L26.7856 160.136H26.7677ZM23.4281 154.139L26.9472 158.628L37.0378 150.71L39.7669 155.863L46.1946 139.883L29.1377 142.307L33.5007 146.203L23.4102 154.121L23.4281 154.139Z" fill="#19243D"/>
</svg>
