<svg width="184" height="141" viewBox="0 0 184 141" fill="none" xmlns="http://www.w3.org/2000/svg">
<path fill-rule="evenodd" clip-rule="evenodd" d="M51.41 27.4697H160.1C164.89 27.4697 168.77 31.3497 168.77 36.1397V108.73C168.77 115.51 163.27 121.01 156.49 121.01H51.42C46.63 121.01 42.75 117.13 42.75 112.34V36.1397C42.75 31.3497 46.63 27.4697 51.42 27.4697H51.41Z" fill="#B1ACFF"/>
<path fill-rule="evenodd" clip-rule="evenodd" d="M44.4102 20.3999H153.1C157.89 20.3999 161.77 24.2799 161.77 29.0699V105.27C161.77 110.06 157.89 113.94 153.1 113.94H44.4102C39.6202 113.94 35.7402 110.06 35.7402 105.27V29.0699C35.7402 24.2799 39.6202 20.3999 44.4102 20.3999Z" fill="white" stroke="#19243D" stroke-width="0.75"/>
<path fill-rule="evenodd" clip-rule="evenodd" d="M35.7402 29.1199V29.0699C35.7402 24.2799 39.6202 20.3999 44.4102 20.3999H153.1C157.89 20.3999 161.77 24.2799 161.77 29.0699V29.1199H35.7402Z" fill="#19243D"/>
<path fill-rule="evenodd" clip-rule="evenodd" d="M44.4102 20.3999H153.1C157.89 20.3999 161.77 24.2799 161.77 29.0699V105.27C161.77 110.06 157.89 113.94 153.1 113.94H44.4102C39.6202 113.94 35.7402 110.06 35.7402 105.27V29.0699C35.7402 24.2799 39.6202 20.3999 44.4102 20.3999Z" stroke="#19243D" stroke-width="0.75" stroke-linecap="round"/>
<path d="M49.6105 26.6599C50.6598 26.6599 51.5105 25.8092 51.5105 24.7599C51.5105 23.7105 50.6598 22.8599 49.6105 22.8599C48.5611 22.8599 47.7104 23.7105 47.7104 24.7599C47.7104 25.8092 48.5611 26.6599 49.6105 26.6599Z" fill="white"/>
<path d="M43.7003 26.6599C44.7496 26.6599 45.6003 25.8092 45.6003 24.7599C45.6003 23.7105 44.7496 22.8599 43.7003 22.8599C42.6509 22.8599 41.8003 23.7105 41.8003 24.7599C41.8003 25.8092 42.6509 26.6599 43.7003 26.6599Z" fill="white"/>
<path d="M55.5104 26.6599C56.5597 26.6599 57.4104 25.8092 57.4104 24.7599C57.4104 23.7105 56.5597 22.8599 55.5104 22.8599C54.461 22.8599 53.6104 23.7105 53.6104 24.7599C53.6104 25.8092 54.461 26.6599 55.5104 26.6599Z" fill="white"/>
<path d="M84.9699 70.28H87.1699V75.94H84.9699V79.24H77.9899V75.94H68.8999V70.34L76.9499 57.23H84.9699V70.28ZM78.6199 70.28V63.74L74.5299 70.28H78.6199Z" fill="#FFC806"/>
<path d="M96.7001 78.36C95.2701 77.46 94.1501 76.14 93.3201 74.41C92.4901 72.68 92.0801 70.62 92.0801 68.23C92.0801 65.84 92.4901 63.78 93.3201 62.05C94.1501 60.32 95.2701 59 96.7001 58.1C98.1301 57.2 99.7301 56.75 101.51 56.75C103.29 56.75 104.9 57.2 106.32 58.1C107.75 59 108.87 60.32 109.7 62.05C110.53 63.78 110.94 65.84 110.94 68.23C110.94 70.62 110.53 72.68 109.7 74.41C108.87 76.14 107.75 77.46 106.32 78.36C104.89 79.26 103.29 79.71 101.51 79.71C99.7301 79.71 98.1201 79.26 96.7001 78.36ZM103.4 72.32C103.88 71.48 104.12 70.12 104.12 68.23C104.12 66.34 103.88 64.98 103.4 64.14C102.92 63.3 102.29 62.88 101.51 62.88C100.73 62.88 100.11 63.3 99.6201 64.14C99.1401 64.98 98.9001 66.34 98.9001 68.23C98.9001 70.12 99.1401 71.48 99.6201 72.32C100.1 73.16 100.73 73.58 101.51 73.58C102.29 73.58 102.91 73.16 103.4 72.32Z" fill="#FFC806"/>
<path d="M131.58 70.28H133.78V75.94H131.58V79.24H124.6V75.94H115.51V70.34L123.56 57.23H131.58V70.28ZM125.23 70.28V63.74L121.14 70.28H125.23Z" fill="#FFC806"/>
<path d="M178.05 37.3598H152.66L142.03 45.0098V37.3598H141.3C138.17 37.3598 135.64 34.8198 135.64 31.6998V6.24984C135.64 3.11984 138.18 0.589844 141.3 0.589844H178.05C181.18 0.589844 183.71 3.12984 183.71 6.24984V31.6998C183.71 34.8298 181.17 37.3598 178.05 37.3598Z" fill="#6359FF"/>
<path d="M159.68 29.06C165.634 29.06 170.46 24.2336 170.46 18.28C170.46 12.3264 165.634 7.5 159.68 7.5C153.726 7.5 148.9 12.3264 148.9 18.28C148.9 24.2336 153.726 29.06 159.68 29.06Z" stroke="white" stroke-width="0.75" stroke-linecap="round"/>
<path d="M152.06 25.9002L167.3 10.6602" stroke="white" stroke-width="0.75" stroke-linecap="round"/>
<path d="M152.06 10.6602L167.3 25.9002" stroke="white" stroke-width="0.75" stroke-linecap="round"/>
<path fill-rule="evenodd" clip-rule="evenodd" d="M50.1799 78.7597H41.8799C39.7099 78.7597 37.9399 80.5197 37.9399 82.6997V131.66H22.1299V78.7597V78.0497C22.1299 69.7097 28.8899 62.9497 37.2299 62.9497H37.9399H50.1799V78.7597Z" fill="#19243D" stroke="#19243D" stroke-width="0.75"/>
<path d="M50.17 78.7497C54.5331 78.7497 58.07 75.2128 58.07 70.8497C58.07 66.4867 54.5331 62.9497 50.17 62.9497C45.807 62.9497 42.27 66.4867 42.27 70.8497C42.27 75.2128 45.807 78.7497 50.17 78.7497Z" fill="#FFC806"/>
<path d="M50.1698 74.2599C52.0531 74.2599 53.5798 72.7332 53.5798 70.8499C53.5798 68.9666 52.0531 67.4399 50.1698 67.4399C48.2865 67.4399 46.7598 68.9666 46.7598 70.8499C46.7598 72.7332 48.2865 74.2599 50.1698 74.2599Z" fill="#19243D"/>
<path d="M48.58 69.6796C49.4416 69.6796 50.14 68.9811 50.14 68.1196C50.14 67.258 49.4416 66.5596 48.58 66.5596C47.7185 66.5596 47.02 67.258 47.02 68.1196C47.02 68.9811 47.7185 69.6796 48.58 69.6796Z" fill="white"/>
<path d="M50.17 78.7497C54.5331 78.7497 58.07 75.2128 58.07 70.8497C58.07 66.4867 54.5331 62.9497 50.17 62.9497C45.807 62.9497 42.27 66.4867 42.27 70.8497C42.27 75.2128 45.807 78.7497 50.17 78.7497Z" stroke="#19243D" stroke-width="0.75" stroke-linecap="round"/>
<path d="M23.4399 139.74H93.3199" stroke="#19243D" stroke-width="0.75" stroke-linecap="round"/>
<path fill-rule="evenodd" clip-rule="evenodd" d="M59.7701 93.5396H0.580078L7.09008 140.52H66.2701L59.7701 93.5396Z" fill="#EFEEFF"/>
<path d="M33.0798 121.24C35.0073 121.24 36.5698 119.668 36.5698 117.73C36.5698 115.791 35.0073 114.22 33.0798 114.22C31.1524 114.22 29.5898 115.791 29.5898 117.73C29.5898 119.668 31.1524 121.24 33.0798 121.24Z" fill="#19243D"/>
</svg>
