<svg width="168" height="99" viewBox="0 0 168 99" fill="none" xmlns="http://www.w3.org/2000/svg">
<path d="M147.49 53.6803C150.505 53.6803 152.95 51.2357 152.95 48.2203C152.95 45.2048 150.505 42.7603 147.49 42.7603C144.474 42.7603 142.03 45.2048 142.03 48.2203C142.03 51.2357 144.474 53.6803 147.49 53.6803Z" fill="#EFEEFF"/>
<path d="M9.05946 59.3504C10.9207 59.3504 12.4295 57.8415 12.4295 55.9803C12.4295 54.1191 10.9207 52.6104 9.05946 52.6104C7.19826 52.6104 5.68945 54.1191 5.68945 55.9803C5.68945 57.8415 7.19826 59.3504 9.05946 59.3504Z" fill="#EFEEFF"/>
<path d="M167.29 73.46L161.58 79.1799" stroke="#19243D" stroke-width="0.75" stroke-linecap="round"/>
<path d="M167.29 79.1799L161.58 73.46" stroke="#19243D" stroke-width="0.75" stroke-linecap="round"/>
<path d="M31.8594 32.75L26.1494 38.47" stroke="#19243D" stroke-width="0.75" stroke-linecap="round"/>
<path d="M31.8594 38.47L26.1494 32.75" stroke="#19243D" stroke-width="0.75" stroke-linecap="round"/>
<path d="M52.4095 89.6201H120.759C123.089 89.6201 124.989 91.5101 124.989 93.8501V98.0501H48.1895V93.8501C48.1895 91.5201 50.0794 89.6201 52.4194 89.6201H52.4095Z" fill="#B1ACFF"/>
<path d="M56.0293 98.0403L59.1493 76.0303C60.4393 66.8903 65.5093 58.7103 73.1093 53.4803L77.0393 50.7803C78.1793 49.9903 78.1793 48.3003 77.0393 47.5103L73.1093 44.8103C65.5093 39.5803 60.4493 31.4003 59.1493 22.2603L56.0293 2.84033H118.159L115.039 22.2603C113.749 31.4003 108.679 39.5803 101.079 44.8103L97.1493 47.5203C96.0093 48.3103 96.0093 50.0003 97.1493 50.7903L101.079 53.4903C108.679 58.7203 113.739 66.9003 115.039 76.0403L118.159 98.0603H56.0293V98.0403Z" fill="#B1ACFF"/>
<path d="M107.679 21.3702L109.779 6.49023H48.8193L50.9193 21.3702C51.9693 28.7802 56.0693 35.4002 62.2293 39.6402L72.9993 47.0502C74.4593 48.0502 74.4593 50.2102 72.9993 51.2102L62.2293 58.6202C56.0693 62.8602 51.9693 69.4902 50.9193 76.8902L48.8193 91.7702H109.779L107.679 76.8902C106.629 69.4802 102.529 62.8602 96.3693 58.6202L85.5993 51.2102C84.1393 50.2102 84.1393 48.0502 85.5993 47.0502L96.3693 39.6402C102.529 35.4002 106.629 28.7702 107.679 21.3702Z" fill="white" stroke="#19243D" stroke-width="0.75" stroke-linecap="round"/>
<path d="M56.0293 91.6699L57.1293 83.9199C57.9293 78.2499 61.0793 73.1699 65.7993 69.9199L76.5693 62.5099C76.5693 62.5099 76.5893 62.4899 76.5993 62.4899C78.2593 61.3399 80.3793 61.3399 82.0393 62.4899C82.0493 62.4899 82.0593 62.5099 82.0793 62.5099L92.8393 69.9199C97.5593 73.1699 100.699 78.2499 101.509 83.9199L102.609 91.6699H56.0393H56.0293Z" fill="#EFEEFF"/>
<path d="M45.1399 90.0103H113.49C115.82 90.0103 117.72 91.9003 117.72 94.2403V97.9303H40.9199V94.2403C40.9199 91.9103 42.8099 90.0103 45.1499 90.0103H45.1399Z" fill="#6359FF" stroke="#6359FF" stroke-width="0.75" stroke-linecap="round"/>
<path d="M40.9094 0.870117H117.709V4.56011C117.709 6.89011 115.819 8.79012 113.479 8.79012H45.1294C42.7994 8.79012 40.8994 6.90011 40.8994 4.56011V0.870117H40.9094Z" fill="#6359FF" stroke="#6359FF" stroke-width="0.75" stroke-linecap="round"/>
<path d="M0.889648 97.9302H157.73" stroke="#19243D" stroke-width="0.75" stroke-linecap="round"/>
</svg>
