<svg width="249" height="227" xmlns="http://www.w3.org/2000/svg" xmlns:xlink="http://www.w3.org/1999/xlink">
  <defs>
    <path id="a" d="M0 0h250v226.694H0z"/>
    <path id="d" d="M0 174h114V0H0z"/>
    <rect id="c" x="0" y="226.694" width="248.775" height="2.451" rx="1.225"/>
  </defs>
  <g fill="none" fill-rule="evenodd">
    <g transform="translate(0 -3)">
      <mask id="b" fill="#fff">
        <use xlink:href="#a"/>
      </mask>
      <ellipse fill="#F2F2F2" mask="url(#b)" cx="124.387" cy="126.213" rx="123.162" ry="122.537"/>
    </g>
    <g transform="translate(0 -3)">
      <use fill="#000" xlink:href="#c"/>
      <rect stroke="#000" x=".5" y="227.194" width="247.775" height="1.451" rx=".725"/>
    </g>
    <g transform="translate(68 50)">
      <path d="M113.48 173.481H.52v-8.038a5.19 5.19 0 0 1 5.193-5.187h102.574a5.19 5.19 0 0 1 5.194 5.187v8.038Z" fill="#FFF"/>
      <path d="M1.039 172.963H112.96v-7.52a4.676 4.676 0 0 0-4.674-4.668H5.713a4.676 4.676 0 0 0-4.674 4.668v7.52ZM114 174H0v-8.557c0-3.146 2.563-5.705 5.713-5.705h102.574c3.15 0 5.713 2.559 5.713 5.705V174Z" fill="#000"/>
      <path d="M.52.519h112.96v8.038a5.19 5.19 0 0 1-5.193 5.187H5.713A5.19 5.19 0 0 1 .519 8.557V.52Z" fill="#FFF"/>
      <path d="M1.039 1.037v7.52a4.676 4.676 0 0 0 4.674 4.668h102.574a4.676 4.676 0 0 0 4.674-4.668v-7.52H1.04Zm107.248 13.225H5.713C2.563 14.262 0 11.703 0 8.557V0h114v8.557c0 3.146-2.563 5.705-5.713 5.705Z" fill="#000"/>
      <path d="M61.032 89.18c-1.078-.894-1.046-3.653.096-4.435 25.482-3.012 45.51-33.648 45.51-71.001H7.362c0 37.353 20.027 67.99 45.509 71 1.143.783 1.173 3.542.096 4.436-25.528 2.946-45.605 33.613-45.605 71.013h99.274c0-37.4-20.077-68.067-45.605-71.013" fill="#FFF"/>
      <path d="M7.883 159.675h98.234c-.09-17.735-4.75-34.63-13.146-47.628-8.399-13.002-19.763-20.94-31.999-22.352l-.153-.018-.119-.098c-.779-.647-1.01-1.874-.968-2.807.051-1.1.463-2.018 1.102-2.455l.105-.072.128-.015c12.215-1.444 23.556-9.395 31.935-22.388 8.376-12.991 13.026-29.869 13.115-47.58H7.883c.09 17.711 4.739 34.589 13.115 47.58 8.379 12.993 19.72 20.944 31.935 22.388l.127.015.106.072c.638.437 1.05 1.355 1.101 2.455.043.933-.188 2.16-.967 2.807l-.119.098-.153.018c-12.236 1.412-23.6 9.35-32 22.352-8.395 12.998-13.055 29.893-13.145 47.628Zm99.274 1.037H6.843v-.519c0-18.12 4.728-35.418 13.313-48.708 8.531-13.207 20.095-21.298 32.58-22.8.334-.37.53-1.093.494-1.866-.032-.69-.25-1.291-.564-1.576-12.473-1.526-24.025-9.632-32.541-22.84C11.56 49.121 6.843 31.84 6.843 13.743v-.518h100.314v.519c0 18.096-4.717 35.377-13.282 48.66C85.36 75.61 73.807 83.716 61.333 85.242c-.313.285-.53.886-.563 1.577-.036.772.16 1.496.494 1.865 12.485 1.502 24.049 9.593 32.58 22.8 8.585 13.29 13.313 30.588 13.313 48.708v.519Z" fill="#000"/>
      <path d="M14.131 159.738c0-26.638 20.625-37.459 43.627-42.01 27.526-5.445 41.289 15.372 41.289 42.01H14.131Z" fill="#00B49F"/>
      <path d="M112.81 165.183v7.52H.888s1.298-5.445 10.127-5.964c8.83-.518 32.98-2.074 35.057-.26 2.078 1.816 41.55 2.335 48.3.52 6.752-1.816 17.66-2.334 18.438-1.816M1.147 8.557v-7.52H113.07s-1.299 5.446-10.128 5.964c-8.829.52-32.98 2.075-35.057.26-2.077-1.815-41.549-2.334-48.3-.519C12.833 8.557 1.926 9.076 1.147 8.557" fill="#A8DBD5"/>
      <path d="M75.416 74.423s-6.492 8.558-18.437 8.558c-7.531 0-18.697-8.298-18.438-8.817l36.875.26Z" fill="#00B49F"/>
      <mask id="e" fill="#fff">
        <use xlink:href="#d"/>
      </mask>
      <path fill="#00B49F" mask="url(#e)" d="M56.2 124.73h1.817V80.387H56.2z"/>
      <path d="M69.289 145.141s.602 4.305 4.274 4.387c3.671.082 12.635-1.59 12.635-1.59s3.926-1.453 1.573-6.31c-2.353-4.858-11.544-17.681-11.544-17.681s-5.895-4.13-7.638 3.205c-1.744 7.334.7 17.99.7 17.99M25.817 19.708h-3.895S15.43 58.086 49.967 81.165c0 0-25.448-17.892-24.15-61.457M26.077 154.81H22.18s-6.492-38.378 28.046-61.457c0 0-25.449 17.893-24.15 61.458" fill="#A8DBD5" mask="url(#e)"/>
    </g>
  </g>
</svg>