<svg width="616" height="442" viewBox="0 0 616 442" fill="none" xmlns="http://www.w3.org/2000/svg">
<path fill-rule="evenodd" clip-rule="evenodd" d="M186.167 27.0176H584.246C601.789 27.0176 616 41.2404 616 58.7991V324.891C616 349.745 595.856 369.906 571.024 369.906H186.203C168.66 369.906 154.449 355.683 154.449 338.124V58.7991C154.449 41.2404 168.66 27.0176 186.203 27.0176H186.167Z" fill="#ADDAF6"/>
<path fill-rule="evenodd" clip-rule="evenodd" d="M160.531 1.09961H558.611C576.154 1.09961 590.365 15.3225 590.365 32.8811V312.206C590.365 329.765 576.154 343.988 558.611 343.988H160.531C142.988 343.988 128.777 329.765 128.777 312.206V32.8811C128.777 15.3225 142.988 1.09961 160.531 1.09961Z" fill="white"/>
<path d="M558.61 345.088H160.531C142.401 345.088 127.678 330.352 127.678 312.206V32.8812C127.678 14.7361 142.401 0 160.531 0H558.61C576.739 0 591.463 14.7361 591.463 32.8812V312.206C591.463 330.352 576.739 345.088 558.61 345.088ZM160.531 2.19941C143.646 2.19941 129.875 15.9457 129.875 32.8812V312.206C129.875 329.105 143.61 342.888 160.531 342.888H558.61C575.494 342.888 589.265 329.142 589.265 312.206V32.8812C589.265 15.9824 575.531 2.19941 558.61 2.19941H160.531Z" fill="#19243D"/>
<path fill-rule="evenodd" clip-rule="evenodd" d="M128.775 33.0644V32.8811C128.775 15.3225 142.986 1.09961 160.529 1.09961H558.609C576.152 1.09961 590.363 15.3225 590.363 32.8811V33.0644H128.775Z" fill="#19243D"/>
<path d="M558.61 345.088H160.531C142.401 345.088 127.678 330.352 127.678 312.206V32.8812C127.678 14.7361 142.401 0 160.531 0H558.61C576.739 0 591.463 14.7361 591.463 32.8812V312.206C591.463 330.352 576.739 345.088 558.61 345.088ZM160.531 2.19941C143.646 2.19941 129.875 15.9457 129.875 32.8812V312.206C129.875 329.105 143.61 342.888 160.531 342.888H558.61C575.494 342.888 589.265 329.142 589.265 312.206V32.8812C589.265 15.9824 575.531 2.19941 558.61 2.19941H160.531Z" fill="#19243D"/>
<path d="M179.572 24.0448C183.415 24.0448 186.531 20.9266 186.531 17.08C186.531 13.2335 183.415 10.1152 179.572 10.1152C175.729 10.1152 172.613 13.2335 172.613 17.08C172.613 20.9266 175.729 24.0448 179.572 24.0448Z" fill="white"/>
<path d="M157.929 24.0448C161.773 24.0448 164.888 20.9266 164.888 17.08C164.888 13.2335 161.773 10.1152 157.929 10.1152C154.086 10.1152 150.971 13.2335 150.971 17.08C150.971 20.9266 154.086 24.0448 157.929 24.0448Z" fill="white"/>
<path d="M201.185 24.0448C205.029 24.0448 208.144 20.9266 208.144 17.08C208.144 13.2335 205.029 10.1152 201.185 10.1152C197.342 10.1152 194.227 13.2335 194.227 17.08C194.227 20.9266 197.342 24.0448 201.185 24.0448Z" fill="white"/>
<path fill-rule="evenodd" clip-rule="evenodd" d="M181.661 215.031H151.262C143.315 215.031 136.832 221.482 136.832 229.473V408.945H78.9277V215.031V212.428C78.9277 181.856 103.686 157.076 134.232 157.076H136.832H181.661V215.031Z" fill="#19243D"/>
<path d="M137.932 410.009H77.8301V212.428C77.8301 181.306 103.138 155.977 134.233 155.977H182.761V216.13H151.264C143.939 216.13 137.932 222.106 137.932 229.474V410.045V410.009ZM80.0276 407.809H135.735V229.437C135.735 220.859 142.693 213.931 151.264 213.931H180.564V158.176H134.233C104.347 158.176 80.0276 182.516 80.0276 212.428V407.846V407.809Z" fill="#19243D"/>
<path d="M181.625 214.994C197.605 214.994 210.559 202.029 210.559 186.035C210.559 170.042 197.605 157.076 181.625 157.076C165.646 157.076 152.691 170.042 152.691 186.035C152.691 202.029 165.646 214.994 181.625 214.994Z" fill="#ADDAF6"/>
<path d="M181.626 198.535C188.523 198.535 194.115 192.939 194.115 186.035C194.115 179.132 188.523 173.535 181.626 173.535C174.728 173.535 169.137 179.132 169.137 186.035C169.137 192.939 174.728 198.535 181.626 198.535Z" fill="#19243D"/>
<path d="M175.803 181.746C178.959 181.746 181.517 179.185 181.517 176.027C181.517 172.869 178.959 170.309 175.803 170.309C172.648 170.309 170.09 172.869 170.09 176.027C170.09 179.185 172.648 181.746 175.803 181.746Z" fill="white"/>
<path d="M181.626 216.094C165.072 216.094 151.594 202.604 151.594 186.035C151.594 169.466 165.072 155.977 181.626 155.977C198.181 155.977 211.659 169.466 211.659 186.035C211.659 202.604 198.181 216.094 181.626 216.094ZM181.626 158.139C166.28 158.139 153.791 170.639 153.791 185.999C153.791 201.358 166.28 213.858 181.626 213.858C196.972 213.858 209.462 201.358 209.462 185.999C209.462 170.639 196.972 158.139 181.626 158.139Z" fill="#19243D"/>
<path d="M339.663 439.664H83.7257C83.1031 439.664 82.627 439.188 82.627 438.565C82.627 437.941 83.1031 437.465 83.7257 437.465H339.663C340.285 437.465 340.761 437.941 340.761 438.565C340.761 439.188 340.285 439.664 339.663 439.664Z" fill="#19243D"/>
<path fill-rule="evenodd" clip-rule="evenodd" d="M216.785 269.209H0L23.843 441.423H240.591L216.785 269.209Z" fill="#E7EDF0"/>
<path d="M119.032 370.751C126.092 370.751 131.814 364.99 131.814 357.884C131.814 350.778 126.092 345.018 119.032 345.018C111.973 345.018 106.25 350.778 106.25 357.884C106.25 364.99 111.973 370.751 119.032 370.751Z" fill="#19243D"/>
<path d="M303.367 253.202H355.596L413.439 294.911V253.202H417.393C434.433 253.202 448.232 239.392 448.232 222.336V130.055C448.232 113 434.433 99.1895 417.393 99.1895H303.367C286.326 99.1895 272.527 113 272.527 130.055V222.336C272.527 239.392 286.326 253.202 303.367 253.202Z" fill="#0785D8"/>
<path d="M327.604 209.317C327.288 209.317 327.011 209.198 326.774 208.961C326.299 208.486 326.299 207.734 326.774 207.299L388.61 145.409C389.085 144.934 389.836 144.934 390.271 145.409C390.745 145.884 390.745 146.636 390.271 147.071L328.434 208.961C328.197 209.198 327.92 209.317 327.604 209.317Z" fill="white"/>
<path d="M388.965 208.842C388.649 208.842 388.372 208.724 388.135 208.486L327.207 147.506C326.733 147.032 326.733 146.28 327.207 145.844C327.682 145.37 328.433 145.37 328.868 145.844L389.795 206.824C390.27 207.299 390.27 208.051 389.795 208.486C389.558 208.724 389.281 208.842 388.965 208.842Z" fill="white"/>
</svg>
