<svg width="262" height="200" viewBox="0 0 262 200" fill="none" xmlns="http://www.w3.org/2000/svg">
<path fill-rule="evenodd" clip-rule="evenodd" d="M72.6491 38.418H227.998C234.844 38.418 240.39 43.9636 240.39 50.8099V154.562C240.39 164.252 232.529 172.113 222.838 172.113H72.6634C65.8171 172.113 60.2715 166.568 60.2715 159.721V50.8099C60.2715 43.9636 65.8171 38.418 72.6634 38.418H72.6491Z" fill="#ADDAF6"/>
<path fill-rule="evenodd" clip-rule="evenodd" d="M62.6458 28.3135H217.995C224.841 28.3135 230.387 33.8591 230.387 40.7054V149.617C230.387 156.463 224.841 162.009 217.995 162.009H62.6458C55.7995 162.009 50.2539 156.463 50.2539 149.617V40.7054C50.2539 33.8591 55.7995 28.3135 62.6458 28.3135Z" fill="white"/>
<path d="M217.994 162.438H62.6449C55.5699 162.438 49.8242 156.692 49.8242 149.617V40.7054C49.8242 33.6305 55.5699 27.8848 62.6449 27.8848H217.994C225.069 27.8848 230.814 33.6305 230.814 40.7054V149.617C230.814 156.692 225.069 162.438 217.994 162.438ZM62.6449 28.7423C56.0559 28.7423 50.6818 34.1022 50.6818 40.7054V149.617C50.6818 156.206 56.0416 161.58 62.6449 161.58H217.994C224.583 161.58 229.957 156.22 229.957 149.617V40.7054C229.957 34.1164 224.597 28.7423 217.994 28.7423H62.6449Z" fill="#19243D"/>
<path fill-rule="evenodd" clip-rule="evenodd" d="M50.2539 40.7788V40.7073C50.2539 33.861 55.7995 28.3154 62.6458 28.3154H217.995C224.841 28.3154 230.387 33.861 230.387 40.7073V40.7788H50.2539Z" fill="#19243D"/>
<path d="M217.994 162.438H62.6449C55.5699 162.438 49.8242 156.692 49.8242 149.617V40.7054C49.8242 33.6305 55.5699 27.8848 62.6449 27.8848H217.994C225.069 27.8848 230.814 33.6305 230.814 40.7054V149.617C230.814 156.692 225.069 162.438 217.994 162.438ZM62.6449 28.7423C56.0559 28.7423 50.6818 34.1022 50.6818 40.7054V149.617C50.6818 156.206 56.0416 161.58 62.6449 161.58H217.994C224.583 161.58 229.957 156.22 229.957 149.617V40.7054C229.957 34.1164 224.597 28.7423 217.994 28.7423H62.6449Z" fill="#19243D"/>
<path d="M70.077 37.2614C71.5768 37.2614 72.7926 36.0455 72.7926 34.5457C72.7926 33.0459 71.5768 31.8301 70.077 31.8301C68.5772 31.8301 67.3613 33.0459 67.3613 34.5457C67.3613 36.0455 68.5772 37.2614 70.077 37.2614Z" fill="white"/>
<path d="M61.6297 37.2614C63.1295 37.2614 64.3453 36.0455 64.3453 34.5457C64.3453 33.0459 63.1295 31.8301 61.6297 31.8301C60.1299 31.8301 58.9141 33.0459 58.9141 34.5457C58.9141 36.0455 60.1299 37.2614 61.6297 37.2614Z" fill="white"/>
<path d="M78.5106 37.2614C80.0104 37.2614 81.2262 36.0455 81.2262 34.5457C81.2262 33.0459 80.0104 31.8301 78.5106 31.8301C77.0108 31.8301 75.7949 33.0459 75.7949 34.5457C75.7949 36.0455 77.0108 37.2614 78.5106 37.2614Z" fill="white"/>
<path d="M120.617 99.6053H123.761V107.695H120.617V112.412H110.641V107.695H97.6484V99.691L109.154 80.9531H120.617V99.6053ZM111.541 99.6053V90.2578L105.695 99.6053H111.541Z" fill="#FFE476"/>
<path d="M137.383 111.154C135.339 109.868 133.738 107.981 132.552 105.509C131.365 103.036 130.779 100.092 130.779 96.6758C130.779 93.2598 131.365 90.3155 132.552 87.8428C133.738 85.3701 135.339 83.4835 137.383 82.1971C139.426 80.9108 141.713 80.2676 144.257 80.2676C146.802 80.2676 149.103 80.9108 151.132 82.1971C153.176 83.4835 154.777 85.3701 155.963 87.8428C157.15 90.3155 157.736 93.2598 157.736 96.6758C157.736 100.092 157.15 103.036 155.963 105.509C154.777 107.981 153.176 109.868 151.132 111.154C149.088 112.441 146.802 113.084 144.257 113.084C141.713 113.084 139.412 112.441 137.383 111.154ZM146.959 102.522C147.645 101.321 147.988 99.3771 147.988 96.6758C147.988 93.9744 147.645 92.0306 146.959 90.83C146.273 89.6294 145.372 89.0291 144.257 89.0291C143.143 89.0291 142.256 89.6294 141.556 90.83C140.87 92.0306 140.527 93.9744 140.527 96.6758C140.527 99.3771 140.87 101.321 141.556 102.522C142.242 103.722 143.143 104.322 144.257 104.322C145.372 104.322 146.258 103.722 146.959 102.522Z" fill="#FFE476"/>
<path d="M187.236 99.6053H190.381V107.695H187.236V112.412H177.26V107.695H164.268V99.691L175.773 80.9531H187.236V99.6053ZM178.16 99.6053V90.2578L172.314 99.6053H178.16Z" fill="#FFE476"/>
<path d="M253.657 52.5548H217.367L202.174 63.4888V52.5548H201.131C196.657 52.5548 193.041 48.9244 193.041 44.465V8.08975C193.041 3.61609 196.671 0 201.131 0H253.657C258.131 0 261.747 3.63038 261.747 8.08975V44.465C261.747 48.9387 258.116 52.5548 253.657 52.5548Z" fill="#0785D8"/>
<path d="M227.401 41.1065C218.668 41.1065 211.564 34.003 211.564 25.2701C211.564 16.5371 218.668 9.43359 227.401 9.43359C236.134 9.43359 243.237 16.5371 243.237 25.2701C243.237 34.003 236.134 41.1065 227.401 41.1065ZM227.401 10.3055C219.14 10.3055 212.422 17.0231 212.422 25.2844C212.422 33.5456 219.14 40.2633 227.401 40.2633C235.662 40.2633 242.38 33.5456 242.38 25.2844C242.38 17.0231 235.662 10.3055 227.401 10.3055Z" fill="white"/>
<path d="M216.509 36.6047C216.395 36.6047 216.294 36.5618 216.209 36.4761C216.037 36.3046 216.037 36.033 216.209 35.8758L237.991 14.0935C238.163 13.922 238.434 13.922 238.591 14.0935C238.749 14.265 238.763 14.5366 238.591 14.6938L216.809 36.4761C216.723 36.5618 216.623 36.6047 216.509 36.6047Z" fill="white"/>
<path d="M238.291 36.6053C238.177 36.6053 238.077 36.5624 237.991 36.4766L216.209 14.6943C216.037 14.5228 216.037 14.2513 216.209 14.094C216.38 13.9368 216.652 13.9225 216.809 14.094L238.591 35.8763C238.763 36.0478 238.763 36.3194 238.591 36.4766C238.506 36.5624 238.405 36.6053 238.291 36.6053Z" fill="white"/>
<path fill-rule="evenodd" clip-rule="evenodd" d="M70.8942 111.725H59.0311C55.9295 111.725 53.3997 114.24 53.3997 117.356V187.334H30.8027V111.725V110.71C30.8027 98.7899 40.4647 89.1279 52.3849 89.1279H53.3997H70.8942V111.725Z" fill="#19243D"/>
<path d="M53.8276 187.749H30.373V110.71C30.373 98.5756 40.2494 88.6992 52.384 88.6992H71.322V112.154H59.0302C56.1716 112.154 53.8276 114.483 53.8276 117.356V187.763V187.749ZM31.2306 186.891H52.97V117.342C52.97 113.998 55.6857 111.296 59.0302 111.296H70.4645V89.5568H52.384C40.7211 89.5568 31.2306 99.0472 31.2306 110.71V186.905V186.891Z" fill="#19243D"/>
<path d="M70.8792 111.711C77.1153 111.711 82.1706 106.655 82.1706 100.419C82.1706 94.1832 77.1153 89.1279 70.8792 89.1279C64.6432 89.1279 59.5879 94.1832 59.5879 100.419C59.5879 106.655 64.6432 111.711 70.8792 111.711Z" fill="#ADDAF6"/>
<path d="M70.8778 105.294C73.5695 105.294 75.7516 103.112 75.7516 100.42C75.7516 97.728 73.5695 95.5459 70.8778 95.5459C68.186 95.5459 66.0039 97.728 66.0039 100.42C66.0039 103.112 68.186 105.294 70.8778 105.294Z" fill="#19243D"/>
<path d="M68.6047 98.7475C69.8361 98.7475 70.8344 97.7492 70.8344 96.5178C70.8344 95.2864 69.8361 94.2881 68.6047 94.2881C67.3733 94.2881 66.375 95.2864 66.375 96.5178C66.375 97.7492 67.3733 98.7475 68.6047 98.7475Z" fill="white"/>
<path d="M70.8783 112.139C64.418 112.139 59.1582 106.88 59.1582 100.419C59.1582 93.959 64.418 88.6992 70.8783 88.6992C77.3387 88.6992 82.5985 93.959 82.5985 100.419C82.5985 106.88 77.3387 112.139 70.8783 112.139ZM70.8783 89.5425C64.8896 89.5425 60.0158 94.4163 60.0158 100.405C60.0158 106.394 64.8896 111.268 70.8783 111.268C76.867 111.268 81.7409 106.394 81.7409 100.405C81.7409 94.4163 76.867 89.5425 70.8783 89.5425Z" fill="#19243D"/>
<path d="M132.551 199.314H32.6729C32.4299 199.314 32.2441 199.128 32.2441 198.885C32.2441 198.642 32.4299 198.456 32.6729 198.456H132.551C132.794 198.456 132.98 198.642 132.98 198.885C132.98 199.128 132.794 199.314 132.551 199.314Z" fill="#19243D"/>
<path fill-rule="evenodd" clip-rule="evenodd" d="M84.5993 132.852H0L9.30464 199.999H93.8897L84.5993 132.852Z" fill="#E7EDF0"/>
<path d="M46.453 172.443C49.208 172.443 51.4412 170.197 51.4412 167.426C51.4412 164.655 49.208 162.409 46.453 162.409C43.6981 162.409 41.4648 164.655 41.4648 167.426C41.4648 170.197 43.6981 172.443 46.453 172.443Z" fill="#19243D"/>
</svg>
