<?xml version="1.0" encoding="UTF-8"?>
<svg width="32px" height="32px" viewBox="0 0 32 32" version="1.1" xmlns="http://www.w3.org/2000/svg" xmlns:xlink="http://www.w3.org/1999/xlink">
    <!-- Generator: Sketch 59.1 (86144) - https://sketch.com -->
    <title>box</title>
    <desc>Created with Sketch.</desc>
    <defs>
        <rect id="path-1" x="0" y="0" width="1168" height="278" rx="6"></rect>
        <filter x="-0.3%" y="-0.9%" width="100.6%" height="102.5%" filterUnits="objectBoundingBox" id="filter-2">
            <feOffset dx="0" dy="1" in="SourceAlpha" result="shadowOffsetOuter1"></feOffset>
            <feGaussianBlur stdDeviation="1" in="shadowOffsetOuter1" result="shadowBlurOuter1"></feGaussianBlur>
            <feColorMatrix values="0 0 0 0 0   0 0 0 0 0   0 0 0 0 0  0 0 0 0.25 0" type="matrix" in="shadowBlurOuter1"></feColorMatrix>
        </filter>
        <polygon id="path-3" points="0.7774 0.000666666667 12.3333333 0.000666666667 12.3333333 11.5566667 0.7774 11.5566667"></polygon>
        <polygon id="path-5" points="0 16 19 16 19 0 0 0"></polygon>
    </defs>
    <g id="App-KIT-FInal" stroke="none" stroke-width="1" fill="none" fill-rule="evenodd">
        <g id="App-Kit-/-Landingpage-v2-Copy-4" transform="translate(-495.000000, -455.000000)">
            <g id="Component-/-View-/-Card" transform="translate(56.000000, 407.000000)">
                <g id="Background">
                    <use fill="black" fill-opacity="1" filter="url(#filter-2)" xlink:href="#path-1"></use>
                    <use fill="#FFFFFF" fill-rule="evenodd" xlink:href="#path-1"></use>
                </g>
            </g>
            <g id="Group-2" transform="translate(118.000000, 455.000000)"></g>
            <g id="Component-/-icon-/-24px-/-design_system" transform="translate(495.000000, 455.000000)">
                <path d="M25.4598213,24.9181451 L6.46009331,24.9181451 C5.08142824,24.9181451 3.95995732,23.7728117 3.95995732,22.3648117 L3.95995732,10.1101451 C3.95995732,8.70214507 5.08142824,7.55681174 6.46009331,7.55681174 L7.46014771,7.55681174 L7.46014771,8.57814507 L6.46009331,8.57814507 C5.63237205,8.57814507 4.96001171,9.26481174 4.96001171,10.1101451 L4.96001171,22.3648117 C4.96001171,23.2101451 5.63237205,23.8968117 6.46009331,23.8968117 L25.4598213,23.8968117 C26.286237,23.8968117 26.9599029,23.2101451 26.9599029,22.3648117 L26.9599029,10.1101451 C26.9599029,9.26481174 26.286237,8.57814507 25.4598213,8.57814507 L24.4597669,8.57814507 L24.4597669,7.55681174 L25.4598213,7.55681174 C26.8384864,7.55681174 27.9599573,8.70214507 27.9599573,10.1101451 L27.9599573,22.3648117 C27.9599573,23.7728117 26.8384864,24.9181451 25.4598213,24.9181451" id="Fill-1" fill="#42788A"></path>
                <polygon id="Fill-4" fill="#42788A" points="10.5984906 27.9820117 21.831824 27.9820117 21.831824 26.9606784 10.5984906 26.9606784"></polygon>
                <polygon id="Fill-6" fill="#42788A" points="12.1291573 27.4713451 13.1504906 27.4713451 13.1504906 24.4073451 12.1291573 24.4073451"></polygon>
                <polygon id="Fill-7" fill="#42788A" points="19.2784906 27.4713451 20.299824 27.4713451 20.299824 24.4073451 19.2784906 24.4073451"></polygon>
                <g id="Group-16" transform="translate(9.751291, 3.541635)">
                    <path d="M0.5,16 C0.224,16 0,15.776 0,15.5 L0,2.5 C0,2.29733333 0.121333333,2.11466667 0.308,2.03733333 C0.496,1.96133333 0.710666667,2.00266667 0.853333333,2.14666667 L6.85333333,8.14666667 L6.14666667,8.85333333 L1,3.70666667 L1,15 L12.2933333,15 L10.1466667,12.8533333 L10.8533333,12.1466667 L13.8533333,15.1466667 C13.9973333,15.2893333 14.0386667,15.504 13.9626667,15.692 C13.8853333,15.8786667 13.7026667,16 13.5,16 L0.5,16 Z" id="Fill-1" fill="#42788A"></path>
                    <path d="M6.5,13.5 L3,13.5 C2.724,13.5 2.5,13.276 2.5,13 L2.5,8.5 L3.5,8.5 L3.5,12.5 L6.5,12.5 L6.5,13.5 Z" id="Fill-3" fill="#42788A"></path>
                    <g id="Group-7" transform="translate(6.666667, 0.000000)">
                        <mask id="mask-4" fill="white">
                            <use xlink:href="#path-3"></use>
                        </mask>
                        <g id="Clip-6"></g>
                        <path d="M1.9844,8.89 L3.44306667,10.3486667 L11.0310667,2.76066667 C11.2257333,2.566 11.3337333,2.30733333 11.3337333,2.03133333 C11.3337333,1.75533333 11.2257333,1.49666667 11.0310667,1.302 C10.6417333,0.912666667 9.96173333,0.912666667 9.5724,1.302 L1.9844,8.89 Z M3.44306667,11.5566667 C3.31506667,11.5566667 3.18706667,11.5073333 3.08973333,11.41 L0.9244,9.24333333 C0.7284,9.04866667 0.7284,8.73133333 0.9244,8.53666667 L8.86573333,0.595333333 C9.24973333,0.211333333 9.75906667,0.000666666667 10.3017333,0.000666666667 C10.8444,0.000666666667 11.3550667,0.211333333 11.7377333,0.595333333 C12.1217333,0.978 12.3337333,1.48866667 12.3337333,2.03133333 C12.3337333,2.574 12.1217333,3.08466667 11.7377333,3.46733333 L3.7964,11.41 C3.69906667,11.5073333 3.57106667,11.5566667 3.44306667,11.5566667 L3.44306667,11.5566667 Z" id="Fill-5" fill="#42788A" mask="url(#mask-4)"></path>
                    </g>
                    <path d="M7.14666667,11.8533333 C7.032,11.7386667 6.98,11.576 7.00666667,11.416 L7.45066667,8.80666667 L8.43733333,8.97333333 L8.11066667,10.8893333 L10.0253333,10.5626667 L10.1933333,11.5493333 L7.584,11.9933333 C7.556,11.9973333 7.528,12 7.5,12 C7.368,12 7.24133333,11.948 7.14666667,11.8533333 Z" id="Fill-8" fill="#42788A"></path>
                    <polygon id="Fill-10" fill="#42788A" points="17.3372 3.8288 15.1705333 1.66213333 15.8785333 0.955466667 18.0438667 3.12213333"></polygon>
                    <polygon id="Fill-12" fill="#42788A" points="10.4629333 9.24346667 9.75626667 8.5368 16.2536 2.03946667 16.9616 2.74613333"></polygon>
                    <mask id="mask-6" fill="white">
                        <use xlink:href="#path-5"></use>
                    </mask>
                    <g id="Clip-15"></g>
                    <polygon id="Fill-14" fill="#42788A" mask="url(#mask-6)" points="2.5 5 10 5 10 4 2.5 4"></polygon>
                </g>
            </g>
        </g>
    </g>
</svg>