<?xml version="1.0" encoding="UTF-8"?>
<svg width="32px" height="32px" viewBox="0 0 32 32" version="1.1" xmlns="http://www.w3.org/2000/svg" xmlns:xlink="http://www.w3.org/1999/xlink">
    <!-- Generator: Sketch 59.1 (86144) - https://sketch.com -->
    <title>box</title>
    <desc>Created with Sketch.</desc>
    <defs>
        <rect id="path-1" x="0" y="0" width="1168" height="278" rx="6"></rect>
        <filter x="-0.3%" y="-0.9%" width="100.6%" height="102.5%" filterUnits="objectBoundingBox" id="filter-2">
            <feOffset dx="0" dy="1" in="SourceAlpha" result="shadowOffsetOuter1"></feOffset>
            <feGaussianBlur stdDeviation="1" in="shadowOffsetOuter1" result="shadowBlurOuter1"></feGaussianBlur>
            <feColorMatrix values="0 0 0 0 0   0 0 0 0 0   0 0 0 0 0  0 0 0 0.25 0" type="matrix" in="shadowBlurOuter1"></feColorMatrix>
        </filter>
        <polygon id="path-3" points="0 1.16306667 17.5037333 1.16306667 17.5037333 18.6666667 0 18.6666667"></polygon>
    </defs>
    <g id="App-KIT-FInal" stroke="none" stroke-width="1" fill="none" fill-rule="evenodd">
        <g id="App-Kit-/-Landingpage-v2-Copy-4" transform="translate(-118.000000, -455.000000)">
            <g id="Component-/-View-/-Card" transform="translate(56.000000, 407.000000)">
                <g id="Background">
                    <use fill="black" fill-opacity="1" filter="url(#filter-2)" xlink:href="#path-1"></use>
                    <use fill="#FFFFFF" fill-rule="evenodd" xlink:href="#path-1"></use>
                </g>
            </g>
            <g id="Group-2" transform="translate(118.000000, 455.000000)">
                <g id="Component-/-icon-/-24px-/-built">
                    <path d="M25.4598213,24.9181451 L6.46009331,24.9181451 C5.08142824,24.9181451 3.95995732,23.7728117 3.95995732,22.3648117 L3.95995732,10.1101451 C3.95995732,8.70214507 5.08142824,7.55681174 6.46009331,7.55681174 L7.46014771,7.55681174 L7.46014771,8.57814507 L6.46009331,8.57814507 C5.63237205,8.57814507 4.96001171,9.26481174 4.96001171,10.1101451 L4.96001171,22.3648117 C4.96001171,23.2101451 5.63237205,23.8968117 6.46009331,23.8968117 L25.4598213,23.8968117 C26.286237,23.8968117 26.9599029,23.2101451 26.9599029,22.3648117 L26.9599029,10.1101451 C26.9599029,9.26481174 26.286237,8.57814507 25.4598213,8.57814507 L24.4597669,8.57814507 L24.4597669,7.55681174 L25.4598213,7.55681174 C26.8384864,7.55681174 27.9599573,8.70214507 27.9599573,10.1101451 L27.9599573,22.3648117 C27.9599573,23.7728117 26.8384864,24.9181451 25.4598213,24.9181451" id="Fill-1" fill="#42788A"></path>
                    <polygon id="Fill-4" fill="#42788A" points="10.5984906 27.9820117 21.831824 27.9820117 21.831824 26.9606784 10.5984906 26.9606784"></polygon>
                    <polygon id="Fill-6" fill="#42788A" points="12.1291573 27.4713451 13.1504906 27.4713451 13.1504906 24.4073451 12.1291573 24.4073451"></polygon>
                    <polygon id="Fill-7" fill="#42788A" points="19.2784906 27.4713451 20.299824 27.4713451 20.299824 24.4073451 19.2784906 24.4073451"></polygon>
                    <g id="Group-6" transform="translate(6.970058, 3.829550)">
                        <g id="Group-3" transform="translate(0.000000, 0.170533)">
                            <mask id="mask-4" fill="white">
                                <use xlink:href="#path-3"></use>
                            </mask>
                            <g id="Clip-2"></g>
                            <path d="M5.99306667,14.3430667 C6.0784,14.3430667 6.16506667,14.3644 6.24373333,14.4084 C6.5864,14.6004 6.9584,14.7537333 7.34773333,14.8630667 C7.56906667,14.9257333 7.7224,15.1284 7.7224,15.3590667 L7.7224,16.6070667 C7.7224,17.1750667 8.18373333,17.6364 8.75173333,17.6364 C9.31973333,17.6364 9.78106667,17.1750667 9.78106667,16.6070667 L9.78106667,15.3590667 C9.78106667,15.1284 9.9344,14.9257333 10.1557333,14.8630667 C10.5464,14.7537333 10.9170667,14.6004 11.2597333,14.4084 C11.4610667,14.2950667 11.7130667,14.3310667 11.8757333,14.4937333 L12.7557333,15.3750667 C13.1450667,15.7644 13.8237333,15.7644 14.2130667,15.3750667 C14.4077333,15.1804 14.5144,14.9217333 14.5144,14.6470667 C14.5144,14.3724 14.4077333,14.1137333 14.2130667,13.9190667 L13.3304,13.0377333 C13.1677333,12.8750667 13.1330667,12.6230667 13.2450667,12.4230667 C13.4370667,12.0804 13.5904,11.7084 13.7010667,11.3177333 C13.7637333,11.0964 13.9650667,10.9444 14.1957333,10.9444 L15.4450667,10.9444 C16.0130667,10.9444 16.4744,10.4817333 16.4744,9.91506667 C16.4744,9.34706667 16.0130667,8.8844 15.4450667,8.8844 L14.1957333,8.8844 C13.9650667,8.8844 13.7637333,8.7324 13.7010667,8.50973333 C13.5904,8.1204 13.4370667,7.74973333 13.2464,7.40706667 C13.1330667,7.20573333 13.1677333,6.95373333 13.3304,6.79106667 L14.2130667,5.90973333 C14.4077333,5.71506667 14.5144,5.4564 14.5144,5.18173333 C14.5144,4.90706667 14.4077333,4.6484 14.2130667,4.45373333 C13.8104,4.0524 13.1584,4.0524 12.7557333,4.45373333 L11.8757333,5.33506667 C11.7130667,5.49773333 11.4624,5.53373333 11.2597333,5.4204 C10.9157333,5.22973333 10.5450667,5.0764 10.1557333,4.96573333 C9.9344,4.90306667 9.78106667,4.7004 9.78106667,4.47106667 L9.78106667,3.22173333 C9.78106667,2.65373333 9.31973333,2.1924 8.75173333,2.1924 C8.18373333,2.1924 7.7224,2.65373333 7.7224,3.22173333 L7.7224,4.47106667 C7.7224,4.7004 7.56906667,4.90306667 7.34773333,4.96573333 C6.9584,5.0764 6.58773333,5.22973333 6.24373333,5.4204 C6.0424,5.53373333 5.79173333,5.49773333 5.62906667,5.33506667 L4.74773333,4.45373333 C4.3464,4.0524 3.69306667,4.0524 3.29173333,4.45373333 C3.09706667,4.6484 2.9904,4.90706667 2.9904,5.18173333 C2.9904,5.4564 3.09706667,5.71506667 3.29173333,5.90973333 L4.17306667,6.79106667 C4.33573333,6.95373333 4.3704,7.20573333 4.2584,7.40706667 C4.0664,7.74973333 3.91306667,8.1204 3.8024,8.50973333 C3.74106667,8.7324 3.5384,8.8844 3.30773333,8.8844 L2.05973333,8.8844 C1.49173333,8.8844 1.02906667,9.34706667 1.02906667,9.91506667 C1.02906667,10.4817333 1.49173333,10.9444 2.05973333,10.9444 L3.30773333,10.9444 C3.5384,10.9444 3.73973333,11.0964 3.8024,11.3177333 C3.91306667,11.7084 4.0664,12.0804 4.2584,12.4230667 C4.3704,12.6230667 4.33573333,12.8750667 4.17306667,13.0377333 L3.29173333,13.9190667 C3.09706667,14.1137333 2.9904,14.3724 2.9904,14.6470667 C2.9904,14.9217333 3.09706667,15.1804 3.29173333,15.3750667 C3.68106667,15.7644 4.3584,15.7644 4.74773333,15.3750667 L5.62906667,14.4937333 C5.72773333,14.3950667 5.85973333,14.3430667 5.99306667,14.3430667 M8.75173333,18.6670667 C7.61706667,18.6670667 6.69306667,17.7430667 6.69306667,16.6070667 L6.69306667,15.7350667 C6.4864,15.6630667 6.28506667,15.5804 6.09173333,15.4870667 L5.47573333,16.1030667 C4.69706667,16.8817333 3.34106667,16.8817333 2.56373333,16.1030667 C2.1744,15.7137333 1.96106667,15.1977333 1.96106667,14.6470667 C1.96106667,14.0964 2.1744,13.5804 2.56373333,13.1910667 L3.1784,12.5750667 C3.0864,12.3804 3.00373333,12.1790667 2.93173333,11.9737333 L2.05973333,11.9737333 C0.923733333,11.9737333 -0.000266666667,11.0497333 -0.000266666667,9.91506667 C-0.000266666667,8.77906667 0.923733333,7.85506667 2.05973333,7.85506667 L2.93173333,7.85506667 C3.00373333,7.6484 3.0864,7.4484 3.1784,7.25373333 L2.56373333,6.63773333 C2.1744,6.24973333 1.96106667,5.7324 1.96106667,5.18173333 C1.96106667,4.6324 2.1744,4.11506667 2.56373333,3.72573333 C3.3664,2.92306667 4.67306667,2.92306667 5.47573333,3.72573333 L6.09173333,4.34173333 C6.2864,4.2484 6.48773333,4.16573333 6.69306667,4.09373333 L6.69306667,3.22173333 C6.69306667,2.08706667 7.61706667,1.16306667 8.75173333,1.16306667 C9.88773333,1.16306667 10.8117333,2.08706667 10.8117333,3.22173333 L10.8117333,4.09373333 C11.0170667,4.16573333 11.2170667,4.2484 11.4130667,4.34173333 L12.0277333,3.72573333 C12.8317333,2.92306667 14.1370667,2.92306667 14.9397333,3.72573333 C15.3290667,4.11506667 15.5437333,4.6324 15.5437333,5.18173333 C15.5437333,5.7324 15.3290667,6.24973333 14.9397333,6.63773333 L14.3250667,7.25373333 C14.4170667,7.4484 14.4997333,7.6484 14.5730667,7.85506667 L15.4450667,7.85506667 C16.5797333,7.85506667 17.5037333,8.77906667 17.5037333,9.91506667 C17.5037333,11.0497333 16.5797333,11.9737333 15.4450667,11.9737333 L14.5730667,11.9737333 C14.4997333,12.1790667 14.4170667,12.3804 14.3250667,12.5750667 L14.9397333,13.1910667 C15.3290667,13.5804 15.5437333,14.0964 15.5437333,14.6470667 C15.5437333,15.1977333 15.3290667,15.7137333 14.9397333,16.1030667 C14.1624,16.8817333 12.8064,16.8817333 12.0277333,16.1030667 L11.4130667,15.4870667 C11.2184,15.5804 11.0170667,15.6630667 10.8117333,15.7350667 L10.8117333,16.6070667 C10.8117333,17.7430667 9.88773333,18.6670667 8.75173333,18.6670667" id="Fill-1" fill="#42788A" mask="url(#mask-4)"></path>
                        </g>
                        <path d="M8.75213333,8.026 C7.61613333,8.026 6.69346667,8.95 6.69346667,10.0846667 C6.69346667,11.2206667 7.61613333,12.1446667 8.75213333,12.1446667 C9.88813333,12.1446667 10.8108,11.2206667 10.8108,10.0846667 C10.8108,8.95 9.88813333,8.026 8.75213333,8.026 M8.75213333,13.174 C7.04813333,13.174 5.6628,11.7886667 5.6628,10.0846667 C5.6628,8.382 7.04813333,6.99666667 8.75213333,6.99666667 C10.4548,6.99666667 11.8401333,8.382 11.8401333,10.0846667 C11.8401333,11.7886667 10.4548,13.174 8.75213333,13.174" id="Fill-4" fill="#42788A"></path>
                    </g>
                </g>
            </g>
        </g>
    </g>
</svg>