<svg width="382" height="141" viewBox="0 0 382 141" fill="none" xmlns="http://www.w3.org/2000/svg">
<path d="M44 89.859V54.2479C44 53.261 45.0661 52.6472 45.9208 53.1377L76.7622 70.9418C77.5552 71.3999 78.0428 72.2458 78.0428 73.1592V108.77C78.0428 109.757 76.9766 110.371 76.122 109.881L45.2805 92.0764C44.4875 91.6183 44 90.7724 44 89.859Z" fill="#6359FF"/>
<path d="M48.0002 47.8717L78.36 30.3436C79.153 29.8855 80.128 29.8855 80.921 30.3436L111.281 47.8717C112.347 48.4884 112.347 50.0274 111.281 50.6442L80.921 68.1722C80.128 68.6304 79.153 68.6304 78.36 68.1722L48.0002 50.6442C46.9341 50.0274 46.9341 48.4884 48.0002 47.8717Z" fill="#FFC806"/>
<path d="M81.2412 108.773V75.7497C81.2412 74.7628 82.3073 74.149 83.162 74.6395L111.281 90.8752C112.347 91.492 112.347 93.031 111.281 93.6477L83.162 109.883C82.3073 110.377 81.2412 109.76 81.2412 108.773Z" fill="#0BBFBF"/>
<path d="M213.506 74.6366C213.162 77.5501 211.946 78.7249 209.879 78.7249C207.315 78.7249 205.958 76.948 205.958 73.2621V72.8949H217.577C217.671 71.958 217.706 71.1533 217.706 70.2957C217.706 64.7448 214.898 61.6286 209.861 61.6286C204.451 61.6286 201.52 64.9034 201.52 70.8478V72.5484C201.52 78.4899 204.434 81.7559 209.732 81.7559C214.352 81.7559 217.139 79.5707 217.794 75.1917L213.506 74.6395V74.6366ZM209.82 64.6478C212.114 64.6478 213.268 66.134 213.268 69.3412V69.8375H205.958C206.046 66.3719 207.332 64.6478 209.82 64.6478Z" fill="#191741"/>
<path d="M128.439 74.0345L133.006 74.6043C132.471 79.28 129.722 81.7735 124.961 81.7735C119.551 81.7735 116.749 78.2902 116.749 71.6173V71.541C116.749 65.0179 119.622 61.6051 124.979 61.6051C129.813 61.6051 132.404 64.175 132.788 69.0298L128.333 69.5614C128.13 66.2074 127.099 64.6684 124.961 64.6684C122.503 64.6684 121.346 66.6479 121.346 70.8126V72.3487C121.346 76.6367 122.538 78.6779 125.014 78.6779C127.123 78.6779 128.236 77.1389 128.439 74.0374V74.0345Z" fill="#191741"/>
<path d="M143.241 61.6022C137.925 61.6022 134.977 65.3057 134.977 71.4852V71.8875C134.977 78.0259 137.928 81.7706 143.241 81.7706C148.554 81.7706 151.506 78.0259 151.506 71.8875V71.4852C151.506 65.3057 148.554 61.6022 143.241 61.6022ZM146.91 72.5454C146.91 76.7101 145.694 78.6896 143.241 78.6896C140.789 78.6896 139.573 76.7101 139.573 72.5454V70.8273C139.573 66.6626 140.762 64.6655 143.241 64.6655C145.72 64.6655 146.91 66.6626 146.91 70.8273V72.5454Z" fill="#191741"/>
<path d="M305.402 61.6022C300.086 61.6022 297.137 65.3057 297.137 71.4852V71.8875C297.137 78.0259 300.086 81.7706 305.402 81.7706C310.718 81.7706 313.672 78.0259 313.672 71.8875V71.4852C313.672 65.3057 310.715 61.6022 305.402 61.6022ZM309.07 72.5454C309.07 76.7101 307.863 78.6896 305.402 78.6896C302.941 78.6896 301.739 76.7101 301.739 72.5454V70.8273C301.739 66.6626 302.929 64.6655 305.402 64.6655C307.875 64.6655 309.07 66.6626 309.07 70.8273V72.5454Z" fill="#191741"/>
<path d="M320.574 56.3655H316.101V81.3094H320.574V56.3655Z" fill="#191741"/>
<path d="M242.923 74.0345L247.49 74.6043C246.956 79.28 244.209 81.7735 239.446 81.7735C234.036 81.7735 231.234 78.2902 231.234 71.6173V71.541C231.234 65.0179 234.106 61.6051 239.463 61.6051C244.298 61.6051 246.888 64.175 247.273 69.0298L242.817 69.5614C242.615 66.2074 241.584 64.6684 239.446 64.6684C236.987 64.6684 235.83 66.6479 235.83 70.8126V72.3487C235.83 76.6367 237.023 78.6779 239.498 78.6779C241.607 78.6779 242.72 77.1389 242.923 74.0374V74.0345Z" fill="#191741"/>
<path d="M338.005 76.1433C338.005 79.6442 335.292 81.7529 330.616 81.7529C325.632 81.7529 322.771 79.5678 322.648 75.6792L326.895 74.8187C326.86 77.3298 328.181 78.7425 330.598 78.7425C332.49 78.7425 333.532 78.0083 333.532 76.5632C333.532 75.1182 332.601 74.4721 330.143 73.5587L327.685 72.6218C325.232 71.6849 323.124 69.8904 323.124 67.2118C323.124 63.6551 325.6 61.6022 330.09 61.6022C334.581 61.6022 337.4 63.6404 337.418 67.2118L333.259 67.9461C333.347 65.6699 332.217 64.6625 330.143 64.6625C328.331 64.6625 327.324 65.3439 327.324 66.5716C327.324 67.7992 328.202 68.604 330.66 69.4851L333.112 70.3809C335.571 71.2825 338.005 72.6747 338.005 76.1403V76.1433Z" fill="#191741"/>
<path d="M286.952 61.6022C281.636 61.6022 278.687 65.3057 278.687 71.4852V71.8875C278.687 78.0259 281.636 81.7706 286.952 81.7706C292.268 81.7706 295.222 78.0259 295.222 71.8875V71.4852C295.222 65.3057 292.265 61.6022 286.952 61.6022ZM290.62 72.5454C290.62 76.7101 289.41 78.6896 286.952 78.6896C284.493 78.6896 283.289 76.7101 283.289 72.5454V70.8273C283.289 66.6626 284.479 64.6655 286.952 64.6655C289.425 64.6655 290.62 66.6626 290.62 70.8273V72.5454Z" fill="#191741"/>
<path d="M274.845 78.2109C275.674 78.2109 276.699 77.9906 277.671 77.5706L277.415 80.8366C276.402 81.3682 274.842 81.7323 273.38 81.7323C269.896 81.7323 268.102 79.9731 268.102 76.199V57.7077L272.575 56.3684V62.0691H277.618V65.3116H272.575V75.6674C272.575 77.5031 273.327 78.2138 274.845 78.2138V78.2109Z" fill="#191741"/>
<path d="M261.45 74.6366C261.106 77.5501 259.893 78.7249 257.822 78.7249C255.255 78.7249 253.902 76.948 253.902 73.2621V72.8949H265.52C265.614 71.958 265.65 71.1533 265.65 70.2957C265.65 64.7448 262.842 61.6286 257.805 61.6286C252.395 61.6286 249.464 64.9034 249.464 70.8478V72.5484C249.464 78.4899 252.377 81.7559 257.676 81.7559C262.298 81.7559 265.083 79.5707 265.741 75.1917L261.45 74.6395V74.6366ZM257.764 64.6478C260.057 64.6478 261.212 66.134 261.212 69.3412V69.8375H253.902C253.99 66.3719 255.276 64.6478 257.764 64.6478Z" fill="#191741"/>
<path d="M167.792 67.1766C169.169 63.3409 171.29 61.6022 174.021 61.6022C176.973 61.6022 178.333 63.7109 177.622 67.065L177.989 67.1766C179.366 63.3409 181.487 61.6022 184.218 61.6022C187.17 61.6022 188.53 63.7109 187.819 67.065L188.186 67.1766C189.537 63.3262 191.643 61.6022 194.524 61.6022C197.658 61.6022 199.147 63.473 199.147 67.0474V81.3094H194.674V67.8022C194.674 65.8961 193.94 64.9474 192.471 64.9474C190.236 64.9474 188.953 67.6964 188.953 71.3765V81.3124H184.503V67.8404C184.503 65.9724 183.666 64.9474 182.274 64.9474C180.042 64.9474 178.755 67.6964 178.755 71.3765V81.3124H174.306V67.8404C174.306 65.9724 173.536 64.9239 172.144 64.9239H172.138V64.9504C172.138 64.9504 172.132 64.9504 172.13 64.9504C169.897 64.9504 168.611 67.6994 168.611 71.3794V81.3153H164.161V67.8433C164.161 65.9754 163.392 64.9269 162 64.9269C159.838 64.9269 158.402 67.5702 158.402 71.4911V81.3153H153.929V62.0721H158.42C158.461 63.244 158.238 64.2866 157.395 66.8888L157.762 67.0532C159.486 63.1118 161.263 61.608 163.882 61.608C166.834 61.608 168.191 63.7168 167.48 67.0709L167.797 67.1825L167.792 67.1766Z" fill="#191741"/>
<path d="M230.861 65.526C225.868 65.8637 224.699 67.532 224.699 72.8979V81.3094H220.226V62.0662H224.717C224.758 63.4231 224.576 64.3952 223.674 66.9769L224.041 67.1413C225.292 64.2308 226.746 61.5522 231.178 61.4612L230.861 65.5231V65.526Z" fill="#191741"/>
</svg>
