<svg width="382" height="141" viewBox="0 0 382 141" fill="none" xmlns="http://www.w3.org/2000/svg">
<path d="M100.743 73.3334C102.365 73.3334 103.297 73.2269 105.342 72.7975L105.843 76.218C104.176 76.6547 102.459 76.8713 100.735 76.8622C92.8662 76.8622 90.5972 71.9709 90.5972 66.253C90.6678 60.6814 94.0466 55.9668 100.697 55.9668C102.426 55.9695 104.147 56.2009 105.814 56.6547L105.119 60.0486C103.707 59.7097 102.259 59.5425 100.806 59.5507C96.6385 59.6191 94.5872 62.6919 94.5165 66.2644C94.526 69.7932 95.8592 73.3334 100.743 73.3334Z" fill="#003037"/>
<path d="M116.846 55.9805C123.319 56.0185 126.19 60.8015 126.19 66.4054C126.19 71.8705 123.707 76.7599 116.808 76.7979C110.049 76.7295 107.464 71.8705 107.464 66.4054C107.464 60.8091 110.373 56.0584 116.846 55.9805ZM116.846 73.3641C120.981 73.3261 122.309 70.0064 122.309 66.4054C122.271 63.116 120.873 59.4067 116.808 59.4067C112.856 59.4447 111.305 63.0856 111.305 66.4054C111.305 70.1527 112.965 73.3641 116.846 73.3641Z" fill="#003037"/>
<path d="M152.97 76.4382V63.5829C152.97 60.3334 151.751 59.4441 149.698 59.4441C148.294 59.4441 146.713 60.2346 145.277 61.407C145.342 61.9151 145.378 62.4265 145.385 62.9387V76.4306H141.357V63.4384C141.357 60.1871 140.385 59.4061 138.341 59.4061C137.044 59.4061 135.247 60.265 133.704 61.407V76.4382H129.716V56.3314H133.7V58.0417C134.919 57.0763 136.863 55.9723 138.985 55.9343C141.787 55.8963 143.407 56.8616 144.31 58.3628C145.96 56.8984 148.065 56.0412 150.273 55.9343C156.855 55.826 156.958 61.0764 156.958 63.2921V76.4306L152.97 76.4382Z" fill="#003037"/>
<path d="M184.596 76.4382V63.5829C184.596 60.3334 183.377 59.4441 181.324 59.4441C179.92 59.4441 178.338 60.2346 176.902 61.407C176.967 61.9151 177.004 62.4265 177.011 62.9387V76.4306H172.983V63.4384C172.983 60.1871 172.011 59.4061 169.967 59.4061C168.67 59.4061 166.873 60.265 165.329 61.407V76.4382H161.341V56.3314H165.329V58.0417C166.548 57.0763 168.492 55.9723 170.614 55.9343C173.416 55.8963 175.036 56.8616 175.938 58.3628C177.588 56.8985 179.694 56.0414 181.902 55.9343C188.484 55.826 188.587 61.0764 188.587 63.2921V76.4306L184.596 76.4382Z" fill="#003037"/>
<path d="M207.195 72.759L207.808 76.0103C206.009 76.6146 203.534 76.9072 201.589 76.9072C193.611 76.9072 191.657 71.5865 191.657 66.2657C191.657 60.945 194.033 56.0176 200.714 56.0176C204.852 56.0176 208.299 58.5544 208.337 65.0173L208.299 67.1247H195.584C195.653 71.0487 197.775 73.4412 201.765 73.4412C203.352 73.4412 205.002 73.2568 207.195 72.759ZM195.775 64.0386H204.655C204.51 59.9682 202.464 59.1492 200.56 59.1492C197.527 59.1226 196.13 61.154 195.775 64.0386Z" fill="#003037"/>
<path d="M223.011 60.0122C222.164 59.812 221.296 59.7163 220.425 59.7271C217.942 59.6891 216.653 60.9091 215.719 61.8745V76.4457H211.731V56.3314H215.719V58.1176C216.324 57.487 217.049 56.9821 217.852 56.6321C218.654 56.2821 219.519 56.094 220.395 56.0786C221.532 56.0525 222.664 56.2348 223.735 56.6164L223.011 60.0122Z" fill="#003037"/>
<path d="M234.684 73.3334C236.305 73.3334 237.237 73.2269 239.283 72.7975L239.783 76.218C238.117 76.6547 236.399 76.8713 234.676 76.8622C226.807 76.8622 224.538 71.9709 224.538 66.253C224.608 60.6814 227.987 55.9668 234.638 55.9668C236.363 55.9685 238.08 56.1979 239.745 56.649L239.059 60.0486C237.647 59.7097 236.199 59.5425 234.747 59.5507C230.579 59.6191 228.528 62.6919 228.457 66.2644C228.474 69.7932 229.8 73.3334 234.684 73.3334Z" fill="#003037"/>
<path d="M256.935 72.7599L257.544 76.0093C255.747 76.6136 253.272 76.9063 251.327 76.9063C243.349 76.9063 241.405 71.5855 241.405 66.2648C241.405 60.944 243.781 56.0166 250.462 56.0166C254.597 56.0166 258.047 58.5535 258.085 65.0163L258.047 67.1237H245.324C245.393 71.0477 247.515 73.4402 251.503 73.4402C253.094 73.4421 254.744 73.2577 256.935 72.7599ZM245.509 64.0395H254.389C254.242 59.9692 252.198 59.1501 250.292 59.1501C247.268 59.1235 245.865 61.1549 245.509 64.0395Z" fill="#003037"/>
<path d="M271.602 59.6206H266.101V69.3708C266.101 71.4022 266.355 72.835 268.439 73.1182C269.603 73.1966 270.773 73.1476 271.926 72.9718L272.181 76.3923C271.003 76.5654 269.814 76.6499 268.624 76.6451C263.918 76.4683 262.151 74.0759 262.151 70.321V59.6206H259.242V56.869L262.151 56.5459V51.877H266.101V56.3369H271.602V59.6263V59.6206Z" fill="#003037"/>
<path d="M283.207 55.9805C289.68 56.0185 292.551 60.8015 292.551 66.4054C292.551 71.8705 290.068 76.7599 283.169 76.7979C276.409 76.7295 273.825 71.8705 273.825 66.4054C273.825 60.8091 276.734 56.0584 283.207 55.9805ZM283.207 73.3641C287.342 73.3261 288.67 70.0064 288.67 66.4054C288.632 63.116 287.233 59.4067 283.169 59.4067C279.217 59.4447 277.666 63.0856 277.666 66.4054C277.674 70.1527 279.326 73.3641 283.207 73.3641Z" fill="#003037"/>
<path d="M304.694 55.9805C311.167 56.0185 314.038 60.8015 314.038 66.4054C314.038 71.8705 311.555 76.7599 304.656 76.7979C297.897 76.7295 295.312 71.8705 295.312 66.4054C295.32 60.8091 298.229 56.0584 304.694 55.9805ZM304.694 73.3641C308.83 73.3261 310.157 70.0064 310.157 66.4054C310.119 63.116 308.721 59.4067 304.656 59.4067C300.704 59.4447 299.154 63.0856 299.154 66.4054C299.163 70.1527 300.813 73.3641 304.694 73.3641Z" fill="#003037"/>
<path d="M317.201 76.4385V49.1582H321.044V76.4385H317.201Z" fill="#003037"/>
<path d="M325.109 72.545C327.37 73.1151 329.492 73.402 330.827 73.402C332.409 73.402 334.028 73.0809 334.137 71.1882C334.244 69.1872 332.162 68.581 329.784 67.5777C327.093 66.4736 324.177 64.9705 324.245 61.2536C324.314 59.3989 325.433 55.758 331.398 55.9328C333.337 55.9842 335.265 56.2486 337.145 56.7214L336.467 60.0108C334.345 59.511 332.764 59.2963 331.221 59.2507C329.502 59.2507 328.165 59.7885 328.096 61.398C328.058 62.7548 329.137 63.4674 331.799 64.5411C334.462 65.6147 338.293 67.0779 338.125 71.2927C338.018 73.9683 336.259 76.8966 330.827 76.8263C329.108 76.7883 326.337 76.5736 324.284 75.861L325.109 72.545Z" fill="#003037"/>
<path d="M44.0941 76.2463C43.938 76.3188 43.806 76.4341 43.7135 76.5787C43.6209 76.7232 43.5718 76.8911 43.5718 77.0625C43.5718 77.2339 43.6209 77.4017 43.7135 77.5463C43.806 77.6908 43.938 77.8061 44.0941 77.8786L61.6203 86.0346C61.8528 86.1431 62.1064 86.1996 62.3633 86.1999V68.0029C62.0997 68.0033 61.8392 68.0597 61.5993 68.1683L44.0941 76.2463Z" fill="#FF761C"/>
<path d="M62.3633 68.0029V86.1999C62.6377 86.2034 62.9096 86.147 63.1597 86.0346L80.6401 77.9109C80.7956 77.8382 80.9272 77.7229 81.0193 77.5786C81.1115 77.4342 81.1604 77.2667 81.1604 77.0957C81.1604 76.9247 81.1115 76.7572 81.0193 76.6129C80.9272 76.4685 80.7956 76.3532 80.6401 76.2805L63.1292 68.1778C62.8893 68.0661 62.6282 68.0065 62.3633 68.0029Z" fill="#FF8C1E"/>
<path d="M43.5728 52.4471C43.5731 52.6181 43.6223 52.7856 43.7146 52.9299C43.8069 53.0743 43.9386 53.1895 44.0942 53.2623L61.6203 61.4106C61.8536 61.518 62.1064 61.5769 62.3633 61.5836C62.5866 61.5866 62.8086 61.5492 63.0185 61.4733L63.5074 61.2472C65.3162 60.4149 64.1167 60.9641 80.6325 53.2851C80.7881 53.2124 80.9196 53.0971 81.0117 52.9527C81.1039 52.8083 81.1528 52.6409 81.1528 52.4699C81.1528 52.2989 81.1039 52.1314 81.0117 51.987C80.9196 51.8427 80.7881 51.7274 80.6325 51.6546L63.1292 43.5519C62.8906 43.4387 62.6296 43.3799 62.3652 43.3799C62.1009 43.3799 61.8398 43.4387 61.6012 43.5519L44.0904 51.63C43.9357 51.7041 43.8052 51.8201 43.7136 51.9646C43.6221 52.1091 43.5733 52.2763 43.5728 52.4471Z" fill="#00C1AD"/>
<path d="M62.3634 62.5985V68.0029C62.0998 68.0032 61.8393 68.0596 61.5994 68.1682L44.0961 76.2538C43.9405 76.3266 43.8089 76.4419 43.7165 76.5862C43.6242 76.7305 43.575 76.898 43.5747 77.0691V52.4473C43.575 52.6183 43.6242 52.7858 43.7165 52.9301C43.8089 53.0745 43.9405 53.1897 44.0961 53.2625L61.6223 61.4108C61.8555 61.5182 62.1084 61.5771 62.3653 61.5838C62.5886 61.5868 62.8105 61.5494 63.0204 61.4735L62.9879 61.4906C62.4417 61.7282 62.3634 61.979 62.3634 62.5985Z" fill="#D1D1D1"/>
<path d="M159.416 95.1766V86.8154H160.843V97.723H159.495L153.91 89.3618V97.723H152.483V86.8154H153.831L159.416 95.1766Z" fill="#003037"/>
<path d="M170.118 94.3829H164.126C164.194 95.0167 164.483 95.6069 164.942 96.0513C165.385 96.4576 165.971 96.6752 166.573 96.6575C166.962 96.6746 167.348 96.5867 167.69 96.403C168.032 96.2193 168.318 95.9467 168.517 95.6143H169.914C169.65 96.2636 169.203 96.8237 168.628 97.2276C168.027 97.6673 167.298 97.8995 166.552 97.8889C165.871 97.8945 165.203 97.7109 164.621 97.3587C164.036 97.0049 163.559 96.499 163.242 95.8955C162.902 95.2467 162.729 94.5237 162.74 93.7919C162.73 93.0681 162.909 92.3541 163.257 91.7187C163.584 91.116 164.062 90.6084 164.646 90.246C165.211 89.8913 165.867 89.7048 166.535 89.7082C167.189 89.7006 167.831 89.8793 168.386 90.2232C168.941 90.5654 169.393 91.0497 169.696 91.6256C170.019 92.2348 170.183 92.915 170.173 93.6038C170.183 93.8647 170.165 94.1259 170.118 94.3829ZM164.95 91.5933C164.485 92.0458 164.188 92.6422 164.109 93.2845H168.863C168.803 92.6545 168.535 92.0622 168.099 91.6009C167.899 91.39 167.656 91.2229 167.387 91.1104C167.118 90.9978 166.829 90.9423 166.537 90.9472C166.242 90.9455 165.951 91.0017 165.678 91.1126C165.406 91.2235 165.158 91.3869 164.95 91.5933Z" fill="#003037"/>
<path d="M175.061 93.7138L177.79 97.7176H176.205L174.192 94.6639L172.169 97.7176H170.662L173.376 93.7138L170.826 89.8828H172.354L174.236 92.7978L176.111 89.8828H177.601L175.061 93.7138Z" fill="#003037"/>
<path d="M180.495 97.1878C180.062 96.7203 179.845 96.0812 179.843 95.2704V91.1107H178.489V89.9268H179.085C179.213 89.935 179.341 89.9179 179.462 89.8765C179.583 89.8351 179.694 89.7701 179.79 89.6855C179.878 89.5934 179.945 89.4842 179.989 89.3649C180.032 89.2455 180.05 89.1186 180.042 88.9919V87.8232H181.188V89.8831H182.978V91.1145H181.188V95.2286C181.159 95.608 181.277 95.9841 181.519 96.2794C181.636 96.399 181.778 96.4922 181.935 96.5528C182.092 96.6135 182.26 96.6401 182.428 96.631C182.617 96.6354 182.805 96.5977 182.978 96.5208V97.7521C182.715 97.8431 182.439 97.8906 182.16 97.8928C181.848 97.9016 181.537 97.8432 181.25 97.7215C180.963 97.5998 180.705 97.4177 180.495 97.1878Z" fill="#003037"/>
<path d="M190.142 100.334C189.691 100.129 189.294 99.8222 188.981 99.4387C188.701 99.0935 188.498 98.6924 188.387 98.2625H189.751C189.88 98.6297 190.139 98.9372 190.48 99.1271C190.885 99.3509 191.343 99.4613 191.806 99.4464C192.093 99.4597 192.381 99.4161 192.651 99.3183C192.922 99.2204 193.17 99.0702 193.382 98.8763C193.581 98.6774 193.735 98.4395 193.837 98.1778C193.938 97.916 193.983 97.6362 193.97 97.3561V96.3128H193.892C193.619 96.6596 193.272 96.9406 192.875 97.1347C192.478 97.3289 192.042 97.4312 191.6 97.434C190.97 97.437 190.353 97.2617 189.82 96.9285C189.269 96.5892 188.82 96.1104 188.517 95.5413C188.195 94.9399 188.031 94.2673 188.039 93.5859C188.03 92.8972 188.194 92.217 188.517 91.6077C188.816 91.0362 189.263 90.5546 189.812 90.2129C190.342 89.8787 190.957 89.7026 191.584 89.7056C192.103 89.6958 192.614 89.8308 193.059 90.0951C193.404 90.2812 193.704 90.5407 193.938 90.8552H194.016L194.314 89.8728H195.317V97.3523C195.317 98.3594 194.998 99.1645 194.362 99.7675C193.725 100.371 192.876 100.672 191.814 100.672C191.238 100.685 190.667 100.57 190.142 100.334ZM192.816 95.8624C193.175 95.6246 193.465 95.2969 193.657 94.9123C193.868 94.5007 193.976 94.0442 193.97 93.5821C193.977 93.112 193.869 92.6473 193.657 92.2272C193.465 91.8427 193.175 91.515 192.816 91.2771C192.48 91.054 192.084 90.9349 191.68 90.9349C191.275 90.9349 190.88 91.054 190.543 91.2771C190.184 91.515 189.895 91.8427 189.703 92.2272C189.491 92.6473 189.383 93.112 189.39 93.5821C189.384 94.0442 189.492 94.5007 189.703 94.9123C189.895 95.2969 190.184 95.6246 190.543 95.8624C190.88 96.0868 191.275 96.2066 191.68 96.2066C192.085 96.2066 192.48 96.0868 192.816 95.8624Z" fill="#003037"/>
<path d="M204.343 94.3829H198.352C198.42 95.0165 198.709 95.6065 199.167 96.0513C199.611 96.4572 200.196 96.6748 200.798 96.6575C201.187 96.6748 201.574 96.5869 201.916 96.4032C202.259 96.2195 202.545 95.9469 202.745 95.6143H204.141C203.877 96.2641 203.43 96.8243 202.853 97.2276C202.254 97.6663 201.527 97.8985 200.783 97.8889C200.103 97.8945 199.435 97.7108 198.854 97.3587C198.269 97.0044 197.792 96.4987 197.473 95.8955C197.133 95.2467 196.96 94.5237 196.971 93.7919C196.962 93.0679 197.141 92.354 197.49 91.7187C197.815 91.1157 198.293 90.608 198.877 90.246C199.443 89.8914 200.099 89.7048 200.768 89.7082C201.421 89.7006 202.064 89.8793 202.619 90.2232C203.173 90.566 203.625 91.0502 203.927 91.6256C204.251 92.2347 204.416 92.9149 204.406 93.6038C204.415 93.865 204.394 94.1264 204.343 94.3829ZM199.175 91.5933C198.709 92.0452 198.413 92.642 198.336 93.2845H203.088C203.03 92.6543 202.761 92.0617 202.324 91.6009C202.125 91.3897 201.882 91.2224 201.614 91.1098C201.345 90.9972 201.055 90.9418 200.764 90.9472C200.469 90.9455 200.177 91.0017 199.905 91.1125C199.632 91.2234 199.384 91.3868 199.175 91.5933Z" fill="#003037"/>
<path d="M206.034 97.7173V89.8825H207.044L207.342 90.865H207.42C207.649 90.5372 207.949 90.2655 208.299 90.0707C208.716 89.8257 209.194 89.7014 209.678 89.7115C210.252 89.7023 210.817 89.8509 211.311 90.141C211.794 90.4297 212.185 90.8479 212.44 91.3476C212.721 91.9084 212.86 92.5285 212.847 93.1548V97.7154H211.483V93.1985C211.51 92.6048 211.305 92.0237 210.91 91.5776C210.727 91.3788 210.504 91.2215 210.255 91.1166C210.006 91.0116 209.736 90.9614 209.466 90.9695C209.186 90.9597 208.908 91.0088 208.648 91.1136C208.389 91.2184 208.155 91.3765 207.961 91.5776C207.563 92.0218 207.357 92.6042 207.388 93.1985V97.7173H206.034Z" fill="#003037"/>
<path d="M221.776 94.3829H215.784C215.852 95.0167 216.141 95.6069 216.6 96.0513C217.043 96.4576 217.628 96.6751 218.231 96.6575C218.62 96.6748 219.006 96.5869 219.348 96.4032C219.69 96.2195 219.976 95.9468 220.175 95.6142H221.572C221.308 96.2644 220.861 96.8248 220.284 97.2276C219.685 97.6663 218.959 97.8985 218.216 97.8889C217.535 97.8945 216.866 97.7108 216.285 97.3587C215.7 97.0048 215.223 96.4989 214.906 95.8955C214.565 95.2466 214.393 94.5237 214.403 93.7919C214.394 93.0681 214.572 92.3541 214.921 91.7187C215.247 91.116 215.726 90.6084 216.309 90.246C216.875 89.8913 217.531 89.7048 218.2 89.7082C218.854 89.7013 219.496 89.88 220.051 90.2232C220.605 90.5664 221.057 91.0506 221.36 91.6256C221.683 92.2346 221.848 92.9148 221.839 93.6038C221.846 93.865 221.825 94.1262 221.776 94.3829ZM216.607 91.5933C216.142 92.0451 215.846 92.642 215.769 93.2845H220.521C220.461 92.6545 220.192 92.0621 219.757 91.6009C219.558 91.3896 219.316 91.2222 219.047 91.1096C218.779 90.997 218.49 90.9417 218.198 90.9472C217.904 90.9451 217.611 91.0011 217.338 91.112C217.065 91.2229 216.817 91.3864 216.607 91.5933Z" fill="#003037"/>
<path d="M223.47 97.7175V89.8827H224.473L224.773 90.8651H224.851C225.073 90.5506 225.355 90.2832 225.682 90.0784C226.038 89.8374 226.459 89.7095 226.889 89.7116C227.095 89.7067 227.3 89.7278 227.5 89.7743V91.1292C227.302 91.0733 227.096 91.047 226.889 91.0513C226.61 91.0406 226.333 91.0893 226.074 91.1942C225.816 91.299 225.583 91.4577 225.392 91.6594C225.01 92.0635 224.819 92.614 224.819 93.3107V97.7213L223.47 97.7175Z" fill="#003037"/>
<path d="M233.091 90.0896C233.545 90.3385 233.918 90.7117 234.166 91.1652C234.427 91.6512 234.558 92.1954 234.548 92.7462V97.7173H233.528L233.247 96.7349H233.167C232.922 97.0593 232.612 97.3303 232.258 97.5311C231.814 97.7808 231.31 97.9044 230.8 97.8883C230.321 97.8991 229.847 97.7921 229.42 97.5767C229.038 97.3841 228.718 97.09 228.495 96.7273C228.275 96.3688 228.16 95.9559 228.165 95.5358C228.159 95.0637 228.317 94.6042 228.612 94.2341C228.942 93.8327 229.376 93.5285 229.867 93.3543C230.456 93.138 231.081 93.0323 231.71 93.0426H233.184V92.6835C233.195 92.452 233.16 92.2207 233.081 92.0028C233.001 91.7849 232.879 91.5848 232.722 91.4141C232.515 91.1874 232.249 91.0226 231.953 90.9382C231.658 90.8539 231.344 90.8534 231.048 90.9367C230.752 91.0201 230.485 91.184 230.278 91.41C230.071 91.636 229.931 91.9152 229.874 92.216H228.51C228.562 91.7698 228.721 91.3424 228.973 90.9695C229.235 90.5796 229.595 90.2635 230.015 90.0516C230.476 89.8169 230.988 89.6988 231.505 89.7077C232.058 89.6967 232.604 89.8283 233.091 90.0896ZM232.59 96.1363C232.784 95.9532 232.938 95.7316 233.041 95.4857C233.143 95.2399 233.193 94.9753 233.186 94.7092V94.1182H231.805C231.073 94.1182 230.508 94.2373 230.111 94.4755C229.947 94.5672 229.808 94.6966 229.704 94.8528C229.601 95.0091 229.537 95.1876 229.517 95.3736C229.497 95.5596 229.522 95.7476 229.591 95.9219C229.659 96.0963 229.768 96.2519 229.909 96.3757C230.227 96.617 230.623 96.7358 231.022 96.7102C231.309 96.722 231.595 96.6775 231.864 96.579C232.133 96.4805 232.38 96.33 232.59 96.1363Z" fill="#003037"/>
<path d="M237.619 97.1878C237.186 96.7203 236.969 96.0812 236.968 95.2704V91.1107H235.62V89.9268H236.216C236.344 89.9349 236.472 89.9177 236.593 89.8763C236.714 89.8349 236.826 89.77 236.922 89.6855C237.009 89.593 237.077 89.4838 237.12 89.3645C237.163 89.2452 237.181 89.1184 237.172 88.9919V87.8232H238.318V89.8831H240.106V91.1145H238.318V95.2286C238.318 95.6961 238.428 96.0463 238.647 96.2794C238.765 96.3988 238.907 96.4919 239.064 96.5525C239.22 96.6131 239.388 96.6399 239.556 96.631C239.745 96.6356 239.933 96.5979 240.106 96.5208V97.7521C239.844 97.8431 239.568 97.8906 239.291 97.8928C238.977 97.902 238.666 97.8438 238.378 97.7222C238.089 97.6005 237.83 97.4182 237.619 97.1878Z" fill="#003037"/>
<path d="M241.59 88.4611C241.511 88.3813 241.448 88.2863 241.406 88.1819C241.364 88.0774 241.343 87.9656 241.346 87.8531C241.342 87.7404 241.361 87.628 241.403 87.5233C241.446 87.4186 241.509 87.3238 241.59 87.245C241.67 87.1678 241.764 87.1073 241.868 87.0672C241.972 87.027 242.083 87.008 242.194 87.0112C242.307 87.0074 242.421 87.026 242.527 87.0662C242.633 87.1063 242.73 87.1671 242.813 87.245C242.893 87.3239 242.957 87.4188 242.999 87.5235C243.04 87.6282 243.06 87.7405 243.055 87.8531C243.056 87.9659 243.035 88.0778 242.992 88.1822C242.949 88.2867 242.885 88.3815 242.805 88.4613C242.725 88.5411 242.63 88.6042 242.525 88.6469C242.42 88.6896 242.307 88.7111 242.194 88.7101C242.081 88.7132 241.969 88.6926 241.865 88.6497C241.761 88.6068 241.668 88.5425 241.59 88.4611ZM242.868 97.7174H241.52V89.8825H242.868V97.7174Z" fill="#003037"/>
<path d="M246.39 97.351C245.804 96.9878 245.325 96.4771 245.001 95.8707C244.654 95.2326 244.476 94.5173 244.484 93.7918C244.475 93.0681 244.654 92.3544 245.001 91.7186C245.328 91.1159 245.806 90.6083 246.39 90.2459C246.961 89.8943 247.62 89.708 248.291 89.708C248.963 89.708 249.621 89.8943 250.193 90.2459C250.78 90.6058 251.262 91.1139 251.589 91.7186C251.937 92.354 252.116 93.068 252.106 93.7918C252.115 94.5174 251.937 95.233 251.589 95.8707C251.264 96.4792 250.782 96.9902 250.193 97.351C249.621 97.7027 248.963 97.889 248.291 97.889C247.62 97.889 246.961 97.7027 246.39 97.351ZM249.518 96.2679C249.903 96.0206 250.212 95.6737 250.412 95.2645C250.638 94.8066 250.752 94.3019 250.743 93.7918C250.752 93.2842 250.639 92.7816 250.412 92.3267C250.21 91.9202 249.901 91.5756 249.518 91.3291C249.154 91.0947 248.729 90.97 248.295 90.97C247.861 90.97 247.436 91.0947 247.072 91.3291C246.688 91.5763 246.377 91.9206 246.17 92.3267C245.938 92.7801 245.822 93.2833 245.832 93.7918C245.823 94.3028 245.939 94.8082 246.17 95.2645C246.374 95.6717 246.682 96.0179 247.064 96.2679C247.43 96.5023 247.856 96.6269 248.291 96.6269C248.726 96.6269 249.152 96.5023 249.518 96.2679Z" fill="#003037"/>
<path d="M253.74 97.7173V89.8825H254.742L255.04 90.865H255.119C255.348 90.5376 255.648 90.2661 255.997 90.0707C256.415 89.8257 256.893 89.7014 257.378 89.7115C257.951 89.7026 258.516 89.8512 259.009 90.141C259.493 90.4292 259.884 90.8476 260.138 91.3476C260.419 91.9083 260.559 92.5285 260.545 93.1548V97.7154H259.187V93.1985C259.214 92.6048 259.009 92.0237 258.614 91.5776C258.432 91.3788 258.209 91.2216 257.96 91.1166C257.711 91.0116 257.442 90.9615 257.172 90.9695C256.892 90.9594 256.613 91.0083 256.354 91.1131C256.095 91.2179 255.86 91.3762 255.667 91.5776C255.268 92.0214 255.062 92.6041 255.094 93.1985V97.7173H253.74Z" fill="#003037"/>
<path d="M267.973 97.3511C267.388 96.9872 266.91 96.4767 266.586 95.8708C266.238 95.2331 266.06 94.5175 266.069 93.7919C266.059 93.0681 266.238 92.3541 266.586 91.7187C266.912 91.1165 267.39 90.609 267.973 90.246C268.545 89.8893 269.208 89.7027 269.883 89.7083C270.463 89.7012 271.034 89.8467 271.539 90.1301C272.028 90.4023 272.449 90.7803 272.771 91.2361C273.088 91.6787 273.306 92.1833 273.413 92.7164H272.064C271.932 92.232 271.662 91.7958 271.287 91.4603C270.897 91.1275 270.396 90.9525 269.883 90.97C269.449 90.9686 269.024 91.0934 268.661 91.3292C268.277 91.5764 267.965 91.9207 267.759 92.3268C267.527 92.7802 267.411 93.2834 267.421 93.7919C267.412 94.3029 267.528 94.8083 267.759 95.2646C267.962 95.6722 268.271 96.0186 268.653 96.268C269.018 96.5059 269.446 96.6308 269.883 96.6271C270.396 96.6456 270.898 96.4705 271.287 96.1369C271.662 95.8014 271.932 95.3652 272.064 94.8808H273.413C273.306 95.4139 273.088 95.9184 272.771 96.3611C272.448 96.817 272.027 97.1955 271.539 97.469C271.033 97.7509 270.462 97.8957 269.883 97.8889C269.208 97.8945 268.545 97.7079 267.973 97.3511Z" fill="#003037"/>
<path d="M276.432 97.351C275.847 96.9878 275.368 96.4771 275.044 95.8707C274.696 95.233 274.518 94.5174 274.526 93.7918C274.517 93.068 274.695 92.354 275.044 91.7186C275.37 91.1159 275.849 90.6083 276.432 90.2459C277.004 89.8943 277.662 89.708 278.334 89.708C279.006 89.708 279.664 89.8943 280.235 90.2459C280.822 90.6064 281.304 91.1143 281.631 91.7186C281.98 92.354 282.158 93.068 282.149 93.7918C282.157 94.5174 281.979 95.233 281.631 95.8707C281.306 96.4788 280.824 96.9897 280.235 97.351C279.664 97.7027 279.006 97.889 278.334 97.889C277.662 97.889 277.004 97.7027 276.432 97.351ZM279.561 96.2679C279.945 96.0206 280.254 95.6737 280.455 95.2645C280.681 94.8066 280.794 94.3019 280.785 93.7918C280.795 93.2842 280.682 92.7816 280.455 92.3267C280.252 91.9202 279.944 91.5756 279.561 91.3291C279.196 91.0947 278.772 90.97 278.338 90.97C277.904 90.97 277.479 91.0947 277.114 91.3291C276.731 91.5769 276.42 91.921 276.213 92.3267C275.981 92.7801 275.865 93.2833 275.875 93.7918C275.866 94.3028 275.982 94.8082 276.213 95.2645C276.417 95.6713 276.725 96.0174 277.107 96.2679C277.473 96.5023 277.899 96.6269 278.334 96.6269C278.769 96.6269 279.195 96.5023 279.561 96.2679Z" fill="#003037"/>
<path d="M293.057 90.0973C293.478 90.375 293.81 90.7676 294.012 91.228C294.252 91.77 294.369 92.3577 294.356 92.9496V97.7174H293.007V92.98C293.007 92.3466 292.858 91.8532 292.56 91.4997C292.423 91.3302 292.248 91.1944 292.049 91.1025C291.851 91.0106 291.633 90.9651 291.414 90.9695C291.188 90.967 290.964 91.0154 290.759 91.1111C290.554 91.2069 290.373 91.3475 290.23 91.5225C289.897 91.9338 289.727 92.4524 289.753 92.98V97.7174H288.404V92.98C288.404 92.3466 288.255 91.8532 287.957 91.4997C287.82 91.3304 287.645 91.1946 287.446 91.1027C287.247 91.0108 287.03 90.9653 286.811 90.9695C286.586 90.9667 286.362 91.0143 286.157 91.1087C285.952 91.203 285.771 91.3418 285.627 91.5149C285.292 91.928 285.122 92.4498 285.15 92.98V97.7174H283.799V89.8826H284.804L285.102 90.865H285.18C285.374 90.5564 285.627 90.289 285.925 90.0783C286.269 89.8298 286.685 89.7009 287.109 89.7116C287.622 89.6924 288.125 89.8464 288.538 90.1486C288.883 90.4012 289.162 90.7322 289.352 91.114C289.582 90.7287 289.893 90.397 290.263 90.141C290.684 89.8468 291.19 89.6961 291.705 89.7116C292.184 89.7078 292.653 89.8417 293.057 90.0973Z" fill="#003037"/>
<path d="M305.68 90.0972C306.102 90.3737 306.434 90.7666 306.635 91.2279C306.876 91.7695 306.994 92.3573 306.981 92.9495V97.7173H305.633V92.9799C305.633 92.3465 305.484 91.8531 305.186 91.4996C305.048 91.3301 304.873 91.1943 304.674 91.1024C304.476 91.0105 304.259 90.965 304.04 90.9694C303.813 90.9669 303.589 91.0153 303.384 91.111C303.179 91.2068 302.998 91.3474 302.855 91.5224C302.522 91.9337 302.352 92.4523 302.378 92.9799V97.7173H301.016V92.9799C301.016 92.3471 300.869 91.8531 300.569 91.4996C300.432 91.33 300.257 91.1941 300.058 91.1022C299.859 91.0103 299.642 90.9649 299.423 90.9694C299.197 90.9665 298.974 91.014 298.769 91.1084C298.564 91.2027 298.383 91.3416 298.239 91.5148C297.903 91.9277 297.732 92.4494 297.76 92.9799V97.7173H296.411V89.8825H297.416L297.714 90.8649H297.792C297.983 90.5542 298.235 90.2848 298.533 90.0725C298.877 89.824 299.293 89.6951 299.717 89.7057C300.229 89.6863 300.732 89.8404 301.144 90.1428C301.489 90.3953 301.769 90.7263 301.96 91.1081C302.189 90.723 302.499 90.3912 302.869 90.1352C303.291 89.8409 303.798 89.6903 304.313 89.7057C304.797 89.6998 305.273 89.8359 305.68 90.0972Z" fill="#003037"/>
<path d="M315.914 94.3829H309.922C309.991 95.0164 310.279 95.6064 310.738 96.0513C311.181 96.4572 311.767 96.6747 312.369 96.6575C312.758 96.6747 313.144 96.5869 313.487 96.4032C313.83 96.2195 314.116 95.9468 314.315 95.6142H315.71C315.446 96.264 315 96.8242 314.424 97.2276C313.825 97.6661 313.098 97.8982 312.354 97.8889C311.674 97.8947 311.005 97.7111 310.425 97.3587C309.839 97.0055 309.361 96.4995 309.044 95.8955C308.703 95.2466 308.531 94.5237 308.541 93.7919C308.533 93.0682 308.711 92.3544 309.059 91.7187C309.385 91.116 309.864 90.6084 310.448 90.246C311.014 89.8913 311.67 89.7048 312.339 89.7082C312.992 89.7013 313.634 89.88 314.189 90.2232C314.744 90.5659 315.195 91.0502 315.498 91.6256C315.821 92.2346 315.986 92.9148 315.977 93.6038C315.986 93.865 315.964 94.1263 315.914 94.3829ZM310.757 91.5933C310.292 92.0451 309.996 92.642 309.919 93.2845H314.671C314.612 92.6543 314.343 92.0617 313.907 91.6009C313.707 91.3896 313.465 91.2223 313.196 91.1097C312.927 90.9971 312.638 90.9418 312.346 90.9472C312.052 90.9454 311.76 91.0016 311.487 91.1125C311.214 91.2234 310.966 91.3868 310.757 91.5933Z" fill="#003037"/>
<path d="M317.614 97.7175V89.8827H318.618L318.916 90.8651H318.995C319.216 90.5507 319.499 90.2832 319.826 90.0784C320.181 89.8374 320.602 89.7095 321.033 89.7117C321.239 89.7066 321.445 89.7277 321.646 89.7744V91.1293C321.446 91.0734 321.24 91.0471 321.033 91.0513C320.754 91.0408 320.476 91.0897 320.218 91.1945C319.96 91.2994 319.727 91.4579 319.535 91.6594C319.153 92.0636 318.962 92.614 318.962 93.3108V97.7213L317.614 97.7175Z" fill="#003037"/>
<path d="M324.15 97.3511C323.564 96.9879 323.085 96.4772 322.761 95.8708C322.413 95.2331 322.235 94.5175 322.244 93.7919C322.234 93.0681 322.412 92.3541 322.761 91.7187C323.087 91.116 323.566 90.6084 324.15 90.246C324.722 89.8891 325.384 89.7025 326.06 89.7082C326.639 89.7014 327.209 89.8469 327.714 90.1301C328.202 90.4023 328.623 90.7803 328.946 91.2361C329.264 91.6782 329.482 92.183 329.587 92.7164H328.239C328.108 92.2321 327.838 91.7959 327.464 91.4603C327.074 91.128 326.573 90.9531 326.06 90.97C325.625 90.9686 325.2 91.0934 324.835 91.3292C324.452 91.577 324.141 91.9211 323.934 92.3268C323.703 92.7803 323.587 93.2835 323.598 93.7919C323.588 94.3027 323.703 94.8081 323.934 95.2646C324.138 95.6714 324.446 96.0174 324.828 96.268C325.194 96.5061 325.622 96.6311 326.06 96.6271C326.573 96.645 327.074 96.47 327.464 96.1369C327.838 95.8012 328.108 95.3651 328.239 94.8808H329.587C329.482 95.4142 329.264 95.919 328.946 96.3611C328.623 96.817 328.202 97.1954 327.714 97.4689C327.209 97.7507 326.638 97.8955 326.06 97.8889C325.384 97.8947 324.722 97.7081 324.15 97.3511Z" fill="#003037"/>
<path d="M338.07 94.3829H332.078C332.148 95.0163 332.436 95.606 332.894 96.0513C333.338 96.4577 333.924 96.6753 334.527 96.6575C334.916 96.6746 335.302 96.5867 335.644 96.403C335.986 96.2193 336.272 95.9467 336.471 95.6143H337.879C337.615 96.2641 337.168 96.8243 336.592 97.2276C335.992 97.6663 335.265 97.8985 334.521 97.8889C333.841 97.8945 333.173 97.7108 332.592 97.3587C332.007 97.0044 331.53 96.4987 331.211 95.8955C330.871 95.2467 330.698 94.5237 330.709 93.7919C330.7 93.0679 330.879 92.354 331.228 91.7187C331.553 91.1157 332.032 90.608 332.615 90.246C333.181 89.8914 333.837 89.7048 334.506 89.7082C335.16 89.7006 335.802 89.8793 336.357 90.2232C336.911 90.566 337.363 91.0502 337.665 91.6256C337.99 92.2343 338.155 92.9148 338.145 93.6038C338.149 93.8655 338.124 94.1268 338.07 94.3829ZM332.913 91.5933C332.447 92.045 332.15 92.6418 332.073 93.2845H336.825C336.766 92.6543 336.497 92.0617 336.061 91.6009C335.861 91.3897 335.619 91.2224 335.35 91.1098C335.081 90.9972 334.792 90.9418 334.5 90.9472C334.206 90.9453 333.914 91.0014 333.642 91.1123C333.369 91.2232 333.122 91.3867 332.913 91.5933Z" fill="#003037"/>
</svg>
