<?xml version="1.0" encoding="utf-8"?>
<!-- Generator: Adobe Illustrator 23.0.2, SVG Export Plug-In . SVG Version: 6.00 Build 0)  -->
<svg version="1.1" id="commercetools" xmlns="http://www.w3.org/2000/svg" xmlns:xlink="http://www.w3.org/1999/xlink" x="0px"
	 y="0px" viewBox="0 0 422.36 252.28" style="enable-background:new 0 0 422.36 252.28;" xml:space="preserve">
<style type="text/css">
	.st0{fill:#2A4148;}
	.st1{clip-path:url(#SVGID_2_);fill:#2A4148;}
	.st2{fill:#F27923;}
	.st3{clip-path:url(#SVGID_4_);fill:#F5A730;}
	.st4{clip-path:url(#SVGID_4_);fill:#20AD92;}
	.st5{fill:#D0D1D1;}
</style>
<g>
	<g>
		<path class="st0" d="M53.5,189.95c2.24,0,3.54-0.15,6.38-0.75l0.7,4.79c-2.19,0.6-4.64,0.9-7.08,0.9
			c-10.92,0-14.06-6.83-14.06-14.81c0.1-7.78,4.79-14.36,14.01-14.36c2.44,0,4.54,0.3,7.08,0.95l-0.95,4.74
			c-2.69-0.6-4.29-0.7-5.98-0.7c-5.79,0.1-8.63,4.39-8.73,9.38C44.87,185.01,46.72,189.95,53.5,189.95L53.5,189.95z"/>
		<path class="st0" d="M75.85,190c5.74-0.05,7.58-4.69,7.58-9.73c-0.05-4.59-1.99-9.78-7.63-9.78c-5.49,0.05-7.63,5.14-7.63,9.78
			C68.17,185.51,70.46,190,75.85,190L75.85,190z M75.85,165.71c8.98,0.05,12.97,6.73,12.97,14.56c0,7.63-3.44,14.46-13.02,14.51
			c-9.38-0.1-12.97-6.88-12.97-14.51C62.83,172.44,66.87,165.81,75.85,165.71L75.85,165.71z"/>
		<path class="st0" d="M125.97,194.29v-17.96c0-4.54-1.7-5.79-4.54-5.79c-1.94,0-4.14,1.1-6.13,2.74c0.1,0.6,0.15,1.8,0.15,2.15
			v18.85h-5.59v-18.15c0-4.54-1.35-5.64-4.19-5.64c-1.8,0-4.29,1.2-6.43,2.79v21H93.7v-28.08h5.54v2.39
			c1.7-1.35,4.39-2.89,7.33-2.94c3.89-0.05,6.13,1.3,7.38,3.39c2.29-2.15,5.69-3.34,8.28-3.39c9.13-0.15,9.28,7.18,9.28,10.27v18.35
			H125.97L125.97,194.29z"/>
		<path class="st0" d="M169.86,194.29v-17.96c0-4.54-1.7-5.79-4.54-5.79c-1.94,0-4.14,1.1-6.13,2.74c0.1,0.6,0.15,1.8,0.15,2.15
			v18.85h-5.58v-18.15c0-4.54-1.35-5.64-4.19-5.64c-1.8,0-4.29,1.2-6.43,2.79v21h-5.54v-28.08h5.54v2.39
			c1.7-1.35,4.39-2.89,7.33-2.94c3.89-0.05,6.13,1.3,7.38,3.39c2.29-2.15,5.69-3.34,8.28-3.39c9.13-0.15,9.28,7.18,9.28,10.27v18.35
			H169.86L169.86,194.29z"/>
		<path class="st0" d="M185.37,176.98h12.32c-0.2-5.69-3.04-6.83-5.69-6.83C187.81,170.1,185.87,172.94,185.37,176.98L185.37,176.98
			z M201.23,189.15l0.85,4.54c-2.49,0.85-5.94,1.25-8.63,1.25c-11.07,0-13.77-7.43-13.77-14.86c0-7.43,3.29-14.31,12.57-14.31
			c5.74,0,10.52,3.54,10.57,12.57l-0.05,2.94h-17.66c0.1,5.49,3.04,8.83,8.58,8.83C195.89,190.1,198.19,189.85,201.23,189.15
			L201.23,189.15z"/>
		<path class="st0" d="M223.17,171.35c-1.45-0.35-2.69-0.4-3.59-0.4c-3.44-0.05-5.24,1.64-6.53,2.99v20.35h-5.54v-28.08h5.54v2.49
			c1.45-1.5,3.64-2.79,6.48-2.84c1.15-0.05,3.04,0.15,4.64,0.75L223.17,171.35L223.17,171.35z"/>
		<path class="st0" d="M239.38,189.95c2.24,0,3.54-0.15,6.38-0.75l0.7,4.79c-2.19,0.6-4.64,0.9-7.08,0.9
			c-10.92,0-14.07-6.83-14.07-14.81c0.1-7.78,4.79-14.36,14.01-14.36c2.44,0,4.54,0.3,7.08,0.95l-0.95,4.74
			c-2.69-0.6-4.29-0.7-5.99-0.7c-5.79,0.1-8.63,4.39-8.73,9.38C230.75,185.01,232.6,189.95,239.38,189.95L239.38,189.95z"/>
		<path class="st0" d="M254.39,176.98h12.32c-0.2-5.69-3.04-6.83-5.69-6.83C256.84,170.1,254.89,172.94,254.39,176.98L254.39,176.98
			z M270.25,189.15l0.85,4.54c-2.49,0.85-5.93,1.25-8.63,1.25c-11.07,0-13.77-7.43-13.77-14.86c0-7.43,3.29-14.31,12.57-14.31
			c5.74,0,10.52,3.54,10.57,12.57l-0.05,2.94h-17.66c0.1,5.49,3.04,8.83,8.58,8.83C264.92,190.1,267.21,189.85,270.25,189.15
			L270.25,189.15z"/>
		<path class="st0" d="M290.6,170.8h-7.63v13.62c0,2.84,0.35,4.84,3.24,5.24c1.6,0.15,3.24,0,4.84-0.2l0.35,4.79
			c-1.65,0.3-3.99,0.35-4.94,0.35c-6.53-0.25-8.98-3.59-8.98-8.83V170.8h-4.04v-3.84l4.04-0.45v-6.53h5.49v6.23h7.63V170.8
			L290.6,170.8z"/>
		<path class="st0" d="M306.71,190c5.74-0.05,7.58-4.69,7.58-9.73c-0.05-4.59-2-9.78-7.63-9.78c-5.49,0.05-7.63,5.14-7.63,9.78
			C299.03,185.51,301.33,190,306.71,190L306.71,190z M306.71,165.71c8.98,0.05,12.97,6.73,12.97,14.56
			c0,7.63-3.44,14.46-13.02,14.51c-9.38-0.1-12.97-6.88-12.97-14.51C293.69,172.44,297.73,165.81,306.71,165.71L306.71,165.71z"/>
		<path class="st0" d="M336.54,190c5.74-0.05,7.58-4.69,7.58-9.73c-0.05-4.59-2-9.78-7.63-9.78c-5.49,0.05-7.63,5.14-7.63,9.78
			C328.86,185.51,331.15,190,336.54,190L336.54,190z M336.54,165.71c8.98,0.05,12.97,6.73,12.97,14.56
			c0,7.63-3.44,14.46-13.02,14.51c-9.38-0.1-12.97-6.88-12.97-14.51C323.52,172.44,327.56,165.81,336.54,165.71L336.54,165.71z"/>
		<g>
			<defs>
				<rect id="SVGID_1_" x="39.44" y="20.71" width="343.49" height="174.22"/>
			</defs>
			<clipPath id="SVGID_2_">
				<use xlink:href="#SVGID_1_"  style="overflow:visible;"/>
			</clipPath>
			<polygon class="st1" points="353.89,194.29 353.89,156.18 359.23,156.18 359.23,194.29 353.89,194.29 			"/>
			<path class="st1" d="M364.86,188.85c3.14,0.8,6.08,1.2,7.93,1.2c2.19,0,4.44-0.45,4.59-3.09c0.15-2.79-2.74-3.64-6.03-5.04
				c-3.74-1.55-7.78-3.64-7.68-8.83c0.1-2.59,1.65-7.68,9.93-7.43c2.49,0.05,5.49,0.45,7.98,1.1l-0.95,4.59
				c-2.94-0.7-5.14-1-7.28-1.05c-2.39,0-4.24,0.75-4.34,2.99c-0.05,1.9,1.45,2.89,5.14,4.39c3.74,1.55,9.03,3.54,8.78,9.43
				c-0.15,3.74-2.59,7.83-10.12,7.73c-2.39-0.05-6.23-0.35-9.08-1.35L364.86,188.85L364.86,188.85z"/>
		</g>
		<path class="st2" d="M161.52,110.49c-0.87,0.4-1.42,1.27-1.42,2.22c0,0.96,0.55,1.82,1.41,2.22l47.55,22.26
			c0.64,0.3,1.32,0.45,2.01,0.46v-49.7c-0.71,0-1.41,0.15-2.07,0.46L161.52,110.49L161.52,110.49z"/>
		<g>
			<defs>
				<rect id="SVGID_3_" x="39.44" y="20.71" width="343.49" height="174.22"/>
			</defs>
			<clipPath id="SVGID_4_">
				<use xlink:href="#SVGID_3_"  style="overflow:visible;"/>
			</clipPath>
			<path class="st3" d="M211.08,87.96v49.7c0.74,0.01,1.47-0.14,2.15-0.46l47.41-22.2c0.86-0.4,1.41-1.27,1.41-2.22
				c0-0.95-0.55-1.82-1.42-2.22l-47.49-22.14C212.49,88.12,211.79,87.96,211.08,87.96L211.08,87.96z"/>
			<path class="st4" d="M160.1,45.46c0,0.97,0.55,1.82,1.41,2.22l47.55,22.26c0.64,0.3,1.32,0.45,2.01,0.46
				c0.6,0.01,1.21-0.09,1.78-0.31c0.45-0.21,0.37-0.17,1.33-0.62c4.91-2.28,1.66-0.76,46.45-21.73c0.86-0.4,1.41-1.27,1.41-2.22
				c0-0.95-0.55-1.82-1.42-2.22l-47.49-22.14c-1.31-0.61-2.83-0.61-4.14,0l-47.48,22.07C160.66,43.64,160.11,44.51,160.1,45.46
				L160.1,45.46z"/>
		</g>
		<path class="st5" d="M211.08,73.21v14.76c-0.71,0-1.41,0.15-2.07,0.46l-47.48,22.07c-0.87,0.4-1.42,1.27-1.42,2.22l0-65.59
			c0,0,0-1.89,0-1.66c0,0.96,0.55,1.82,1.41,2.23l47.56,22.26c0.64,0.3,1.32,0.45,2.01,0.46c0.6,0.01,1.21-0.09,1.78-0.31
			l-0.08,0.04C211.3,70.83,211.08,71.51,211.08,73.21L211.08,73.21z"/>
	</g>
	<g>
		<path class="st0" d="M84.3,225.89h-2.09l-5.31-14.12h-0.07c-0.25,1.7-0.53,3.31-0.85,4.83l-1.99,9.29h-1.87l3.57-16.88h2.08
			l5.3,14.08h0.07c0.23-1.72,0.51-3.28,0.83-4.67l2.01-9.41h1.89L84.3,225.89z"/>
		<path class="st0" d="M93.43,226.12c-1.42,0-2.53-0.42-3.34-1.26s-1.21-2-1.21-3.49c0-1.45,0.29-2.83,0.86-4.16
			c0.57-1.33,1.33-2.36,2.28-3.1c0.95-0.74,1.99-1.11,3.13-1.11c1.18,0,2.06,0.26,2.65,0.77c0.59,0.51,0.89,1.23,0.89,2.14
			c0,1.38-0.64,2.47-1.92,3.26s-3.1,1.18-5.48,1.18h-0.38l-0.05,0.92c0,1.01,0.24,1.79,0.71,2.36c0.47,0.57,1.21,0.85,2.2,0.85
			c0.48,0,0.98-0.07,1.49-0.21s1.15-0.39,1.91-0.76v1.69c-0.72,0.34-1.36,0.58-1.92,0.71C94.71,226.05,94.1,226.12,93.43,226.12z
			 M95.04,214.66c-0.79,0-1.54,0.36-2.23,1.08c-0.7,0.72-1.23,1.73-1.6,3.01h0.14c1.75,0,3.1-0.23,4.03-0.69s1.4-1.12,1.4-1.99
			c0-0.41-0.14-0.75-0.42-1.02S95.64,214.66,95.04,214.66z"/>
		<path class="st0" d="M104.8,220.88l-3.99,5.01h-2.25l5.48-6.52l-2.76-6.13h1.96l2.01,4.76l3.81-4.76h2.24l-5.25,6.22l2.91,6.43
			h-1.94L104.8,220.88z"/>
		<path class="st0" d="M115.27,224.54c0.42,0,0.98-0.1,1.66-0.3v1.49c-0.26,0.11-0.58,0.2-0.97,0.28s-0.69,0.12-0.92,0.12
			c-0.96,0-1.7-0.23-2.21-0.69s-0.77-1.14-0.77-2.05c0-0.51,0.07-1.08,0.21-1.73l1.47-6.95h-1.99l0.16-0.84l2.14-0.9l1.44-2.63h1.13
			l-0.63,2.91h3.16l-0.3,1.47h-3.15l-1.49,6.97c-0.14,0.67-0.21,1.18-0.21,1.52c0,0.43,0.11,0.76,0.33,0.99
			C114.56,224.42,114.87,224.54,115.27,224.54z"/>
		<path class="st0" d="M137.21,213.24l-0.29,1.24l-2.44,0.28c0.32,0.48,0.47,1.08,0.47,1.82c0,1.47-0.45,2.64-1.34,3.52
			c-0.9,0.87-2.1,1.31-3.6,1.31c-0.42,0-0.75-0.03-0.97-0.09c-1.07,0.41-1.6,0.91-1.6,1.51c0,0.32,0.13,0.53,0.38,0.63
			c0.25,0.1,0.62,0.19,1.11,0.25l1.35,0.16c1.39,0.17,2.4,0.51,3.03,1.02c0.63,0.51,0.94,1.25,0.94,2.24c0,1.42-0.56,2.51-1.69,3.29
			c-1.12,0.78-2.7,1.17-4.74,1.17c-1.49,0-2.66-0.28-3.51-0.85c-0.85-0.57-1.27-1.36-1.27-2.4c0-0.81,0.28-1.51,0.83-2.1
			c0.55-0.59,1.45-1.1,2.69-1.51c-0.6-0.32-0.9-0.78-0.9-1.4c0-0.53,0.2-0.99,0.59-1.37c0.39-0.38,0.94-0.74,1.64-1.07
			c-0.48-0.25-0.88-0.61-1.19-1.09c-0.31-0.48-0.46-1.04-0.46-1.68c0-1.49,0.46-2.72,1.38-3.67c0.92-0.95,2.09-1.43,3.53-1.43
			c0.6,0,1.19,0.08,1.78,0.23H137.21z M124.92,228.14c0,0.59,0.25,1.06,0.75,1.41c0.5,0.35,1.24,0.52,2.23,0.52
			c1.4,0,2.5-0.24,3.28-0.73c0.79-0.49,1.18-1.18,1.18-2.07c0-0.48-0.21-0.85-0.62-1.13c-0.42-0.28-1.12-0.47-2.12-0.58l-1.84-0.18
			c-0.92,0.19-1.63,0.53-2.12,1.02C125.17,226.87,124.92,227.45,124.92,228.14z M128.13,218.04c0,0.65,0.17,1.15,0.52,1.49
			c0.35,0.34,0.83,0.51,1.44,0.51c0.61,0,1.14-0.16,1.59-0.48s0.8-0.77,1.04-1.33c0.24-0.57,0.36-1.18,0.36-1.84
			c0-0.63-0.17-1.11-0.51-1.44c-0.34-0.33-0.82-0.5-1.45-0.5c-0.6,0-1.13,0.16-1.58,0.47s-0.8,0.75-1.05,1.3
			S128.13,217.39,128.13,218.04z"/>
		<path class="st0" d="M142.04,226.12c-1.42,0-2.53-0.42-3.34-1.26s-1.21-2-1.21-3.49c0-1.45,0.29-2.83,0.86-4.16
			c0.57-1.33,1.33-2.36,2.28-3.1c0.95-0.74,1.99-1.11,3.13-1.11c1.18,0,2.06,0.26,2.65,0.77c0.59,0.51,0.89,1.23,0.89,2.14
			c0,1.38-0.64,2.47-1.92,3.26s-3.1,1.18-5.48,1.18h-0.38l-0.05,0.92c0,1.01,0.24,1.79,0.71,2.36c0.47,0.57,1.21,0.85,2.2,0.85
			c0.48,0,0.98-0.07,1.49-0.21s1.15-0.39,1.91-0.76v1.69c-0.72,0.34-1.36,0.58-1.92,0.71C143.32,226.05,142.71,226.12,142.04,226.12
			z M143.64,214.66c-0.79,0-1.54,0.36-2.23,1.08c-0.7,0.72-1.23,1.73-1.6,3.01h0.14c1.75,0,3.1-0.23,4.03-0.69s1.4-1.12,1.4-1.99
			c0-0.41-0.14-0.75-0.42-1.02S144.24,214.66,143.64,214.66z"/>
		<path class="st0" d="M156.43,225.89l1.71-7.99c0.15-0.8,0.23-1.35,0.23-1.66c0-0.49-0.14-0.87-0.41-1.17
			c-0.27-0.29-0.71-0.44-1.31-0.44c-0.68,0-1.35,0.23-2,0.69s-1.22,1.12-1.72,1.97c-0.5,0.85-0.87,1.89-1.13,3.11l-1.17,5.48h-1.94
			l2.7-12.65h1.6l-0.25,2.34h0.12c0.74-0.94,1.45-1.6,2.14-1.99c0.69-0.39,1.4-0.58,2.14-0.58c0.98,0,1.75,0.27,2.31,0.8
			c0.57,0.53,0.85,1.28,0.85,2.25c0,0.61-0.09,1.3-0.27,2.08l-1.65,7.76H156.43z"/>
		<path class="st0" d="M167.34,226.12c-1.42,0-2.53-0.42-3.34-1.26s-1.21-2-1.21-3.49c0-1.45,0.29-2.83,0.86-4.16
			c0.57-1.33,1.33-2.36,2.28-3.1c0.95-0.74,1.99-1.11,3.13-1.11c1.18,0,2.06,0.26,2.65,0.77c0.59,0.51,0.89,1.23,0.89,2.14
			c0,1.38-0.64,2.47-1.92,3.26s-3.1,1.18-5.48,1.18h-0.38l-0.05,0.92c0,1.01,0.24,1.79,0.71,2.36c0.47,0.57,1.21,0.85,2.2,0.85
			c0.48,0,0.98-0.07,1.49-0.21s1.15-0.39,1.91-0.76v1.69c-0.72,0.34-1.36,0.58-1.92,0.71C168.62,226.05,168.01,226.12,167.34,226.12
			z M168.95,214.66c-0.79,0-1.54,0.36-2.23,1.08c-0.7,0.72-1.23,1.73-1.6,3.01h0.14c1.75,0,3.1-0.23,4.03-0.69s1.4-1.12,1.4-1.99
			c0-0.41-0.14-0.75-0.42-1.02S169.55,214.66,168.95,214.66z"/>
		<path class="st0" d="M182,213.01c0.53,0,0.99,0.05,1.39,0.16l-0.42,1.73c-0.41-0.1-0.81-0.15-1.21-0.15
			c-0.7,0-1.36,0.23-1.97,0.69s-1.15,1.1-1.6,1.92s-0.79,1.73-1.01,2.73l-1.24,5.79H174l2.7-12.65h1.6l-0.25,2.34h0.12
			c0.55-0.73,1.01-1.26,1.37-1.58c0.36-0.32,0.74-0.57,1.14-0.74S181.52,213.01,182,213.01z"/>
		<path class="st0" d="M190.06,213.01c0.71,0,1.34,0.19,1.89,0.57c0.55,0.38,0.98,0.93,1.29,1.64h0.13l0.77-1.99h1.47l-2.69,12.65
			h-1.54l0.3-2.41h-0.09c-1.38,1.76-2.83,2.64-4.35,2.64c-1.07,0-1.91-0.38-2.52-1.14s-0.91-1.8-0.91-3.13
			c0-1.6,0.27-3.09,0.82-4.46c0.55-1.37,1.3-2.44,2.26-3.22S188.91,213.01,190.06,213.01z M187.86,224.51
			c0.75,0,1.49-0.36,2.23-1.07s1.34-1.64,1.8-2.78c0.46-1.14,0.69-2.29,0.69-3.43c0-0.79-0.22-1.42-0.65-1.89
			c-0.43-0.47-1-0.7-1.7-0.7c-0.8,0-1.54,0.33-2.23,0.99c-0.69,0.66-1.23,1.56-1.62,2.69c-0.39,1.13-0.59,2.32-0.59,3.58
			c0,0.88,0.18,1.53,0.54,1.97C186.7,224.3,187.21,224.51,187.86,224.51z"/>
		<path class="st0" d="M200.6,224.54c0.42,0,0.98-0.1,1.66-0.3v1.49c-0.26,0.11-0.58,0.2-0.97,0.28s-0.69,0.12-0.92,0.12
			c-0.96,0-1.7-0.23-2.21-0.69s-0.77-1.14-0.77-2.05c0-0.51,0.07-1.08,0.21-1.73l1.47-6.95h-1.99l0.16-0.84l2.14-0.9l1.44-2.63h1.13
			l-0.63,2.91h3.16l-0.3,1.47h-3.15l-1.49,6.97c-0.14,0.67-0.21,1.18-0.21,1.52c0,0.43,0.11,0.76,0.33,0.99
			C199.88,224.42,200.2,224.54,200.6,224.54z"/>
		<path class="st0" d="M206.32,225.89h-1.94l2.7-12.65h1.94L206.32,225.89z M207.63,210.01c0-0.43,0.12-0.78,0.37-1.06
			c0.25-0.27,0.57-0.41,0.96-0.41c0.68,0,1.02,0.35,1.02,1.04c0,0.42-0.13,0.78-0.39,1.07c-0.26,0.29-0.56,0.44-0.89,0.44
			c-0.31,0-0.56-0.09-0.76-0.28C207.73,210.62,207.63,210.35,207.63,210.01z"/>
		<path class="st0" d="M217.13,213.08c1.46,0,2.62,0.43,3.46,1.3c0.85,0.87,1.27,2.06,1.27,3.57c0,1.45-0.28,2.81-0.83,4.1
			s-1.3,2.28-2.25,2.98c-0.95,0.7-2.02,1.05-3.21,1.05c-1.48,0-2.63-0.43-3.47-1.3c-0.84-0.87-1.26-2.06-1.26-3.57
			c0-1.46,0.28-2.84,0.84-4.13c0.56-1.29,1.32-2.28,2.27-2.97C214.91,213.42,215.96,213.08,217.13,213.08z M219.85,217.68
			c0-0.88-0.24-1.6-0.72-2.15c-0.48-0.55-1.13-0.83-1.96-0.83c-0.84,0-1.59,0.28-2.26,0.85c-0.67,0.57-1.18,1.36-1.55,2.37
			c-0.37,1.01-0.55,2.14-0.55,3.38c0,1.01,0.24,1.79,0.73,2.34c0.49,0.55,1.19,0.83,2.11,0.83c0.8,0,1.52-0.28,2.16-0.84
			c0.64-0.56,1.14-1.36,1.49-2.39S219.85,219.01,219.85,217.68z"/>
		<path class="st0" d="M231.38,225.89l1.71-7.99c0.15-0.8,0.23-1.35,0.23-1.66c0-0.49-0.14-0.87-0.41-1.17
			c-0.27-0.29-0.71-0.44-1.31-0.44c-0.68,0-1.35,0.23-2,0.69c-0.65,0.46-1.22,1.12-1.72,1.97c-0.5,0.85-0.87,1.89-1.12,3.11
			l-1.17,5.48h-1.94l2.7-12.65h1.6l-0.25,2.34h0.12c0.74-0.94,1.45-1.6,2.14-1.99s1.4-0.58,2.14-0.58c0.98,0,1.75,0.27,2.31,0.8
			c0.57,0.53,0.85,1.28,0.85,2.25c0,0.61-0.09,1.3-0.27,2.08l-1.65,7.76H231.38z"/>
		<path class="st0" d="M248.59,226.12c-1.49,0-2.65-0.41-3.47-1.23s-1.24-1.99-1.24-3.49c0-1.54,0.29-2.96,0.85-4.26
			c0.57-1.3,1.36-2.31,2.36-3.04s2.13-1.09,3.39-1.09c1.05,0,2.09,0.2,3.09,0.59l-0.54,1.63c-0.92-0.39-1.77-0.59-2.53-0.59
			c-0.86,0-1.65,0.29-2.36,0.88s-1.27,1.41-1.67,2.46c-0.4,1.05-0.61,2.19-0.61,3.42c0,0.99,0.26,1.75,0.77,2.3
			c0.51,0.55,1.22,0.82,2.12,0.82c0.55,0,1.08-0.08,1.57-0.23c0.49-0.15,0.98-0.33,1.45-0.54v1.65
			C250.82,225.88,249.76,226.12,248.59,226.12z"/>
		<path class="st0" d="M260.81,213.08c1.46,0,2.62,0.43,3.46,1.3c0.85,0.87,1.27,2.06,1.27,3.57c0,1.45-0.28,2.81-0.83,4.1
			c-0.55,1.29-1.3,2.28-2.25,2.98c-0.95,0.7-2.02,1.05-3.21,1.05c-1.48,0-2.64-0.43-3.47-1.3c-0.84-0.87-1.26-2.06-1.26-3.57
			c0-1.46,0.28-2.84,0.84-4.13s1.32-2.28,2.27-2.97S259.65,213.08,260.81,213.08z M263.54,217.68c0-0.88-0.24-1.6-0.72-2.15
			c-0.48-0.55-1.13-0.83-1.96-0.83c-0.84,0-1.59,0.28-2.26,0.85c-0.67,0.57-1.18,1.36-1.55,2.37c-0.37,1.01-0.55,2.14-0.55,3.38
			c0,1.01,0.24,1.79,0.73,2.34c0.49,0.55,1.19,0.83,2.11,0.83c0.8,0,1.52-0.28,2.16-0.84c0.64-0.56,1.14-1.36,1.5-2.39
			S263.54,219.01,263.54,217.68z"/>
		<path class="st0" d="M274.69,225.89l1.71-7.99c0.14-0.72,0.21-1.24,0.21-1.56c0-0.54-0.12-0.96-0.36-1.26
			c-0.24-0.3-0.65-0.45-1.22-0.45c-0.65,0-1.28,0.23-1.89,0.69c-0.61,0.46-1.15,1.12-1.62,1.98s-0.83,1.89-1.08,3.1l-1.17,5.48
			h-1.94l2.7-12.65h1.6l-0.25,2.34h0.12c0.67-0.92,1.34-1.57,2-1.97s1.35-0.6,2.06-0.6c0.87,0,1.54,0.25,2.01,0.75
			c0.47,0.5,0.75,1.2,0.83,2.09h0.09c0.66-0.96,1.37-1.68,2.11-2.14c0.75-0.46,1.5-0.7,2.26-0.7c0.98,0,1.73,0.26,2.27,0.79
			c0.54,0.52,0.8,1.29,0.8,2.29c0,0.52-0.08,1.21-0.25,2.05l-1.66,7.76h-1.96l1.71-7.99c0.15-0.8,0.23-1.36,0.23-1.69
			c0-0.48-0.13-0.86-0.4-1.15c-0.26-0.29-0.68-0.43-1.25-0.43c-0.62,0-1.24,0.22-1.85,0.67c-0.61,0.45-1.14,1.08-1.6,1.9
			c-0.46,0.82-0.81,1.79-1.04,2.91l-1.24,5.77H274.69z"/>
		<path class="st0" d="M295.3,225.89l1.71-7.99c0.14-0.72,0.21-1.24,0.21-1.56c0-0.54-0.12-0.96-0.36-1.26
			c-0.24-0.3-0.65-0.45-1.22-0.45c-0.65,0-1.28,0.23-1.89,0.69c-0.61,0.46-1.15,1.12-1.62,1.98s-0.83,1.89-1.08,3.1l-1.17,5.48
			h-1.94l2.7-12.65h1.6l-0.25,2.34h0.12c0.67-0.92,1.34-1.57,2-1.97s1.35-0.6,2.06-0.6c0.87,0,1.54,0.25,2.01,0.75
			c0.47,0.5,0.75,1.2,0.83,2.09h0.09c0.66-0.96,1.37-1.68,2.11-2.14c0.75-0.46,1.5-0.7,2.26-0.7c0.98,0,1.73,0.26,2.27,0.79
			c0.54,0.52,0.8,1.29,0.8,2.29c0,0.52-0.08,1.21-0.25,2.05l-1.66,7.76h-1.96l1.71-7.99c0.15-0.8,0.23-1.36,0.23-1.69
			c0-0.48-0.13-0.86-0.4-1.15c-0.26-0.29-0.68-0.43-1.25-0.43c-0.62,0-1.24,0.22-1.85,0.67c-0.61,0.45-1.14,1.08-1.6,1.9
			c-0.46,0.82-0.81,1.79-1.04,2.91l-1.24,5.77H295.3z"/>
		<path class="st0" d="M313.56,226.12c-1.42,0-2.53-0.42-3.34-1.26c-0.81-0.84-1.21-2-1.21-3.49c0-1.45,0.29-2.83,0.86-4.16
			c0.57-1.33,1.33-2.36,2.28-3.1c0.95-0.74,1.99-1.11,3.13-1.11c1.18,0,2.06,0.26,2.65,0.77s0.89,1.23,0.89,2.14
			c0,1.38-0.64,2.47-1.92,3.26s-3.1,1.18-5.48,1.18h-0.38l-0.05,0.92c0,1.01,0.24,1.79,0.71,2.36c0.47,0.57,1.21,0.85,2.2,0.85
			c0.48,0,0.98-0.07,1.5-0.21c0.51-0.14,1.15-0.39,1.91-0.76v1.69c-0.72,0.34-1.36,0.58-1.92,0.71
			C314.85,226.05,314.23,226.12,313.56,226.12z M315.17,214.66c-0.79,0-1.54,0.36-2.23,1.08c-0.7,0.72-1.23,1.73-1.6,3.01h0.14
			c1.75,0,3.1-0.23,4.03-0.69s1.4-1.12,1.4-1.99c0-0.41-0.14-0.75-0.42-1.02C316.21,214.79,315.77,214.66,315.17,214.66z"/>
		<path class="st0" d="M328.22,213.01c0.53,0,0.99,0.05,1.38,0.16l-0.42,1.73c-0.41-0.1-0.81-0.15-1.21-0.15
			c-0.7,0-1.36,0.23-1.97,0.69s-1.15,1.1-1.6,1.92s-0.79,1.73-1.01,2.73l-1.24,5.79h-1.94l2.7-12.65h1.6l-0.25,2.34h0.12
			c0.55-0.73,1.01-1.26,1.37-1.58c0.36-0.32,0.74-0.57,1.14-0.74S327.74,213.01,328.22,213.01z"/>
		<path class="st0" d="M334.75,226.12c-1.49,0-2.65-0.41-3.47-1.23s-1.24-1.99-1.24-3.49c0-1.54,0.29-2.96,0.85-4.26
			c0.57-1.3,1.36-2.31,2.36-3.04s2.13-1.09,3.39-1.09c1.05,0,2.09,0.2,3.09,0.59l-0.54,1.63c-0.92-0.39-1.77-0.59-2.53-0.59
			c-0.86,0-1.65,0.29-2.36,0.88s-1.27,1.41-1.67,2.46c-0.4,1.05-0.61,2.19-0.61,3.42c0,0.99,0.26,1.75,0.77,2.3
			c0.51,0.55,1.22,0.82,2.12,0.82c0.55,0,1.08-0.08,1.57-0.23c0.49-0.15,0.98-0.33,1.45-0.54v1.65
			C336.98,225.88,335.92,226.12,334.75,226.12z"/>
		<path class="st0" d="M345.23,226.12c-1.42,0-2.53-0.42-3.34-1.26c-0.81-0.84-1.21-2-1.21-3.49c0-1.45,0.29-2.83,0.86-4.16
			c0.57-1.33,1.33-2.36,2.28-3.1c0.95-0.74,1.99-1.11,3.13-1.11c1.18,0,2.06,0.26,2.65,0.77s0.89,1.23,0.89,2.14
			c0,1.38-0.64,2.47-1.92,3.26s-3.1,1.18-5.48,1.18h-0.38l-0.05,0.92c0,1.01,0.24,1.79,0.71,2.36c0.47,0.57,1.21,0.85,2.2,0.85
			c0.48,0,0.98-0.07,1.5-0.21c0.51-0.14,1.15-0.39,1.91-0.76v1.69c-0.72,0.34-1.36,0.58-1.92,0.71
			C346.51,226.05,345.9,226.12,345.23,226.12z M346.83,214.66c-0.79,0-1.54,0.36-2.23,1.08c-0.7,0.72-1.23,1.73-1.6,3.01h0.14
			c1.75,0,3.1-0.23,4.03-0.69s1.4-1.12,1.4-1.99c0-0.41-0.14-0.75-0.42-1.02C347.87,214.79,347.43,214.66,346.83,214.66z"/>
	</g>
</g>
</svg>
