<?xml version="1.0" encoding="utf-8"?>
<!-- Generator: Adobe Illustrator 23.0.2, SVG Export Plug-In . SVG Version: 6.00 Build 0)  -->
<svg version="1.1" id="Layer_1" xmlns="http://www.w3.org/2000/svg" xmlns:xlink="http://www.w3.org/1999/xlink" x="0px" y="0px"
	 viewBox="0 0 420.94 252.68" style="enable-background:new 0 0 420.94 252.68;" xml:space="preserve">
<style type="text/css">
	.st0{fill:#213C45;}
</style>
<g>
	<g>
		<path class="st0" d="M52.79,190.15c2.24,0,3.54-0.15,6.38-0.75l0.7,4.79c-2.19,0.6-4.64,0.9-7.08,0.9
			c-10.92,0-14.06-6.83-14.06-14.81c0.1-7.78,4.79-14.36,14.01-14.36c2.44,0,4.54,0.3,7.08,0.95l-0.95,4.74
			c-2.69-0.6-4.29-0.7-5.98-0.7c-5.79,0.1-8.63,4.39-8.73,9.38C44.17,185.21,46.01,190.15,52.79,190.15L52.79,190.15z"/>
		<path class="st0" d="M75.14,190.2c5.74-0.05,7.58-4.69,7.58-9.73c-0.05-4.59-1.99-9.78-7.63-9.78c-5.49,0.05-7.63,5.14-7.63,9.78
			C67.46,185.71,69.75,190.2,75.14,190.2L75.14,190.2z M75.14,165.91c8.98,0.05,12.97,6.73,12.97,14.56
			c0,7.63-3.44,14.46-13.02,14.51c-9.38-0.1-12.97-6.88-12.97-14.51C62.12,172.64,66.16,166.01,75.14,165.91L75.14,165.91z"/>
		<path class="st0" d="M125.26,194.49v-17.96c0-4.54-1.7-5.79-4.54-5.79c-1.94,0-4.14,1.1-6.13,2.74c0.1,0.6,0.15,1.8,0.15,2.15
			v18.85h-5.59v-18.15c0-4.54-1.35-5.64-4.19-5.64c-1.8,0-4.29,1.2-6.43,2.79v21h-5.54V166.4h5.54v2.39
			c1.7-1.35,4.39-2.89,7.33-2.94c3.89-0.05,6.13,1.3,7.38,3.39c2.29-2.15,5.69-3.34,8.28-3.39c9.13-0.15,9.28,7.18,9.28,10.27v18.35
			h-5.54V194.49z"/>
		<path class="st0" d="M169.15,194.49v-17.96c0-4.54-1.7-5.79-4.54-5.79c-1.94,0-4.14,1.1-6.13,2.74c0.1,0.6,0.15,1.8,0.15,2.15
			v18.85h-5.58v-18.15c0-4.54-1.35-5.64-4.19-5.64c-1.8,0-4.29,1.2-6.43,2.79v21h-5.54V166.4h5.54v2.39
			c1.7-1.35,4.39-2.89,7.33-2.94c3.89-0.05,6.13,1.3,7.38,3.39c2.29-2.15,5.69-3.34,8.28-3.39c9.13-0.15,9.28,7.18,9.28,10.27v18.35
			h-5.55V194.49z"/>
		<path class="st0" d="M184.66,177.18h12.32c-0.2-5.69-3.04-6.83-5.69-6.83C187.1,170.3,185.16,173.14,184.66,177.18L184.66,177.18z
			 M200.52,189.35l0.85,4.54c-2.49,0.85-5.94,1.25-8.63,1.25c-11.07,0-13.77-7.43-13.77-14.86c0-7.43,3.29-14.31,12.57-14.31
			c5.74,0,10.52,3.54,10.57,12.57l-0.05,2.94H184.4c0.1,5.49,3.04,8.83,8.58,8.83C195.18,190.3,197.48,190.05,200.52,189.35
			L200.52,189.35z"/>
		<path class="st0" d="M222.47,171.55c-1.45-0.35-2.69-0.4-3.59-0.4c-3.44-0.05-5.24,1.64-6.53,2.99v20.35h-5.54v-28.08h5.54v2.49
			c1.45-1.5,3.64-2.79,6.48-2.84c1.15-0.05,3.04,0.15,4.64,0.75L222.47,171.55L222.47,171.55z"/>
		<path class="st0" d="M238.67,190.15c2.24,0,3.54-0.15,6.38-0.75l0.7,4.79c-2.19,0.6-4.64,0.9-7.08,0.9
			c-10.92,0-14.07-6.83-14.07-14.81c0.1-7.78,4.79-14.36,14.01-14.36c2.44,0,4.54,0.3,7.08,0.95l-0.95,4.74
			c-2.69-0.6-4.29-0.7-5.99-0.7c-5.79,0.1-8.63,4.39-8.73,9.38C230.05,185.21,231.89,190.15,238.67,190.15L238.67,190.15z"/>
		<path class="st0" d="M253.69,177.18h12.32c-0.2-5.69-3.04-6.83-5.69-6.83C256.13,170.3,254.18,173.14,253.69,177.18L253.69,177.18
			z M269.55,189.35l0.85,4.54c-2.49,0.85-5.93,1.25-8.63,1.25c-11.07,0-13.77-7.43-13.77-14.86c0-7.43,3.29-14.31,12.57-14.31
			c5.74,0,10.52,3.54,10.57,12.57l-0.05,2.94h-17.66c0.1,5.49,3.04,8.83,8.58,8.83C264.21,190.3,266.51,190.05,269.55,189.35
			L269.55,189.35z"/>
		<path class="st0" d="M289.89,171h-7.63v13.62c0,2.84,0.35,4.84,3.24,5.24c1.6,0.15,3.24,0,4.84-0.2l0.35,4.79
			c-1.65,0.3-3.99,0.35-4.94,0.35c-6.53-0.25-8.98-3.59-8.98-8.83V171h-4.04v-3.84l4.04-0.45v-6.53h5.49v6.23h7.63L289.89,171
			L289.89,171z"/>
		<path class="st0" d="M306,190.2c5.74-0.05,7.58-4.69,7.58-9.73c-0.05-4.59-2-9.78-7.63-9.78c-5.49,0.05-7.63,5.14-7.63,9.78
			C298.32,185.71,300.62,190.2,306,190.2L306,190.2z M306,165.91c8.98,0.05,12.97,6.73,12.97,14.56c0,7.63-3.44,14.46-13.02,14.51
			c-9.38-0.1-12.97-6.88-12.97-14.51C292.99,172.64,297.03,166.01,306,165.91L306,165.91z"/>
		<path class="st0" d="M335.83,190.2c5.74-0.05,7.58-4.69,7.58-9.73c-0.05-4.59-2-9.78-7.63-9.78c-5.49,0.05-7.63,5.14-7.63,9.78
			C328.15,185.71,330.44,190.2,335.83,190.2L335.83,190.2z M335.83,165.91c8.98,0.05,12.97,6.73,12.97,14.56
			c0,7.63-3.44,14.46-13.02,14.51c-9.38-0.1-12.97-6.88-12.97-14.51C322.81,172.64,326.85,166.01,335.83,165.91L335.83,165.91z"/>
		<g>
			<g>
				<defs>
					<rect id="SVGID_1_" x="38.73" y="20.91" width="343.49" height="174.22"/>
				</defs>
				<clipPath id="SVGID_2_">
					<use xlink:href="#SVGID_1_"  style="overflow:visible;"/>
				</clipPath>
			</g>
			<g>
				<defs>
					<rect id="SVGID_3_" x="38.73" y="20.91" width="343.49" height="174.22"/>
				</defs>
				<clipPath id="SVGID_4_">
					<use xlink:href="#SVGID_3_"  style="overflow:visible;"/>
				</clipPath>
			</g>
		</g>
		<g>
			<path class="st0" d="M83.59,226.09H81.5l-5.31-14.12h-0.07c-0.25,1.7-0.53,3.31-0.85,4.83l-1.99,9.29h-1.87l3.57-16.88h2.08
				l5.3,14.08h0.07c0.23-1.72,0.51-3.28,0.83-4.67l2.01-9.41h1.89L83.59,226.09z"/>
			<path class="st0" d="M92.73,226.32c-1.42,0-2.53-0.42-3.34-1.26s-1.21-2-1.21-3.49c0-1.45,0.29-2.83,0.86-4.16
				s1.33-2.36,2.28-3.1s1.99-1.11,3.13-1.11c1.18,0,2.06,0.26,2.65,0.77c0.59,0.51,0.89,1.23,0.89,2.14c0,1.38-0.64,2.47-1.92,3.26
				s-3.1,1.18-5.48,1.18h-0.38l-0.05,0.92c0,1.01,0.24,1.79,0.71,2.36s1.21,0.85,2.2,0.85c0.48,0,0.98-0.07,1.49-0.21
				s1.15-0.39,1.91-0.76v1.69c-0.72,0.34-1.36,0.58-1.92,0.71C94.01,226.25,93.39,226.32,92.73,226.32z M94.33,214.86
				c-0.79,0-1.54,0.36-2.23,1.08c-0.7,0.72-1.23,1.73-1.6,3.01h0.14c1.75,0,3.1-0.23,4.03-0.69s1.4-1.12,1.4-1.99
				c0-0.41-0.14-0.75-0.42-1.02S94.93,214.86,94.33,214.86z"/>
			<path class="st0" d="M104.09,221.08l-3.99,5.01h-2.25l5.48-6.52l-2.76-6.13h1.96l2.01,4.76l3.81-4.76h2.24l-5.25,6.22l2.91,6.43
				h-1.94L104.09,221.08z"/>
			<path class="st0" d="M114.56,224.74c0.42,0,0.98-0.1,1.66-0.3v1.49c-0.26,0.11-0.58,0.2-0.97,0.28s-0.69,0.12-0.92,0.12
				c-0.96,0-1.7-0.23-2.21-0.69s-0.77-1.14-0.77-2.05c0-0.51,0.07-1.08,0.21-1.73l1.47-6.95h-1.99l0.16-0.84l2.14-0.9l1.44-2.63
				h1.13l-0.63,2.91h3.16l-0.3,1.47h-3.15l-1.49,6.97c-0.14,0.67-0.21,1.18-0.21,1.52c0,0.43,0.11,0.76,0.33,0.99
				C113.85,224.62,114.16,224.74,114.56,224.74z"/>
			<path class="st0" d="M136.51,213.44l-0.29,1.24l-2.44,0.28c0.32,0.48,0.47,1.08,0.47,1.82c0,1.47-0.45,2.64-1.34,3.52
				c-0.9,0.87-2.1,1.31-3.6,1.31c-0.42,0-0.75-0.03-0.97-0.09c-1.07,0.41-1.6,0.91-1.6,1.51c0,0.32,0.13,0.53,0.38,0.63
				s0.62,0.19,1.11,0.25l1.35,0.16c1.39,0.17,2.4,0.51,3.03,1.02c0.63,0.51,0.94,1.25,0.94,2.24c0,1.42-0.56,2.51-1.69,3.29
				c-1.12,0.78-2.7,1.17-4.74,1.17c-1.49,0-2.66-0.28-3.51-0.85s-1.27-1.36-1.27-2.4c0-0.81,0.28-1.51,0.83-2.1
				c0.55-0.59,1.45-1.1,2.69-1.51c-0.6-0.32-0.9-0.78-0.9-1.4c0-0.53,0.2-0.99,0.59-1.37c0.39-0.38,0.94-0.74,1.64-1.07
				c-0.48-0.25-0.88-0.61-1.19-1.09c-0.31-0.48-0.46-1.04-0.46-1.68c0-1.49,0.46-2.72,1.38-3.67s2.09-1.43,3.53-1.43
				c0.6,0,1.19,0.08,1.78,0.23h4.28V213.44z M124.21,228.34c0,0.59,0.25,1.06,0.75,1.41s1.24,0.52,2.23,0.52
				c1.4,0,2.5-0.24,3.28-0.73c0.79-0.49,1.18-1.18,1.18-2.07c0-0.48-0.21-0.85-0.62-1.13c-0.42-0.28-1.12-0.47-2.12-0.58l-1.84-0.18
				c-0.92,0.19-1.63,0.53-2.12,1.02C124.46,227.07,124.21,227.65,124.21,228.34z M127.42,218.24c0,0.65,0.17,1.15,0.52,1.49
				c0.35,0.34,0.83,0.51,1.44,0.51s1.14-0.16,1.59-0.48s0.8-0.77,1.04-1.33c0.24-0.57,0.36-1.18,0.36-1.84
				c0-0.63-0.17-1.11-0.51-1.44s-0.82-0.5-1.45-0.5c-0.6,0-1.13,0.16-1.58,0.47s-0.8,0.75-1.05,1.3S127.42,217.59,127.42,218.24z"/>
			<path class="st0" d="M141.33,226.32c-1.42,0-2.53-0.42-3.34-1.26s-1.21-2-1.21-3.49c0-1.45,0.29-2.83,0.86-4.16
				s1.33-2.36,2.28-3.1s1.99-1.11,3.13-1.11c1.18,0,2.06,0.26,2.65,0.77c0.59,0.51,0.89,1.23,0.89,2.14c0,1.38-0.64,2.47-1.92,3.26
				s-3.1,1.18-5.48,1.18h-0.38l-0.05,0.92c0,1.01,0.24,1.79,0.71,2.36s1.21,0.85,2.2,0.85c0.48,0,0.98-0.07,1.49-0.21
				s1.15-0.39,1.91-0.76v1.69c-0.72,0.34-1.36,0.58-1.92,0.71C142.61,226.25,142,226.32,141.33,226.32z M142.94,214.86
				c-0.79,0-1.54,0.36-2.23,1.08c-0.7,0.72-1.23,1.73-1.6,3.01h0.14c1.75,0,3.1-0.23,4.03-0.69s1.4-1.12,1.4-1.99
				c0-0.41-0.14-0.75-0.42-1.02S143.54,214.86,142.94,214.86z"/>
			<path class="st0" d="M155.73,226.09l1.71-7.99c0.15-0.8,0.23-1.35,0.23-1.66c0-0.49-0.14-0.87-0.41-1.17
				c-0.27-0.29-0.71-0.44-1.31-0.44c-0.68,0-1.35,0.23-2,0.69s-1.22,1.12-1.72,1.97s-0.87,1.89-1.13,3.11l-1.17,5.48h-1.94
				l2.7-12.65h1.6l-0.25,2.34h0.12c0.74-0.94,1.45-1.6,2.14-1.99s1.4-0.58,2.14-0.58c0.98,0,1.75,0.27,2.31,0.8
				c0.57,0.53,0.85,1.28,0.85,2.25c0,0.61-0.09,1.3-0.27,2.08l-1.65,7.76L155.73,226.09L155.73,226.09z"/>
			<path class="st0" d="M166.63,226.32c-1.42,0-2.53-0.42-3.34-1.26s-1.21-2-1.21-3.49c0-1.45,0.29-2.83,0.86-4.16
				s1.33-2.36,2.28-3.1s1.99-1.11,3.13-1.11c1.18,0,2.06,0.26,2.65,0.77c0.59,0.51,0.89,1.23,0.89,2.14c0,1.38-0.64,2.47-1.92,3.26
				s-3.1,1.18-5.48,1.18h-0.38l-0.05,0.92c0,1.01,0.24,1.79,0.71,2.36s1.21,0.85,2.2,0.85c0.48,0,0.98-0.07,1.49-0.21
				s1.15-0.39,1.91-0.76v1.69c-0.72,0.34-1.36,0.58-1.92,0.71C167.91,226.25,167.3,226.32,166.63,226.32z M168.24,214.86
				c-0.79,0-1.54,0.36-2.23,1.08c-0.7,0.72-1.23,1.73-1.6,3.01h0.14c1.75,0,3.1-0.23,4.03-0.69s1.4-1.12,1.4-1.99
				c0-0.41-0.14-0.75-0.42-1.02S168.84,214.86,168.24,214.86z"/>
			<path class="st0" d="M181.29,213.21c0.53,0,0.99,0.05,1.39,0.16l-0.42,1.73c-0.41-0.1-0.81-0.15-1.21-0.15
				c-0.7,0-1.36,0.23-1.97,0.69s-1.15,1.1-1.6,1.92s-0.79,1.73-1.01,2.73l-1.24,5.79h-1.94l2.7-12.65h1.6l-0.25,2.34h0.12
				c0.55-0.73,1.01-1.26,1.37-1.58s0.74-0.57,1.14-0.74S180.81,213.21,181.29,213.21z"/>
			<path class="st0" d="M189.35,213.21c0.71,0,1.34,0.19,1.89,0.57s0.98,0.93,1.29,1.64h0.13l0.77-1.99h1.47l-2.69,12.65h-1.54
				l0.3-2.41h-0.09c-1.38,1.76-2.83,2.64-4.35,2.64c-1.07,0-1.91-0.38-2.52-1.14s-0.91-1.8-0.91-3.13c0-1.6,0.27-3.09,0.82-4.46
				c0.55-1.37,1.3-2.44,2.26-3.22S188.2,213.21,189.35,213.21z M187.16,224.72c0.75,0,1.49-0.36,2.23-1.07s1.34-1.64,1.8-2.78
				s0.69-2.29,0.69-3.43c0-0.79-0.22-1.42-0.65-1.89s-1-0.7-1.7-0.7c-0.8,0-1.54,0.33-2.23,0.99s-1.23,1.56-1.62,2.69
				s-0.59,2.32-0.59,3.58c0,0.88,0.18,1.53,0.54,1.97C185.99,224.5,186.5,224.72,187.16,224.72z"/>
			<path class="st0" d="M199.89,224.74c0.42,0,0.98-0.1,1.66-0.3v1.49c-0.26,0.11-0.58,0.2-0.97,0.28s-0.69,0.12-0.92,0.12
				c-0.96,0-1.7-0.23-2.21-0.69s-0.77-1.14-0.77-2.05c0-0.51,0.07-1.08,0.21-1.73l1.47-6.95h-1.99l0.16-0.84l2.14-0.9l1.44-2.63
				h1.13l-0.63,2.91h3.16l-0.3,1.47h-3.15l-1.49,6.97c-0.14,0.67-0.21,1.18-0.21,1.52c0,0.43,0.11,0.76,0.33,0.99
				C199.18,224.62,199.49,224.74,199.89,224.74z"/>
			<path class="st0" d="M205.61,226.09h-1.94l2.7-12.65h1.94L205.61,226.09z M206.92,210.21c0-0.43,0.12-0.78,0.37-1.06
				c0.25-0.27,0.57-0.41,0.96-0.41c0.68,0,1.02,0.35,1.02,1.04c0,0.42-0.13,0.78-0.39,1.07c-0.26,0.29-0.56,0.44-0.89,0.44
				c-0.31,0-0.56-0.09-0.76-0.28C207.02,210.82,206.92,210.55,206.92,210.21z"/>
			<path class="st0" d="M216.42,213.28c1.46,0,2.62,0.43,3.46,1.3c0.85,0.87,1.27,2.06,1.27,3.57c0,1.45-0.28,2.81-0.83,4.1
				s-1.3,2.28-2.25,2.98s-2.02,1.05-3.21,1.05c-1.48,0-2.63-0.43-3.47-1.3c-0.84-0.87-1.26-2.06-1.26-3.57
				c0-1.46,0.28-2.84,0.84-4.13c0.56-1.29,1.32-2.28,2.27-2.97C214.2,213.62,215.26,213.28,216.42,213.28z M219.14,217.88
				c0-0.88-0.24-1.6-0.72-2.15c-0.48-0.55-1.13-0.83-1.96-0.83c-0.84,0-1.59,0.28-2.26,0.85s-1.18,1.36-1.55,2.37
				c-0.37,1.01-0.55,2.14-0.55,3.38c0,1.01,0.24,1.79,0.73,2.34c0.49,0.55,1.19,0.83,2.11,0.83c0.8,0,1.52-0.28,2.16-0.84
				s1.14-1.36,1.49-2.39S219.14,219.21,219.14,217.88z"/>
			<path class="st0" d="M230.67,226.09l1.71-7.99c0.15-0.8,0.23-1.35,0.23-1.66c0-0.49-0.14-0.87-0.41-1.17
				c-0.27-0.29-0.71-0.44-1.31-0.44c-0.68,0-1.35,0.23-2,0.69s-1.22,1.12-1.72,1.97s-0.87,1.89-1.12,3.11l-1.17,5.48h-1.94
				l2.7-12.65h1.6l-0.25,2.34h0.12c0.74-0.94,1.45-1.6,2.14-1.99s1.4-0.58,2.14-0.58c0.98,0,1.75,0.27,2.31,0.8
				c0.57,0.53,0.85,1.28,0.85,2.25c0,0.61-0.09,1.3-0.27,2.08l-1.65,7.76L230.67,226.09L230.67,226.09z"/>
			<path class="st0" d="M247.88,226.32c-1.49,0-2.65-0.41-3.47-1.23s-1.24-1.99-1.24-3.49c0-1.54,0.29-2.96,0.85-4.26
				c0.57-1.3,1.36-2.31,2.36-3.04s2.13-1.09,3.39-1.09c1.05,0,2.09,0.2,3.09,0.59l-0.54,1.63c-0.92-0.39-1.77-0.59-2.53-0.59
				c-0.86,0-1.65,0.29-2.36,0.88s-1.27,1.41-1.67,2.46s-0.61,2.19-0.61,3.42c0,0.99,0.26,1.75,0.77,2.3
				c0.51,0.55,1.22,0.82,2.12,0.82c0.55,0,1.08-0.08,1.57-0.23s0.98-0.33,1.45-0.54v1.65C250.11,226.08,249.05,226.32,247.88,226.32
				z"/>
			<path class="st0" d="M260.11,213.28c1.46,0,2.62,0.43,3.46,1.3c0.85,0.87,1.27,2.06,1.27,3.57c0,1.45-0.28,2.81-0.83,4.1
				c-0.55,1.29-1.3,2.28-2.25,2.98s-2.02,1.05-3.21,1.05c-1.48,0-2.64-0.43-3.47-1.3c-0.84-0.87-1.26-2.06-1.26-3.57
				c0-1.46,0.28-2.84,0.84-4.13s1.32-2.28,2.27-2.97C257.88,213.62,258.94,213.28,260.11,213.28z M262.83,217.88
				c0-0.88-0.24-1.6-0.72-2.15c-0.48-0.55-1.13-0.83-1.96-0.83c-0.84,0-1.59,0.28-2.26,0.85s-1.18,1.36-1.55,2.37
				s-0.55,2.14-0.55,3.38c0,1.01,0.24,1.79,0.73,2.34s1.19,0.83,2.11,0.83c0.8,0,1.52-0.28,2.16-0.84s1.14-1.36,1.5-2.39
				S262.83,219.21,262.83,217.88z"/>
			<path class="st0" d="M273.98,226.09l1.71-7.99c0.14-0.72,0.21-1.24,0.21-1.56c0-0.54-0.12-0.96-0.36-1.26
				c-0.24-0.3-0.65-0.45-1.22-0.45c-0.65,0-1.28,0.23-1.89,0.69c-0.61,0.46-1.15,1.12-1.62,1.98s-0.83,1.89-1.08,3.1l-1.17,5.48
				h-1.94l2.7-12.65h1.6l-0.25,2.34h0.12c0.67-0.92,1.34-1.57,2-1.97s1.35-0.6,2.06-0.6c0.87,0,1.54,0.25,2.01,0.75
				s0.75,1.2,0.83,2.09h0.09c0.66-0.96,1.37-1.68,2.11-2.14c0.75-0.46,1.5-0.7,2.26-0.7c0.98,0,1.73,0.26,2.27,0.79
				c0.54,0.52,0.8,1.29,0.8,2.29c0,0.52-0.08,1.21-0.25,2.05l-1.66,7.76h-1.96l1.71-7.99c0.15-0.8,0.23-1.36,0.23-1.69
				c0-0.48-0.13-0.86-0.4-1.15c-0.26-0.29-0.68-0.43-1.25-0.43c-0.62,0-1.24,0.22-1.85,0.67c-0.61,0.45-1.14,1.08-1.6,1.9
				c-0.46,0.82-0.81,1.79-1.04,2.91l-1.24,5.77h-1.93V226.09z"/>
			<path class="st0" d="M294.6,226.09l1.71-7.99c0.14-0.72,0.21-1.24,0.21-1.56c0-0.54-0.12-0.96-0.36-1.26
				c-0.24-0.3-0.65-0.45-1.22-0.45c-0.65,0-1.28,0.23-1.89,0.69c-0.61,0.46-1.15,1.12-1.62,1.98s-0.83,1.89-1.08,3.1l-1.17,5.48
				h-1.94l2.7-12.65h1.6l-0.25,2.34h0.12c0.67-0.92,1.34-1.57,2-1.97s1.35-0.6,2.06-0.6c0.87,0,1.54,0.25,2.01,0.75
				s0.75,1.2,0.83,2.09h0.09c0.66-0.96,1.37-1.68,2.11-2.14c0.75-0.46,1.5-0.7,2.26-0.7c0.98,0,1.73,0.26,2.27,0.79
				c0.54,0.52,0.8,1.29,0.8,2.29c0,0.52-0.08,1.21-0.25,2.05l-1.66,7.76h-1.96l1.71-7.99c0.15-0.8,0.23-1.36,0.23-1.69
				c0-0.48-0.13-0.86-0.4-1.15c-0.26-0.29-0.68-0.43-1.25-0.43c-0.62,0-1.24,0.22-1.85,0.67c-0.61,0.45-1.14,1.08-1.6,1.9
				c-0.46,0.82-0.81,1.79-1.04,2.91l-1.24,5.77h-1.93V226.09z"/>
			<path class="st0" d="M312.86,226.32c-1.42,0-2.53-0.42-3.34-1.26s-1.21-2-1.21-3.49c0-1.45,0.29-2.83,0.86-4.16
				c0.57-1.33,1.33-2.36,2.28-3.1s1.99-1.11,3.13-1.11c1.18,0,2.06,0.26,2.65,0.77s0.89,1.23,0.89,2.14c0,1.38-0.64,2.47-1.92,3.26
				s-3.1,1.18-5.48,1.18h-0.38l-0.05,0.92c0,1.01,0.24,1.79,0.71,2.36s1.21,0.85,2.2,0.85c0.48,0,0.98-0.07,1.5-0.21
				c0.51-0.14,1.15-0.39,1.91-0.76v1.69c-0.72,0.34-1.36,0.58-1.92,0.71C314.14,226.25,313.53,226.32,312.86,226.32z M314.46,214.86
				c-0.79,0-1.54,0.36-2.23,1.08c-0.7,0.72-1.23,1.73-1.6,3.01h0.14c1.75,0,3.1-0.23,4.03-0.69s1.4-1.12,1.4-1.99
				c0-0.41-0.14-0.75-0.42-1.02C315.5,214.99,315.06,214.86,314.46,214.86z"/>
			<path class="st0" d="M327.52,213.21c0.53,0,0.99,0.05,1.38,0.16l-0.42,1.73c-0.41-0.1-0.81-0.15-1.21-0.15
				c-0.7,0-1.36,0.23-1.97,0.69s-1.15,1.1-1.6,1.92s-0.79,1.73-1.01,2.73l-1.24,5.79h-1.94l2.7-12.65h1.6l-0.25,2.34h0.12
				c0.55-0.73,1.01-1.26,1.37-1.58s0.74-0.57,1.14-0.74S327.03,213.21,327.52,213.21z"/>
			<path class="st0" d="M334.04,226.32c-1.49,0-2.65-0.41-3.47-1.23s-1.24-1.99-1.24-3.49c0-1.54,0.29-2.96,0.85-4.26
				c0.57-1.3,1.36-2.31,2.36-3.04s2.13-1.09,3.39-1.09c1.05,0,2.09,0.2,3.09,0.59l-0.54,1.63c-0.92-0.39-1.77-0.59-2.53-0.59
				c-0.86,0-1.65,0.29-2.36,0.88s-1.27,1.41-1.67,2.46c-0.4,1.05-0.61,2.19-0.61,3.42c0,0.99,0.26,1.75,0.77,2.3
				c0.51,0.55,1.22,0.82,2.12,0.82c0.55,0,1.08-0.08,1.57-0.23c0.49-0.15,0.98-0.33,1.45-0.54v1.65
				C336.27,226.08,335.21,226.32,334.04,226.32z"/>
			<path class="st0" d="M344.52,226.32c-1.42,0-2.53-0.42-3.34-1.26s-1.21-2-1.21-3.49c0-1.45,0.29-2.83,0.86-4.16
				c0.57-1.33,1.33-2.36,2.28-3.1s1.99-1.11,3.13-1.11c1.18,0,2.06,0.26,2.65,0.77s0.89,1.23,0.89,2.14c0,1.38-0.64,2.47-1.92,3.26
				s-3.1,1.18-5.48,1.18H342l-0.05,0.92c0,1.01,0.24,1.79,0.71,2.36s1.21,0.85,2.2,0.85c0.48,0,0.98-0.07,1.5-0.21
				c0.51-0.14,1.15-0.39,1.91-0.76v1.69c-0.72,0.34-1.36,0.58-1.92,0.71C345.8,226.25,345.19,226.32,344.52,226.32z M346.12,214.86
				c-0.79,0-1.54,0.36-2.23,1.08c-0.7,0.72-1.23,1.73-1.6,3.01h0.14c1.75,0,3.1-0.23,4.03-0.69s1.4-1.12,1.4-1.99
				c0-0.41-0.14-0.75-0.42-1.02C347.16,214.99,346.72,214.86,346.12,214.86z"/>
		</g>
		<polygon class="st0" points="353.18,194.49 353.18,156.38 358.52,156.38 358.52,194.49 		"/>
		<path class="st0" d="M364.16,189.05c3.14,0.8,6.08,1.2,7.93,1.2c2.19,0,4.44-0.45,4.59-3.09c0.15-2.79-2.74-3.64-6.03-5.04
			c-3.74-1.55-7.78-3.64-7.68-8.83c0.1-2.59,1.65-7.68,9.93-7.43c2.49,0.05,5.49,0.45,7.98,1.1l-0.95,4.59
			c-2.94-0.7-5.14-1-7.28-1.05c-2.39,0-4.24,0.75-4.34,2.99c-0.05,1.9,1.45,2.89,5.14,4.39c3.74,1.55,9.03,3.54,8.78,9.43
			c-0.15,3.74-2.59,7.83-10.12,7.73c-2.39-0.05-6.23-0.35-9.08-1.35L364.16,189.05L364.16,189.05z"/>
	</g>
	<g id="XMLID_1_">
		<path class="st0" d="M261.38,112.22l-47.34-22.07c-0.38-0.18-0.78-0.31-1.19-0.41v-0.19v-13.2c0-1.31,0.05-1.33,0.89-1.72l0,0
			l1.88-0.87c3.17-1.47,3.17-1.47,21.84-10.21l23.93-11.2c1.39-0.65,2.28-2.05,2.27-3.58c0-1.53-0.9-2.93-2.28-3.58l-47.34-22.07
			c-1.71-0.8-3.68-0.8-5.4,0l-47.33,22c-1.38,0.64-2.27,2.04-2.29,3.56l0,0v67.05l0,0c0,1.53,0.89,2.93,2.27,3.58l47.4,22.19
			c0.19,0.09,1.45,0.6,2.74,0.6c1.23,0,2.49-0.51,2.69-0.6l47.26-22.12c1.39-0.65,2.28-2.05,2.27-3.58
			C263.66,114.27,262.76,112.86,261.38,112.22z M162.03,111.81V52.62l46.66,21.84c0.39,0.18,0.79,0.32,1.2,0.42
			c0.01,0,0.03,0.01,0.04,0.01c-0.07,0.44-0.1,0.92-0.1,1.45v13.2v0.18c-0.03,0.01-0.06,0.02-0.09,0.03
			c-0.38,0.1-0.75,0.22-1.11,0.39L162.03,111.81z M162.58,47.84l47.33-22c0.45-0.21,0.94-0.32,1.43-0.32c0.49,0,0.98,0.11,1.43,0.32
			l47.34,22.07c0.33,0.15,0.54,0.49,0.54,0.85c0,0.36-0.21,0.7-0.54,0.85l-23.93,11.2c-18.66,8.74-18.66,8.74-21.83,10.21
			l-1.78,0.83c-0.13,0.05-0.26,0.08-0.4,0.11c-0.06,0.01-0.12,0.04-0.18,0.05c-0.2,0.03-0.4,0.05-0.62,0.05
			c-0.49-0.01-0.95-0.11-1.39-0.32l-47.4-22.19c-0.08-0.04-0.16-0.09-0.22-0.14c-0.2-0.17-0.31-0.43-0.32-0.71
			C162.04,48.33,162.25,47.99,162.58,47.84z M162.57,116.58c-0.33-0.15-0.54-0.49-0.54-0.86c0-0.09,0.01-0.18,0.04-0.26
			c0.08-0.25,0.26-0.47,0.51-0.58l47.26-21.97v45.8L162.57,116.58z M260.11,116.65l-47.26,22.12l0,0V92.92l47.26,22.03
			c0.33,0.15,0.54,0.49,0.54,0.85C260.65,116.16,260.44,116.49,260.11,116.65z"/>
		<path class="st0" d="M211.43,142.85c-1.59,0-3.05-0.67-3.06-0.67l-47.4-22.19c-1.64-0.77-2.7-2.45-2.7-4.26V48.68
			c0.02-1.82,1.09-3.48,2.72-4.24l47.33-22c1.92-0.89,4.12-0.89,6.03,0l47.34,22.07c1.65,0.78,2.71,2.45,2.71,4.26
			c0.01,1.81-1.05,3.49-2.7,4.26l-23.93,11.2c-18.67,8.74-18.67,8.74-21.84,10.21l-1.88,0.87c-0.19,0.09-0.39,0.18-0.44,0.23
			c-0.01,0.07-0.01,0.57-0.01,0.81v12.82c0.27,0.09,0.52,0.19,0.76,0.3l47.34,22.07c1.65,0.77,2.71,2.44,2.7,4.26
			c0.01,1.81-1.05,3.48-2.7,4.25l-47.26,22.12C214.37,142.21,212.92,142.85,211.43,142.85z M211.34,23.27
			c-0.81,0-1.63,0.18-2.39,0.53l-47.33,22c-1.11,0.52-1.84,1.65-1.86,2.89v67.04c0,1.24,0.72,2.38,1.84,2.9l47.4,22.19
			c0.22,0.11,1.35,0.53,2.42,0.53c1.16,0,2.37-0.53,2.38-0.54l47.25-22.11c1.12-0.53,1.85-1.66,1.84-2.9
			c0.01-1.25-0.71-2.38-1.84-2.9l0,0l-47.34-22.07c-0.31-0.15-0.65-0.26-1.05-0.36l-0.57-0.14V76.35c0-1.47,0.11-1.84,1.32-2.4
			l1.89-0.87c3.17-1.47,3.17-1.47,21.84-10.21l23.93-11.2c1.12-0.53,1.85-1.66,1.84-2.9c0-1.24-0.73-2.38-1.85-2.91L213.72,23.8
			C212.97,23.45,212.16,23.27,211.34,23.27z M212.1,139.95V91.74l48.33,22.53c0.59,0.27,0.97,0.87,0.97,1.53
			c0,0.64-0.38,1.24-0.96,1.52l-0.01,0L212.1,139.95z M213.6,94.1v43.49l46.19-21.62c0.07-0.04,0.11-0.1,0.11-0.17
			c0-0.07-0.04-0.14-0.1-0.17L213.6,94.1z M210.59,139.89l-48.34-22.63c-0.59-0.27-0.97-0.88-0.97-1.54c0-0.19,0.03-0.36,0.09-0.52
			c0.14-0.44,0.48-0.81,0.91-1.01l48.31-22.46V139.89z M209.09,94.09l-46.19,21.47c-0.06,0.02-0.09,0.07-0.11,0.13
			c0,0.11,0.04,0.18,0.1,0.21l0.01,0l46.2,21.63V94.09z M161.28,112.99V51.44l47.73,22.34c0.31,0.15,0.64,0.26,0.98,0.35l0.83,0.01
			l-0.14,0.87c-0.06,0.38-0.09,0.82-0.09,1.33v13.92l-0.65,0.22c-0.39,0.1-0.7,0.21-0.98,0.34L161.28,112.99z M162.78,53.8v56.84
			l45.53-21.17c0.24-0.11,0.49-0.21,0.77-0.3V76.34c0-0.32,0.01-0.62,0.03-0.91c-0.25-0.08-0.5-0.18-0.74-0.29L162.78,53.8z
			 M211.37,72.81c-0.63-0.01-1.19-0.14-1.71-0.39l-47.39-22.19c-0.11-0.06-0.25-0.14-0.38-0.24c-0.36-0.3-0.57-0.76-0.59-1.26
			c0-0.69,0.38-1.3,0.98-1.57l47.33-22c1.09-0.51,2.4-0.51,3.49,0l47.34,22.07c0.59,0.27,0.97,0.87,0.97,1.53
			c0,0.66-0.38,1.26-0.98,1.53l-23.92,11.2c-18.66,8.74-18.66,8.74-21.83,10.21l-1.78,0.83c-0.21,0.08-0.38,0.12-0.56,0.16
			c-0.08,0.03-0.15,0.05-0.22,0.06C211.87,72.79,211.63,72.81,211.37,72.81z M211.34,26.27c-0.38,0-0.76,0.09-1.11,0.25l-47.34,22
			c-0.06,0.03-0.1,0.1-0.1,0.18c0,0.06,0.03,0.12,0.06,0.14l47.45,22.22c0.34,0.16,0.69,0.24,1.09,0.25c0.16,0,0.33-0.02,0.49-0.04
			c0.03-0.02,0.1-0.04,0.17-0.05c0.06-0.01,0.16-0.03,0.25-0.07l1.73-0.81c3.17-1.47,3.17-1.47,21.83-10.21l23.93-11.2
			c0.07-0.03,0.11-0.1,0.11-0.17s-0.04-0.14-0.1-0.17l-47.35-22.07C212.1,26.36,211.72,26.27,211.34,26.27z"/>
	</g>
</g>
</svg>
