<svg width="421" height="253" viewBox="0 0 421 253" fill="none" xmlns="http://www.w3.org/2000/svg">
<path d="M216.835 91.2323L260.567 65.9856C264.123 63.9322 264.123 58.7963 260.567 56.7429L214.167 29.9527C211.963 28.6824 209.254 28.6824 207.05 29.9527L159.316 57.5124C157.113 58.7827 155.76 61.1321 155.76 63.6772V119.826C155.76 121.729 156.776 123.491 158.424 124.447L207.046 152.567C209.25 153.841 211.968 153.841 214.171 152.567L260.581 125.731C264.137 123.673 264.132 118.542 260.581 116.488L216.84 91.2369L216.835 91.2323ZM210.606 35.084L256.119 61.3597L210.606 87.6354L165.094 61.3597L210.606 35.084ZM207.492 145.582L161.98 119.306V66.7551L207.492 93.0308V145.582ZM213.721 96.6231L256.119 121.1L213.721 145.578V96.6186V96.6231Z" fill="#191741"/>
<path d="M187.996 209.425C187.463 213.942 185.578 215.763 182.373 215.763C178.398 215.763 176.295 213.008 176.295 207.294V206.725H194.306C194.452 205.273 194.507 204.025 194.507 202.696C194.507 194.09 190.154 189.26 182.346 189.26C173.959 189.26 169.415 194.336 169.415 203.552V206.188C169.415 215.399 173.932 220.462 182.145 220.462C189.307 220.462 193.628 217.074 194.643 210.286L187.996 209.43V209.425ZM182.282 193.94C185.838 193.94 187.627 196.244 187.627 201.216V201.985H176.295C176.431 196.613 178.425 193.94 182.282 193.94Z" fill="#191741"/>
<path d="M56.1212 208.487L63.2012 209.37C62.3725 216.619 58.1109 220.484 50.7303 220.484C42.3436 220.484 38 215.085 38 204.74V204.622C38 194.509 42.4529 189.219 50.7577 189.219C58.252 189.219 62.2678 193.203 62.8642 200.729L55.9573 201.553C55.6431 196.353 54.045 193.967 50.7303 193.967C46.9194 193.967 45.1255 197.036 45.1255 203.492V205.874C45.1255 212.521 46.9741 215.686 50.8123 215.686C54.0814 215.686 55.807 213.3 56.1212 208.492V208.487Z" fill="#191741"/>
<path d="M79.0686 189.219C70.8276 189.219 66.2563 194.96 66.2563 204.54V205.163C66.2563 214.679 70.8321 220.484 79.0686 220.484C87.3051 220.484 91.8809 214.679 91.8809 205.163V204.54C91.8809 194.96 87.3051 189.219 79.0686 189.219ZM84.7554 206.183C84.7554 212.64 82.8704 215.708 79.0686 215.708C75.2668 215.708 73.3818 212.64 73.3818 206.183V203.52C73.3818 197.064 75.2258 193.967 79.0686 193.967C82.9114 193.967 84.7554 197.064 84.7554 203.52V206.183Z" fill="#191741"/>
<path d="M330.457 189.219C322.216 189.219 317.644 194.96 317.644 204.54V205.163C317.644 214.679 322.216 220.484 330.457 220.484C338.698 220.484 343.278 214.679 343.278 205.163V204.54C343.278 194.96 338.693 189.219 330.457 189.219ZM336.143 206.183C336.143 212.64 334.272 215.708 330.457 215.708C326.641 215.708 324.779 212.64 324.779 206.183V203.52C324.779 197.064 326.623 193.967 330.457 193.967C334.29 193.967 336.143 197.064 336.143 203.52V206.183Z" fill="#191741"/>
<path d="M353.978 181.101H347.043V219.77H353.978V181.101Z" fill="#191741"/>
<path d="M233.599 208.487L240.679 209.37C239.851 216.619 235.594 220.484 228.209 220.484C219.822 220.484 215.478 215.085 215.478 204.74V204.622C215.478 194.509 219.931 189.219 228.236 189.219C235.73 189.219 239.746 193.203 240.342 200.729L233.435 201.553C233.121 196.353 231.523 193.967 228.209 193.967C224.398 193.967 222.604 197.036 222.604 203.492V205.874C222.604 212.521 224.452 215.686 228.29 215.686C231.56 215.686 233.285 213.3 233.599 208.492V208.487Z" fill="#191741"/>
<path d="M381 211.756C381 217.184 376.793 220.453 369.544 220.453C361.818 220.453 357.383 217.065 357.192 211.037L363.776 209.703C363.721 213.596 365.77 215.786 369.517 215.786C372.449 215.786 374.066 214.647 374.066 212.407C374.066 210.167 372.622 209.166 368.811 207.75L365.001 206.297C361.199 204.845 357.93 202.063 357.93 197.91C357.93 192.397 361.768 189.214 368.73 189.214C375.691 189.214 380.062 192.374 380.089 197.91L373.642 199.049C373.779 195.52 372.026 193.958 368.811 193.958C366.002 193.958 364.441 195.015 364.441 196.918C364.441 198.821 365.802 200.069 369.613 201.435L373.415 202.823C377.226 204.221 381 206.379 381 211.752V211.756Z" fill="#191741"/>
<path d="M301.854 189.219C293.613 189.219 289.042 194.96 289.042 204.54V205.163C289.042 214.679 293.613 220.484 301.854 220.484C310.095 220.484 314.676 214.679 314.676 205.163V204.54C314.676 194.96 310.091 189.219 301.854 189.219ZM307.541 206.183C307.541 212.64 305.665 215.708 301.854 215.708C298.043 215.708 296.177 212.64 296.177 206.183V203.52C296.177 197.064 298.021 193.967 301.854 193.967C305.688 193.967 307.541 197.064 307.541 203.52V206.183Z" fill="#191741"/>
<path d="M283.086 214.962C284.37 214.962 285.959 214.62 287.467 213.969L287.07 219.032C285.5 219.856 283.082 220.421 280.815 220.421C275.415 220.421 272.633 217.694 272.633 211.843V183.177L279.567 181.101V189.938H287.385V194.965H279.567V211.019C279.567 213.864 280.733 214.966 283.086 214.966V214.962Z" fill="#191741"/>
<path d="M262.32 209.425C261.787 213.942 259.907 215.763 256.697 215.763C252.718 215.763 250.619 213.008 250.619 207.294V206.725H268.631C268.776 205.273 268.831 204.025 268.831 202.696C268.831 194.09 264.478 189.26 256.67 189.26C248.283 189.26 243.739 194.336 243.739 203.552V206.188C243.739 215.399 248.256 220.462 256.469 220.462C263.636 220.462 267.952 217.074 268.972 210.286L262.32 209.43V209.425ZM256.606 193.94C260.162 193.94 261.951 196.244 261.951 201.216V201.985H250.619C250.755 196.613 252.75 193.94 256.606 193.94Z" fill="#191741"/>
<path d="M117.128 197.86C119.263 191.914 122.55 189.219 126.785 189.219C131.36 189.219 133.468 192.488 132.367 197.687L132.936 197.86C135.071 191.914 138.358 189.219 142.593 189.219C147.169 189.219 149.277 192.488 148.175 197.687L148.744 197.86C150.838 191.891 154.103 189.219 158.569 189.219C163.428 189.219 165.736 192.119 165.736 197.66V219.77H158.802V198.83C158.802 195.875 157.663 194.405 155.387 194.405C151.922 194.405 149.932 198.666 149.932 204.371V219.774H143.034V198.889C143.034 195.994 141.737 194.405 139.579 194.405C136.118 194.405 134.124 198.666 134.124 204.371V219.774H127.226V198.889C127.226 195.994 126.033 194.368 123.875 194.368H123.866V194.409C123.866 194.409 123.857 194.409 123.852 194.409C120.392 194.409 118.398 198.671 118.398 204.376V219.779H111.5V198.894C111.5 195.998 110.307 194.373 108.149 194.373C104.798 194.373 102.571 198.47 102.571 204.549V219.779H95.6371V189.947H102.599C102.662 191.764 102.316 193.38 101.01 197.414L101.579 197.669C104.252 191.559 107.006 189.228 111.067 189.228C115.643 189.228 117.747 192.497 116.645 197.696L117.137 197.869L117.128 197.86Z" fill="#191741"/>
<path d="M214.9 195.297C207.16 195.821 205.348 198.407 205.348 206.725V219.765H198.413V189.934H205.375C205.439 192.037 205.156 193.544 203.759 197.546L204.328 197.801C206.267 193.289 208.521 189.137 215.392 188.996L214.9 195.292V195.297Z" fill="#191741"/>
</svg>
