<svg width="421" height="253" viewBox="0 0 421 253" fill="none" xmlns="http://www.w3.org/2000/svg">
<path d="M217.835 89.2323L261.567 63.9856C265.123 61.9322 265.123 56.7963 261.567 54.7429L215.167 27.9527C212.963 26.6824 210.254 26.6824 208.05 27.9527L160.316 55.5124C158.113 56.7827 156.76 59.1321 156.76 61.6772V117.826C156.76 119.729 157.776 121.491 159.424 122.447L208.046 150.567C210.25 151.841 212.968 151.841 215.171 150.567L261.581 123.731C265.137 121.673 265.132 116.542 261.581 114.488L217.84 89.2369L217.835 89.2323ZM211.606 33.084L257.119 59.3597L211.606 85.6354L166.094 59.3597L211.606 33.084ZM208.492 143.582L162.98 117.306V64.7551L208.492 91.0308V143.582ZM214.721 94.6231L257.119 119.1L214.721 143.578V94.6186V94.6231Z" fill="white"/>
<path d="M188.996 207.425C188.463 211.942 186.578 213.763 183.373 213.763C179.398 213.763 177.295 211.008 177.295 205.294V204.725H195.306C195.452 203.273 195.507 202.025 195.507 200.696C195.507 192.09 191.154 187.26 183.346 187.26C174.959 187.26 170.415 192.336 170.415 201.552V204.188C170.415 213.399 174.932 218.462 183.145 218.462C190.307 218.462 194.628 215.074 195.643 208.286L188.996 207.43V207.425ZM183.282 191.94C186.838 191.94 188.627 194.244 188.627 199.216V199.985H177.295C177.431 194.613 179.425 191.94 183.282 191.94Z" fill="white"/>
<path d="M57.1212 206.487L64.2012 207.37C63.3725 214.619 59.1109 218.484 51.7303 218.484C43.3436 218.484 39 213.085 39 202.74V202.622C39 192.509 43.4529 187.219 51.7577 187.219C59.252 187.219 63.2678 191.203 63.8642 198.729L56.9573 199.553C56.6431 194.353 55.045 191.967 51.7303 191.967C47.9194 191.967 46.1255 195.036 46.1255 201.492V203.874C46.1255 210.521 47.9741 213.686 51.8123 213.686C55.0814 213.686 56.807 211.3 57.1212 206.492V206.487Z" fill="white"/>
<path d="M80.0686 187.219C71.8276 187.219 67.2563 192.96 67.2563 202.54V203.163C67.2563 212.679 71.8321 218.484 80.0686 218.484C88.3051 218.484 92.8809 212.679 92.8809 203.163V202.54C92.8809 192.96 88.3051 187.219 80.0686 187.219ZM85.7554 204.183C85.7554 210.64 83.8704 213.708 80.0686 213.708C76.2668 213.708 74.3818 210.64 74.3818 204.183V201.52C74.3818 195.064 76.2258 191.967 80.0686 191.967C83.9114 191.967 85.7554 195.064 85.7554 201.52V204.183Z" fill="white"/>
<path d="M331.457 187.219C323.216 187.219 318.644 192.96 318.644 202.54V203.163C318.644 212.679 323.216 218.484 331.457 218.484C339.698 218.484 344.278 212.679 344.278 203.163V202.54C344.278 192.96 339.693 187.219 331.457 187.219ZM337.143 204.183C337.143 210.64 335.272 213.708 331.457 213.708C327.641 213.708 325.779 210.64 325.779 204.183V201.52C325.779 195.064 327.623 191.967 331.457 191.967C335.29 191.967 337.143 195.064 337.143 201.52V204.183Z" fill="white"/>
<path d="M354.978 179.101H348.043V217.77H354.978V179.101Z" fill="white"/>
<path d="M234.599 206.487L241.679 207.37C240.851 214.619 236.594 218.484 229.209 218.484C220.822 218.484 216.478 213.085 216.478 202.74V202.622C216.478 192.509 220.931 187.219 229.236 187.219C236.73 187.219 240.746 191.203 241.342 198.729L234.435 199.553C234.121 194.353 232.523 191.967 229.209 191.967C225.398 191.967 223.604 195.036 223.604 201.492V203.874C223.604 210.521 225.452 213.686 229.29 213.686C232.56 213.686 234.285 211.3 234.599 206.492V206.487Z" fill="white"/>
<path d="M382 209.756C382 215.184 377.793 218.453 370.544 218.453C362.818 218.453 358.383 215.065 358.192 209.037L364.776 207.703C364.721 211.596 366.77 213.786 370.517 213.786C373.449 213.786 375.066 212.648 375.066 210.407C375.066 208.167 373.622 207.166 369.811 205.75L366.001 204.297C362.199 202.845 358.93 200.063 358.93 195.91C358.93 190.397 362.768 187.214 369.73 187.214C376.691 187.214 381.062 190.374 381.089 195.91L374.642 197.049C374.779 193.52 373.026 191.958 369.811 191.958C367.002 191.958 365.441 193.015 365.441 194.918C365.441 196.821 366.802 198.069 370.613 199.435L374.415 200.823C378.226 202.221 382 204.379 382 209.752V209.756Z" fill="white"/>
<path d="M302.854 187.219C294.613 187.219 290.042 192.96 290.042 202.54V203.163C290.042 212.679 294.613 218.484 302.854 218.484C311.095 218.484 315.676 212.679 315.676 203.163V202.54C315.676 192.96 311.091 187.219 302.854 187.219ZM308.541 204.183C308.541 210.64 306.665 213.708 302.854 213.708C299.043 213.708 297.177 210.64 297.177 204.183V201.52C297.177 195.064 299.021 191.967 302.854 191.967C306.688 191.967 308.541 195.064 308.541 201.52V204.183Z" fill="white"/>
<path d="M284.086 212.962C285.37 212.962 286.959 212.62 288.467 211.969L288.07 217.032C286.5 217.856 284.082 218.421 281.815 218.421C276.415 218.421 273.633 215.693 273.633 209.843V181.177L280.567 179.101V187.938H288.385V192.965H280.567V209.019C280.567 211.864 281.733 212.966 284.086 212.966V212.962Z" fill="white"/>
<path d="M263.32 207.425C262.787 211.942 260.907 213.763 257.697 213.763C253.718 213.763 251.619 211.008 251.619 205.294V204.725H269.631C269.776 203.273 269.831 202.025 269.831 200.696C269.831 192.09 265.478 187.26 257.67 187.26C249.283 187.26 244.739 192.336 244.739 201.552V204.188C244.739 213.399 249.256 218.462 257.469 218.462C264.636 218.462 268.952 215.074 269.972 208.286L263.32 207.43V207.425ZM257.606 191.94C261.162 191.94 262.951 194.244 262.951 199.216V199.985H251.619C251.755 194.613 253.75 191.94 257.606 191.94Z" fill="white"/>
<path d="M118.128 195.86C120.263 189.914 123.55 187.219 127.785 187.219C132.36 187.219 134.468 190.488 133.367 195.687L133.936 195.86C136.071 189.914 139.358 187.219 143.593 187.219C148.169 187.219 150.277 190.488 149.175 195.687L149.744 195.86C151.838 189.891 155.103 187.219 159.569 187.219C164.428 187.219 166.736 190.119 166.736 195.66V217.77H159.802V196.83C159.802 193.875 158.663 192.405 156.387 192.405C152.922 192.405 150.932 196.666 150.932 202.371V217.774H144.034V196.889C144.034 193.994 142.737 192.405 140.579 192.405C137.118 192.405 135.124 196.666 135.124 202.371V217.774H128.226V196.889C128.226 193.994 127.033 192.368 124.875 192.368H124.866V192.409C124.866 192.409 124.857 192.409 124.852 192.409C121.392 192.409 119.398 196.671 119.398 202.376V217.779H112.5V196.894C112.5 193.998 111.307 192.373 109.149 192.373C105.798 192.373 103.571 196.47 103.571 202.549V217.779H96.6371V187.947H103.599C103.662 189.764 103.316 191.38 102.01 195.414L102.579 195.669C105.252 189.559 108.006 187.228 112.067 187.228C116.643 187.228 118.747 190.497 117.645 195.696L118.137 195.869L118.128 195.86Z" fill="white"/>
<path d="M215.9 193.297C208.16 193.821 206.348 196.407 206.348 204.725V217.765H199.413V187.933H206.375C206.439 190.037 206.156 191.544 204.759 195.546L205.328 195.801C207.267 191.289 209.521 187.137 216.392 186.996L215.9 193.292V193.297Z" fill="white"/>
</svg>
