<svg width="423" height="253" viewBox="0 0 423 253" fill="none" xmlns="http://www.w3.org/2000/svg">
<path d="M153.136 118.328V60.4234C153.136 58.8218 154.87 57.8172 156.258 58.6181L206.402 87.5705C207.69 88.3145 208.482 89.6887 208.482 91.1766V149.081C208.482 150.683 206.747 151.688 205.359 150.887L155.216 121.934C153.927 121.19 153.136 119.816 153.136 118.328Z" fill="#6359FF"/>
<path d="M159.642 50.0555L209.003 21.558C210.292 20.814 211.879 20.814 213.168 21.558L262.53 50.0555C264.264 51.0554 264.264 53.5621 262.53 54.5619L213.168 83.0595C211.879 83.8034 210.292 83.8034 209.003 83.0595L159.642 54.5619C157.907 53.5621 157.907 51.0554 159.642 50.0555Z" fill="#FFC806"/>
<path d="M213.689 149.081V95.3844C213.689 93.7828 215.424 92.7782 216.812 93.579L262.534 119.977C264.269 120.977 264.269 123.484 262.534 124.484L216.812 150.882C215.424 151.683 213.689 150.683 213.689 149.077V149.081Z" fill="#0BBFBF"/>
<path d="M186.106 209.067C185.552 213.767 183.59 215.663 180.254 215.663C176.118 215.663 173.928 212.796 173.928 206.849V206.257H192.674C192.826 204.745 192.883 203.447 192.883 202.063C192.883 193.107 188.352 188.08 180.226 188.08C171.497 188.08 166.768 193.363 166.768 202.954V205.698C166.768 215.284 171.469 220.553 180.017 220.553C187.471 220.553 191.968 217.027 193.025 209.962L186.106 209.071V209.067ZM180.16 192.951C183.86 192.951 185.723 195.349 185.723 200.523V201.324H173.928C174.071 195.732 176.146 192.951 180.16 192.951Z" fill="white"/>
<path d="M48.8594 208.091L56.2278 209.01C55.3654 216.554 50.9301 220.577 43.249 220.577C34.5206 220.577 30 214.957 30 204.191V204.068C30 193.543 34.6343 188.037 43.2774 188.037C51.077 188.037 55.2564 192.183 55.8772 200.016L48.6888 200.874C48.3618 195.462 46.6986 192.979 43.249 192.979C39.2828 192.979 37.4158 196.173 37.4158 202.892V205.371C37.4158 212.289 39.3397 215.582 43.3342 215.582C46.7365 215.582 48.5324 213.099 48.8594 208.095V208.091Z" fill="white"/>
<path d="M72.7416 188.037C64.1649 188.037 59.4074 194.012 59.4074 203.982V204.631C59.4074 214.535 64.1696 220.577 72.7416 220.577C81.3136 220.577 86.0759 214.535 86.0759 204.631V203.982C86.0759 194.012 81.3136 188.037 72.7416 188.037ZM78.66 205.693C78.66 212.412 76.6983 215.606 72.7416 215.606C68.7849 215.606 66.8232 212.412 66.8232 205.693V202.921C66.8232 196.202 68.7423 192.979 72.7416 192.979C76.7409 192.979 78.66 196.202 78.66 202.921V205.693Z" fill="white"/>
<path d="M334.371 188.037C325.794 188.037 321.036 194.012 321.036 203.982V204.631C321.036 214.535 325.794 220.577 334.371 220.577C342.947 220.577 347.714 214.535 347.714 204.631V203.982C347.714 194.012 342.943 188.037 334.371 188.037ZM340.289 205.693C340.289 212.412 338.341 215.606 334.371 215.606C330.4 215.606 328.462 212.412 328.462 205.693V202.921C328.462 196.202 330.381 192.979 334.371 192.979C338.36 192.979 340.289 196.202 340.289 202.921V205.693Z" fill="white"/>
<path d="M358.85 179.583H351.633V219.828H358.85V179.583Z" fill="white"/>
<path d="M233.568 208.091L240.936 209.01C240.074 216.554 235.643 220.577 227.957 220.577C219.229 220.577 214.708 214.957 214.708 204.191V204.068C214.708 193.543 219.343 188.037 227.986 188.037C235.785 188.037 239.965 192.183 240.585 200.016L233.397 200.874C233.07 195.462 231.407 192.979 227.957 192.979C223.991 192.979 222.124 196.173 222.124 202.892V205.371C222.124 212.289 224.048 215.582 228.042 215.582C231.445 215.582 233.241 213.099 233.568 208.095V208.091Z" fill="white"/>
<path d="M386.973 211.493C386.973 217.141 382.595 220.543 375.051 220.543C367.01 220.543 362.394 217.018 362.195 210.744L369.047 209.356C368.99 213.407 371.123 215.686 375.022 215.686C378.074 215.686 379.756 214.502 379.756 212.17C379.756 209.839 378.254 208.797 374.288 207.323L370.322 205.811C366.365 204.3 362.963 201.404 362.963 197.083C362.963 191.345 366.957 188.032 374.203 188.032C381.448 188.032 385.997 191.321 386.025 197.083L379.316 198.268C379.458 194.595 377.633 192.97 374.288 192.97C371.364 192.97 369.739 194.069 369.739 196.05C369.739 198.031 371.156 199.329 375.122 200.751L379.079 202.196C383.045 203.651 386.973 205.897 386.973 211.488V211.493Z" fill="white"/>
<path d="M304.603 188.037C296.026 188.037 291.269 194.012 291.269 203.982V204.631C291.269 214.535 296.026 220.577 304.603 220.577C313.18 220.577 317.947 214.535 317.947 204.631V203.982C317.947 194.012 313.175 188.037 304.603 188.037ZM310.521 205.693C310.521 212.412 308.569 215.606 304.603 215.606C300.637 215.606 298.694 212.412 298.694 205.693V202.921C298.694 196.202 300.613 192.979 304.603 192.979C308.593 192.979 310.521 196.202 310.521 202.921V205.693Z" fill="white"/>
<path d="M285.071 214.829C286.407 214.829 288.061 214.473 289.629 213.796L289.217 219.065C287.582 219.923 285.066 220.51 282.706 220.51C277.086 220.51 274.191 217.672 274.191 211.583V181.749L281.408 179.588V188.786H289.544V194.017H281.408V210.725C281.408 213.687 282.621 214.834 285.071 214.834V214.829Z" fill="white"/>
<path d="M263.458 209.067C262.904 213.767 260.947 215.663 257.606 215.663C253.465 215.663 251.28 212.796 251.28 206.849V206.257H270.026C270.178 204.745 270.234 203.447 270.234 202.063C270.234 193.107 265.704 188.08 257.578 188.08C248.849 188.08 244.12 193.363 244.12 202.954V205.698C244.12 215.284 248.821 220.553 257.369 220.553C264.828 220.553 269.32 217.027 270.381 209.962L263.458 209.071V209.067ZM257.511 192.951C261.212 192.951 263.074 195.349 263.074 200.523V201.324H251.28C251.422 195.732 253.498 192.951 257.511 192.951Z" fill="white"/>
<path d="M112.351 197.031C114.573 190.842 117.995 188.037 122.401 188.037C127.164 188.037 129.358 191.439 128.211 196.851L128.803 197.031C131.026 190.842 134.447 188.037 138.854 188.037C143.616 188.037 145.81 191.439 144.663 196.851L145.255 197.031C147.435 190.819 150.833 188.037 155.481 188.037C160.537 188.037 162.94 191.056 162.94 196.822V219.833H155.723V198.04C155.723 194.965 154.538 193.434 152.169 193.434C148.563 193.434 146.492 197.87 146.492 203.807V219.837H139.313V198.102C139.313 195.088 137.963 193.434 135.717 193.434C132.115 193.434 130.04 197.87 130.04 203.807V219.837H122.861V198.102C122.861 195.088 121.62 193.396 119.374 193.396H119.364V193.439C119.364 193.439 119.355 193.439 119.35 193.439C115.749 193.439 113.673 197.874 113.673 203.812V219.842H106.494V198.106C106.494 195.093 105.253 193.401 103.007 193.401C99.5191 193.401 97.2019 197.666 97.2019 203.992V219.842H89.9852V188.795H97.2304C97.2967 190.686 96.9366 192.368 95.5766 196.566L96.1689 196.832C98.9505 190.473 101.817 188.047 106.044 188.047C110.806 188.047 112.995 191.449 111.849 196.86L112.361 197.04L112.351 197.031Z" fill="white"/>
<path d="M214.106 194.363C206.051 194.908 204.165 197.599 204.165 206.257V219.828H196.948V188.781H204.193C204.26 190.97 203.966 192.539 202.511 196.704L203.104 196.969C205.122 192.273 207.468 187.952 214.618 187.805L214.106 194.358V194.363Z" fill="white"/>
</svg>
