<svg width="176" height="48" viewBox="0 0 176 48" fill="none" xmlns="http://www.w3.org/2000/svg">
<path d="M0 35.3112V14.304C0 13.7219 0.634627 13.3597 1.14338 13.6491L19.5021 24.1518C19.9741 24.4221 20.2643 24.9211 20.2643 25.4599V46.4671C20.2643 47.0492 19.6297 47.4113 19.121 47.122L0.762251 36.6193C0.290215 36.349 0 35.85 0 35.3112Z" fill="#6359FF"/>
<path d="M2.38271 10.5426L20.4547 0.202709C20.9267 -0.0675695 21.5072 -0.0675695 21.9792 0.202709L40.0512 10.5426C40.6858 10.9064 40.6858 11.8143 40.0512 12.1781L21.9792 22.518C21.5072 22.7883 20.9267 22.7883 20.4547 22.518L2.38271 12.1781C1.74808 11.8143 1.74808 10.9064 2.38271 10.5426Z" fill="#FFC806"/>
<path d="M22.1699 46.4688V26.9879C22.1699 26.4058 22.8045 26.0437 23.3133 26.333L40.0514 35.9106C40.686 36.2744 40.686 37.1823 40.0514 37.5461L23.3133 47.1237C22.8045 47.4147 22.1699 47.0509 22.1699 46.4688Z" fill="#0BBFBF"/>
<path d="M100.9 26.3313C100.696 28.05 99.972 28.743 98.7412 28.743C97.215 28.743 96.4073 27.6948 96.4073 25.5205V25.3039H103.323C103.379 24.7512 103.4 24.2765 103.4 23.7706C103.4 20.4961 101.729 18.6578 98.7308 18.6578C95.5104 18.6578 93.7656 20.5896 93.7656 24.0963V25.0995C93.7656 28.6044 95.4999 30.531 98.6538 30.531C101.404 30.531 103.063 29.242 103.453 26.6588L100.9 26.333V26.3313ZM98.7063 20.4389C100.072 20.4389 100.759 21.3156 100.759 23.2075V23.5003H96.4073C96.4597 21.4559 97.2255 20.4389 98.7063 20.4389Z" fill="#191741"/>
<path d="M50.2633 25.9761L52.9819 26.3122C52.6637 29.0704 51.0273 30.5414 48.1934 30.5414C44.973 30.5414 43.3052 28.4866 43.3052 24.5502V24.5051C43.3052 20.6571 45.015 18.6439 48.2039 18.6439C51.0815 18.6439 52.6235 20.1599 52.8525 23.0238L50.2004 23.3374C50.0798 21.3588 49.4661 20.451 48.1934 20.451C46.7301 20.451 46.0412 21.6187 46.0412 24.0755V24.9816C46.0412 27.5111 46.751 28.7152 48.2248 28.7152C49.4801 28.7152 50.1427 27.8074 50.2633 25.9778V25.9761Z" fill="#191741"/>
<path d="M59.0764 18.6422C55.912 18.6422 54.1567 20.827 54.1567 24.4722V24.7096C54.1567 28.3306 55.9138 30.5396 59.0764 30.5396C62.2391 30.5396 63.9961 28.3306 63.9961 24.7096V24.4722C63.9961 20.827 62.2391 18.6422 59.0764 18.6422ZM61.26 25.0977C61.26 27.5545 60.5362 28.7222 59.0764 28.7222C57.6166 28.7222 56.8928 27.5545 56.8928 25.0977V24.0842C56.8928 21.6274 57.6009 20.4493 59.0764 20.4493C60.552 20.4493 61.26 21.6274 61.26 24.0842V25.0977Z" fill="#191741"/>
<path d="M155.603 18.6422C152.438 18.6422 150.683 20.827 150.683 24.4722V24.7096C150.683 28.3306 152.438 30.5396 155.603 30.5396C158.767 30.5396 160.526 28.3306 160.526 24.7096V24.4722C160.526 20.827 158.765 18.6422 155.603 18.6422ZM157.786 25.0977C157.786 27.5545 157.068 28.7222 155.603 28.7222C154.138 28.7222 153.423 27.5545 153.423 25.0977V24.0842C153.423 21.6274 154.131 20.4493 155.603 20.4493C157.075 20.4493 157.786 21.6274 157.786 24.0842V25.0977Z" fill="#191741"/>
<path d="M164.634 15.5531H161.972V30.2677H164.634V15.5531Z" fill="#191741"/>
<path d="M118.413 25.9761L121.132 26.3122C120.814 29.0704 119.179 30.5414 116.343 30.5414C113.123 30.5414 111.455 28.4866 111.455 24.5502V24.5051C111.455 20.6571 113.165 18.6439 116.354 18.6439C119.231 18.6439 120.773 20.1599 121.002 23.0238L118.35 23.3374C118.23 21.3588 117.616 20.451 116.343 20.451C114.88 20.451 114.191 21.6187 114.191 24.0755V24.9816C114.191 27.5111 114.901 28.7152 116.375 28.7152C117.63 28.7152 118.293 27.8074 118.413 25.9778V25.9761Z" fill="#191741"/>
<path d="M175.01 27.2201C175.01 29.2853 173.395 30.5293 170.612 30.5293C167.645 30.5293 165.942 29.2402 165.869 26.9463L168.397 26.4387C168.376 27.92 169.162 28.7534 170.601 28.7534C171.727 28.7534 172.348 28.3202 172.348 27.4678C172.348 26.6154 171.794 26.2343 170.33 25.6954L168.867 25.1427C167.407 24.5901 166.152 23.5315 166.152 21.9514C166.152 19.8533 167.626 18.6422 170.299 18.6422C172.972 18.6422 174.65 19.8446 174.661 21.9514L172.185 22.3845C172.238 21.0418 171.565 20.4475 170.33 20.4475C169.252 20.4475 168.652 20.8495 168.652 21.5737C168.652 22.2979 169.175 22.7726 170.638 23.2924L172.098 23.8208C173.561 24.3527 175.01 25.1739 175.01 27.2183V27.2201Z" fill="#191741"/>
<path d="M144.62 18.6422C141.455 18.6422 139.7 20.827 139.7 24.4722V24.7096C139.7 28.3306 141.455 30.5396 144.62 30.5396C147.784 30.5396 149.543 28.3306 149.543 24.7096V24.4722C149.543 20.827 147.783 18.6422 144.62 18.6422ZM146.803 25.0977C146.803 27.5545 146.083 28.7222 144.62 28.7222C143.157 28.7222 142.44 27.5545 142.44 25.0977V24.0842C142.44 21.6274 143.148 20.4493 144.62 20.4493C146.092 20.4493 146.803 21.6274 146.803 24.0842V25.0977Z" fill="#191741"/>
<path d="M137.413 28.4398C137.906 28.4398 138.517 28.3099 139.095 28.0621L138.943 29.9887C138.34 30.3023 137.412 30.5171 136.541 30.5171C134.468 30.5171 133.399 29.4793 133.399 27.253V16.3449L136.062 15.5548V18.9177H139.064V20.8304H136.062V26.9394C136.062 28.0223 136.51 28.4415 137.413 28.4415V28.4398Z" fill="#191741"/>
<path d="M129.439 26.3313C129.235 28.05 128.513 28.743 127.28 28.743C125.752 28.743 124.946 27.6948 124.946 25.5205V25.3039H131.863C131.919 24.7512 131.939 24.2765 131.939 23.7706C131.939 20.4961 130.268 18.6578 127.27 18.6578C124.049 18.6578 122.305 20.5896 122.305 24.0963V25.0995C122.305 28.6044 124.039 30.531 127.193 30.531C129.945 30.531 131.602 29.242 131.994 26.6588L129.439 26.333V26.3313ZM127.245 20.4389C128.611 20.4389 129.298 21.3156 129.298 23.2075V23.5003H124.946C124.999 21.4559 125.765 20.4389 127.245 20.4389Z" fill="#191741"/>
<path d="M73.6884 21.9323C74.5084 19.6696 75.7706 18.6439 77.3965 18.6439C79.1535 18.6439 79.963 19.8879 79.5399 21.8665L79.7585 21.9323C80.5784 19.6696 81.8407 18.6439 83.4666 18.6439C85.2236 18.6439 86.033 19.8879 85.61 21.8665L85.8285 21.9323C86.6327 19.6609 87.8862 18.6439 89.6013 18.6439C91.4667 18.6439 92.3531 19.7476 92.3531 21.8561V30.2693H89.6904V22.3013C89.6904 21.1769 89.2534 20.6173 88.3792 20.6173C87.0488 20.6173 86.2848 22.239 86.2848 24.4099V30.2711H83.6361V22.3239C83.6361 21.222 83.1379 20.6173 82.3092 20.6173C80.9805 20.6173 80.2147 22.239 80.2147 24.4099V30.2711H77.5661V22.3239C77.5661 21.222 77.1081 20.6034 76.2794 20.6034H76.2759V20.619C76.2759 20.619 76.2724 20.619 76.2706 20.619C74.9419 20.619 74.1762 22.2407 74.1762 24.4116V30.2728H71.5275V22.3256C71.5275 21.2237 71.0695 20.6052 70.2408 20.6052C68.9541 20.6052 68.0992 22.1645 68.0992 24.4774V30.2728H65.4365V18.9211H68.1096C68.1341 19.6124 68.0013 20.2275 67.4995 21.7625L67.718 21.8595C68.7443 19.5345 69.802 18.6474 71.3614 18.6474C73.1185 18.6474 73.9262 19.8914 73.5031 21.8699L73.6919 21.9358L73.6884 21.9323Z" fill="#191741"/>
<path d="M111.231 20.9569C108.259 21.1562 107.564 22.1403 107.564 25.3056V30.2677H104.901V18.916H107.574C107.598 19.7164 107.49 20.2899 106.953 21.8128L107.172 21.9098C107.917 20.1929 108.782 18.6128 111.42 18.5591L111.231 20.9552V20.9569Z" fill="#191741"/>
</svg>
