<?xml version="1.0" encoding="UTF-8"?>
<svg id="Logos" xmlns="http://www.w3.org/2000/svg" viewBox="0 0 1138.26 409.8">
  <defs>
    <style>
      .cls-1 {
        fill: #6359ff;
      }

      .cls-1, .cls-2, .cls-3, .cls-4 {
        stroke-width: 0px;
      }

      .cls-2 {
        fill: #191741;
      }

      .cls-3 {
        fill: #0bbfbf;
      }

      .cls-4 {
        fill: #ffc806;
      }
    </style>
  </defs>
  <g>
    <path class="cls-1" d="m68.6,272.42v-121.25c0-3.36,3.63-5.45,6.54-3.78l105.01,60.62c2.7,1.56,4.36,4.44,4.36,7.55v121.25c0,3.36-3.63,5.45-6.54,3.78l-105.01-60.62c-2.7-1.56-4.36-4.44-4.36-7.55Z"/>
    <path class="cls-4" d="m82.23,129.46l103.37-59.68c2.7-1.56,6.02-1.56,8.72,0l103.37,59.68c3.63,2.1,3.63,7.34,0,9.44l-103.37,59.68c-2.7,1.56-6.02,1.56-8.72,0l-103.37-59.68c-3.63-2.1-3.63-7.34,0-9.44Z"/>
    <path class="cls-3" d="m195.41,336.82v-112.44c0-3.36,3.63-5.45,6.54-3.78l95.74,55.28c3.63,2.1,3.63,7.34,0,9.44l-95.74,55.28c-2.91,1.68-6.54-.42-6.54-3.78Z"/>
  </g>
  <g>
    <path class="cls-2" d="m645.74,220.59c-1.17,9.92-5.31,13.92-12.35,13.92-8.73,0-13.35-6.05-13.35-18.6v-1.25h39.56c.32-3.19.44-5.93.44-8.85,0-18.9-9.56-29.51-26.71-29.51-18.42,0-28.4,11.15-28.4,31.39v5.79c0,20.23,9.92,31.35,27.96,31.35,15.73,0,25.22-7.44,27.45-22.35l-14.6-1.88Zm-12.55-34.01c7.81,0,11.74,5.06,11.74,15.98v1.69h-24.89c.3-11.8,4.68-17.67,13.15-17.67Z"/>
    <path class="cls-2" d="m356.1,218.54l15.55,1.94c-1.82,15.92-11.18,24.41-27.39,24.41-18.42,0-27.96-11.86-27.96-34.58v-.26c0-22.21,9.78-33.83,28.02-33.83,16.46,0,25.28,8.75,26.59,25.28l-15.17,1.81c-.69-11.42-4.2-16.66-11.48-16.66-8.37,0-12.31,6.74-12.31,20.92v5.23c0,14.6,4.06,21.55,12.49,21.55,7.18,0,10.97-5.24,11.66-15.8Z"/>
    <path class="cls-2" d="m406.51,176.21c-18.1,0-28.14,12.61-28.14,33.65v1.37c0,20.9,10.05,33.65,28.14,33.65s28.14-12.75,28.14-33.65v-1.37c0-21.04-10.05-33.65-28.14-33.65Zm12.49,37.26c0,14.18-4.14,20.92-12.49,20.92s-12.49-6.74-12.49-20.92v-5.85c0-14.18,4.05-20.98,12.49-20.98s12.49,6.8,12.49,20.98v5.85Z"/>
    <path class="cls-2" d="m958.63,176.21c-18.1,0-28.14,12.61-28.14,33.65v1.37c0,20.9,10.04,33.65,28.14,33.65s28.16-12.75,28.16-33.65v-1.37c0-21.04-10.07-33.65-28.16-33.65Zm12.49,37.26c0,14.18-4.11,20.92-12.49,20.92s-12.47-6.74-12.47-20.92v-5.85c0-14.18,4.05-20.98,12.47-20.98s12.49,6.8,12.49,20.98v5.85Z"/>
    <rect class="cls-2" x="995.06" y="158.38" width="15.23" height="84.93"/>
    <path class="cls-2" d="m745.91,218.54l15.55,1.94c-1.82,15.92-11.17,24.41-27.39,24.41-18.42,0-27.96-11.86-27.96-34.58v-.26c0-22.21,9.78-33.83,28.02-33.83,16.46,0,25.28,8.75,26.59,25.28l-15.17,1.81c-.69-11.42-4.2-16.66-11.48-16.66-8.37,0-12.31,6.74-12.31,20.92v5.23c0,14.6,4.06,21.55,12.49,21.55,7.18,0,10.97-5.24,11.66-15.8Z"/>
    <path class="cls-2" d="m1069.64,225.72c0,11.92-9.24,19.1-25.16,19.1-16.97,0-26.71-7.44-27.13-20.68l14.46-2.93c-.12,8.55,4.38,13.36,12.61,13.36,6.44,0,9.99-2.5,9.99-7.42s-3.17-7.12-11.54-10.23l-8.37-3.19c-8.35-3.19-15.53-9.3-15.53-18.42,0-12.11,8.43-19.1,23.72-19.1s24.89,6.94,24.95,19.1l-14.16,2.5c.3-7.75-3.55-11.18-10.61-11.18-6.17,0-9.6,2.32-9.6,6.5s2.99,6.92,11.36,9.92l8.35,3.05c8.37,3.07,16.66,7.81,16.66,19.61Z"/>
    <path class="cls-2" d="m895.81,176.21c-18.1,0-28.14,12.61-28.14,33.65v1.37c0,20.9,10.04,33.65,28.14,33.65s28.16-12.75,28.16-33.65v-1.37c0-21.04-10.07-33.65-28.16-33.65Zm12.49,37.26c0,14.18-4.12,20.92-12.49,20.92s-12.47-6.74-12.47-20.92v-5.85c0-14.18,4.05-20.98,12.47-20.98s12.49,6.8,12.49,20.98v5.85Z"/>
    <path class="cls-2" d="m854.59,232.76c2.82,0,6.31-.75,9.62-2.18l-.87,11.12c-3.45,1.81-8.76,3.05-13.74,3.05-11.86,0-17.97-5.99-17.97-18.84v-62.96l15.23-4.56v19.41h17.17v11.04h-17.17v35.26c0,6.25,2.56,8.67,7.73,8.67Z"/>
    <path class="cls-2" d="m808.98,220.59c-1.17,9.92-5.3,13.92-12.35,13.92-8.74,0-13.35-6.05-13.35-18.6v-1.25h39.56c.32-3.19.44-5.93.44-8.85,0-18.9-9.56-29.51-26.71-29.51-18.42,0-28.4,11.15-28.4,31.39v5.79c0,20.23,9.92,31.35,27.96,31.35,15.74,0,25.22-7.44,27.46-22.35l-14.61-1.88Zm-12.55-34.01c7.81,0,11.74,5.06,11.74,15.98v1.69h-24.89c.3-11.8,4.68-17.67,13.15-17.67Z"/>
    <path class="cls-2" d="m490.09,195.2c4.69-13.06,11.91-18.98,21.21-18.98h0c10.05,0,14.68,7.18,12.26,18.6l1.25.38c4.69-13.06,11.91-18.98,21.21-18.98h0c10.05,0,14.68,7.18,12.26,18.6l1.25.38c4.6-13.11,11.77-18.98,21.58-18.98,10.67,0,15.74,6.37,15.74,18.54v48.56h-15.23v-45.99c0-6.49-2.5-9.72-7.5-9.72-7.61,0-11.98,9.36-11.98,21.89v33.83h-15.15v-45.87c0-6.36-2.85-9.85-7.59-9.85-7.6,0-11.98,9.36-11.98,21.89v33.83h-15.15v-45.87c0-6.36-2.62-9.93-7.36-9.93,0,0-.02,0-.02,0v.09s-.02,0-.03,0c-7.6,0-11.98,9.36-11.98,21.89v33.83h-15.15v-45.87c0-6.36-2.62-9.93-7.36-9.93-7.36,0-12.25,9-12.25,22.35v33.45h-15.23v-65.52h15.29c.14,3.99-.62,7.54-3.49,16.4l1.25.56c5.87-13.42,11.92-18.54,20.84-18.54,10.05,0,14.67,7.18,12.25,18.6l1.08.38Z"/>
    <path class="cls-2" d="m704.83,189.57c-17,1.15-20.98,6.83-20.98,25.1v28.64h-15.23v-65.52h15.29c.14,4.62-.48,7.93-3.55,16.72l1.25.56c4.26-9.91,9.21-19.03,24.3-19.34l-1.08,13.83Z"/>
  </g>
</svg>