<svg width="24" height="26" viewBox="0 0 24 26" fill="none" xmlns="http://www.w3.org/2000/svg">
<path d="M13.5009 12.9939L22.4524 7.72236C23.1805 7.29359 23.1805 6.22071 22.4524 5.79195L12.9548 0.198831C12.5045 -0.0662771 11.949 -0.0662771 11.4987 0.198831L1.72806 5.95369C1.27771 6.2188 1 6.70978 1 7.23999V18.9641C1 19.3622 1.20828 19.7298 1.54511 19.9288L11.4978 25.8005C11.949 26.0665 12.5054 26.0665 12.9558 25.8005L22.4543 20.1968C23.1824 19.7671 23.1814 18.6961 22.4543 18.2674L13.5018 12.9949L13.5009 12.9939ZM12.2268 1.27075L21.5424 6.75667L12.2268 12.2426L2.91116 6.75667L12.2268 1.27075ZM11.5897 24.3428L2.2741 18.8569V7.8841L11.5897 13.37V24.3428ZM12.8638 14.1204L21.5424 19.2321L12.8638 24.3428V14.1204Z" fill="white"/>
</svg>
