<?xml version="1.0" encoding="utf-8"?>
<!-- Generator: Adobe Illustrator 23.0.2, SVG Export Plug-In . SVG Version: 6.00 Build 0)  -->
<svg version="1.1" id="Layer_1" xmlns="http://www.w3.org/2000/svg" xmlns:xlink="http://www.w3.org/1999/xlink" x="0px" y="0px"
	 viewBox="0 0 420.94 143.66" style="enable-background:new 0 0 420.94 143.66;" xml:space="preserve">
<style type="text/css">
	.st0{fill:#213C45;}
</style>
<g>
	<g>
		<g>
			<g id="XMLID_86_">
				<path id="XMLID_116_" class="st0" d="M93.2,72.66c2.1,0,3.31-0.14,5.96-0.7l0.65,4.47c-2.05,0.56-4.33,0.84-6.62,0.84
					c-10.2,0-13.14-6.38-13.14-13.84c0.09-7.27,4.47-13.42,13.09-13.42c2.28,0,4.24,0.28,6.62,0.89l-0.89,4.43
					c-2.52-0.56-4.01-0.65-5.59-0.65c-5.4,0.09-8.06,4.1-8.15,8.76C85.14,68.05,86.86,72.66,93.2,72.66z"/>
				<path id="XMLID_113_" class="st0" d="M114.07,50.02c8.39,0.05,12.11,6.29,12.11,13.6c0,7.13-3.21,13.51-12.16,13.56
					c-8.76-0.09-12.11-6.43-12.11-13.56C101.91,56.31,105.68,50.11,114.07,50.02z M114.07,72.7c5.36-0.05,7.08-4.38,7.08-9.08
					c-0.05-4.29-1.86-9.13-7.13-9.13c-5.12,0.05-7.13,4.8-7.13,9.13C106.89,68.51,109.04,72.7,114.07,72.7z"/>
				<path id="XMLID_111_" class="st0" d="M160.88,76.71V59.94c0-4.24-1.58-5.4-4.24-5.4c-1.82,0-3.87,1.03-5.73,2.56
					c0.09,0.56,0.14,1.68,0.14,2v17.61h-5.22V59.75c0-4.24-1.26-5.26-3.91-5.26c-1.68,0-4.01,1.12-6.01,2.61v19.61h-5.17V50.48h5.17
					v2.24c1.58-1.26,4.1-2.7,6.85-2.75c3.63-0.05,5.73,1.21,6.9,3.17c2.14-2,5.31-3.12,7.73-3.17c8.53-0.14,8.66,6.71,8.66,9.6
					v17.14H160.88z"/>
				<path id="XMLID_109_" class="st0" d="M201.87,76.71V59.94c0-4.24-1.58-5.4-4.24-5.4c-1.82,0-3.87,1.03-5.73,2.56
					c0.09,0.56,0.14,1.68,0.14,2v17.61h-5.22V59.75c0-4.24-1.26-5.26-3.91-5.26c-1.68,0-4.01,1.12-6.01,2.61v19.61h-5.17V50.48h5.17
					v2.24c1.58-1.26,4.1-2.7,6.85-2.75c3.63-0.05,5.73,1.21,6.9,3.17c2.14-2,5.31-3.12,7.73-3.17c8.53-0.14,8.66,6.71,8.66,9.6
					v17.14H201.87z"/>
				<path id="XMLID_106_" class="st0" d="M231.17,71.91l0.79,4.24c-2.33,0.79-5.54,1.17-8.06,1.17c-10.34,0-12.86-6.94-12.86-13.88
					s3.08-13.37,11.74-13.37c5.36,0,9.83,3.31,9.88,11.74l-0.05,2.75h-16.49c0.09,5.12,2.84,8.25,8.01,8.25
					C226.19,72.8,228.33,72.57,231.17,71.91z M216.36,60.55h11.51c-0.19-5.31-2.84-6.38-5.31-6.38
					C218.64,54.12,216.82,56.77,216.36,60.55z"/>
				<path id="XMLID_104_" class="st0" d="M251.67,55.28c-1.35-0.33-2.52-0.37-3.35-0.37c-3.21-0.05-4.89,1.54-6.1,2.8v19.01h-5.17
					V50.48h5.17v2.33c1.35-1.4,3.4-2.61,6.06-2.66c1.07-0.05,2.84,0.14,4.33,0.7L251.67,55.28z"/>
				<path id="XMLID_102_" class="st0" d="M266.8,72.66c2.1,0,3.31-0.14,5.96-0.7l0.65,4.47c-2.05,0.56-4.33,0.84-6.62,0.84
					c-10.2,0-13.14-6.38-13.14-13.84c0.09-7.27,4.47-13.42,13.09-13.42c2.28,0,4.24,0.28,6.62,0.89l-0.89,4.43
					c-2.52-0.56-4.01-0.65-5.59-0.65c-5.4,0.09-8.06,4.1-8.15,8.76C258.74,68.05,260.47,72.66,266.8,72.66z"/>
				<path id="XMLID_99_" class="st0" d="M295.64,71.91l0.79,4.24c-2.33,0.79-5.54,1.17-8.06,1.17c-10.34,0-12.86-6.94-12.86-13.88
					s3.08-13.37,11.74-13.37c5.36,0,9.83,3.31,9.88,11.74l-0.05,2.75h-16.49c0.09,5.12,2.84,8.25,8.01,8.25
					C290.65,72.8,292.8,72.57,295.64,71.91z M280.82,60.55h11.51c-0.19-5.31-2.84-6.38-5.31-6.38
					C283.11,54.12,281.29,56.77,280.82,60.55z"/>
				<path id="XMLID_97_" class="st0" d="M314.64,54.77h-7.13v12.72c0,2.65,0.33,4.52,3.03,4.89c1.49,0.14,3.03,0,4.52-0.19
					l0.33,4.47c-1.54,0.28-3.73,0.33-4.61,0.33c-6.1-0.23-8.39-3.35-8.39-8.25V54.77h-3.77v-3.59l3.77-0.42v-6.1h5.12v5.82h7.13
					L314.64,54.77L314.64,54.77z"/>
				<path id="XMLID_94_" class="st0" d="M329.69,50.02c8.39,0.05,12.11,6.29,12.11,13.6c0,7.13-3.21,13.51-12.16,13.56
					c-8.76-0.09-12.11-6.43-12.11-13.56C317.53,56.31,321.3,50.11,329.69,50.02z M329.69,72.7c5.36-0.05,7.08-4.38,7.08-9.08
					c-0.05-4.29-1.86-9.13-7.13-9.13c-5.12,0.05-7.13,4.8-7.13,9.13C322.51,68.51,324.66,72.7,329.69,72.7z"/>
				<path id="XMLID_91_" class="st0" d="M357.54,50.02c8.39,0.05,12.11,6.29,12.11,13.6c0,7.13-3.21,13.51-12.16,13.56
					c-8.76-0.09-12.11-6.43-12.11-13.56C345.38,56.31,349.16,50.11,357.54,50.02z M357.54,72.7c5.36-0.05,7.08-4.38,7.08-9.08
					c-0.05-4.29-1.86-9.13-7.13-9.13c-5.12,0.05-7.13,4.8-7.13,9.13C350.37,68.51,352.51,72.7,357.54,72.7z"/>
				<path id="XMLID_89_" class="st0" d="M373.75,76.71V41.12h4.98v35.59H373.75z"/>
				<path id="XMLID_87_" class="st0" d="M384,71.63c2.93,0.75,5.68,1.12,7.41,1.12c2.05,0,4.15-0.42,4.29-2.89
					c0.14-2.61-2.56-3.4-5.64-4.7c-3.49-1.44-7.27-3.4-7.17-8.25c0.09-2.42,1.54-7.17,9.27-6.94c2.33,0.05,5.12,0.42,7.45,1.03
					l-0.88,4.29c-2.75-0.65-4.8-0.93-6.8-0.98c-2.24,0-3.96,0.7-4.05,2.8c-0.05,1.77,1.35,2.7,4.8,4.1c3.49,1.44,8.43,3.31,8.2,8.81
					c-0.14,3.49-2.42,7.31-9.46,7.22c-2.24-0.05-5.82-0.33-8.48-1.26L384,71.63z"/>
			</g>
		</g>
		<g>
			<path class="st0" d="M167.07,104.65h-1.83l-4.65-12.37h-0.06c-0.22,1.49-0.46,2.9-0.75,4.23l-1.74,8.14h-1.64l3.12-14.78h1.82
				l4.64,12.34h0.06c0.2-1.51,0.45-2.88,0.73-4.1l1.76-8.24h1.66L167.07,104.65z"/>
			<path class="st0" d="M175.07,104.86c-1.24,0-2.21-0.37-2.92-1.1c-0.71-0.73-1.06-1.75-1.06-3.05c0-1.27,0.25-2.48,0.75-3.65
				c0.5-1.16,1.17-2.07,2-2.71c0.83-0.65,1.74-0.97,2.74-0.97c1.03,0,1.81,0.22,2.33,0.67s0.78,1.07,0.78,1.88
				c0,1.21-0.56,2.17-1.68,2.86s-2.72,1.04-4.8,1.04h-0.33l-0.04,0.81c0,0.88,0.21,1.57,0.62,2.07c0.41,0.5,1.06,0.74,1.93,0.74
				c0.42,0,0.86-0.06,1.31-0.18s1.01-0.34,1.67-0.67v1.48c-0.63,0.3-1.19,0.5-1.68,0.62C176.19,104.8,175.66,104.86,175.07,104.86z
				 M176.48,94.82c-0.69,0-1.35,0.32-1.96,0.95s-1.08,1.51-1.4,2.64h0.12c1.54,0,2.71-0.2,3.53-0.6c0.82-0.4,1.23-0.98,1.23-1.74
				c0-0.36-0.12-0.65-0.37-0.89C177.39,94.93,177,94.82,176.48,94.82z"/>
			<path class="st0" d="M185.03,100.27l-3.5,4.39h-1.97l4.8-5.71l-2.42-5.37h1.72l1.76,4.17l3.34-4.17h1.96l-4.6,5.45l2.55,5.63
				h-1.7L185.03,100.27z"/>
			<path class="st0" d="M194.2,103.47c0.37,0,0.86-0.09,1.46-0.26v1.3c-0.23,0.09-0.51,0.18-0.85,0.24c-0.34,0.07-0.61,0.1-0.81,0.1
				c-0.84,0-1.49-0.2-1.94-0.6s-0.67-1-0.67-1.79c0-0.44,0.06-0.95,0.18-1.52l1.28-6.09h-1.74l0.14-0.74l1.87-0.79l1.26-2.31h0.99
				l-0.56,2.55h2.77l-0.26,1.28h-2.76l-1.3,6.11c-0.12,0.59-0.18,1.03-0.18,1.33c0,0.38,0.1,0.67,0.29,0.87
				S193.85,103.47,194.2,103.47z"/>
			<path class="st0" d="M213.42,93.57l-0.25,1.08l-2.13,0.24c0.28,0.42,0.41,0.95,0.41,1.6c0,1.29-0.39,2.31-1.18,3.08
				c-0.79,0.77-1.83,1.15-3.15,1.15c-0.37,0-0.65-0.03-0.85-0.08c-0.94,0.36-1.41,0.8-1.41,1.32c0,0.28,0.11,0.46,0.33,0.55
				c0.22,0.09,0.55,0.16,0.97,0.22l1.18,0.14c1.22,0.15,2.1,0.45,2.65,0.89c0.55,0.44,0.82,1.1,0.82,1.96c0,1.24-0.49,2.2-1.48,2.88
				c-0.98,0.68-2.37,1.02-4.16,1.02c-1.31,0-2.33-0.25-3.07-0.74s-1.11-1.19-1.11-2.1c0-0.71,0.24-1.32,0.73-1.84
				c0.49-0.52,1.27-0.96,2.36-1.32c-0.53-0.28-0.79-0.68-0.79-1.22c0-0.46,0.17-0.86,0.52-1.2c0.34-0.33,0.82-0.65,1.44-0.94
				c-0.42-0.22-0.77-0.53-1.04-0.96s-0.4-0.91-0.4-1.47c0-1.31,0.4-2.38,1.21-3.22c0.81-0.84,1.83-1.25,3.09-1.25
				c0.53,0,1.04,0.07,1.56,0.2h3.75V93.57z M202.65,106.63c0,0.52,0.22,0.93,0.66,1.23s1.09,0.46,1.95,0.46
				c1.23,0,2.19-0.21,2.88-0.64s1.04-1.03,1.04-1.81c0-0.42-0.18-0.75-0.55-0.99c-0.36-0.24-0.98-0.41-1.86-0.51l-1.61-0.16
				c-0.81,0.17-1.43,0.47-1.86,0.89C202.87,105.51,202.65,106.03,202.65,106.63z M205.46,97.78c0,0.57,0.15,1.01,0.46,1.31
				c0.3,0.3,0.72,0.45,1.26,0.45c0.53,0,1-0.14,1.4-0.42s0.7-0.67,0.92-1.17c0.21-0.5,0.32-1.03,0.32-1.61
				c0-0.55-0.15-0.97-0.44-1.26c-0.3-0.29-0.72-0.43-1.27-0.43c-0.53,0-0.99,0.14-1.38,0.41c-0.39,0.27-0.7,0.65-0.92,1.14
				C205.57,96.68,205.46,97.21,205.46,97.78z"/>
			<path class="st0" d="M217.65,104.86c-1.24,0-2.21-0.37-2.92-1.1s-1.06-1.75-1.06-3.05c0-1.27,0.25-2.48,0.75-3.65
				c0.5-1.16,1.17-2.07,2-2.71c0.83-0.65,1.74-0.97,2.74-0.97c1.03,0,1.81,0.22,2.33,0.67s0.78,1.07,0.78,1.88
				c0,1.21-0.56,2.17-1.68,2.86s-2.72,1.04-4.8,1.04h-0.33l-0.04,0.81c0,0.88,0.21,1.57,0.62,2.07c0.42,0.5,1.06,0.74,1.93,0.74
				c0.42,0,0.86-0.06,1.31-0.18s1.01-0.34,1.67-0.67v1.48c-0.63,0.3-1.19,0.5-1.68,0.62C218.77,104.8,218.23,104.86,217.65,104.86z
				 M219.05,94.82c-0.69,0-1.35,0.32-1.96,0.95s-1.08,1.51-1.4,2.64h0.12c1.54,0,2.71-0.2,3.53-0.6c0.82-0.4,1.23-0.98,1.23-1.74
				c0-0.36-0.12-0.65-0.37-0.89C219.97,94.93,219.58,94.82,219.05,94.82z"/>
			<path class="st0" d="M230.26,104.65l1.5-7c0.13-0.7,0.2-1.19,0.2-1.46c0-0.42-0.12-0.76-0.36-1.02s-0.62-0.38-1.15-0.38
				c-0.6,0-1.19,0.2-1.75,0.61c-0.57,0.4-1.07,0.98-1.51,1.73c-0.44,0.75-0.76,1.65-0.99,2.72l-1.02,4.8h-1.7l2.37-11.08h1.41
				l-0.22,2.05h0.1c0.65-0.82,1.27-1.4,1.88-1.74s1.23-0.51,1.88-0.51c0.86,0,1.53,0.23,2.03,0.7c0.5,0.47,0.74,1.12,0.74,1.97
				c0,0.53-0.08,1.14-0.23,1.82l-1.45,6.79L230.26,104.65L230.26,104.65z"/>
			<path class="st0" d="M239.81,104.86c-1.24,0-2.21-0.37-2.92-1.1s-1.06-1.75-1.06-3.05c0-1.27,0.25-2.48,0.75-3.65
				c0.5-1.16,1.17-2.07,2-2.71c0.83-0.65,1.74-0.97,2.74-0.97c1.03,0,1.81,0.22,2.33,0.67s0.78,1.07,0.78,1.88
				c0,1.21-0.56,2.17-1.68,2.86s-2.72,1.04-4.8,1.04h-0.33l-0.04,0.81c0,0.88,0.21,1.57,0.62,2.07c0.42,0.5,1.06,0.74,1.93,0.74
				c0.42,0,0.86-0.06,1.31-0.18s1.01-0.34,1.67-0.67v1.48c-0.63,0.3-1.19,0.5-1.68,0.62C240.93,104.8,240.4,104.86,239.81,104.86z
				 M241.22,94.82c-0.69,0-1.35,0.32-1.96,0.95s-1.08,1.51-1.4,2.64h0.12c1.54,0,2.71-0.2,3.53-0.6c0.82-0.4,1.23-0.98,1.23-1.74
				c0-0.36-0.12-0.65-0.37-0.89C242.13,94.93,241.74,94.82,241.22,94.82z"/>
			<path class="st0" d="M252.65,93.37c0.46,0,0.87,0.05,1.21,0.14l-0.36,1.52c-0.36-0.09-0.71-0.13-1.06-0.13
				c-0.61,0-1.19,0.2-1.72,0.61c-0.54,0.4-1,0.97-1.41,1.68c-0.4,0.72-0.7,1.52-0.88,2.39l-1.08,5.08h-1.7l2.37-11.08h1.41
				l-0.22,2.05h0.1c0.49-0.64,0.89-1.1,1.2-1.38c0.32-0.28,0.65-0.5,1-0.65C251.84,93.45,252.23,93.37,252.65,93.37z"/>
			<path class="st0" d="M259.71,93.37c0.62,0,1.17,0.17,1.66,0.5s0.86,0.81,1.13,1.44h0.11l0.68-1.74h1.28l-2.36,11.08h-1.34
				l0.26-2.11h-0.08c-1.21,1.54-2.48,2.32-3.81,2.32c-0.94,0-1.67-0.33-2.2-1s-0.8-1.58-0.8-2.74c0-1.4,0.24-2.7,0.72-3.9
				c0.48-1.2,1.14-2.14,1.98-2.82S258.7,93.37,259.71,93.37z M257.79,103.45c0.65,0,1.3-0.31,1.95-0.94
				c0.65-0.62,1.17-1.44,1.58-2.44s0.61-2,0.61-3.01c0-0.69-0.19-1.25-0.57-1.66s-0.87-0.62-1.49-0.62c-0.7,0-1.35,0.29-1.96,0.87
				s-1.08,1.36-1.42,2.36c-0.34,0.99-0.52,2.04-0.52,3.13c0,0.77,0.16,1.34,0.47,1.72C256.77,103.26,257.22,103.45,257.79,103.45z"
				/>
			<path class="st0" d="M268.94,103.47c0.37,0,0.86-0.09,1.46-0.26v1.3c-0.23,0.09-0.51,0.18-0.85,0.24s-0.61,0.1-0.81,0.1
				c-0.84,0-1.49-0.2-1.94-0.6s-0.67-1-0.67-1.79c0-0.44,0.06-0.95,0.18-1.52l1.28-6.09h-1.74l0.14-0.74l1.87-0.79l1.26-2.31h0.99
				l-0.56,2.55h2.77l-0.26,1.28h-2.76l-1.3,6.11c-0.12,0.59-0.18,1.03-0.18,1.33c0,0.38,0.1,0.67,0.29,0.87
				S268.59,103.47,268.94,103.47z"/>
			<path class="st0" d="M273.96,104.65h-1.7l2.37-11.08h1.7L273.96,104.65z M275.1,90.74c0-0.38,0.11-0.69,0.32-0.92
				c0.21-0.24,0.5-0.36,0.84-0.36c0.59,0,0.89,0.3,0.89,0.91c0,0.37-0.11,0.68-0.34,0.94s-0.49,0.38-0.78,0.38
				c-0.27,0-0.49-0.08-0.67-0.25C275.19,91.28,275.1,91.05,275.1,90.74z"/>
			<path class="st0" d="M283.42,93.43c1.28,0,2.29,0.38,3.03,1.14s1.11,1.8,1.11,3.13c0,1.27-0.24,2.46-0.73,3.59
				c-0.49,1.13-1.14,2-1.97,2.61s-1.77,0.92-2.81,0.92c-1.29,0-2.31-0.38-3.04-1.14s-1.1-1.8-1.1-3.12c0-1.28,0.25-2.49,0.74-3.61
				c0.49-1.13,1.16-2,1.99-2.6C281.48,93.73,282.4,93.43,283.42,93.43z M285.81,97.47c0-0.77-0.21-1.4-0.63-1.89
				c-0.42-0.48-0.99-0.72-1.71-0.72c-0.74,0-1.39,0.25-1.98,0.75c-0.58,0.5-1.04,1.19-1.36,2.08c-0.32,0.89-0.48,1.87-0.48,2.96
				c0,0.88,0.21,1.57,0.64,2.05c0.43,0.48,1.04,0.72,1.85,0.72c0.7,0,1.33-0.25,1.89-0.74c0.56-0.49,1-1.19,1.31-2.1
				C285.65,99.67,285.81,98.63,285.81,97.47z"/>
			<path class="st0" d="M295.91,104.65l1.5-7c0.13-0.7,0.2-1.19,0.2-1.46c0-0.42-0.12-0.76-0.36-1.02s-0.62-0.38-1.15-0.38
				c-0.6,0-1.19,0.2-1.75,0.61c-0.57,0.4-1.07,0.98-1.51,1.73s-0.76,1.65-0.99,2.72l-1.02,4.8h-1.7l2.37-11.08h1.41l-0.22,2.05h0.1
				c0.65-0.82,1.27-1.4,1.88-1.74s1.23-0.51,1.88-0.51c0.86,0,1.53,0.23,2.03,0.7c0.5,0.47,0.74,1.12,0.74,1.97
				c0,0.53-0.08,1.14-0.23,1.82l-1.45,6.79L295.91,104.65L295.91,104.65z"/>
			<path class="st0" d="M310.98,104.86c-1.31,0-2.32-0.36-3.04-1.08s-1.08-1.74-1.08-3.05c0-1.35,0.25-2.59,0.75-3.73
				s1.19-2.03,2.07-2.66c0.88-0.64,1.87-0.96,2.97-0.96c0.92,0,1.83,0.17,2.71,0.52l-0.48,1.43c-0.81-0.34-1.55-0.52-2.21-0.52
				c-0.75,0-1.44,0.26-2.07,0.77c-0.62,0.52-1.11,1.23-1.47,2.15s-0.53,1.92-0.53,3c0,0.86,0.22,1.53,0.67,2.01s1.07,0.72,1.86,0.72
				c0.49,0,0.94-0.07,1.38-0.2s0.86-0.29,1.27-0.48v1.45C312.94,104.64,312.01,104.86,310.98,104.86z"/>
			<path class="st0" d="M321.69,93.43c1.28,0,2.29,0.38,3.03,1.14s1.11,1.8,1.11,3.13c0,1.27-0.24,2.46-0.73,3.59
				c-0.49,1.13-1.14,2-1.97,2.61s-1.77,0.92-2.81,0.92c-1.29,0-2.31-0.38-3.04-1.14s-1.1-1.8-1.1-3.12c0-1.28,0.25-2.49,0.74-3.61
				c0.49-1.13,1.16-2,1.99-2.6C319.75,93.73,320.67,93.43,321.69,93.43z M324.08,97.47c0-0.77-0.21-1.4-0.63-1.89
				c-0.42-0.48-0.99-0.72-1.71-0.72c-0.74,0-1.39,0.25-1.98,0.75c-0.58,0.5-1.04,1.19-1.36,2.08c-0.32,0.89-0.48,1.87-0.48,2.96
				c0,0.88,0.21,1.57,0.64,2.05c0.43,0.48,1.04,0.72,1.85,0.72c0.7,0,1.33-0.25,1.89-0.74c0.56-0.49,1-1.19,1.31-2.1
				C323.92,99.67,324.08,98.63,324.08,97.47z"/>
			<path class="st0" d="M333.84,104.65l1.5-7c0.12-0.63,0.18-1.09,0.18-1.36c0-0.47-0.1-0.84-0.31-1.1s-0.57-0.39-1.07-0.39
				c-0.57,0-1.12,0.2-1.65,0.61c-0.54,0.4-1.01,0.98-1.42,1.73s-0.72,1.66-0.95,2.71l-1.02,4.8h-1.7l2.37-11.08h1.41l-0.22,2.05h0.1
				c0.59-0.8,1.17-1.38,1.75-1.73s1.18-0.53,1.8-0.53c0.76,0,1.35,0.22,1.76,0.66s0.65,1.05,0.73,1.83h0.08
				c0.58-0.84,1.2-1.47,1.85-1.88c0.65-0.41,1.31-0.61,1.98-0.61c0.86,0,1.52,0.23,1.99,0.69s0.7,1.13,0.7,2
				c0,0.46-0.07,1.06-0.22,1.8l-1.46,6.79h-1.72l1.5-7c0.13-0.7,0.2-1.19,0.2-1.48c0-0.42-0.12-0.75-0.35-1.01
				c-0.23-0.25-0.6-0.38-1.1-0.38c-0.55,0-1.08,0.2-1.62,0.59c-0.53,0.39-1,0.95-1.4,1.66c-0.4,0.72-0.71,1.57-0.92,2.55l-1.08,5.06
				h-1.69V104.65z"/>
			<path class="st0" d="M351.9,104.65l1.5-7c0.12-0.63,0.18-1.09,0.18-1.36c0-0.47-0.1-0.84-0.31-1.1s-0.57-0.39-1.07-0.39
				c-0.57,0-1.12,0.2-1.65,0.61c-0.54,0.4-1.01,0.98-1.42,1.73s-0.72,1.66-0.95,2.71l-1.02,4.8h-1.7l2.37-11.08h1.41l-0.22,2.05h0.1
				c0.59-0.8,1.17-1.38,1.75-1.73s1.18-0.53,1.8-0.53c0.76,0,1.35,0.22,1.76,0.66s0.65,1.05,0.73,1.83h0.08
				c0.58-0.84,1.2-1.47,1.85-1.88c0.65-0.41,1.31-0.61,1.98-0.61c0.86,0,1.52,0.23,1.99,0.69s0.7,1.13,0.7,2
				c0,0.46-0.07,1.06-0.22,1.8l-1.46,6.79h-1.72l1.5-7c0.13-0.7,0.2-1.19,0.2-1.48c0-0.42-0.12-0.75-0.35-1.01
				c-0.23-0.25-0.6-0.38-1.1-0.38c-0.55,0-1.08,0.2-1.62,0.59c-0.53,0.39-1,0.95-1.4,1.66c-0.4,0.72-0.71,1.57-0.92,2.55l-1.08,5.06
				h-1.69V104.65z"/>
			<path class="st0" d="M367.9,104.86c-1.24,0-2.21-0.37-2.92-1.1s-1.06-1.75-1.06-3.05c0-1.27,0.25-2.48,0.75-3.65
				c0.5-1.16,1.17-2.07,2-2.71c0.83-0.65,1.74-0.97,2.74-0.97c1.03,0,1.81,0.22,2.33,0.67s0.78,1.07,0.78,1.88
				c0,1.21-0.56,2.17-1.68,2.86s-2.72,1.04-4.8,1.04h-0.33l-0.04,0.81c0,0.88,0.21,1.57,0.62,2.07c0.42,0.5,1.06,0.74,1.93,0.74
				c0.42,0,0.86-0.06,1.31-0.18s1.01-0.34,1.67-0.67v1.48c-0.63,0.3-1.19,0.5-1.68,0.62C369.02,104.8,368.49,104.86,367.9,104.86z
				 M369.3,94.82c-0.69,0-1.35,0.32-1.96,0.95s-1.08,1.51-1.4,2.64h0.12c1.54,0,2.71-0.2,3.53-0.6s1.23-0.98,1.23-1.74
				c0-0.36-0.12-0.65-0.37-0.89C370.22,94.93,369.83,94.82,369.3,94.82z"/>
			<path class="st0" d="M380.74,93.37c0.46,0,0.87,0.05,1.21,0.14l-0.36,1.52c-0.36-0.09-0.71-0.13-1.06-0.13
				c-0.61,0-1.19,0.2-1.72,0.61c-0.54,0.4-1,0.97-1.41,1.68c-0.4,0.72-0.7,1.52-0.88,2.39l-1.08,5.08h-1.7l2.37-11.08h1.41
				l-0.22,2.05h0.1c0.49-0.64,0.89-1.1,1.2-1.38c0.32-0.28,0.65-0.5,1-0.65C379.93,93.45,380.31,93.37,380.74,93.37z"/>
			<path class="st0" d="M386.45,104.86c-1.31,0-2.32-0.36-3.04-1.08s-1.08-1.74-1.08-3.05c0-1.35,0.25-2.59,0.75-3.73
				s1.19-2.03,2.07-2.66c0.88-0.64,1.87-0.96,2.97-0.96c0.92,0,1.83,0.17,2.71,0.52l-0.48,1.43c-0.81-0.34-1.55-0.52-2.21-0.52
				c-0.75,0-1.44,0.26-2.07,0.77c-0.62,0.52-1.11,1.23-1.47,2.15s-0.53,1.92-0.53,3c0,0.86,0.22,1.53,0.67,2.01s1.07,0.72,1.86,0.72
				c0.49,0,0.94-0.07,1.38-0.2s0.86-0.29,1.27-0.48v1.45C388.41,104.64,387.48,104.86,386.45,104.86z"/>
			<path class="st0" d="M395.63,104.86c-1.24,0-2.21-0.37-2.92-1.1s-1.06-1.75-1.06-3.05c0-1.27,0.25-2.48,0.75-3.65
				c0.5-1.16,1.17-2.07,2-2.71c0.83-0.65,1.74-0.97,2.74-0.97c1.03,0,1.81,0.22,2.33,0.67s0.78,1.07,0.78,1.88
				c0,1.21-0.56,2.17-1.68,2.86s-2.72,1.04-4.8,1.04h-0.33l-0.04,0.81c0,0.88,0.21,1.57,0.62,2.07c0.42,0.5,1.06,0.74,1.93,0.74
				c0.42,0,0.86-0.06,1.31-0.18s1.01-0.34,1.67-0.67v1.48c-0.63,0.3-1.19,0.5-1.68,0.62C396.76,104.8,396.22,104.86,395.63,104.86z
				 M397.04,94.82c-0.69,0-1.35,0.32-1.96,0.95s-1.08,1.51-1.4,2.64h0.12c1.54,0,2.71-0.2,3.53-0.6s1.23-0.98,1.23-1.74
				c0-0.36-0.12-0.65-0.37-0.89C397.95,94.93,397.56,94.82,397.04,94.82z"/>
		</g>
	</g>
	<g id="XMLID_1_">
		<g>
			<path class="st0" d="M67.04,75.19L45.32,65.07c-0.17-0.08-0.36-0.14-0.55-0.19v-0.09v-6.06c0-0.6,0.02-0.61,0.41-0.79l0,0
				l0.86-0.4c1.46-0.68,1.46-0.68,10.02-4.69l10.98-5.14c0.64-0.3,1.05-0.94,1.04-1.64c0-0.7-0.41-1.35-1.05-1.64L45.32,34.31
				c-0.79-0.37-1.69-0.37-2.48,0L21.12,44.4c-0.63,0.29-1.04,0.93-1.05,1.63l0,0V76.8l0,0c0,0.7,0.41,1.35,1.04,1.64l21.75,10.18
				c0.09,0.04,0.67,0.28,1.26,0.28c0.57,0,1.14-0.23,1.24-0.28l21.69-10.15c0.64-0.3,1.05-0.94,1.04-1.64
				C68.09,76.13,67.68,75.49,67.04,75.19z M21.46,75V47.84l21.41,10.02c0.18,0.08,0.36,0.15,0.55,0.19c0.01,0,0.01,0.01,0.02,0.01
				c-0.03,0.2-0.05,0.42-0.05,0.66v6.06v0.08c-0.01,0-0.03,0.01-0.04,0.01c-0.17,0.04-0.34,0.1-0.51,0.18L21.46,75z M21.71,45.65
				l21.72-10.09c0.21-0.1,0.43-0.15,0.66-0.15c0.22,0,0.45,0.05,0.66,0.15l21.72,10.13c0.15,0.07,0.25,0.22,0.25,0.39
				s-0.1,0.32-0.25,0.39l-10.98,5.14c-8.56,4.01-8.56,4.01-10.02,4.68l-0.82,0.38c-0.06,0.02-0.12,0.04-0.18,0.05
				c-0.03,0.01-0.06,0.02-0.08,0.02c-0.09,0.02-0.19,0.02-0.29,0.02c-0.22,0-0.44-0.05-0.64-0.15L21.7,46.43
				c-0.04-0.02-0.07-0.04-0.1-0.07c-0.09-0.08-0.14-0.2-0.15-0.33C21.46,45.88,21.55,45.72,21.71,45.65z M21.7,77.19
				c-0.15-0.07-0.25-0.22-0.25-0.39c0-0.04,0.01-0.08,0.02-0.12c0.03-0.12,0.12-0.22,0.23-0.27l21.68-10.08v21.01L21.7,77.19z
				 M66.46,77.23L44.77,87.38l0,0V66.34l21.69,10.11c0.15,0.07,0.25,0.22,0.25,0.39C66.71,77,66.61,77.15,66.46,77.23z"/>
		</g>
		<g>
			<path class="st0" d="M44.12,89.4c-0.71,0-1.39-0.29-1.46-0.32L20.9,78.89c-0.81-0.37-1.33-1.19-1.33-2.09V46.03
				c0.01-0.9,0.54-1.71,1.34-2.08l21.72-10.09c0.92-0.43,1.98-0.43,2.9,0l21.71,10.12c0.81,0.37,1.34,1.19,1.34,2.09
				c0.01,0.88-0.51,1.71-1.33,2.09L56.27,53.3c-8.56,4.01-8.56,4.01-10.02,4.69l-0.86,0.4c-0.05,0.02-0.08,0.04-0.12,0.05
				c-0.01,0.08-0.01,0.21-0.01,0.28v5.78c0.09,0.03,0.18,0.07,0.26,0.11l21.72,10.12c0.81,0.38,1.34,1.2,1.34,2.09
				c0.01,0.88-0.51,1.71-1.33,2.09L45.57,89.07C45.41,89.15,44.77,89.4,44.12,89.4z M43.07,88.17c0,0,0.53,0.23,1.05,0.23
				c0.45,0,0.94-0.19,1.02-0.23l21.7-10.15c0.46-0.22,0.76-0.68,0.75-1.18c0-0.51-0.3-0.98-0.76-1.19L45.11,65.52
				c-0.15-0.07-0.31-0.12-0.47-0.16l-0.37-0.1v-6.54c0-0.74,0.08-0.96,0.7-1.24l0.86-0.4c1.46-0.68,1.46-0.68,10.02-4.69l10.98-5.14
				c0.46-0.22,0.76-0.68,0.75-1.18c0-0.52-0.3-0.98-0.76-1.19L45.11,34.76c-0.65-0.31-1.4-0.31-2.06,0L21.33,44.85
				c-0.46,0.21-0.75,0.67-0.76,1.18V76.8c0,0.5,0.3,0.98,0.75,1.19L43.07,88.17L43.07,88.17z M44.27,88.17V65.56L66.67,76
				c0.33,0.15,0.54,0.48,0.54,0.84c0,0.34-0.2,0.66-0.51,0.83l-0.02,0.01L44.27,88.17z M45.27,67.12v19.47l20.89-9.78L45.27,67.12z
				 M43.88,88.13L21.49,77.64c-0.33-0.15-0.54-0.48-0.54-0.84c0-0.1,0.02-0.18,0.04-0.24c0.06-0.26,0.26-0.49,0.51-0.6l22.39-10.41
				V88.13z M22.05,76.8l20.83,9.75V67.11L22.05,76.8z M20.96,75.78V47.05l22.12,10.35c0.1,0.05,0.25,0.11,0.39,0.14l0.54,0.01
				l-0.09,0.57c-0.03,0.18-0.04,0.37-0.04,0.59v6.56l-0.36,0.06l0,0l-0.1,0.03c-0.12,0.03-0.25,0.08-0.38,0.14L20.96,75.78z
				 M21.96,48.63v25.59l20.67-9.62c0.09-0.04,0.17-0.08,0.26-0.11v-5.77c0-0.11,0-0.21,0.01-0.31c-0.09-0.03-0.16-0.07-0.23-0.1
				L21.96,48.63z M44.1,57.26c-0.3,0-0.6-0.07-0.86-0.2L21.49,46.88c-0.1-0.05-0.18-0.1-0.24-0.17c-0.16-0.14-0.27-0.38-0.29-0.65
				c0.02-0.42,0.24-0.73,0.55-0.87l21.72-10.09c0.54-0.26,1.19-0.26,1.75,0l21.72,10.13c0.33,0.15,0.54,0.48,0.54,0.84
				c0,0.36-0.21,0.69-0.54,0.84L55.7,52.06c-8.56,4.01-8.56,4.01-10.02,4.68l-0.82,0.38c-0.14,0.05-0.22,0.08-0.31,0.09l-0.05,0.01
				l0,0.01C44.35,57.26,44.22,57.26,44.1,57.26z M21.98,46.08l21.69,10.08c0.2,0.1,0.5,0.12,0.61,0.09l0.11-0.01
				c0.03-0.02,0.07-0.03,0.1-0.04l0.77-0.36c1.46-0.67,1.46-0.67,10.02-4.68l10.85-5.08L44.54,36.01c-0.29-0.14-0.61-0.14-0.89,0
				L21.98,46.08z"/>
		</g>
	</g>
</g>
</svg>
