<svg width="421" height="144" viewBox="0 0 421 144" fill="none" xmlns="http://www.w3.org/2000/svg">
<path d="M70.7152 71.6773L107.031 50.7121C109.985 49.0069 109.985 44.74 107.031 43.0348L68.5 20.7908C66.6729 19.7364 64.4196 19.7364 62.5926 20.7908L22.9537 43.6781C21.1267 44.7324 20 46.6851 20 48.7938V95.421C20 97.0045 20.845 98.4661 22.2115 99.2578L62.5888 122.609C64.4196 123.668 66.6768 123.668 68.5038 122.609L107.039 100.324C109.993 98.6145 109.989 94.3553 107.039 92.65L70.719 71.6811L70.7152 71.6773ZM65.5463 25.0538L103.339 46.8716L65.5463 68.6893L27.7534 46.8716L65.5463 25.0538ZM62.9618 116.812L25.169 94.9947V51.3554L62.9618 73.1732V116.812ZM68.1308 76.1573L103.339 96.4868L68.1308 116.812V76.1573Z" fill="white"/>
<path d="M239.651 77.1203C239.205 80.8961 237.629 82.4187 234.95 82.4187C231.627 82.4187 229.868 80.1158 229.868 75.3389V74.8631H244.926C245.048 73.6489 245.094 72.606 245.094 71.4946C245.094 64.3006 241.455 60.2621 234.927 60.2621C227.916 60.2621 224.117 64.5062 224.117 72.2101V74.414C224.117 82.1142 227.893 86.3468 234.76 86.3468C240.747 86.3468 244.359 83.5149 245.208 77.8397L239.651 77.1241V77.1203ZM234.874 64.175C237.846 64.175 239.342 66.101 239.342 70.2575V70.9008H229.868C229.983 66.4093 231.65 64.175 234.874 64.175Z" fill="white"/>
<path d="M129.405 76.34L135.324 77.0784C134.631 83.1381 131.068 86.3696 124.898 86.3696C117.887 86.3696 114.256 81.8553 114.256 73.2074V73.1084C114.256 64.6546 117.978 60.2317 124.921 60.2317C131.186 60.2317 134.543 63.5622 135.042 69.854L129.268 70.543C129.005 66.1962 127.669 64.2017 124.898 64.2017C121.712 64.2017 120.212 66.7671 120.212 72.1645V74.1552C120.212 79.7124 121.758 82.3578 124.967 82.3578C127.699 82.3578 129.142 80.3633 129.405 76.3438V76.34Z" fill="white"/>
<path d="M148.589 60.2279C141.699 60.2279 137.878 65.0277 137.878 73.0361V73.5576C137.878 81.5128 141.703 86.3658 148.589 86.3658C155.474 86.3658 159.299 81.5128 159.299 73.5576V73.0361C159.299 65.0277 155.474 60.2279 148.589 60.2279ZM153.343 74.4102C153.343 79.8075 151.767 82.373 148.589 82.373C145.41 82.373 143.834 79.8075 143.834 74.4102V72.1835C143.834 66.7862 145.376 64.1979 148.589 64.1979C151.801 64.1979 153.343 66.7862 153.343 72.1835V74.4102Z" fill="white"/>
<path d="M358.746 60.2279C351.857 60.2279 348.035 65.0277 348.035 73.0361V73.5576C348.035 81.5128 351.857 86.3658 358.746 86.3658C365.636 86.3658 369.465 81.5128 369.465 73.5576V73.0361C369.465 65.0277 365.632 60.2279 358.746 60.2279ZM363.5 74.4102C363.5 79.8075 361.936 82.373 358.746 82.373C355.556 82.373 354 79.8075 354 74.4102V72.1835C354 66.7862 355.541 64.1979 358.746 64.1979C361.951 64.1979 363.5 66.7862 363.5 72.1835V74.4102Z" fill="white"/>
<path d="M378.41 53.4413H372.613V85.7682H378.41V53.4413Z" fill="white"/>
<path d="M277.775 76.34L283.693 77.0784C283.001 83.1381 279.442 86.3696 273.268 86.3696C266.257 86.3696 262.625 81.8553 262.625 73.2074V73.1084C262.625 64.6546 266.348 60.2317 273.291 60.2317C279.556 60.2317 282.913 63.5622 283.412 69.854L277.638 70.543C277.375 66.1962 276.039 64.2017 273.268 64.2017C270.082 64.2017 268.582 66.7671 268.582 72.1645V74.1552C268.582 79.7124 270.128 82.3578 273.336 82.3578C276.069 82.3578 277.512 80.3633 277.775 76.3438V76.34Z" fill="white"/>
<path d="M401 79.0729C401 83.6101 397.483 86.343 391.423 86.343C384.964 86.343 381.257 83.5111 381.097 78.4715L386.601 77.3563C386.555 80.6107 388.268 82.4415 391.401 82.4415C393.852 82.4415 395.203 81.4899 395.203 79.6172C395.203 77.7445 393.996 76.9071 390.811 75.7234L387.625 74.5092C384.446 73.295 381.713 70.9693 381.713 67.498C381.713 62.8885 384.922 60.2279 390.742 60.2279C396.562 60.2279 400.216 62.8695 400.239 67.498L394.849 68.4495C394.963 65.4996 393.498 64.1941 390.811 64.1941C388.462 64.1941 387.156 65.0771 387.156 66.6682C387.156 68.2592 388.295 69.3021 391.48 70.444L394.659 71.605C397.845 72.7735 401 74.5777 401 79.0691V79.0729Z" fill="white"/>
<path d="M334.835 60.2279C327.946 60.2279 324.124 65.0277 324.124 73.0361V73.5576C324.124 81.5128 327.946 86.3658 334.835 86.3658C341.724 86.3658 345.553 81.5128 345.553 73.5576V73.0361C345.553 65.0277 341.721 60.2279 334.835 60.2279ZM339.589 74.4102C339.589 79.8075 338.021 82.373 334.835 82.373C331.649 82.373 330.088 79.8075 330.088 74.4102V72.1835C330.088 66.7862 331.63 64.1979 334.835 64.1979C338.04 64.1979 339.589 66.7862 339.589 72.1835V74.4102Z" fill="white"/>
<path d="M319.145 81.7526C320.219 81.7526 321.547 81.4671 322.807 80.9228L322.476 85.1554C321.163 85.8444 319.142 86.3163 317.246 86.3163C312.732 86.3163 310.406 84.0364 310.406 79.1453V55.1807L316.203 53.4451V60.8331H322.739V65.0353H316.203V78.4563C316.203 80.8353 317.178 81.7564 319.145 81.7564V81.7526Z" fill="white"/>
<path d="M301.785 77.1203C301.339 80.8961 299.767 82.4187 297.084 82.4187C293.757 82.4187 292.003 80.1158 292.003 75.3389V74.8631H307.06C307.182 73.6489 307.228 72.606 307.228 71.4946C307.228 64.3006 303.589 60.2621 297.061 60.2621C290.05 60.2621 286.251 64.5062 286.251 72.2101V74.414C286.251 82.1142 290.027 86.3468 296.894 86.3468C302.885 86.3468 306.493 83.5149 307.346 77.8397L301.785 77.1241V77.1203ZM297.008 64.175C299.981 64.175 301.476 66.101 301.476 70.2575V70.9008H292.003C292.117 66.4093 293.784 64.175 297.008 64.175Z" fill="white"/>
<path d="M180.405 67.4561C182.191 62.485 184.939 60.2317 188.479 60.2317C192.304 60.2317 194.066 62.9646 193.145 67.3114L193.621 67.4561C195.406 62.485 198.154 60.2317 201.694 60.2317C205.519 60.2317 207.282 62.9646 206.361 67.3114L206.836 67.4561C208.587 62.466 211.316 60.2317 215.05 60.2317C219.112 60.2317 221.042 62.6563 221.042 67.2886V85.772H215.245V68.2668C215.245 65.7965 214.293 64.5671 212.39 64.5671C209.493 64.5671 207.83 68.1298 207.83 72.8991V85.7758H202.063V68.3163C202.063 65.8955 200.979 64.5671 199.174 64.5671C196.282 64.5671 194.614 68.1298 194.614 72.8991V85.7758H188.848V68.3163C188.848 65.8955 187.851 64.5366 186.046 64.5366H186.039V64.5709C186.039 64.5709 186.031 64.5709 186.027 64.5709C183.135 64.5709 181.467 68.1336 181.467 72.9029V85.7796H175.701V68.3201C175.701 65.8993 174.704 64.5404 172.899 64.5404C170.098 64.5404 168.237 67.9661 168.237 73.0475V85.7796H162.44V60.8407H168.259C168.313 62.3594 168.024 63.7107 166.931 67.083L167.407 67.2962C169.641 62.1881 171.944 60.2393 175.339 60.2393C179.165 60.2393 180.923 62.9722 180.002 67.319L180.413 67.4637L180.405 67.4561Z" fill="white"/>
<path d="M262.142 65.3131C255.671 65.7509 254.156 67.9128 254.156 74.867V85.7682H248.359V60.8293H254.179C254.233 62.5878 253.997 63.8477 252.828 67.1934L253.304 67.4066C254.925 63.6345 256.809 60.1632 262.553 60.0452L262.142 65.3093V65.3131Z" fill="white"/>
</svg>
