<?xml version="1.0" encoding="utf-8"?>
<!-- Generator: Adobe Illustrator 23.0.2, SVG Export Plug-In . SVG Version: 6.00 Build 0)  -->
<svg version="1.1" id="commercetools" xmlns="http://www.w3.org/2000/svg" xmlns:xlink="http://www.w3.org/1999/xlink" x="0px"
	 y="0px" viewBox="0 0 420.94 252.68" style="enable-background:new 0 0 420.94 252.68;" xml:space="preserve">
<style type="text/css">
	.st0{fill:#FFFFFF;}
</style>
<g>
	<g>
		<path class="st0" d="M51.79,191.27c2.24,0,3.54-0.15,6.38-0.75l0.7,4.79c-2.19,0.6-4.64,0.9-7.08,0.9
			c-10.92,0-14.06-6.83-14.06-14.81c0.1-7.78,4.79-14.36,14.01-14.36c2.44,0,4.54,0.3,7.08,0.95l-0.95,4.74
			c-2.69-0.6-4.29-0.7-5.98-0.7c-5.79,0.1-8.63,4.39-8.73,9.38C43.16,186.33,45.01,191.27,51.79,191.27L51.79,191.27z"/>
		<path class="st0" d="M74.14,191.32c5.74-0.05,7.58-4.69,7.58-9.73c-0.05-4.59-1.99-9.78-7.63-9.78c-5.49,0.05-7.63,5.14-7.63,9.78
			C66.46,186.83,68.75,191.32,74.14,191.32L74.14,191.32z M74.14,167.03c8.98,0.05,12.97,6.73,12.97,14.56
			c0,7.63-3.44,14.46-13.02,14.51c-9.38-0.1-12.97-6.88-12.97-14.51C61.12,173.77,65.16,167.13,74.14,167.03L74.14,167.03z"/>
		<path class="st0" d="M124.26,195.61v-17.96c0-4.54-1.7-5.79-4.54-5.79c-1.94,0-4.14,1.1-6.13,2.74c0.1,0.6,0.15,1.8,0.15,2.15
			v18.85h-5.59v-18.15c0-4.54-1.35-5.64-4.19-5.64c-1.8,0-4.29,1.2-6.43,2.79v21h-5.54v-28.08h5.54v2.39
			c1.7-1.35,4.39-2.89,7.33-2.94c3.89-0.05,6.13,1.3,7.38,3.39c2.29-2.15,5.69-3.34,8.28-3.39c9.13-0.15,9.28,7.18,9.28,10.27v18.35
			h-5.54V195.61z"/>
		<path class="st0" d="M168.15,195.61v-17.96c0-4.54-1.7-5.79-4.54-5.79c-1.94,0-4.14,1.1-6.13,2.74c0.1,0.6,0.15,1.8,0.15,2.15
			v18.85h-5.58v-18.15c0-4.54-1.35-5.64-4.19-5.64c-1.8,0-4.29,1.2-6.43,2.79v21h-5.54v-28.08h5.54v2.39
			c1.7-1.35,4.39-2.89,7.33-2.94c3.89-0.05,6.13,1.3,7.38,3.39c2.29-2.15,5.69-3.34,8.28-3.39c9.13-0.15,9.28,7.18,9.28,10.27v18.35
			h-5.55V195.61z"/>
		<path class="st0" d="M183.66,178.3h12.32c-0.2-5.69-3.04-6.83-5.69-6.83C186.1,171.42,184.16,174.26,183.66,178.3L183.66,178.3z
			 M199.52,190.47l0.85,4.54c-2.49,0.85-5.94,1.25-8.63,1.25c-11.07,0-13.77-7.43-13.77-14.86c0-7.43,3.29-14.31,12.57-14.31
			c5.74,0,10.52,3.54,10.57,12.57l-0.05,2.94H183.4c0.1,5.49,3.04,8.83,8.58,8.83C194.18,191.42,196.48,191.17,199.52,190.47
			L199.52,190.47z"/>
		<path class="st0" d="M221.46,172.67c-1.45-0.35-2.69-0.4-3.59-0.4c-3.44-0.05-5.24,1.64-6.53,2.99v20.35h-5.54v-28.08h5.54v2.49
			c1.45-1.5,3.64-2.79,6.48-2.84c1.15-0.05,3.04,0.15,4.64,0.75L221.46,172.67L221.46,172.67z"/>
		<path class="st0" d="M237.67,191.27c2.24,0,3.54-0.15,6.38-0.75l0.7,4.79c-2.19,0.6-4.64,0.9-7.08,0.9
			c-10.92,0-14.07-6.83-14.07-14.81c0.1-7.78,4.79-14.36,14.01-14.36c2.44,0,4.54,0.3,7.08,0.95l-0.95,4.74
			c-2.69-0.6-4.29-0.7-5.99-0.7c-5.79,0.1-8.63,4.39-8.73,9.38C229.04,186.33,230.89,191.27,237.67,191.27L237.67,191.27z"/>
		<path class="st0" d="M252.68,178.3H265c-0.2-5.69-3.04-6.83-5.69-6.83C255.13,171.42,253.18,174.26,252.68,178.3L252.68,178.3z
			 M268.54,190.47l0.85,4.54c-2.49,0.85-5.93,1.25-8.63,1.25c-11.07,0-13.77-7.43-13.77-14.86c0-7.43,3.29-14.31,12.57-14.31
			c5.74,0,10.52,3.54,10.57,12.57l-0.05,2.94h-17.66c0.1,5.49,3.04,8.83,8.58,8.83C263.21,191.42,265.5,191.17,268.54,190.47
			L268.54,190.47z"/>
		<path class="st0" d="M288.89,172.12h-7.63v13.62c0,2.84,0.35,4.84,3.24,5.24c1.6,0.15,3.24,0,4.84-0.2l0.35,4.79
			c-1.65,0.3-3.99,0.35-4.94,0.35c-6.53-0.25-8.98-3.59-8.98-8.83v-14.96h-4.04v-3.84l4.04-0.45v-6.53h5.49v6.23h7.63L288.89,172.12
			L288.89,172.12z"/>
		<path class="st0" d="M305,191.32c5.74-0.05,7.58-4.69,7.58-9.73c-0.05-4.59-2-9.78-7.63-9.78c-5.49,0.05-7.63,5.14-7.63,9.78
			C297.32,186.83,299.62,191.32,305,191.32L305,191.32z M305,167.03c8.98,0.05,12.97,6.73,12.97,14.56
			c0,7.63-3.44,14.46-13.02,14.51c-9.38-0.1-12.97-6.88-12.97-14.51C291.98,173.77,296.02,167.13,305,167.03L305,167.03z"/>
		<path class="st0" d="M334.83,191.32c5.74-0.05,7.58-4.69,7.58-9.73c-0.05-4.59-2-9.78-7.63-9.78c-5.49,0.05-7.63,5.14-7.63,9.78
			C327.15,186.83,329.44,191.32,334.83,191.32L334.83,191.32z M334.83,167.03c8.98,0.05,12.97,6.73,12.97,14.56
			c0,7.63-3.44,14.46-13.02,14.51c-9.38-0.1-12.97-6.88-12.97-14.51C321.81,173.77,325.85,167.13,334.83,167.03L334.83,167.03z"/>
		<g>
			<g>
				<defs>
					<rect id="SVGID_1_" x="37.73" y="22.03" width="343.49" height="174.22"/>
				</defs>
				<clipPath id="SVGID_2_">
					<use xlink:href="#SVGID_1_"  style="overflow:visible;"/>
				</clipPath>
			</g>
			<g>
				<defs>
					<rect id="SVGID_3_" x="37.73" y="22.03" width="343.49" height="174.22"/>
				</defs>
				<clipPath id="SVGID_4_">
					<use xlink:href="#SVGID_3_"  style="overflow:visible;"/>
				</clipPath>
			</g>
		</g>
		<g>
			<path class="st0" d="M82.59,227.21H80.5l-5.31-14.12h-0.07c-0.25,1.7-0.53,3.31-0.85,4.83l-1.99,9.29h-1.87l3.57-16.88h2.08
				l5.3,14.08h0.07c0.23-1.72,0.51-3.28,0.83-4.67l2.01-9.41h1.89L82.59,227.21z"/>
			<path class="st0" d="M91.72,227.44c-1.42,0-2.53-0.42-3.34-1.26s-1.21-2-1.21-3.49c0-1.45,0.29-2.83,0.86-4.16
				s1.33-2.36,2.28-3.1s1.99-1.11,3.13-1.11c1.18,0,2.06,0.26,2.65,0.77c0.59,0.51,0.89,1.23,0.89,2.14c0,1.38-0.64,2.47-1.92,3.26
				s-3.1,1.18-5.48,1.18H89.2l-0.05,0.92c0,1.01,0.24,1.79,0.71,2.36s1.21,0.85,2.2,0.85c0.48,0,0.98-0.07,1.49-0.21
				s1.15-0.39,1.91-0.76v1.69c-0.72,0.34-1.36,0.58-1.92,0.71C93,227.37,92.39,227.44,91.72,227.44z M93.33,215.98
				c-0.79,0-1.54,0.36-2.23,1.08c-0.7,0.72-1.23,1.73-1.6,3.01h0.14c1.75,0,3.1-0.23,4.03-0.69s1.4-1.12,1.4-1.99
				c0-0.41-0.14-0.75-0.42-1.02S93.93,215.98,93.33,215.98z"/>
			<path class="st0" d="M103.09,222.2l-3.99,5.01h-2.25l5.48-6.52l-2.76-6.13h1.96l2.01,4.76l3.81-4.76h2.24l-5.25,6.22l2.91,6.43
				h-1.94L103.09,222.2z"/>
			<path class="st0" d="M113.56,225.86c0.42,0,0.98-0.1,1.66-0.3v1.49c-0.26,0.11-0.58,0.2-0.97,0.28s-0.69,0.12-0.92,0.12
				c-0.96,0-1.7-0.23-2.21-0.69s-0.77-1.14-0.77-2.05c0-0.51,0.07-1.08,0.21-1.73l1.47-6.95h-1.99l0.16-0.84l2.14-0.9l1.44-2.63
				h1.13l-0.63,2.91h3.16l-0.3,1.47h-3.15L112.5,223c-0.14,0.67-0.21,1.18-0.21,1.52c0,0.43,0.11,0.76,0.33,0.99
				C112.85,225.74,113.16,225.86,113.56,225.86z"/>
			<path class="st0" d="M135.5,214.56l-0.29,1.24l-2.44,0.28c0.32,0.48,0.47,1.08,0.47,1.82c0,1.47-0.45,2.64-1.34,3.52
				c-0.9,0.87-2.1,1.31-3.6,1.31c-0.42,0-0.75-0.03-0.97-0.09c-1.07,0.41-1.6,0.91-1.6,1.51c0,0.32,0.13,0.53,0.38,0.63
				s0.62,0.19,1.11,0.25l1.35,0.16c1.39,0.17,2.4,0.51,3.03,1.02c0.63,0.51,0.94,1.25,0.94,2.24c0,1.42-0.56,2.51-1.69,3.29
				c-1.12,0.78-2.7,1.17-4.74,1.17c-1.49,0-2.66-0.28-3.51-0.85s-1.27-1.36-1.27-2.4c0-0.81,0.28-1.51,0.83-2.1
				c0.55-0.59,1.45-1.1,2.69-1.51c-0.6-0.32-0.9-0.78-0.9-1.4c0-0.53,0.2-0.99,0.59-1.37c0.39-0.38,0.94-0.74,1.64-1.07
				c-0.48-0.25-0.88-0.61-1.19-1.09c-0.31-0.48-0.46-1.04-0.46-1.68c0-1.49,0.46-2.72,1.38-3.67s2.09-1.43,3.53-1.43
				c0.6,0,1.19,0.08,1.78,0.23h4.28V214.56z M123.21,229.46c0,0.59,0.25,1.06,0.75,1.41s1.24,0.52,2.23,0.52
				c1.4,0,2.5-0.24,3.28-0.73c0.79-0.49,1.18-1.18,1.18-2.07c0-0.48-0.21-0.85-0.62-1.13c-0.42-0.28-1.12-0.47-2.12-0.58l-1.84-0.18
				c-0.92,0.19-1.63,0.53-2.12,1.02C123.46,228.19,123.21,228.78,123.21,229.46z M126.42,219.36c0,0.65,0.17,1.15,0.52,1.49
				c0.35,0.34,0.83,0.51,1.44,0.51c0.61,0,1.14-0.16,1.59-0.48s0.8-0.77,1.04-1.33c0.24-0.57,0.36-1.18,0.36-1.84
				c0-0.63-0.17-1.11-0.51-1.44s-0.82-0.5-1.45-0.5c-0.6,0-1.13,0.16-1.58,0.47s-0.8,0.75-1.05,1.3S126.42,218.71,126.42,219.36z"/>
			<path class="st0" d="M140.33,227.44c-1.42,0-2.53-0.42-3.34-1.26s-1.21-2-1.21-3.49c0-1.45,0.29-2.83,0.86-4.16
				s1.33-2.36,2.28-3.1s1.99-1.11,3.13-1.11c1.18,0,2.06,0.26,2.65,0.77c0.59,0.51,0.89,1.23,0.89,2.14c0,1.38-0.64,2.47-1.92,3.26
				s-3.1,1.18-5.48,1.18h-0.38l-0.05,0.92c0,1.01,0.24,1.79,0.71,2.36s1.21,0.85,2.2,0.85c0.48,0,0.98-0.07,1.49-0.21
				s1.15-0.39,1.91-0.76v1.69c-0.72,0.34-1.36,0.58-1.92,0.71C141.61,227.37,141,227.44,140.33,227.44z M141.93,215.98
				c-0.79,0-1.54,0.36-2.23,1.08c-0.7,0.72-1.23,1.73-1.6,3.01h0.14c1.75,0,3.1-0.23,4.03-0.69s1.4-1.12,1.4-1.99
				c0-0.41-0.14-0.75-0.42-1.02S142.53,215.98,141.93,215.98z"/>
			<path class="st0" d="M154.72,227.21l1.71-7.99c0.15-0.8,0.23-1.35,0.23-1.66c0-0.49-0.14-0.87-0.41-1.17
				c-0.27-0.29-0.71-0.44-1.31-0.44c-0.68,0-1.35,0.23-2,0.69s-1.22,1.12-1.72,1.97s-0.87,1.89-1.13,3.11l-1.17,5.48h-1.94
				l2.7-12.65h1.6l-0.25,2.34h0.12c0.74-0.94,1.45-1.6,2.14-1.99s1.4-0.58,2.14-0.58c0.98,0,1.75,0.27,2.31,0.8
				c0.57,0.53,0.85,1.28,0.85,2.25c0,0.61-0.09,1.3-0.27,2.08l-1.65,7.76L154.72,227.21L154.72,227.21z"/>
			<path class="st0" d="M165.63,227.44c-1.42,0-2.53-0.42-3.34-1.26s-1.21-2-1.21-3.49c0-1.45,0.29-2.83,0.86-4.16
				s1.33-2.36,2.28-3.1s1.99-1.11,3.13-1.11c1.18,0,2.06,0.26,2.65,0.77c0.59,0.51,0.89,1.23,0.89,2.14c0,1.38-0.64,2.47-1.92,3.26
				s-3.1,1.18-5.48,1.18h-0.38l-0.05,0.92c0,1.01,0.24,1.79,0.71,2.36s1.21,0.85,2.2,0.85c0.48,0,0.98-0.07,1.49-0.21
				s1.15-0.39,1.91-0.76v1.69c-0.72,0.34-1.36,0.58-1.92,0.71C166.91,227.37,166.3,227.44,165.63,227.44z M167.24,215.98
				c-0.79,0-1.54,0.36-2.23,1.08c-0.7,0.72-1.23,1.73-1.6,3.01h0.14c1.75,0,3.1-0.23,4.03-0.69s1.4-1.12,1.4-1.99
				c0-0.41-0.14-0.75-0.42-1.02S167.84,215.98,167.24,215.98z"/>
			<path class="st0" d="M180.29,214.33c0.53,0,0.99,0.05,1.39,0.16l-0.42,1.73c-0.41-0.1-0.81-0.15-1.21-0.15
				c-0.7,0-1.36,0.23-1.97,0.69s-1.15,1.1-1.6,1.92s-0.79,1.73-1.01,2.73l-1.24,5.79h-1.94l2.7-12.65h1.6l-0.25,2.34h0.12
				c0.55-0.73,1.01-1.26,1.37-1.58s0.74-0.57,1.14-0.74S179.81,214.33,180.29,214.33z"/>
			<path class="st0" d="M188.35,214.33c0.71,0,1.34,0.19,1.89,0.57s0.98,0.93,1.29,1.64h0.13l0.77-1.99h1.47l-2.69,12.65h-1.54
				l0.3-2.41h-0.09c-1.38,1.76-2.83,2.64-4.35,2.64c-1.07,0-1.91-0.38-2.52-1.14s-0.91-1.8-0.91-3.13c0-1.6,0.27-3.09,0.82-4.46
				c0.55-1.37,1.3-2.44,2.26-3.22S187.2,214.33,188.35,214.33z M186.15,225.84c0.75,0,1.49-0.36,2.23-1.07s1.34-1.64,1.8-2.78
				s0.69-2.29,0.69-3.43c0-0.79-0.22-1.42-0.65-1.89s-1-0.7-1.7-0.7c-0.8,0-1.54,0.33-2.23,0.99s-1.23,1.56-1.62,2.69
				s-0.59,2.32-0.59,3.58c0,0.88,0.18,1.53,0.54,1.97C184.99,225.62,185.5,225.84,186.15,225.84z"/>
			<path class="st0" d="M198.89,225.86c0.42,0,0.98-0.1,1.66-0.3v1.49c-0.26,0.11-0.58,0.2-0.97,0.28s-0.69,0.12-0.92,0.12
				c-0.96,0-1.7-0.23-2.21-0.69s-0.77-1.14-0.77-2.05c0-0.51,0.07-1.08,0.21-1.73l1.47-6.95h-1.99l0.16-0.84l2.14-0.9l1.44-2.63
				h1.13l-0.63,2.91h3.16l-0.3,1.47h-3.15l-1.49,6.97c-0.14,0.67-0.21,1.18-0.21,1.52c0,0.43,0.11,0.76,0.33,0.99
				C198.17,225.74,198.49,225.86,198.89,225.86z"/>
			<path class="st0" d="M204.61,227.21h-1.94l2.7-12.65h1.94L204.61,227.21z M205.92,211.33c0-0.43,0.12-0.78,0.37-1.06
				c0.25-0.27,0.57-0.41,0.96-0.41c0.68,0,1.02,0.35,1.02,1.04c0,0.42-0.13,0.78-0.39,1.07c-0.26,0.29-0.56,0.44-0.89,0.44
				c-0.31,0-0.56-0.09-0.76-0.28C206.02,211.94,205.92,211.67,205.92,211.33z"/>
			<path class="st0" d="M215.42,214.4c1.46,0,2.62,0.43,3.46,1.3c0.85,0.87,1.27,2.06,1.27,3.57c0,1.45-0.28,2.81-0.83,4.1
				s-1.3,2.28-2.25,2.98s-2.02,1.05-3.21,1.05c-1.48,0-2.63-0.43-3.47-1.3c-0.84-0.87-1.26-2.06-1.26-3.57
				c0-1.46,0.28-2.84,0.84-4.13c0.56-1.29,1.32-2.28,2.27-2.97C213.2,214.74,214.25,214.4,215.42,214.4z M218.14,219
				c0-0.88-0.24-1.6-0.72-2.15c-0.48-0.55-1.13-0.83-1.96-0.83c-0.84,0-1.59,0.28-2.26,0.85s-1.18,1.36-1.55,2.37
				c-0.37,1.01-0.55,2.14-0.55,3.38c0,1.01,0.24,1.79,0.73,2.34c0.49,0.55,1.19,0.83,2.11,0.83c0.8,0,1.52-0.28,2.16-0.84
				s1.14-1.36,1.49-2.39S218.14,220.33,218.14,219z"/>
			<path class="st0" d="M229.67,227.21l1.71-7.99c0.15-0.8,0.23-1.35,0.23-1.66c0-0.49-0.14-0.87-0.41-1.17
				c-0.27-0.29-0.71-0.44-1.31-0.44c-0.68,0-1.35,0.23-2,0.69s-1.22,1.12-1.72,1.97s-0.87,1.89-1.12,3.11l-1.17,5.48h-1.94
				l2.7-12.65h1.6l-0.25,2.34h0.12c0.74-0.94,1.45-1.6,2.14-1.99s1.4-0.58,2.14-0.58c0.98,0,1.75,0.27,2.31,0.8
				c0.57,0.53,0.85,1.28,0.85,2.25c0,0.61-0.09,1.3-0.27,2.08l-1.65,7.76L229.67,227.21L229.67,227.21z"/>
			<path class="st0" d="M246.88,227.44c-1.49,0-2.65-0.41-3.47-1.23s-1.24-1.99-1.24-3.49c0-1.54,0.29-2.96,0.85-4.26
				c0.57-1.3,1.36-2.31,2.36-3.04s2.13-1.09,3.39-1.09c1.05,0,2.09,0.2,3.09,0.59l-0.54,1.63c-0.92-0.39-1.77-0.59-2.53-0.59
				c-0.86,0-1.65,0.29-2.36,0.88s-1.27,1.41-1.67,2.46s-0.61,2.19-0.61,3.42c0,0.99,0.26,1.75,0.77,2.3
				c0.51,0.55,1.22,0.82,2.12,0.82c0.55,0,1.08-0.08,1.57-0.23s0.98-0.33,1.45-0.54v1.65C249.11,227.2,248.05,227.44,246.88,227.44z
				"/>
			<path class="st0" d="M259.1,214.4c1.46,0,2.62,0.43,3.46,1.3c0.85,0.87,1.27,2.06,1.27,3.57c0,1.45-0.28,2.81-0.83,4.1
				c-0.55,1.29-1.3,2.28-2.25,2.98s-2.02,1.05-3.21,1.05c-1.48,0-2.64-0.43-3.47-1.3c-0.84-0.87-1.26-2.06-1.26-3.57
				c0-1.46,0.28-2.84,0.84-4.13s1.32-2.28,2.27-2.97C256.87,214.74,257.94,214.4,259.1,214.4z M261.83,219
				c0-0.88-0.24-1.6-0.72-2.15c-0.48-0.55-1.13-0.83-1.96-0.83c-0.84,0-1.59,0.28-2.26,0.85s-1.18,1.36-1.55,2.37
				c-0.37,1.01-0.55,2.14-0.55,3.38c0,1.01,0.24,1.79,0.73,2.34c0.49,0.55,1.19,0.83,2.11,0.83c0.8,0,1.52-0.28,2.16-0.84
				s1.14-1.36,1.5-2.39S261.83,220.33,261.83,219z"/>
			<path class="st0" d="M272.98,227.21l1.71-7.99c0.14-0.72,0.21-1.24,0.21-1.56c0-0.54-0.12-0.96-0.36-1.26
				c-0.24-0.3-0.65-0.45-1.22-0.45c-0.65,0-1.28,0.23-1.89,0.69c-0.61,0.46-1.15,1.12-1.62,1.98s-0.83,1.89-1.08,3.1l-1.17,5.48
				h-1.94l2.7-12.65h1.6l-0.25,2.34h0.12c0.67-0.92,1.34-1.57,2-1.97s1.35-0.6,2.06-0.6c0.87,0,1.54,0.25,2.01,0.75
				s0.75,1.2,0.83,2.09h0.09c0.66-0.96,1.37-1.68,2.11-2.14c0.75-0.46,1.5-0.7,2.26-0.7c0.98,0,1.73,0.26,2.27,0.79
				c0.54,0.52,0.8,1.29,0.8,2.29c0,0.52-0.08,1.21-0.25,2.05l-1.66,7.76h-1.96l1.71-7.99c0.15-0.8,0.23-1.36,0.23-1.69
				c0-0.48-0.13-0.86-0.4-1.15c-0.26-0.29-0.68-0.43-1.25-0.43c-0.62,0-1.24,0.22-1.85,0.67c-0.61,0.45-1.14,1.08-1.6,1.9
				c-0.46,0.82-0.81,1.79-1.04,2.91l-1.24,5.77h-1.93V227.21z"/>
			<path class="st0" d="M293.59,227.21l1.71-7.99c0.14-0.72,0.21-1.24,0.21-1.56c0-0.54-0.12-0.96-0.36-1.26
				c-0.24-0.3-0.65-0.45-1.22-0.45c-0.65,0-1.28,0.23-1.89,0.69c-0.61,0.46-1.15,1.12-1.62,1.98s-0.83,1.89-1.08,3.1l-1.17,5.48
				h-1.94l2.7-12.65h1.6l-0.25,2.34h0.12c0.67-0.92,1.34-1.57,2-1.97s1.35-0.6,2.06-0.6c0.87,0,1.54,0.25,2.01,0.75
				s0.75,1.2,0.83,2.09h0.09c0.66-0.96,1.37-1.68,2.11-2.14c0.75-0.46,1.5-0.7,2.26-0.7c0.98,0,1.73,0.26,2.27,0.79
				c0.54,0.52,0.8,1.29,0.8,2.29c0,0.52-0.08,1.21-0.25,2.05l-1.66,7.76h-1.96l1.71-7.99c0.15-0.8,0.23-1.36,0.23-1.69
				c0-0.48-0.13-0.86-0.4-1.15c-0.26-0.29-0.68-0.43-1.25-0.43c-0.62,0-1.24,0.22-1.85,0.67c-0.61,0.45-1.14,1.08-1.6,1.9
				c-0.46,0.82-0.81,1.79-1.04,2.91l-1.24,5.77h-1.93V227.21z"/>
			<path class="st0" d="M311.85,227.44c-1.42,0-2.53-0.42-3.34-1.26s-1.21-2-1.21-3.49c0-1.45,0.29-2.83,0.86-4.16
				c0.57-1.33,1.33-2.36,2.28-3.1s1.99-1.11,3.13-1.11c1.18,0,2.06,0.26,2.65,0.77s0.89,1.23,0.89,2.14c0,1.38-0.64,2.47-1.92,3.26
				s-3.1,1.18-5.48,1.18h-0.38l-0.05,0.92c0,1.01,0.24,1.79,0.71,2.36s1.21,0.85,2.2,0.85c0.48,0,0.98-0.07,1.5-0.21
				c0.51-0.14,1.15-0.39,1.91-0.76v1.69c-0.72,0.34-1.36,0.58-1.92,0.71C313.14,227.37,312.52,227.44,311.85,227.44z M313.46,215.98
				c-0.79,0-1.54,0.36-2.23,1.08c-0.7,0.72-1.23,1.73-1.6,3.01h0.14c1.75,0,3.1-0.23,4.03-0.69s1.4-1.12,1.4-1.99
				c0-0.41-0.14-0.75-0.42-1.02C314.5,216.11,314.06,215.98,313.46,215.98z"/>
			<path class="st0" d="M326.51,214.33c0.53,0,0.99,0.05,1.38,0.16l-0.42,1.73c-0.41-0.1-0.81-0.15-1.21-0.15
				c-0.7,0-1.36,0.23-1.97,0.69s-1.15,1.1-1.6,1.92s-0.79,1.73-1.01,2.73l-1.24,5.79h-1.94l2.7-12.65h1.6l-0.25,2.34h0.12
				c0.55-0.73,1.01-1.26,1.37-1.58s0.74-0.57,1.14-0.74S326.03,214.33,326.51,214.33z"/>
			<path class="st0" d="M333.04,227.44c-1.49,0-2.65-0.41-3.47-1.23s-1.24-1.99-1.24-3.49c0-1.54,0.29-2.96,0.85-4.26
				c0.57-1.3,1.36-2.31,2.36-3.04s2.13-1.09,3.39-1.09c1.05,0,2.09,0.2,3.09,0.59l-0.54,1.63c-0.92-0.39-1.77-0.59-2.53-0.59
				c-0.86,0-1.65,0.29-2.36,0.88s-1.27,1.41-1.67,2.46c-0.4,1.05-0.61,2.19-0.61,3.42c0,0.99,0.26,1.75,0.77,2.3
				c0.51,0.55,1.22,0.82,2.12,0.82c0.55,0,1.08-0.08,1.57-0.23c0.49-0.15,0.98-0.33,1.45-0.54v1.65
				C335.27,227.2,334.21,227.44,333.04,227.44z"/>
			<path class="st0" d="M343.52,227.44c-1.42,0-2.53-0.42-3.34-1.26s-1.21-2-1.21-3.49c0-1.45,0.29-2.83,0.86-4.16
				c0.57-1.33,1.33-2.36,2.28-3.1s1.99-1.11,3.13-1.11c1.18,0,2.06,0.26,2.65,0.77s0.89,1.23,0.89,2.14c0,1.38-0.64,2.47-1.92,3.26
				s-3.1,1.18-5.48,1.18H341l-0.05,0.92c0,1.01,0.24,1.79,0.71,2.36s1.21,0.85,2.2,0.85c0.48,0,0.98-0.07,1.5-0.21
				c0.51-0.14,1.15-0.39,1.91-0.76v1.69c-0.72,0.34-1.36,0.58-1.92,0.71C344.8,227.37,344.19,227.44,343.52,227.44z M345.12,215.98
				c-0.79,0-1.54,0.36-2.23,1.08c-0.7,0.72-1.23,1.73-1.6,3.01h0.14c1.75,0,3.1-0.23,4.03-0.69s1.4-1.12,1.4-1.99
				c0-0.41-0.14-0.75-0.42-1.02C346.16,216.11,345.72,215.98,345.12,215.98z"/>
		</g>
		<polygon class="st0" points="352.18,195.61 352.18,157.51 357.52,157.51 357.52,195.61 		"/>
		<path class="st0" d="M363.15,190.17c3.14,0.8,6.08,1.2,7.93,1.2c2.19,0,4.44-0.45,4.59-3.09c0.15-2.79-2.74-3.64-6.03-5.04
			c-3.74-1.55-7.78-3.64-7.68-8.83c0.1-2.59,1.65-7.68,9.93-7.43c2.49,0.05,5.49,0.45,7.98,1.1l-0.95,4.59
			c-2.94-0.7-5.14-1-7.28-1.05c-2.39,0-4.24,0.75-4.34,2.99c-0.05,1.9,1.45,2.89,5.14,4.39c3.74,1.55,9.03,3.54,8.78,9.43
			c-0.15,3.74-2.59,7.83-10.12,7.73c-2.39-0.05-6.23-0.35-9.08-1.35L363.15,190.17L363.15,190.17z"/>
	</g>
	<g id="XMLID_1_">
		<path class="st0" d="M259.51,113.34l-47.34-22.07c-0.38-0.18-0.78-0.31-1.19-0.41v-0.19v-13.2c0-1.31,0.05-1.33,0.89-1.72l0,0
			l1.88-0.87c3.17-1.47,3.17-1.47,21.84-10.21l23.93-11.2c1.39-0.65,2.28-2.05,2.27-3.58c0-1.53-0.9-2.93-2.28-3.58l-47.34-22.07
			c-1.71-0.8-3.68-0.8-5.4,0l-47.33,22c-1.38,0.64-2.27,2.04-2.29,3.56l0,0v67.05l0,0c0,1.53,0.89,2.93,2.27,3.58l47.4,22.19
			c0.19,0.09,1.45,0.6,2.74,0.6c1.23,0,2.49-0.51,2.69-0.6l47.26-22.12c1.39-0.65,2.28-2.05,2.27-3.58
			C261.79,115.39,260.89,113.98,259.51,113.34z M160.16,112.93V53.74l46.66,21.84c0.39,0.18,0.79,0.32,1.2,0.42
			c0.01,0,0.03,0.01,0.04,0.01c-0.07,0.44-0.1,0.92-0.1,1.45v13.2v0.18c-0.03,0.01-0.06,0.02-0.09,0.03
			c-0.38,0.1-0.75,0.22-1.11,0.39L160.16,112.93z M160.71,48.96l47.33-22c0.45-0.21,0.94-0.32,1.43-0.32c0.49,0,0.98,0.11,1.43,0.32
			l47.34,22.07c0.33,0.15,0.54,0.49,0.54,0.85c0,0.36-0.21,0.7-0.54,0.85l-23.93,11.2c-18.66,8.74-18.66,8.74-21.83,10.21
			l-1.78,0.83c-0.13,0.05-0.26,0.08-0.4,0.11c-0.06,0.01-0.12,0.04-0.18,0.05c-0.2,0.03-0.4,0.05-0.62,0.05
			c-0.49-0.01-0.95-0.11-1.39-0.32l-47.4-22.19c-0.08-0.04-0.16-0.09-0.22-0.14c-0.2-0.17-0.31-0.43-0.32-0.71
			C160.17,49.45,160.38,49.12,160.71,48.96z M160.7,117.7c-0.33-0.15-0.54-0.49-0.54-0.86c0-0.09,0.01-0.18,0.04-0.26
			c0.08-0.25,0.26-0.47,0.51-0.58l47.26-21.97v45.8L160.7,117.7z M258.24,117.77l-47.26,22.12l0,0V94.04l47.26,22.03
			c0.33,0.15,0.54,0.49,0.54,0.85S258.57,117.62,258.24,117.77z"/>
		<path class="st0" d="M209.56,143.97c-1.59,0-3.05-0.67-3.06-0.67l-47.4-22.19c-1.64-0.77-2.7-2.44-2.7-4.26V49.8
			c0.02-1.82,1.09-3.48,2.72-4.24l47.33-22c1.92-0.89,4.12-0.89,6.03,0l47.34,22.07c1.65,0.78,2.71,2.45,2.71,4.26
			c0.01,1.81-1.05,3.49-2.7,4.26l-23.93,11.2c-18.67,8.74-18.67,8.74-21.84,10.21l-1.88,0.87c-0.19,0.09-0.39,0.18-0.44,0.23
			c-0.01,0.07-0.01,0.57-0.01,0.81v12.82c0.27,0.09,0.52,0.19,0.76,0.3l47.34,22.07c1.65,0.77,2.71,2.44,2.7,4.26
			c0.01,1.81-1.05,3.48-2.7,4.25l-47.26,22.12C212.5,143.33,211.05,143.97,209.56,143.97z M209.47,24.39
			c-0.81,0-1.63,0.18-2.39,0.53l-47.33,22c-1.11,0.52-1.84,1.65-1.86,2.89v67.04c0,1.24,0.72,2.38,1.84,2.9l47.4,22.19
			c0.01,0.01,1.2,0.53,2.42,0.53c1.16,0,2.37-0.53,2.38-0.54l47.25-22.11c1.12-0.53,1.85-1.66,1.84-2.9
			c0.01-1.25-0.71-2.38-1.84-2.9l0,0l-47.34-22.07c-0.31-0.15-0.65-0.26-1.05-0.36l-0.57-0.14V77.47c0-1.47,0.11-1.84,1.32-2.4
			l1.89-0.87c3.17-1.47,3.17-1.47,21.84-10.21l23.93-11.2c1.12-0.53,1.85-1.66,1.84-2.9c0-1.24-0.73-2.38-1.85-2.91l-47.34-22.07
			C211.1,24.57,210.29,24.39,209.47,24.39z M210.23,141.07V92.86l48.33,22.53c0.59,0.27,0.97,0.87,0.97,1.53
			c0,0.66-0.38,1.26-0.97,1.53L210.23,141.07z M211.73,95.22v43.49l46.2-21.62c0.06-0.03,0.1-0.1,0.1-0.17s-0.04-0.14-0.1-0.17
			L211.73,95.22z M208.72,141.01l-48.34-22.63c-0.59-0.27-0.97-0.87-0.97-1.54c0-0.2,0.03-0.37,0.09-0.53
			c0.14-0.43,0.47-0.81,0.91-1l48.31-22.46V141.01z M207.22,95.21l-46.19,21.47c-0.06,0.02-0.09,0.07-0.11,0.13
			c0,0.11,0.04,0.18,0.1,0.21l0.01,0l46.2,21.63V95.21z M159.41,114.11V52.56l47.73,22.34c0.31,0.15,0.64,0.26,0.98,0.35l0.83,0.01
			l-0.14,0.87c-0.06,0.38-0.09,0.82-0.09,1.33v13.92l-0.65,0.21c-0.39,0.1-0.7,0.21-0.98,0.34L159.41,114.11z M160.91,54.92v56.83
			l45.53-21.17c0.24-0.11,0.49-0.21,0.77-0.3V77.46c0-0.32,0.01-0.62,0.03-0.91c-0.25-0.08-0.5-0.18-0.74-0.29L160.91,54.92z
			 M209.5,73.93c-0.63-0.01-1.19-0.14-1.71-0.39l-47.39-22.19c-0.11-0.06-0.26-0.14-0.39-0.25c-0.35-0.3-0.57-0.76-0.59-1.26
			c0-0.69,0.37-1.27,0.96-1.56l0.01,0l47.33-22c1.09-0.51,2.4-0.51,3.49,0l47.34,22.07c0.59,0.27,0.97,0.87,0.97,1.53
			c0,0.66-0.38,1.26-0.98,1.53l-23.92,11.2c-18.66,8.74-18.66,8.74-21.83,10.21l-1.78,0.83c-0.22,0.08-0.38,0.13-0.56,0.16
			c-0.07,0.03-0.14,0.04-0.21,0.06C209.99,73.91,209.76,73.93,209.5,73.93z M161.03,49.64c-0.07,0.04-0.11,0.1-0.11,0.18
			c0,0.06,0.03,0.12,0.06,0.14l47.45,22.22c0.34,0.16,0.69,0.24,1.09,0.25c0.17,0,0.33-0.02,0.49-0.04c0.03-0.02,0.1-0.04,0.16-0.05
			c0.07-0.02,0.17-0.03,0.26-0.07l1.73-0.81c3.17-1.47,3.17-1.47,21.83-10.21l23.93-11.2c0.07-0.03,0.11-0.1,0.11-0.17
			s-0.04-0.14-0.1-0.17l-47.35-22.07c-0.7-0.33-1.52-0.33-2.23,0L161.03,49.64z"/>
	</g>
</g>
</svg>
