<svg width="421" height="144" viewBox="0 0 421 144" fill="none" xmlns="http://www.w3.org/2000/svg">
<path d="M69.7152 71.6773L106.031 50.7121C108.985 49.0069 108.985 44.74 106.031 43.0348L67.5 20.7908C65.6729 19.7364 63.4196 19.7364 61.5926 20.7908L21.9537 43.6781C20.1267 44.7324 19 46.6851 19 48.7938V95.421C19 97.0045 19.845 98.4661 21.2115 99.2578L61.5888 122.609C63.4196 123.668 65.6768 123.668 67.5038 122.609L106.039 100.324C108.993 98.6145 108.989 94.3553 106.039 92.65L69.719 71.6811L69.7152 71.6773ZM64.5463 25.0538L102.339 46.8716L64.5463 68.6893L26.7534 46.8716L64.5463 25.0538ZM61.9618 116.812L24.169 94.9947V51.3554L61.9618 73.1732V116.812ZM67.1308 76.1573L102.339 96.4868L67.1308 116.812V76.1573Z" fill="#191741"/>
<path d="M238.651 77.1201C238.205 80.896 236.629 82.4185 233.95 82.4185C230.627 82.4185 228.868 80.1157 228.868 75.3387V74.863H243.926C244.048 73.6487 244.094 72.6058 244.094 71.4944C244.094 64.3005 240.455 60.262 233.927 60.262C226.916 60.262 223.117 64.506 223.117 72.21V74.4138C223.117 82.114 226.893 86.3466 233.76 86.3466C239.747 86.3466 243.359 83.5147 244.208 77.8395L238.651 77.1239V77.1201ZM233.874 64.1748C236.846 64.1748 238.342 66.1008 238.342 70.2573V70.9006H228.868C228.983 66.4092 230.65 64.1748 233.874 64.1748Z" fill="#191741"/>
<path d="M128.405 76.34L134.324 77.0784C133.631 83.1381 130.068 86.3696 123.898 86.3696C116.887 86.3696 113.256 81.8553 113.256 73.2074V73.1084C113.256 64.6546 116.978 60.2317 123.921 60.2317C130.186 60.2317 133.543 63.5622 134.042 69.854L128.268 70.543C128.005 66.1962 126.669 64.2017 123.898 64.2017C120.712 64.2017 119.212 66.7671 119.212 72.1645V74.1552C119.212 79.7124 120.758 82.3578 123.967 82.3578C126.699 82.3578 128.142 80.3633 128.405 76.3438V76.34Z" fill="#191741"/>
<path d="M147.589 60.2278C140.699 60.2278 136.878 65.0275 136.878 73.036V73.5575C136.878 81.5127 140.703 86.3657 147.589 86.3657C154.474 86.3657 158.299 81.5127 158.299 73.5575V73.036C158.299 65.0275 154.474 60.2278 147.589 60.2278ZM152.343 74.4101C152.343 79.8074 150.767 82.3729 147.589 82.3729C144.41 82.3729 142.834 79.8074 142.834 74.4101V72.1834C142.834 66.7861 144.376 64.1978 147.589 64.1978C150.801 64.1978 152.343 66.7861 152.343 72.1834V74.4101Z" fill="#191741"/>
<path d="M357.746 60.2278C350.857 60.2278 347.035 65.0275 347.035 73.036V73.5575C347.035 81.5127 350.857 86.3657 357.746 86.3657C364.636 86.3657 368.465 81.5127 368.465 73.5575V73.036C368.465 65.0275 364.632 60.2278 357.746 60.2278ZM362.5 74.4101C362.5 79.8074 360.936 82.3729 357.746 82.3729C354.556 82.3729 353 79.8074 353 74.4101V72.1834C353 66.7861 354.541 64.1978 357.746 64.1978C360.951 64.1978 362.5 66.7861 362.5 72.1834V74.4101Z" fill="#191741"/>
<path d="M377.41 53.4412H371.613V85.7681H377.41V53.4412Z" fill="#191741"/>
<path d="M276.775 76.34L282.693 77.0784C282.001 83.1381 278.442 86.3696 272.268 86.3696C265.257 86.3696 261.625 81.8553 261.625 73.2074V73.1084C261.625 64.6546 265.348 60.2317 272.291 60.2317C278.556 60.2317 281.913 63.5622 282.412 69.854L276.638 70.543C276.375 66.1962 275.039 64.2017 272.268 64.2017C269.082 64.2017 267.582 66.7671 267.582 72.1645V74.1552C267.582 79.7124 269.128 82.3578 272.336 82.3578C275.069 82.3578 276.512 80.3633 276.775 76.3438V76.34Z" fill="#191741"/>
<path d="M400 79.0728C400 83.6099 396.483 86.3429 390.423 86.3429C383.964 86.3429 380.257 83.511 380.097 78.4714L385.601 77.3562C385.555 80.6106 387.268 82.4414 390.401 82.4414C392.852 82.4414 394.203 81.4898 394.203 79.6171C394.203 77.7444 392.996 76.907 389.811 75.7233L386.625 74.5091C383.446 73.2948 380.713 70.9692 380.713 67.4978C380.713 62.8884 383.922 60.2278 389.742 60.2278C395.562 60.2278 399.216 62.8694 399.239 67.4978L393.849 68.4494C393.963 65.4995 392.498 64.194 389.811 64.194C387.462 64.194 386.156 65.077 386.156 66.6681C386.156 68.2591 387.295 69.302 390.48 70.4439L393.659 71.6048C396.845 72.7734 400 74.5776 400 79.069V79.0728Z" fill="#191741"/>
<path d="M333.835 60.2278C326.946 60.2278 323.124 65.0275 323.124 73.036V73.5575C323.124 81.5127 326.946 86.3657 333.835 86.3657C340.724 86.3657 344.553 81.5127 344.553 73.5575V73.036C344.553 65.0275 340.721 60.2278 333.835 60.2278ZM338.589 74.4101C338.589 79.8074 337.021 82.3729 333.835 82.3729C330.649 82.3729 329.088 79.8074 329.088 74.4101V72.1834C329.088 66.7861 330.63 64.1978 333.835 64.1978C337.04 64.1978 338.589 66.7861 338.589 72.1834V74.4101Z" fill="#191741"/>
<path d="M318.145 81.7526C319.219 81.7526 320.547 81.4671 321.807 80.9228L321.476 85.1554C320.163 85.8444 318.142 86.3163 316.246 86.3163C311.732 86.3163 309.406 84.0364 309.406 79.1453V55.1807L315.203 53.4451V60.8331H321.739V65.0353H315.203V78.4563C315.203 80.8353 316.178 81.7564 318.145 81.7564V81.7526Z" fill="#191741"/>
<path d="M300.785 77.1201C300.339 80.896 298.767 82.4185 296.084 82.4185C292.757 82.4185 291.003 80.1157 291.003 75.3387V74.863H306.06C306.182 73.6487 306.228 72.6058 306.228 71.4944C306.228 64.3005 302.589 60.262 296.061 60.262C289.05 60.262 285.251 64.506 285.251 72.21V74.4138C285.251 82.114 289.027 86.3466 295.894 86.3466C301.885 86.3466 305.493 83.5147 306.346 77.8395L300.785 77.1239V77.1201ZM296.008 64.1748C298.981 64.1748 300.476 66.1008 300.476 70.2573V70.9006H291.003C291.117 66.4092 292.784 64.1748 296.008 64.1748Z" fill="#191741"/>
<path d="M179.405 67.4561C181.191 62.485 183.939 60.2317 187.479 60.2317C191.304 60.2317 193.066 62.9646 192.145 67.3114L192.621 67.4561C194.406 62.485 197.154 60.2317 200.694 60.2317C204.519 60.2317 206.282 62.9646 205.361 67.3114L205.836 67.4561C207.587 62.466 210.316 60.2317 214.05 60.2317C218.112 60.2317 220.042 62.6563 220.042 67.2886V85.772H214.245V68.2668C214.245 65.7965 213.293 64.5671 211.39 64.5671C208.493 64.5671 206.83 68.1298 206.83 72.8991V85.7758H201.063V68.3163C201.063 65.8955 199.979 64.5671 198.174 64.5671C195.282 64.5671 193.614 68.1298 193.614 72.8991V85.7758H187.848V68.3163C187.848 65.8955 186.851 64.5366 185.046 64.5366H185.039V64.5709C185.039 64.5709 185.031 64.5709 185.027 64.5709C182.135 64.5709 180.467 68.1336 180.467 72.9029V85.7796H174.701V68.3201C174.701 65.8993 173.704 64.5404 171.899 64.5404C169.098 64.5404 167.237 67.9661 167.237 73.0475V85.7796H161.44V60.8407H167.259C167.313 62.3594 167.024 63.7107 165.931 67.083L166.407 67.2962C168.641 62.1881 170.944 60.2393 174.339 60.2393C178.165 60.2393 179.923 62.9722 179.002 67.319L179.413 67.4637L179.405 67.4561Z" fill="#191741"/>
<path d="M261.142 65.3131C254.671 65.7508 253.156 67.9128 253.156 74.8669V85.7682H247.359V60.8293H253.179C253.233 62.5878 252.997 63.8477 251.828 67.1934L252.304 67.4066C253.925 63.6345 255.809 60.1632 261.553 60.0452L261.142 65.3093V65.3131Z" fill="#191741"/>
</svg>
