<svg width="423" height="145" viewBox="0 0 423 145" fill="none" xmlns="http://www.w3.org/2000/svg">
<path d="M18 97.5608V52.6084C18 51.3628 19.3458 50.5879 20.4246 51.207L59.3562 73.6814C60.3572 74.2597 60.9726 75.3275 60.9726 76.4805V121.433C60.9726 122.679 59.6268 123.453 58.548 122.834L19.6164 100.36C18.6154 99.7816 18 98.7138 18 97.5608Z" fill="#6359FF"/>
<path d="M23.0495 44.5596L61.373 22.4338C62.374 21.8554 63.6049 21.8554 64.6059 22.4338L102.929 44.5596C104.275 45.3382 104.275 47.2808 102.929 48.0594L64.6059 70.1852C63.6049 70.7636 62.374 70.7636 61.373 70.1852L23.0495 48.0594C21.7037 47.2808 21.7037 45.3382 23.0495 44.5596Z" fill="#FFC806"/>
<path d="M65.01 121.437V79.7504C65.01 78.5047 66.3558 77.7299 67.4346 78.349L102.929 98.8436C104.275 99.6222 104.275 101.565 102.929 102.343L67.4346 122.838C66.3558 123.461 65.01 122.682 65.01 121.437Z" fill="#0BBFBF"/>
<path d="M231.97 78.3453C231.536 82.0231 230.001 83.506 227.391 83.506C224.154 83.506 222.442 81.263 222.442 76.6102V76.1468H237.108C237.227 74.9641 237.271 73.9483 237.271 72.8657C237.271 65.8587 233.727 61.9252 227.369 61.9252C220.54 61.9252 216.84 66.0589 216.84 73.5627V75.7093C216.84 83.2094 220.517 87.3321 227.206 87.3321C233.037 87.3321 236.556 84.5738 237.382 79.046L231.97 78.349V78.3453ZM227.317 65.7364C230.212 65.7364 231.669 67.6123 231.669 71.6608V72.2874H222.442C222.553 67.9126 224.177 65.7364 227.317 65.7364Z" fill="white"/>
<path d="M124.588 77.5853L130.353 78.3045C129.678 84.2067 126.208 87.3543 120.199 87.3543C113.369 87.3543 109.833 82.9573 109.833 74.5341V74.4377C109.833 66.2035 113.458 61.8955 120.221 61.8955C126.323 61.8955 129.593 65.1395 130.079 71.2678L124.455 71.9389C124.199 67.705 122.898 65.7623 120.199 65.7623C117.095 65.7623 115.635 68.2611 115.635 73.5183V75.4572C115.635 80.87 117.14 83.4467 120.265 83.4467C122.927 83.4467 124.332 81.504 124.588 77.589V77.5853Z" fill="white"/>
<path d="M143.273 61.8918C136.563 61.8918 132.841 66.5669 132.841 74.3673V74.8752C132.841 82.6237 136.567 87.3507 143.273 87.3507C149.98 87.3507 153.706 82.6237 153.706 74.8752V74.3673C153.706 66.5669 149.98 61.8918 143.273 61.8918ZM147.904 75.7057C147.904 80.9628 146.369 83.4616 143.273 83.4616C140.178 83.4616 138.643 80.9628 138.643 75.7057V73.5368C138.643 68.2797 140.144 65.7587 143.273 65.7587C146.403 65.7587 147.904 68.2797 147.904 73.5368V75.7057Z" fill="white"/>
<path d="M347.971 61.8918C341.26 61.8918 337.538 66.5669 337.538 74.3673V74.8752C337.538 82.6237 341.26 87.3507 347.971 87.3507C354.681 87.3507 358.411 82.6237 358.411 74.8752V74.3673C358.411 66.5669 354.678 61.8918 347.971 61.8918ZM352.601 75.7057C352.601 80.9628 351.078 83.4616 347.971 83.4616C344.864 83.4616 343.348 80.9628 343.348 75.7057V73.5368C343.348 68.2797 344.849 65.7587 347.971 65.7587C351.092 65.7587 352.601 68.2797 352.601 73.5368V75.7057Z" fill="white"/>
<path d="M367.123 55.2815H361.477V86.7685H367.123V55.2815Z" fill="white"/>
<path d="M269.103 77.5853L274.868 78.3045C274.193 84.2067 270.727 87.3543 264.713 87.3543C257.884 87.3543 254.348 82.9573 254.348 74.5341V74.4377C254.348 66.2035 257.973 61.8955 264.736 61.8955C270.838 61.8955 274.108 65.1395 274.594 71.2678L268.97 71.9389C268.714 67.705 267.412 65.7623 264.713 65.7623C261.61 65.7623 260.15 68.2611 260.15 73.5183V75.4572C260.15 80.87 261.655 83.4467 264.78 83.4467C267.442 83.4467 268.847 81.504 269.103 77.589V77.5853Z" fill="white"/>
<path d="M389.127 80.2472C389.127 84.6665 385.701 87.3284 379.799 87.3284C373.508 87.3284 369.896 84.5701 369.741 79.6615L375.102 78.5752C375.057 81.745 376.726 83.5283 379.777 83.5283C382.164 83.5283 383.48 82.6014 383.48 80.7774C383.48 78.9534 382.305 78.1377 379.202 76.9847L376.099 75.8021C373.003 74.6194 370.341 72.3542 370.341 68.973C370.341 64.4833 373.467 61.8918 379.135 61.8918C384.804 61.8918 388.363 64.4648 388.385 68.973L383.136 69.8999C383.247 67.0266 381.82 65.755 379.202 65.755C376.915 65.755 375.643 66.6151 375.643 68.1648C375.643 69.7145 376.751 70.7303 379.855 71.8425L382.95 72.9733C386.053 74.1115 389.127 75.8688 389.127 80.2435V80.2472Z" fill="white"/>
<path d="M324.681 61.8918C317.97 61.8918 314.248 66.5669 314.248 74.3673V74.8752C314.248 82.6237 317.97 87.3507 324.681 87.3507C331.391 87.3507 335.121 82.6237 335.121 74.8752V74.3673C335.121 66.5669 331.388 61.8918 324.681 61.8918ZM329.311 75.7057C329.311 80.9628 327.784 83.4616 324.681 83.4616C321.578 83.4616 320.058 80.9628 320.058 75.7057V73.5368C320.058 68.2797 321.559 65.7587 324.681 65.7587C327.803 65.7587 329.311 68.2797 329.311 73.5368V75.7057Z" fill="white"/>
<path d="M309.399 82.8572C310.444 82.8572 311.738 82.5791 312.965 82.049L312.643 86.1716C311.364 86.8427 309.395 87.3024 307.549 87.3024C303.152 87.3024 300.887 85.0816 300.887 80.3176V56.9757L306.533 55.2852V62.4812H312.899V66.5742H306.533V79.6466C306.533 81.9637 307.482 82.8609 309.399 82.8609V82.8572Z" fill="white"/>
<path d="M292.489 78.3453C292.056 82.0231 290.524 83.506 287.911 83.506C284.67 83.506 282.961 81.263 282.961 76.6102V76.1468H297.628C297.747 74.9641 297.791 73.9483 297.791 72.8657C297.791 65.8587 294.247 61.9252 287.888 61.9252C281.059 61.9252 277.359 66.0589 277.359 73.5627V75.7093C277.359 83.2094 281.037 87.3321 287.725 87.3321C293.561 87.3321 297.075 84.5738 297.906 79.046L292.489 78.349V78.3453ZM287.837 65.7364C290.732 65.7364 292.189 67.6123 292.189 71.6608V72.2874H282.961C283.073 67.9126 284.696 65.7364 287.837 65.7364Z" fill="white"/>
<path d="M174.264 68.9285C176.002 64.0866 178.679 61.8918 182.127 61.8918C185.853 61.8918 187.57 64.5538 186.672 68.7876L187.136 68.9285C188.875 64.0866 191.551 61.8918 194.999 61.8918C198.725 61.8918 200.442 64.5538 199.545 68.7876L200.008 68.9285C201.713 64.0681 204.372 61.8918 208.009 61.8918C211.964 61.8918 213.844 64.2535 213.844 68.7654V86.7686H208.198V69.7182C208.198 67.3121 207.271 66.1146 205.417 66.1146C202.596 66.1146 200.976 69.5847 200.976 74.2301V86.7723H195.359V69.7664C195.359 67.4085 194.302 66.1146 192.545 66.1146C189.727 66.1146 188.103 69.5847 188.103 74.2301V86.7723H182.487V69.7664C182.487 67.4085 181.515 66.0849 179.758 66.0849H179.751V66.1183C179.751 66.1183 179.743 66.1183 179.74 66.1183C176.922 66.1183 175.298 69.5884 175.298 74.2338V86.776H169.681V69.7701C169.681 67.4122 168.71 66.0886 166.953 66.0886C164.224 66.0886 162.411 69.4253 162.411 74.3747V86.776H156.765V62.485H162.433C162.485 63.9643 162.203 65.2804 161.139 68.5652L161.603 68.7728C163.779 63.7975 166.022 61.8993 169.329 61.8993C173.055 61.8993 174.768 64.5612 173.871 68.795L174.271 68.9359L174.264 68.9285Z" fill="white"/>
<path d="M253.877 66.8449C247.574 67.2713 246.099 69.3771 246.099 76.1505V86.7686H240.452V62.4776H246.121C246.173 64.1904 245.943 65.4176 244.805 68.6764L245.268 68.884C246.847 65.21 248.683 61.8288 254.277 61.7139L253.877 66.8412V66.8449Z" fill="white"/>
</svg>
